<?xml version="1.0" encoding="us-ascii" standalone="no"?><svg xmlns="http://www.w3.org/2000/svg" xmlns:xlink="http://www.w3.org/1999/xlink" contentStyleType="text/css" height="1111px" preserveAspectRatio="none" style="width:1255px;height:1111px;background:#FFFFFF;" version="1.1" viewBox="0 0 1255 1111" width="1255px" zoomAndPan="magnify"><defs/><g><!--class log_event_severity--><g id="elem_log_event_severity"><rect codeLine="1" fill="#F1F1F1" height="162.0781" id="log_event_severity" rx="2.5" ry="2.5" style="stroke:#181818;stroke-width:0.5;" width="168" x="749" y="800.5"/><ellipse cx="764" cy="816.5" fill="#EB937F" rx="11" ry="11" style="stroke:#181818;stroke-width:1.0;"/><path d="M762.7969,817.375 L764.25,817.375 L764.25,817.4844 C764.25,817.8906 764.2813,818.0469 764.3594,818.2031 C764.5156,818.4531 764.7969,818.6094 765.0938,818.6094 C765.3438,818.6094 765.6094,818.4688 765.7656,818.25 C765.8906,818.0938 765.9219,817.9375 765.9219,817.4844 L765.9219,815.5625 C765.9219,815.4063 765.9219,815.3594 765.9063,815.2031 C765.8438,814.7344 765.5313,814.4219 765.0781,814.4219 C764.8281,814.4219 764.5625,814.5625 764.3906,814.7813 C764.2813,814.9531 764.25,815.1094 764.25,815.5625 L764.25,815.6875 L762.7969,815.6875 L762.7969,813.2813 L766.7813,813.2813 L766.7813,814.1406 C766.7813,814.5469 766.8125,814.7188 766.8906,814.875 C767.0625,815.125 767.3438,815.2813 767.625,815.2813 C767.8906,815.2813 768.1563,815.1406 768.3281,814.9219 C768.4375,814.75 768.4688,814.6094 768.4688,814.1406 L768.4688,811.5938 L760.8438,811.5938 C760.4063,811.5938 760.2813,811.6094 760.125,811.7031 C759.875,811.8594 759.7188,812.1563 759.7188,812.4375 C759.7188,812.7188 759.8594,812.9688 760.0781,813.1406 C760.2344,813.25 760.4219,813.2813 760.8438,813.2813 L761.0938,813.2813 L761.0938,819.7969 L760.8438,819.7969 C760.4375,819.7969 760.2813,819.8125 760.125,819.9219 C759.875,820.0938 759.7188,820.3594 759.7188,820.6563 C759.7188,820.9219 759.8594,821.1719 760.0781,821.3281 C760.2188,821.4531 760.4531,821.5 760.8438,821.5 L768.8438,821.5 L768.8438,818.9219 C768.8438,818.4844 768.8125,818.3438 768.7344,818.1875 C768.5625,817.9375 768.2813,817.7813 768,817.7813 C767.7344,817.7813 767.4688,817.8906 767.2969,818.1406 C767.1875,818.2969 767.1563,818.4375 767.1563,818.9219 L767.1563,819.7969 L762.7969,819.7969 L762.7969,817.375 Z " fill="#000000"/><text fill="#000000" font-family="sans-serif" font-size="14" lengthAdjust="spacing" textLength="136" x="778" y="821.3467">log_event_severity</text><line style="stroke:#181818;stroke-width:0.5;" x1="750" x2="916" y1="832.5" y2="832.5"/><text fill="#000000" font-family="sans-serif" font-size="14" lengthAdjust="spacing" textLength="38" x="755" y="849.4951">trace</text><text fill="#000000" font-family="sans-serif" font-size="14" lengthAdjust="spacing" textLength="45" x="755" y="865.792">debug</text><text fill="#000000" font-family="sans-serif" font-size="14" lengthAdjust="spacing" textLength="29" x="755" y="882.0889">stat</text><text fill="#000000" font-family="sans-serif" font-size="14" lengthAdjust="spacing" textLength="28" x="755" y="898.3857">info</text><text fill="#000000" font-family="sans-serif" font-size="14" lengthAdjust="spacing" textLength="56" x="755" y="914.6826">warning</text><text fill="#000000" font-family="sans-serif" font-size="14" lengthAdjust="spacing" textLength="36" x="755" y="930.9795">error</text><text fill="#000000" font-family="sans-serif" font-size="14" lengthAdjust="spacing" textLength="33" x="755" y="947.2764">fatal</text><line style="stroke:#181818;stroke-width:0.5;" x1="750" x2="916" y1="954.5781" y2="954.5781"/></g><!--class logger_backend--><g id="elem_logger_backend"><rect codeLine="11" fill="#F1F1F1" height="194.6719" id="logger_backend" rx="2.5" ry="2.5" style="stroke:#181818;stroke-width:0.5;" width="177" x="509.5" y="784"/><ellipse cx="538.45" cy="800" fill="#B4A7E5" rx="11" ry="11" style="stroke:#181818;stroke-width:1.0;"/><path d="M539.4031,796.7813 L541.1219,796.7813 C541.5125,796.7813 541.7,796.75 541.825,796.6719 C542.0906,796.5156 542.2313,796.2344 542.2313,795.9375 C542.2313,795.6719 542.1219,795.4063 541.8875,795.2344 C541.7156,795.125 541.575,795.0938 541.1219,795.0938 L535.9813,795.0938 C535.5438,795.0938 535.4188,795.1094 535.2625,795.2031 C535.0125,795.3594 534.8563,795.6563 534.8563,795.9375 C534.8563,796.2188 534.9969,796.4688 535.2156,796.6406 C535.3719,796.75 535.5594,796.7813 535.9813,796.7813 L537.7,796.7813 L537.7,803.2969 L535.9813,803.2969 C535.5438,803.2969 535.4188,803.3125 535.2625,803.4219 C535.0125,803.5781 534.8563,803.8594 534.8563,804.1563 C534.8563,804.4063 534.9969,804.6719 535.2156,804.8281 C535.3719,804.9531 535.575,805 535.9813,805 L541.1219,805 C541.8719,805 542.2313,804.7188 542.2313,804.1563 C542.2313,803.875 542.1219,803.625 541.8875,803.4531 C541.7156,803.3281 541.575,803.2969 541.1219,803.2969 L539.4031,803.2969 L539.4031,796.7813 Z " fill="#000000"/><text fill="#000000" font-family="sans-serif" font-size="14" font-style="italic" lengthAdjust="spacing" textLength="114" x="555.55" y="804.8467">logger_backend</text><line style="stroke:#181818;stroke-width:0.5;" x1="510.5" x2="685.5" y1="816" y2="816"/><line style="stroke:#181818;stroke-width:0.5;" x1="510.5" x2="685.5" y1="824" y2="824"/><ellipse cx="520.5" cy="837.6484" fill="#84BE84" rx="3" ry="3" style="stroke:#038048;stroke-width:1.0;"/><text fill="#000000" font-family="sans-serif" font-size="14" lengthAdjust="spacing" textLength="144" x="529.5" y="840.9951">type_id() : identifier</text><ellipse cx="520.5" cy="853.9453" fill="#84BE84" rx="3" ry="3" style="stroke:#038048;stroke-width:1.0;"/><text fill="#000000" font-family="sans-serif" font-size="14" lengthAdjust="spacing" textLength="122" x="529.5" y="857.292">set_description()</text><ellipse cx="520.5" cy="870.2422" fill="#84BE84" rx="3" ry="3" style="stroke:#038048;stroke-width:1.0;"/><text fill="#000000" font-family="sans-serif" font-size="14" lengthAdjust="spacing" textLength="100" x="529.5" y="873.5889">enter_scope()</text><ellipse cx="520.5" cy="886.5391" fill="#84BE84" rx="3" ry="3" style="stroke:#038048;stroke-width:1.0;"/><text fill="#000000" font-family="sans-serif" font-size="14" lengthAdjust="spacing" textLength="98" x="529.5" y="889.8857">leave_scope()</text><ellipse cx="520.5" cy="902.8359" fill="#84BE84" rx="3" ry="3" style="stroke:#038048;stroke-width:1.0;"/><text fill="#000000" font-family="sans-serif" font-size="14" lengthAdjust="spacing" textLength="151" x="529.5" y="906.1826">log_chart_sample(...)</text><ellipse cx="520.5" cy="919.1328" fill="#84BE84" rx="3" ry="3" style="stroke:#038048;stroke-width:1.0;"/><text fill="#000000" font-family="sans-serif" font-size="14" lengthAdjust="spacing" textLength="136" x="529.5" y="922.4795">begin_message(...)</text><ellipse cx="520.5" cy="935.4297" fill="#84BE84" rx="3" ry="3" style="stroke:#038048;stroke-width:1.0;"/><text fill="#000000" font-family="sans-serif" font-size="14" lengthAdjust="spacing" textLength="128" x="529.5" y="938.7764">add_argument(...)</text><ellipse cx="520.5" cy="951.7266" fill="#84BE84" rx="3" ry="3" style="stroke:#038048;stroke-width:1.0;"/><text fill="#000000" font-family="sans-serif" font-size="14" lengthAdjust="spacing" textLength="134" x="529.5" y="955.0732">finish_message(...)</text><ellipse cx="520.5" cy="968.0234" fill="#84BE84" rx="3" ry="3" style="stroke:#038048;stroke-width:1.0;"/><text fill="#000000" font-family="sans-serif" font-size="14" lengthAdjust="spacing" textLength="78" x="529.5" y="971.3701">finish_log()</text></g><!--class null_log_backend--><g id="elem_null_log_backend"><rect codeLine="23" fill="#F1F1F1" height="48" id="null_log_backend" rx="2.5" ry="2.5" style="stroke:#181818;stroke-width:0.5;" width="155" x="488.5" y="1056"/><ellipse cx="503.5" cy="1072" fill="#ADD1B2" rx="11" ry="11" style="stroke:#181818;stroke-width:1.0;"/><path d="M505.8438,1067.6719 C504.9063,1067.2344 504.3125,1067.0938 503.4375,1067.0938 C500.8125,1067.0938 498.8125,1069.1719 498.8125,1071.8906 L498.8125,1073.0156 C498.8125,1075.5938 500.9219,1077.4844 503.8125,1077.4844 C505.0313,1077.4844 506.1875,1077.1875 506.9375,1076.6406 C507.5156,1076.2344 507.8438,1075.7813 507.8438,1075.3906 C507.8438,1074.9375 507.4531,1074.5469 506.9844,1074.5469 C506.7656,1074.5469 506.5625,1074.625 506.375,1074.8125 C505.9219,1075.2969 505.9219,1075.2969 505.7344,1075.3906 C505.3125,1075.6563 504.625,1075.7813 503.8594,1075.7813 C501.8125,1075.7813 500.5156,1074.6875 500.5156,1072.9844 L500.5156,1071.8906 C500.5156,1070.1094 501.7656,1068.7969 503.5,1068.7969 C504.0781,1068.7969 504.6875,1068.9531 505.1563,1069.2031 C505.6406,1069.4844 505.8125,1069.7031 505.9063,1070.1094 C505.9688,1070.5156 506,1070.6406 506.1406,1070.7656 C506.2813,1070.9063 506.5156,1071.0156 506.7344,1071.0156 C507,1071.0156 507.2656,1070.875 507.4375,1070.6563 C507.5469,1070.5 507.5781,1070.3125 507.5781,1069.8906 L507.5781,1068.4688 C507.5781,1068.0313 507.5625,1067.9063 507.4688,1067.75 C507.3125,1067.4844 507.0313,1067.3438 506.7344,1067.3438 C506.4375,1067.3438 506.2344,1067.4375 506.0156,1067.75 L505.8438,1067.6719 Z " fill="#000000"/><text fill="#000000" font-family="sans-serif" font-size="14" lengthAdjust="spacing" textLength="123" x="517.5" y="1076.8467">null_log_backend</text><line style="stroke:#181818;stroke-width:0.5;" x1="489.5" x2="642.5" y1="1088" y2="1088"/><line style="stroke:#181818;stroke-width:0.5;" x1="489.5" x2="642.5" y1="1096" y2="1096"/></g><!--class syslog_log_backend--><g id="elem_syslog_log_backend"><rect codeLine="26" fill="#F1F1F1" height="48" id="syslog_log_backend" rx="2.5" ry="2.5" style="stroke:#181818;stroke-width:0.5;" width="174" x="679" y="1056"/><ellipse cx="694" cy="1072" fill="#ADD1B2" rx="11" ry="11" style="stroke:#181818;stroke-width:1.0;"/><path d="M696.3438,1067.6719 C695.4063,1067.2344 694.8125,1067.0938 693.9375,1067.0938 C691.3125,1067.0938 689.3125,1069.1719 689.3125,1071.8906 L689.3125,1073.0156 C689.3125,1075.5938 691.4219,1077.4844 694.3125,1077.4844 C695.5313,1077.4844 696.6875,1077.1875 697.4375,1076.6406 C698.0156,1076.2344 698.3438,1075.7813 698.3438,1075.3906 C698.3438,1074.9375 697.9531,1074.5469 697.4844,1074.5469 C697.2656,1074.5469 697.0625,1074.625 696.875,1074.8125 C696.4219,1075.2969 696.4219,1075.2969 696.2344,1075.3906 C695.8125,1075.6563 695.125,1075.7813 694.3594,1075.7813 C692.3125,1075.7813 691.0156,1074.6875 691.0156,1072.9844 L691.0156,1071.8906 C691.0156,1070.1094 692.2656,1068.7969 694,1068.7969 C694.5781,1068.7969 695.1875,1068.9531 695.6563,1069.2031 C696.1406,1069.4844 696.3125,1069.7031 696.4063,1070.1094 C696.4688,1070.5156 696.5,1070.6406 696.6406,1070.7656 C696.7813,1070.9063 697.0156,1071.0156 697.2344,1071.0156 C697.5,1071.0156 697.7656,1070.875 697.9375,1070.6563 C698.0469,1070.5 698.0781,1070.3125 698.0781,1069.8906 L698.0781,1068.4688 C698.0781,1068.0313 698.0625,1067.9063 697.9688,1067.75 C697.8125,1067.4844 697.5313,1067.3438 697.2344,1067.3438 C696.9375,1067.3438 696.7344,1067.4375 696.5156,1067.75 L696.3438,1067.6719 Z " fill="#000000"/><text fill="#000000" font-family="sans-serif" font-size="14" lengthAdjust="spacing" textLength="142" x="708" y="1076.8467">syslog_log_backend</text><line style="stroke:#181818;stroke-width:0.5;" x1="680" x2="852" y1="1088" y2="1088"/><line style="stroke:#181818;stroke-width:0.5;" x1="680" x2="852" y1="1096" y2="1096"/></g><!--class json_log_backend--><g id="elem_json_log_backend"><rect codeLine="29" fill="#F1F1F1" height="48" id="json_log_backend" rx="2.5" ry="2.5" style="stroke:#181818;stroke-width:0.5;" width="159" x="286.5" y="1056"/><ellipse cx="301.5" cy="1072" fill="#ADD1B2" rx="11" ry="11" style="stroke:#181818;stroke-width:1.0;"/><path d="M303.8438,1067.6719 C302.9063,1067.2344 302.3125,1067.0938 301.4375,1067.0938 C298.8125,1067.0938 296.8125,1069.1719 296.8125,1071.8906 L296.8125,1073.0156 C296.8125,1075.5938 298.9219,1077.4844 301.8125,1077.4844 C303.0313,1077.4844 304.1875,1077.1875 304.9375,1076.6406 C305.5156,1076.2344 305.8438,1075.7813 305.8438,1075.3906 C305.8438,1074.9375 305.4531,1074.5469 304.9844,1074.5469 C304.7656,1074.5469 304.5625,1074.625 304.375,1074.8125 C303.9219,1075.2969 303.9219,1075.2969 303.7344,1075.3906 C303.3125,1075.6563 302.625,1075.7813 301.8594,1075.7813 C299.8125,1075.7813 298.5156,1074.6875 298.5156,1072.9844 L298.5156,1071.8906 C298.5156,1070.1094 299.7656,1068.7969 301.5,1068.7969 C302.0781,1068.7969 302.6875,1068.9531 303.1563,1069.2031 C303.6406,1069.4844 303.8125,1069.7031 303.9063,1070.1094 C303.9688,1070.5156 304,1070.6406 304.1406,1070.7656 C304.2813,1070.9063 304.5156,1071.0156 304.7344,1071.0156 C305,1071.0156 305.2656,1070.875 305.4375,1070.6563 C305.5469,1070.5 305.5781,1070.3125 305.5781,1069.8906 L305.5781,1068.4688 C305.5781,1068.0313 305.5625,1067.9063 305.4688,1067.75 C305.3125,1067.4844 305.0313,1067.3438 304.7344,1067.3438 C304.4375,1067.3438 304.2344,1067.4375 304.0156,1067.75 L303.8438,1067.6719 Z " fill="#000000"/><text fill="#000000" font-family="sans-serif" font-size="14" lengthAdjust="spacing" textLength="127" x="315.5" y="1076.8467">json_log_backend</text><line style="stroke:#181818;stroke-width:0.5;" x1="287.5" x2="444.5" y1="1088" y2="1088"/><line style="stroke:#181818;stroke-width:0.5;" x1="287.5" x2="444.5" y1="1096" y2="1096"/></g><!--class proxy_log_backend--><g id="elem_proxy_log_backend"><rect codeLine="32" fill="#F1F1F1" height="56.2656" id="proxy_log_backend" rx="2.5" ry="2.5" style="stroke:#181818;stroke-width:0.5;" width="171" x="478.5" y="590"/><ellipse cx="493.5" cy="610.1328" fill="#ADD1B2" rx="11" ry="11" style="stroke:#181818;stroke-width:1.0;"/><path d="M495.8438,605.8047 C494.9063,605.3672 494.3125,605.2266 493.4375,605.2266 C490.8125,605.2266 488.8125,607.3047 488.8125,610.0234 L488.8125,611.1484 C488.8125,613.7266 490.9219,615.6172 493.8125,615.6172 C495.0313,615.6172 496.1875,615.3203 496.9375,614.7734 C497.5156,614.3672 497.8438,613.9141 497.8438,613.5234 C497.8438,613.0703 497.4531,612.6797 496.9844,612.6797 C496.7656,612.6797 496.5625,612.7578 496.375,612.9453 C495.9219,613.4297 495.9219,613.4297 495.7344,613.5234 C495.3125,613.7891 494.625,613.9141 493.8594,613.9141 C491.8125,613.9141 490.5156,612.8203 490.5156,611.1172 L490.5156,610.0234 C490.5156,608.2422 491.7656,606.9297 493.5,606.9297 C494.0781,606.9297 494.6875,607.0859 495.1563,607.3359 C495.6406,607.6172 495.8125,607.8359 495.9063,608.2422 C495.9688,608.6484 496,608.7734 496.1406,608.8984 C496.2813,609.0391 496.5156,609.1484 496.7344,609.1484 C497,609.1484 497.2656,609.0078 497.4375,608.7891 C497.5469,608.6328 497.5781,608.4453 497.5781,608.0234 L497.5781,606.6016 C497.5781,606.1641 497.5625,606.0391 497.4688,605.8828 C497.3125,605.6172 497.0313,605.4766 496.7344,605.4766 C496.4375,605.4766 496.2344,605.5703 496.0156,605.8828 L495.8438,605.8047 Z " fill="#000000"/><text fill="#000000" font-family="sans-serif" font-size="12" font-style="italic" lengthAdjust="spacing" textLength="47" x="553.5" y="606.1387">&#171;Proxy&#187;</text><text fill="#000000" font-family="sans-serif" font-size="14" lengthAdjust="spacing" textLength="139" x="507.5" y="621.9639">proxy_log_backend</text><line style="stroke:#181818;stroke-width:0.5;" x1="479.5" x2="648.5" y1="630.2656" y2="630.2656"/><line style="stroke:#181818;stroke-width:0.5;" x1="479.5" x2="648.5" y1="638.2656" y2="638.2656"/></g><!--class log_output_stream--><g id="elem_log_output_stream"><rect codeLine="35" fill="#F1F1F1" height="80.5938" id="log_output_stream" rx="2.5" ry="2.5" style="stroke:#181818;stroke-width:0.5;" width="164" x="260" y="841"/><ellipse cx="275" cy="857" fill="#B4A7E5" rx="11" ry="11" style="stroke:#181818;stroke-width:1.0;"/><path d="M275.9531,853.7813 L277.6719,853.7813 C278.0625,853.7813 278.25,853.75 278.375,853.6719 C278.6406,853.5156 278.7813,853.2344 278.7813,852.9375 C278.7813,852.6719 278.6719,852.4063 278.4375,852.2344 C278.2656,852.125 278.125,852.0938 277.6719,852.0938 L272.5313,852.0938 C272.0938,852.0938 271.9688,852.1094 271.8125,852.2031 C271.5625,852.3594 271.4063,852.6563 271.4063,852.9375 C271.4063,853.2188 271.5469,853.4688 271.7656,853.6406 C271.9219,853.75 272.1094,853.7813 272.5313,853.7813 L274.25,853.7813 L274.25,860.2969 L272.5313,860.2969 C272.0938,860.2969 271.9688,860.3125 271.8125,860.4219 C271.5625,860.5781 271.4063,860.8594 271.4063,861.1563 C271.4063,861.4063 271.5469,861.6719 271.7656,861.8281 C271.9219,861.9531 272.125,862 272.5313,862 L277.6719,862 C278.4219,862 278.7813,861.7188 278.7813,861.1563 C278.7813,860.875 278.6719,860.625 278.4375,860.4531 C278.2656,860.3281 278.125,860.2969 277.6719,860.2969 L275.9531,860.2969 L275.9531,853.7813 Z " fill="#000000"/><text fill="#000000" font-family="sans-serif" font-size="14" font-style="italic" lengthAdjust="spacing" textLength="132" x="289" y="861.8467">log_output_stream</text><line style="stroke:#181818;stroke-width:0.5;" x1="261" x2="423" y1="873" y2="873"/><line style="stroke:#181818;stroke-width:0.5;" x1="261" x2="423" y1="881" y2="881"/><ellipse cx="271" cy="894.6484" fill="#84BE84" rx="3" ry="3" style="stroke:#038048;stroke-width:1.0;"/><text fill="#000000" font-family="sans-serif" font-size="14" lengthAdjust="spacing" textLength="87" x="280" y="897.9951">write(block)</text><ellipse cx="271" cy="910.9453" fill="#84BE84" rx="3" ry="3" style="stroke:#038048;stroke-width:1.0;"/><text fill="#000000" font-family="sans-serif" font-size="14" lengthAdjust="spacing" textLength="44" x="280" y="914.292">flush()</text></g><!--class std_log_output_stream--><g id="elem_std_log_output_stream"><rect codeLine="40" fill="#F1F1F1" height="80.5938" id="std_log_output_stream" rx="2.5" ry="2.5" style="stroke:#181818;stroke-width:0.5;" width="198" x="7" y="577.5"/><ellipse cx="22" cy="593.5" fill="#ADD1B2" rx="11" ry="11" style="stroke:#181818;stroke-width:1.0;"/><path d="M24.3438,589.1719 C23.4063,588.7344 22.8125,588.5938 21.9375,588.5938 C19.3125,588.5938 17.3125,590.6719 17.3125,593.3906 L17.3125,594.5156 C17.3125,597.0938 19.4219,598.9844 22.3125,598.9844 C23.5313,598.9844 24.6875,598.6875 25.4375,598.1406 C26.0156,597.7344 26.3438,597.2813 26.3438,596.8906 C26.3438,596.4375 25.9531,596.0469 25.4844,596.0469 C25.2656,596.0469 25.0625,596.125 24.875,596.3125 C24.4219,596.7969 24.4219,596.7969 24.2344,596.8906 C23.8125,597.1563 23.125,597.2813 22.3594,597.2813 C20.3125,597.2813 19.0156,596.1875 19.0156,594.4844 L19.0156,593.3906 C19.0156,591.6094 20.2656,590.2969 22,590.2969 C22.5781,590.2969 23.1875,590.4531 23.6563,590.7031 C24.1406,590.9844 24.3125,591.2031 24.4063,591.6094 C24.4688,592.0156 24.5,592.1406 24.6406,592.2656 C24.7813,592.4063 25.0156,592.5156 25.2344,592.5156 C25.5,592.5156 25.7656,592.375 25.9375,592.1563 C26.0469,592 26.0781,591.8125 26.0781,591.3906 L26.0781,589.9688 C26.0781,589.5313 26.0625,589.4063 25.9688,589.25 C25.8125,588.9844 25.5313,588.8438 25.2344,588.8438 C24.9375,588.8438 24.7344,588.9375 24.5156,589.25 L24.3438,589.1719 Z " fill="#000000"/><text fill="#000000" font-family="sans-serif" font-size="14" lengthAdjust="spacing" textLength="166" x="36" y="598.3467">std_log_output_stream</text><line style="stroke:#181818;stroke-width:0.5;" x1="8" x2="204" y1="609.5" y2="609.5"/><line style="stroke:#181818;stroke-width:0.5;" x1="8" x2="204" y1="617.5" y2="617.5"/><ellipse cx="18" cy="631.1484" fill="#84BE84" rx="3" ry="3" style="stroke:#038048;stroke-width:1.0;"/><text fill="#000000" font-family="sans-serif" font-size="14" lengthAdjust="spacing" textLength="87" x="27" y="634.4951">write(block)</text><ellipse cx="18" cy="647.4453" fill="#84BE84" rx="3" ry="3" style="stroke:#038048;stroke-width:1.0;"/><text fill="#000000" font-family="sans-serif" font-size="14" lengthAdjust="spacing" textLength="44" x="27" y="650.792">flush()</text></g><!--class asio_log_output_stream--><g id="elem_asio_log_output_stream"><rect codeLine="45" fill="#F1F1F1" height="80.5938" id="asio_log_output_stream" rx="2.5" ry="2.5" style="stroke:#181818;stroke-width:0.5;" width="203" x="240.5" y="577.5"/><ellipse cx="255.5" cy="593.5" fill="#ADD1B2" rx="11" ry="11" style="stroke:#181818;stroke-width:1.0;"/><path d="M257.8438,589.1719 C256.9063,588.7344 256.3125,588.5938 255.4375,588.5938 C252.8125,588.5938 250.8125,590.6719 250.8125,593.3906 L250.8125,594.5156 C250.8125,597.0938 252.9219,598.9844 255.8125,598.9844 C257.0313,598.9844 258.1875,598.6875 258.9375,598.1406 C259.5156,597.7344 259.8438,597.2813 259.8438,596.8906 C259.8438,596.4375 259.4531,596.0469 258.9844,596.0469 C258.7656,596.0469 258.5625,596.125 258.375,596.3125 C257.9219,596.7969 257.9219,596.7969 257.7344,596.8906 C257.3125,597.1563 256.625,597.2813 255.8594,597.2813 C253.8125,597.2813 252.5156,596.1875 252.5156,594.4844 L252.5156,593.3906 C252.5156,591.6094 253.7656,590.2969 255.5,590.2969 C256.0781,590.2969 256.6875,590.4531 257.1563,590.7031 C257.6406,590.9844 257.8125,591.2031 257.9063,591.6094 C257.9688,592.0156 258,592.1406 258.1406,592.2656 C258.2813,592.4063 258.5156,592.5156 258.7344,592.5156 C259,592.5156 259.2656,592.375 259.4375,592.1563 C259.5469,592 259.5781,591.8125 259.5781,591.3906 L259.5781,589.9688 C259.5781,589.5313 259.5625,589.4063 259.4688,589.25 C259.3125,588.9844 259.0313,588.8438 258.7344,588.8438 C258.4375,588.8438 258.2344,588.9375 258.0156,589.25 L257.8438,589.1719 Z " fill="#000000"/><text fill="#000000" font-family="sans-serif" font-size="14" lengthAdjust="spacing" textLength="171" x="269.5" y="598.3467">asio_log_output_stream</text><line style="stroke:#181818;stroke-width:0.5;" x1="241.5" x2="442.5" y1="609.5" y2="609.5"/><line style="stroke:#181818;stroke-width:0.5;" x1="241.5" x2="442.5" y1="617.5" y2="617.5"/><ellipse cx="251.5" cy="631.1484" fill="#84BE84" rx="3" ry="3" style="stroke:#038048;stroke-width:1.0;"/><text fill="#000000" font-family="sans-serif" font-size="14" lengthAdjust="spacing" textLength="87" x="260.5" y="634.4951">write(block)</text><ellipse cx="251.5" cy="647.4453" fill="#84BE84" rx="3" ry="3" style="stroke:#038048;stroke-width:1.0;"/><text fill="#000000" font-family="sans-serif" font-size="14" lengthAdjust="spacing" textLength="44" x="260.5" y="650.792">flush()</text></g><!--class log_entry--><g id="elem_log_entry"><rect codeLine="50" fill="#F1F1F1" height="80.5938" id="log_entry" rx="2.5" ry="2.5" style="stroke:#181818;stroke-width:0.5;" width="131" x="757.5" y="577.5"/><ellipse cx="786.45" cy="593.5" fill="#ADD1B2" rx="11" ry="11" style="stroke:#181818;stroke-width:1.0;"/><path d="M788.7938,589.1719 C787.8563,588.7344 787.2625,588.5938 786.3875,588.5938 C783.7625,588.5938 781.7625,590.6719 781.7625,593.3906 L781.7625,594.5156 C781.7625,597.0938 783.8719,598.9844 786.7625,598.9844 C787.9813,598.9844 789.1375,598.6875 789.8875,598.1406 C790.4656,597.7344 790.7938,597.2813 790.7938,596.8906 C790.7938,596.4375 790.4031,596.0469 789.9344,596.0469 C789.7156,596.0469 789.5125,596.125 789.325,596.3125 C788.8719,596.7969 788.8719,596.7969 788.6844,596.8906 C788.2625,597.1563 787.575,597.2813 786.8094,597.2813 C784.7625,597.2813 783.4656,596.1875 783.4656,594.4844 L783.4656,593.3906 C783.4656,591.6094 784.7156,590.2969 786.45,590.2969 C787.0281,590.2969 787.6375,590.4531 788.1063,590.7031 C788.5906,590.9844 788.7625,591.2031 788.8563,591.6094 C788.9188,592.0156 788.95,592.1406 789.0906,592.2656 C789.2313,592.4063 789.4656,592.5156 789.6844,592.5156 C789.95,592.5156 790.2156,592.375 790.3875,592.1563 C790.4969,592 790.5281,591.8125 790.5281,591.3906 L790.5281,589.9688 C790.5281,589.5313 790.5125,589.4063 790.4188,589.25 C790.2625,588.9844 789.9813,588.8438 789.6844,588.8438 C789.3875,588.8438 789.1844,588.9375 788.9656,589.25 L788.7938,589.1719 Z " fill="#000000"/><text fill="#000000" font-family="sans-serif" font-size="14" lengthAdjust="spacing" textLength="68" x="803.55" y="598.3467">log_entry</text><line style="stroke:#181818;stroke-width:0.5;" x1="758.5" x2="887.5" y1="609.5" y2="609.5"/><line style="stroke:#181818;stroke-width:0.5;" x1="758.5" x2="887.5" y1="617.5" y2="617.5"/><ellipse cx="768.5" cy="631.1484" fill="#84BE84" rx="3" ry="3" style="stroke:#038048;stroke-width:1.0;"/><text fill="#000000" font-family="sans-serif" font-size="14" lengthAdjust="spacing" textLength="105" x="777.5" y="634.4951">set_format(...)</text><ellipse cx="768.5" cy="647.4453" fill="#84BE84" rx="3" ry="3" style="stroke:#038048;stroke-width:1.0;"/><text fill="#000000" font-family="sans-serif" font-size="14" lengthAdjust="spacing" textLength="48" x="777.5" y="650.792">arg(...)</text></g><!--class basic_logger--><g id="elem_basic_logger"><rect codeLine="55" fill="#F1F1F1" height="96.8906" id="basic_logger" rx="2.5" ry="2.5" style="stroke:#181818;stroke-width:0.5;" width="197" x="724.5" y="355"/><ellipse cx="773.75" cy="371" fill="#ADD1B2" rx="11" ry="11" style="stroke:#181818;stroke-width:1.0;"/><path d="M776.0938,366.6719 C775.1563,366.2344 774.5625,366.0938 773.6875,366.0938 C771.0625,366.0938 769.0625,368.1719 769.0625,370.8906 L769.0625,372.0156 C769.0625,374.5938 771.1719,376.4844 774.0625,376.4844 C775.2813,376.4844 776.4375,376.1875 777.1875,375.6406 C777.7656,375.2344 778.0938,374.7813 778.0938,374.3906 C778.0938,373.9375 777.7031,373.5469 777.2344,373.5469 C777.0156,373.5469 776.8125,373.625 776.625,373.8125 C776.1719,374.2969 776.1719,374.2969 775.9844,374.3906 C775.5625,374.6563 774.875,374.7813 774.1094,374.7813 C772.0625,374.7813 770.7656,373.6875 770.7656,371.9844 L770.7656,370.8906 C770.7656,369.1094 772.0156,367.7969 773.75,367.7969 C774.3281,367.7969 774.9375,367.9531 775.4063,368.2031 C775.8906,368.4844 776.0625,368.7031 776.1563,369.1094 C776.2188,369.5156 776.25,369.6406 776.3906,369.7656 C776.5313,369.9063 776.7656,370.0156 776.9844,370.0156 C777.25,370.0156 777.5156,369.875 777.6875,369.6563 C777.7969,369.5 777.8281,369.3125 777.8281,368.8906 L777.8281,367.4688 C777.8281,367.0313 777.8125,366.9063 777.7188,366.75 C777.5625,366.4844 777.2813,366.3438 776.9844,366.3438 C776.6875,366.3438 776.4844,366.4375 776.2656,366.75 L776.0938,366.6719 Z " fill="#000000"/><text fill="#000000" font-family="sans-serif" font-size="14" lengthAdjust="spacing" textLength="90" x="794.25" y="375.8467">basic_logger</text><line style="stroke:#181818;stroke-width:0.5;" x1="725.5" x2="920.5" y1="387" y2="387"/><line style="stroke:#181818;stroke-width:0.5;" x1="725.5" x2="920.5" y1="395" y2="395"/><ellipse cx="735.5" cy="408.6484" fill="#84BE84" rx="3" ry="3" style="stroke:#038048;stroke-width:1.0;"/><text fill="#000000" font-family="sans-serif" font-size="14" lengthAdjust="spacing" textLength="171" x="744.5" y="411.9951">instance_id() : identifier</text><ellipse cx="735.5" cy="424.9453" fill="#84BE84" rx="3" ry="3" style="stroke:#038048;stroke-width:1.0;"/><text fill="#000000" font-family="sans-serif" font-size="14" lengthAdjust="spacing" textLength="72" x="744.5" y="428.292">backend()</text><ellipse cx="735.5" cy="441.2422" fill="#84BE84" rx="3" ry="3" style="stroke:#038048;stroke-width:1.0;"/><text fill="#000000" font-family="sans-serif" font-size="14" lengthAdjust="spacing" textLength="125" x="744.5" y="444.5889">make_log_entry()</text></g><!--class logger--><g id="elem_logger"><rect codeLine="61" fill="#F1F1F1" height="162.0781" id="logger" rx="2.5" ry="2.5" style="stroke:#181818;stroke-width:0.5;" width="92" x="777" y="132"/><ellipse cx="798.3" cy="148" fill="#ADD1B2" rx="11" ry="11" style="stroke:#181818;stroke-width:1.0;"/><path d="M800.6438,143.6719 C799.7063,143.2344 799.1125,143.0938 798.2375,143.0938 C795.6125,143.0938 793.6125,145.1719 793.6125,147.8906 L793.6125,149.0156 C793.6125,151.5938 795.7219,153.4844 798.6125,153.4844 C799.8313,153.4844 800.9875,153.1875 801.7375,152.6406 C802.3156,152.2344 802.6438,151.7813 802.6438,151.3906 C802.6438,150.9375 802.2531,150.5469 801.7844,150.5469 C801.5656,150.5469 801.3625,150.625 801.175,150.8125 C800.7219,151.2969 800.7219,151.2969 800.5344,151.3906 C800.1125,151.6563 799.425,151.7813 798.6594,151.7813 C796.6125,151.7813 795.3156,150.6875 795.3156,148.9844 L795.3156,147.8906 C795.3156,146.1094 796.5656,144.7969 798.3,144.7969 C798.8781,144.7969 799.4875,144.9531 799.9563,145.2031 C800.4406,145.4844 800.6125,145.7031 800.7063,146.1094 C800.7688,146.5156 800.8,146.6406 800.9406,146.7656 C801.0813,146.9063 801.3156,147.0156 801.5344,147.0156 C801.8,147.0156 802.0656,146.875 802.2375,146.6563 C802.3469,146.5 802.3781,146.3125 802.3781,145.8906 L802.3781,144.4688 C802.3781,144.0313 802.3625,143.9063 802.2688,143.75 C802.1125,143.4844 801.8313,143.3438 801.5344,143.3438 C801.2375,143.3438 801.0344,143.4375 800.8156,143.75 L800.6438,143.6719 Z " fill="#000000"/><text fill="#000000" font-family="sans-serif" font-size="14" lengthAdjust="spacing" textLength="46" x="813.7" y="152.8467">logger</text><line style="stroke:#181818;stroke-width:0.5;" x1="778" x2="868" y1="164" y2="164"/><line style="stroke:#181818;stroke-width:0.5;" x1="778" x2="868" y1="172" y2="172"/><ellipse cx="788" cy="185.6484" fill="#84BE84" rx="3" ry="3" style="stroke:#038048;stroke-width:1.0;"/><text fill="#000000" font-family="sans-serif" font-size="14" lengthAdjust="spacing" textLength="32" x="797" y="188.9951">log()</text><ellipse cx="788" cy="201.9453" fill="#84BE84" rx="3" ry="3" style="stroke:#038048;stroke-width:1.0;"/><text fill="#000000" font-family="sans-serif" font-size="14" lengthAdjust="spacing" textLength="46" x="797" y="205.292">error()</text><ellipse cx="788" cy="218.2422" fill="#84BE84" rx="3" ry="3" style="stroke:#038048;stroke-width:1.0;"/><text fill="#000000" font-family="sans-serif" font-size="14" lengthAdjust="spacing" textLength="66" x="797" y="221.5889">warning()</text><ellipse cx="788" cy="234.5391" fill="#84BE84" rx="3" ry="3" style="stroke:#038048;stroke-width:1.0;"/><text fill="#000000" font-family="sans-serif" font-size="14" lengthAdjust="spacing" textLength="38" x="797" y="237.8857">info()</text><ellipse cx="788" cy="250.8359" fill="#84BE84" rx="3" ry="3" style="stroke:#038048;stroke-width:1.0;"/><text fill="#000000" font-family="sans-serif" font-size="14" lengthAdjust="spacing" textLength="39" x="797" y="254.1826">stat()</text><ellipse cx="788" cy="267.1328" fill="#84BE84" rx="3" ry="3" style="stroke:#038048;stroke-width:1.0;"/><text fill="#000000" font-family="sans-serif" font-size="14" lengthAdjust="spacing" textLength="55" x="797" y="270.4795">debug()</text><ellipse cx="788" cy="283.4297" fill="#84BE84" rx="3" ry="3" style="stroke:#038048;stroke-width:1.0;"/><text fill="#000000" font-family="sans-serif" font-size="14" lengthAdjust="spacing" textLength="48" x="797" y="286.7764">trace()</text></g><!--class named_logging_object--><g id="elem_named_logging_object"><rect codeLine="71" fill="#F1F1F1" height="178.375" id="named_logging_object" rx="2.5" ry="2.5" style="stroke:#181818;stroke-width:0.5;" width="195" x="927.5" y="529"/><ellipse cx="942.5" cy="545" fill="#ADD1B2" rx="11" ry="11" style="stroke:#181818;stroke-width:1.0;"/><path d="M944.8438,540.6719 C943.9063,540.2344 943.3125,540.0938 942.4375,540.0938 C939.8125,540.0938 937.8125,542.1719 937.8125,544.8906 L937.8125,546.0156 C937.8125,548.5938 939.9219,550.4844 942.8125,550.4844 C944.0313,550.4844 945.1875,550.1875 945.9375,549.6406 C946.5156,549.2344 946.8438,548.7813 946.8438,548.3906 C946.8438,547.9375 946.4531,547.5469 945.9844,547.5469 C945.7656,547.5469 945.5625,547.625 945.375,547.8125 C944.9219,548.2969 944.9219,548.2969 944.7344,548.3906 C944.3125,548.6563 943.625,548.7813 942.8594,548.7813 C940.8125,548.7813 939.5156,547.6875 939.5156,545.9844 L939.5156,544.8906 C939.5156,543.1094 940.7656,541.7969 942.5,541.7969 C943.0781,541.7969 943.6875,541.9531 944.1563,542.2031 C944.6406,542.4844 944.8125,542.7031 944.9063,543.1094 C944.9688,543.5156 945,543.6406 945.1406,543.7656 C945.2813,543.9063 945.5156,544.0156 945.7344,544.0156 C946,544.0156 946.2656,543.875 946.4375,543.6563 C946.5469,543.5 946.5781,543.3125 946.5781,542.8906 L946.5781,541.4688 C946.5781,541.0313 946.5625,540.9063 946.4688,540.75 C946.3125,540.4844 946.0313,540.3438 945.7344,540.3438 C945.4375,540.3438 945.2344,540.4375 945.0156,540.75 L944.8438,540.6719 Z " fill="#000000"/><text fill="#000000" font-family="sans-serif" font-size="14" lengthAdjust="spacing" textLength="163" x="956.5" y="549.8467">named_logging_object</text><line style="stroke:#181818;stroke-width:0.5;" x1="928.5" x2="1121.5" y1="561" y2="561"/><line style="stroke:#181818;stroke-width:0.5;" x1="928.5" x2="1121.5" y1="569" y2="569"/><ellipse cx="938.5" cy="582.6484" fill="#84BE84" rx="3" ry="3" style="stroke:#038048;stroke-width:1.0;"/><text fill="#000000" font-family="sans-serif" font-size="14" lengthAdjust="spacing" textLength="32" x="947.5" y="585.9951">log()</text><ellipse cx="938.5" cy="598.9453" fill="#84BE84" rx="3" ry="3" style="stroke:#038048;stroke-width:1.0;"/><text fill="#000000" font-family="sans-serif" font-size="14" lengthAdjust="spacing" textLength="72" x="947.5" y="602.292">log_fatal()</text><ellipse cx="938.5" cy="615.2422" fill="#84BE84" rx="3" ry="3" style="stroke:#038048;stroke-width:1.0;"/><text fill="#000000" font-family="sans-serif" font-size="14" lengthAdjust="spacing" textLength="75" x="947.5" y="618.5889">log_error()</text><ellipse cx="938.5" cy="631.5391" fill="#84BE84" rx="3" ry="3" style="stroke:#038048;stroke-width:1.0;"/><text fill="#000000" font-family="sans-serif" font-size="14" lengthAdjust="spacing" textLength="95" x="947.5" y="634.8857">log_warning()</text><ellipse cx="938.5" cy="647.8359" fill="#84BE84" rx="3" ry="3" style="stroke:#038048;stroke-width:1.0;"/><text fill="#000000" font-family="sans-serif" font-size="14" lengthAdjust="spacing" textLength="67" x="947.5" y="651.1826">log_info()</text><ellipse cx="938.5" cy="664.1328" fill="#84BE84" rx="3" ry="3" style="stroke:#038048;stroke-width:1.0;"/><text fill="#000000" font-family="sans-serif" font-size="14" lengthAdjust="spacing" textLength="68" x="947.5" y="667.4795">log_stat()</text><ellipse cx="938.5" cy="680.4297" fill="#84BE84" rx="3" ry="3" style="stroke:#038048;stroke-width:1.0;"/><text fill="#000000" font-family="sans-serif" font-size="14" lengthAdjust="spacing" textLength="84" x="947.5" y="683.7764">log_debug()</text><ellipse cx="938.5" cy="696.7266" fill="#84BE84" rx="3" ry="3" style="stroke:#038048;stroke-width:1.0;"/><text fill="#000000" font-family="sans-serif" font-size="14" lengthAdjust="spacing" textLength="77" x="947.5" y="700.0732">log_trace()</text></g><!--class root_logger--><g id="elem_root_logger"><rect codeLine="82" fill="#F1F1F1" height="48" id="root_logger" rx="2.5" ry="2.5" style="stroke:#181818;stroke-width:0.5;" width="116" x="935" y="7"/><ellipse cx="950" cy="23" fill="#ADD1B2" rx="11" ry="11" style="stroke:#181818;stroke-width:1.0;"/><path d="M952.3438,18.6719 C951.4063,18.2344 950.8125,18.0938 949.9375,18.0938 C947.3125,18.0938 945.3125,20.1719 945.3125,22.8906 L945.3125,24.0156 C945.3125,26.5938 947.4219,28.4844 950.3125,28.4844 C951.5313,28.4844 952.6875,28.1875 953.4375,27.6406 C954.0156,27.2344 954.3438,26.7813 954.3438,26.3906 C954.3438,25.9375 953.9531,25.5469 953.4844,25.5469 C953.2656,25.5469 953.0625,25.625 952.875,25.8125 C952.4219,26.2969 952.4219,26.2969 952.2344,26.3906 C951.8125,26.6563 951.125,26.7813 950.3594,26.7813 C948.3125,26.7813 947.0156,25.6875 947.0156,23.9844 L947.0156,22.8906 C947.0156,21.1094 948.2656,19.7969 950,19.7969 C950.5781,19.7969 951.1875,19.9531 951.6563,20.2031 C952.1406,20.4844 952.3125,20.7031 952.4063,21.1094 C952.4688,21.5156 952.5,21.6406 952.6406,21.7656 C952.7813,21.9063 953.0156,22.0156 953.2344,22.0156 C953.5,22.0156 953.7656,21.875 953.9375,21.6563 C954.0469,21.5 954.0781,21.3125 954.0781,20.8906 L954.0781,19.4688 C954.0781,19.0313 954.0625,18.9063 953.9688,18.75 C953.8125,18.4844 953.5313,18.3438 953.2344,18.3438 C952.9375,18.3438 952.7344,18.4375 952.5156,18.75 L952.3438,18.6719 Z " fill="#000000"/><text fill="#000000" font-family="sans-serif" font-size="14" lengthAdjust="spacing" textLength="84" x="964" y="27.8467">root_logger</text><line style="stroke:#181818;stroke-width:0.5;" x1="936" x2="1050" y1="39" y2="39"/><line style="stroke:#181818;stroke-width:0.5;" x1="936" x2="1050" y1="47" y2="47"/></g><!--class root_logger_options--><g id="elem_root_logger_options"><rect codeLine="85" fill="#F1F1F1" height="48" id="root_logger_options" rx="2.5" ry="2.5" style="stroke:#181818;stroke-width:0.5;" width="178" x="904" y="189"/><ellipse cx="919" cy="205" fill="#ADD1B2" rx="11" ry="11" style="stroke:#181818;stroke-width:1.0;"/><path d="M921.3438,200.6719 C920.4063,200.2344 919.8125,200.0938 918.9375,200.0938 C916.3125,200.0938 914.3125,202.1719 914.3125,204.8906 L914.3125,206.0156 C914.3125,208.5938 916.4219,210.4844 919.3125,210.4844 C920.5313,210.4844 921.6875,210.1875 922.4375,209.6406 C923.0156,209.2344 923.3438,208.7813 923.3438,208.3906 C923.3438,207.9375 922.9531,207.5469 922.4844,207.5469 C922.2656,207.5469 922.0625,207.625 921.875,207.8125 C921.4219,208.2969 921.4219,208.2969 921.2344,208.3906 C920.8125,208.6563 920.125,208.7813 919.3594,208.7813 C917.3125,208.7813 916.0156,207.6875 916.0156,205.9844 L916.0156,204.8906 C916.0156,203.1094 917.2656,201.7969 919,201.7969 C919.5781,201.7969 920.1875,201.9531 920.6563,202.2031 C921.1406,202.4844 921.3125,202.7031 921.4063,203.1094 C921.4688,203.5156 921.5,203.6406 921.6406,203.7656 C921.7813,203.9063 922.0156,204.0156 922.2344,204.0156 C922.5,204.0156 922.7656,203.875 922.9375,203.6563 C923.0469,203.5 923.0781,203.3125 923.0781,202.8906 L923.0781,201.4688 C923.0781,201.0313 923.0625,200.9063 922.9688,200.75 C922.8125,200.4844 922.5313,200.3438 922.2344,200.3438 C921.9375,200.3438 921.7344,200.4375 921.5156,200.75 L921.3438,200.6719 Z " fill="#000000"/><text fill="#000000" font-family="sans-serif" font-size="14" lengthAdjust="spacing" textLength="146" x="933" y="209.8467">root_logger_options</text><line style="stroke:#181818;stroke-width:0.5;" x1="905" x2="1081" y1="221" y2="221"/><line style="stroke:#181818;stroke-width:0.5;" x1="905" x2="1081" y1="229" y2="229"/></g><!--class program_args--><g id="elem_program_args"><rect codeLine="88" fill="#F1F1F1" height="96.8906" id="program_args" rx="2.5" ry="2.5" style="stroke:#181818;stroke-width:0.5;" width="131" x="1117.5" y="164.5"/><ellipse cx="1132.5" cy="180.5" fill="#ADD1B2" rx="11" ry="11" style="stroke:#181818;stroke-width:1.0;"/><path d="M1134.8438,176.1719 C1133.9063,175.7344 1133.3125,175.5938 1132.4375,175.5938 C1129.8125,175.5938 1127.8125,177.6719 1127.8125,180.3906 L1127.8125,181.5156 C1127.8125,184.0938 1129.9219,185.9844 1132.8125,185.9844 C1134.0313,185.9844 1135.1875,185.6875 1135.9375,185.1406 C1136.5156,184.7344 1136.8438,184.2813 1136.8438,183.8906 C1136.8438,183.4375 1136.4531,183.0469 1135.9844,183.0469 C1135.7656,183.0469 1135.5625,183.125 1135.375,183.3125 C1134.9219,183.7969 1134.9219,183.7969 1134.7344,183.8906 C1134.3125,184.1563 1133.625,184.2813 1132.8594,184.2813 C1130.8125,184.2813 1129.5156,183.1875 1129.5156,181.4844 L1129.5156,180.3906 C1129.5156,178.6094 1130.7656,177.2969 1132.5,177.2969 C1133.0781,177.2969 1133.6875,177.4531 1134.1563,177.7031 C1134.6406,177.9844 1134.8125,178.2031 1134.9063,178.6094 C1134.9688,179.0156 1135,179.1406 1135.1406,179.2656 C1135.2813,179.4063 1135.5156,179.5156 1135.7344,179.5156 C1136,179.5156 1136.2656,179.375 1136.4375,179.1563 C1136.5469,179 1136.5781,178.8125 1136.5781,178.3906 L1136.5781,176.9688 C1136.5781,176.5313 1136.5625,176.4063 1136.4688,176.25 C1136.3125,175.9844 1136.0313,175.8438 1135.7344,175.8438 C1135.4375,175.8438 1135.2344,175.9375 1135.0156,176.25 L1134.8438,176.1719 Z " fill="#000000"/><text fill="#000000" font-family="sans-serif" font-size="14" lengthAdjust="spacing" textLength="99" x="1146.5" y="185.3467">program_args</text><line style="stroke:#181818;stroke-width:0.5;" x1="1118.5" x2="1247.5" y1="196.5" y2="196.5"/><line style="stroke:#181818;stroke-width:0.5;" x1="1118.5" x2="1247.5" y1="204.5" y2="204.5"/><ellipse cx="1128.5" cy="218.1484" fill="#84BE84" rx="3" ry="3" style="stroke:#038048;stroke-width:1.0;"/><text fill="#000000" font-family="sans-serif" font-size="14" lengthAdjust="spacing" textLength="51" x="1137.5" y="221.4951">begin()</text><ellipse cx="1128.5" cy="234.4453" fill="#84BE84" rx="3" ry="3" style="stroke:#038048;stroke-width:1.0;"/><text fill="#000000" font-family="sans-serif" font-size="14" lengthAdjust="spacing" textLength="37" x="1137.5" y="237.792">end()</text><ellipse cx="1128.5" cy="250.7422" fill="#84BE84" rx="3" ry="3" style="stroke:#038048;stroke-width:1.0;"/><text fill="#000000" font-family="sans-serif" font-size="14" lengthAdjust="spacing" textLength="38" x="1137.5" y="254.0889">find()</text></g><!--class main_ctx_object--><g id="elem_main_ctx_object"><rect codeLine="94" fill="#F1F1F1" height="48" id="main_ctx_object" rx="2.5" ry="2.5" style="stroke:#181818;stroke-width:0.5;" width="151" x="952.5" y="857.5"/><ellipse cx="967.5" cy="873.5" fill="#ADD1B2" rx="11" ry="11" style="stroke:#181818;stroke-width:1.0;"/><path d="M969.8438,869.1719 C968.9063,868.7344 968.3125,868.5938 967.4375,868.5938 C964.8125,868.5938 962.8125,870.6719 962.8125,873.3906 L962.8125,874.5156 C962.8125,877.0938 964.9219,878.9844 967.8125,878.9844 C969.0313,878.9844 970.1875,878.6875 970.9375,878.1406 C971.5156,877.7344 971.8438,877.2813 971.8438,876.8906 C971.8438,876.4375 971.4531,876.0469 970.9844,876.0469 C970.7656,876.0469 970.5625,876.125 970.375,876.3125 C969.9219,876.7969 969.9219,876.7969 969.7344,876.8906 C969.3125,877.1563 968.625,877.2813 967.8594,877.2813 C965.8125,877.2813 964.5156,876.1875 964.5156,874.4844 L964.5156,873.3906 C964.5156,871.6094 965.7656,870.2969 967.5,870.2969 C968.0781,870.2969 968.6875,870.4531 969.1563,870.7031 C969.6406,870.9844 969.8125,871.2031 969.9063,871.6094 C969.9688,872.0156 970,872.1406 970.1406,872.2656 C970.2813,872.4063 970.5156,872.5156 970.7344,872.5156 C971,872.5156 971.2656,872.375 971.4375,872.1563 C971.5469,872 971.5781,871.8125 971.5781,871.3906 L971.5781,869.9688 C971.5781,869.5313 971.5625,869.4063 971.4688,869.25 C971.3125,868.9844 971.0313,868.8438 970.7344,868.8438 C970.4375,868.8438 970.2344,868.9375 970.0156,869.25 L969.8438,869.1719 Z " fill="#000000"/><text fill="#000000" font-family="sans-serif" font-size="14" lengthAdjust="spacing" textLength="119" x="981.5" y="878.3467">main_ctx_object</text><line style="stroke:#181818;stroke-width:0.5;" x1="953.5" x2="1102.5" y1="889.5" y2="889.5"/><line style="stroke:#181818;stroke-width:0.5;" x1="953.5" x2="1102.5" y1="897.5" y2="897.5"/></g><!--class main_ctx--><g id="elem_main_ctx"><rect codeLine="97" fill="#F1F1F1" height="48" id="main_ctx" rx="2.5" ry="2.5" style="stroke:#181818;stroke-width:0.5;" width="97" x="979.5" y="1056"/><ellipse cx="994.5" cy="1072" fill="#ADD1B2" rx="11" ry="11" style="stroke:#181818;stroke-width:1.0;"/><path d="M996.8438,1067.6719 C995.9063,1067.2344 995.3125,1067.0938 994.4375,1067.0938 C991.8125,1067.0938 989.8125,1069.1719 989.8125,1071.8906 L989.8125,1073.0156 C989.8125,1075.5938 991.9219,1077.4844 994.8125,1077.4844 C996.0313,1077.4844 997.1875,1077.1875 997.9375,1076.6406 C998.5156,1076.2344 998.8438,1075.7813 998.8438,1075.3906 C998.8438,1074.9375 998.4531,1074.5469 997.9844,1074.5469 C997.7656,1074.5469 997.5625,1074.625 997.375,1074.8125 C996.9219,1075.2969 996.9219,1075.2969 996.7344,1075.3906 C996.3125,1075.6563 995.625,1075.7813 994.8594,1075.7813 C992.8125,1075.7813 991.5156,1074.6875 991.5156,1072.9844 L991.5156,1071.8906 C991.5156,1070.1094 992.7656,1068.7969 994.5,1068.7969 C995.0781,1068.7969 995.6875,1068.9531 996.1563,1069.2031 C996.6406,1069.4844 996.8125,1069.7031 996.9063,1070.1094 C996.9688,1070.5156 997,1070.6406 997.1406,1070.7656 C997.2813,1070.9063 997.5156,1071.0156 997.7344,1071.0156 C998,1071.0156 998.2656,1070.875 998.4375,1070.6563 C998.5469,1070.5 998.5781,1070.3125 998.5781,1069.8906 L998.5781,1068.4688 C998.5781,1068.0313 998.5625,1067.9063 998.4688,1067.75 C998.3125,1067.4844 998.0313,1067.3438 997.7344,1067.3438 C997.4375,1067.3438 997.2344,1067.4375 997.0156,1067.75 L996.8438,1067.6719 Z " fill="#000000"/><text fill="#000000" font-family="sans-serif" font-size="14" lengthAdjust="spacing" textLength="65" x="1008.5" y="1076.8467">main_ctx</text><line style="stroke:#181818;stroke-width:0.5;" x1="980.5" x2="1075.5" y1="1088" y2="1088"/><line style="stroke:#181818;stroke-width:0.5;" x1="980.5" x2="1075.5" y1="1096" y2="1096"/></g><!--link std_log_output_stream to log_output_stream--><g id="link_std_log_output_stream_log_output_stream"><path codeLine="100" d="M141.843,658.716 C186.33,708.009 249.6843,778.2093 294.1473,827.4763 " fill="none" id="std_log_output_stream-to-log_output_stream" style="stroke:#181818;stroke-width:1.0;"/><polygon fill="none" points="306.207,840.839,298.6015,823.4564,289.693,831.4962,306.207,840.839" style="stroke:#181818;stroke-width:1.0;"/><text fill="#000000" font-family="sans-serif" font-size="13" lengthAdjust="spacing" textLength="76" x="225" y="750.0669">implements</text></g><!--link asio_log_output_stream to log_output_stream--><g id="link_asio_log_output_stream_log_output_stream"><path codeLine="101" d="M342,658.716 C342,708.009 342,773.572 342,822.839 " fill="none" id="asio_log_output_stream-to-log_output_stream" style="stroke:#181818;stroke-width:1.0;"/><polygon fill="none" points="342,840.839,348,822.839,336,822.839,342,840.839" style="stroke:#181818;stroke-width:1.0;"/><text fill="#000000" font-family="sans-serif" font-size="13" lengthAdjust="spacing" textLength="76" x="343" y="750.0669">implements</text></g><!--link log_output_stream to json_log_backend--><g id="link_log_output_stream_json_log_backend"><path codeLine="103" d="M347.5844,928.2207 C352.4874,968.3677 357.7113,1011.1335 361.7223,1043.9757 " fill="none" id="log_output_stream-json_log_backend" style="stroke:#181818;stroke-width:1.0;"/><polygon fill="#181818" points="346.857,922.265,343.9775,931.6835,347.4631,927.2281,351.9185,930.7137,346.857,922.265" style="stroke:#181818;stroke-width:1.0;"/><polygon fill="none" points="363.177,1055.8872,366.4201,1049.4465,361.7223,1043.9757,358.4791,1050.4164,363.177,1055.8872" style="stroke:#181818;stroke-width:1.0;"/><text fill="#000000" font-family="sans-serif" font-size="13" lengthAdjust="spacing" textLength="30" x="360" y="1022.0669">uses</text></g><!--reverse link logger_backend to null_log_backend--><g id="link_logger_backend_null_log_backend"><path codeLine="105" d="M579.3882,996.789 C574.7102,1025.5183 572.892,1036.6785 569.75,1055.9718 " fill="none" id="logger_backend-backto-null_log_backend" style="stroke:#181818;stroke-width:1.0;"/><polygon fill="none" points="582.281,979.023,573.4661,995.8247,585.3102,997.7533,582.281,979.023" style="stroke:#181818;stroke-width:1.0;"/><text fill="#000000" font-family="sans-serif" font-size="13" lengthAdjust="spacing" textLength="76" x="579" y="1022.0669">implements</text></g><!--reverse link logger_backend to syslog_log_backend--><g id="link_logger_backend_syslog_log_backend"><path codeLine="106" d="M692.2209,992.7045 C716.7829,1021.4338 729.817,1036.6785 746.312,1055.9718 " fill="none" id="logger_backend-backto-syslog_log_backend" style="stroke:#181818;stroke-width:1.0;"/><polygon fill="none" points="680.524,979.023,687.6604,996.6034,696.7814,988.8055,680.524,979.023" style="stroke:#181818;stroke-width:1.0;"/><text fill="#000000" font-family="sans-serif" font-size="13" lengthAdjust="spacing" textLength="76" x="718" y="1022.0669">implements</text></g><!--reverse link logger_backend to json_log_backend--><g id="link_logger_backend_json_log_backend"><path codeLine="107" d="M495.5627,969.2627 C454.2447,1004.2587 421.763,1031.7694 393.273,1055.9004 " fill="none" id="logger_backend-backto-json_log_backend" style="stroke:#181818;stroke-width:1.0;"/><polygon fill="none" points="509.298,957.629,491.6848,964.6842,499.4406,973.8411,509.298,957.629" style="stroke:#181818;stroke-width:1.0;"/><text fill="#000000" font-family="sans-serif" font-size="13" lengthAdjust="spacing" textLength="76" x="449" y="1022.0669">implements</text></g><!--link proxy_log_backend to logger_backend--><g id="link_proxy_log_backend_logger_backend"><path codeLine="108" d="M527.131,646.226 C496.652,672.331 460.802,713.631 477,754 C484.47,772.615 484.5109,776.2924 497.7049,791.9034 " fill="none" id="proxy_log_backend-to-logger_backend" style="stroke:#181818;stroke-width:1.0;"/><polygon fill="none" points="509.324,805.651,502.2874,788.0304,493.1224,795.7764,509.324,805.651" style="stroke:#181818;stroke-width:1.0;"/><text fill="#000000" font-family="sans-serif" font-size="13" lengthAdjust="spacing" textLength="76" x="478" y="750.0669">implements</text></g><!--link proxy_log_backend to logger_backend--><g id="link_proxy_log_backend_logger_backend"><path codeLine="109" d="M569.0581,657.8999 C573.2741,690.3279 578.2594,728.6681 584.6624,777.9161 " fill="none" id="proxy_log_backend-logger_backend" style="stroke:#181818;stroke-width:1.0;"/><polygon fill="#181818" points="567.511,646,564.3179,652.4656,569.0581,657.8999,572.2512,651.4342,567.511,646" style="stroke:#181818;stroke-width:1.0;"/><polygon fill="#181818" points="585.436,783.866,588.2422,774.4254,584.7913,778.9077,580.309,775.4568,585.436,783.866" style="stroke:#181818;stroke-width:1.0;"/><text fill="#000000" font-family="sans-serif" font-size="13" lengthAdjust="spacing" textLength="80" x="582" y="750.0669">delegates to</text></g><!--link log_entry to log_event_severity--><g id="link_log_entry_log_event_severity"><path codeLine="111" d="M824.519,658.716 C825.95,696.15 827.9088,747.3524 829.7028,794.2854 " fill="none" id="log_entry-to-log_event_severity" style="stroke:#181818;stroke-width:1.0;"/><polygon fill="#181818" points="829.932,800.281,833.5853,791.1348,829.741,795.2846,825.5911,791.4404,829.932,800.281" style="stroke:#181818;stroke-width:1.0;"/><text fill="#000000" font-family="sans-serif" font-size="13" lengthAdjust="spacing" textLength="23" x="829" y="750.0669">has</text></g><!--link log_entry to logger_backend--><g id="link_log_entry_logger_backend"><path codeLine="112" d="M795.379,658.764 C775.788,686.236 748.391,723.226 722,754 C710.889,766.956 702.8925,775.8834 690.7205,788.7434 " fill="none" id="log_entry-to-logger_backend" style="stroke:#181818;stroke-width:1.0;"/><polygon fill="#181818" points="686.596,793.101,695.6878,789.3142,690.0331,789.4697,689.8776,783.8149,686.596,793.101" style="stroke:#181818;stroke-width:1.0;"/><text fill="#000000" font-family="sans-serif" font-size="13" lengthAdjust="spacing" textLength="30" x="735" y="750.0669">uses</text></g><!--link basic_logger to log_entry--><g id="link_basic_logger_log_entry"><path codeLine="114" d="M823,452.189 C823,489.878 823,535.864 823,571.307 " fill="none" id="basic_logger-to-log_entry" style="stroke:#181818;stroke-width:1.0;stroke-dasharray:7.0,7.0;"/><polygon fill="#181818" points="823,577.307,827,568.307,823,572.307,819,568.307,823,577.307" style="stroke:#181818;stroke-width:1.0;"/><text fill="#000000" font-family="sans-serif" font-size="13" lengthAdjust="spacing" textLength="75" x="824" y="495.0669">instantiates</text></g><!--link basic_logger to logger_backend--><g id="link_basic_logger_logger_backend"><path codeLine="115" d="M779.4862,462.0099 C763.5912,484.4129 752.688,502.242 740,529 C695.185,623.51 712.739,658.092 671,754 C666.7,763.881 664.5751,768.6405 659.4191,778.5925 " fill="none" id="basic_logger-logger_backend" style="stroke:#181818;stroke-width:1.0;"/><polygon fill="none" points="786.43,452.223,779.6958,454.8018,779.4862,462.0099,786.2204,459.4311,786.43,452.223" style="stroke:#181818;stroke-width:1.0;"/><polygon fill="#181818" points="656.659,783.92,664.3508,777.7689,658.9591,779.4804,657.2475,774.0887,656.659,783.92" style="stroke:#181818;stroke-width:1.0;"/></g><!--link logger to basic_logger--><g id="link_logger_basic_logger"><path codeLine="116" d="M823,294.214 C823,314.857 823,318.418 823,336.816 " fill="none" id="logger-to-basic_logger" style="stroke:#181818;stroke-width:1.0;"/><polygon fill="none" points="823,354.816,829,336.816,817,336.816,823,354.816" style="stroke:#181818;stroke-width:1.0;"/></g><!--reverse link basic_logger to named_logging_object--><g id="link_basic_logger_named_logging_object"><path codeLine="117" d="M890.609,464.5864 C900.975,474.1904 898.38,472.135 908,482 C922.399,496.766 937.212,512.971 951.253,528.87 " fill="none" id="basic_logger-backto-named_logging_object" style="stroke:#181818;stroke-width:1.0;"/><polygon fill="none" points="877.405,452.353,886.5312,468.9877,894.6868,460.185,877.405,452.353" style="stroke:#181818;stroke-width:1.0;"/></g><!--reverse link named_logging_object to main_ctx_object--><g id="link_named_logging_object_main_ctx_object"><path codeLine="118" d="M1026.2168,725.1658 C1026.8268,778.2478 1027.35,823.843 1027.73,857.296 " fill="none" id="named_logging_object-backto-main_ctx_object" style="stroke:#181818;stroke-width:1.0;"/><polygon fill="none" points="1026.01,707.167,1020.2172,725.2348,1032.2164,725.0969,1026.01,707.167" style="stroke:#181818;stroke-width:1.0;"/></g><!--link main_ctx_object to main_ctx--><g id="link_main_ctx_object_main_ctx"><path codeLine="119" d="M1028,905.813 C1028,943.631 1028,1011.9189 1028,1049.7176 " fill="none" id="main_ctx_object-to-main_ctx" style="stroke:#181818;stroke-width:1.0;"/><polygon fill="#181818" points="1028,1055.7176,1032,1046.7176,1028,1050.7176,1024,1046.7176,1028,1055.7176" style="stroke:#181818;stroke-width:1.0;"/></g><!--link root_logger to logger--><g id="link_root_logger_logger"><path codeLine="120" d="M965.982,55.19 C943.675,74.8 911.633,104.103 886,132 C880.378,138.118 886.2088,130.8495 880.6798,137.4955 " fill="none" id="root_logger-to-logger" style="stroke:#181818;stroke-width:1.0;"/><polygon fill="none" points="869.168,151.333,885.2924,141.3327,876.0673,133.6582,869.168,151.333" style="stroke:#181818;stroke-width:1.0;"/></g><!--link root_logger to program_args--><g id="link_root_logger_program_args"><path codeLine="121" d="M1018.18,55.33 C1039.93,75.53 1072.15,105.57 1100,132 C1111.03,142.471 1118.5085,149.6137 1129.6385,160.3337 " fill="none" id="root_logger-to-program_args" style="stroke:#181818;stroke-width:1.0;"/><polygon fill="#181818" points="1133.96,164.496,1130.2526,155.3716,1130.3588,161.0274,1124.7029,161.1335,1133.96,164.496" style="stroke:#181818;stroke-width:1.0;"/><text fill="#000000" font-family="sans-serif" font-size="13" lengthAdjust="spacing" textLength="30" x="1069" y="98.0669">uses</text></g><!--link root_logger to root_logger_options--><g id="link_root_logger_root_logger_options"><path codeLine="122" d="M993,55.16 C993,89.73 993,148.415 993,182.926 " fill="none" id="root_logger-to-root_logger_options" style="stroke:#181818;stroke-width:1.0;"/><polygon fill="#181818" points="993,188.926,997,179.926,993,183.926,989,179.926,993,188.926" style="stroke:#181818;stroke-width:1.0;"/><text fill="#000000" font-family="sans-serif" font-size="13" lengthAdjust="spacing" textLength="30" x="994" y="98.0669">uses</text></g><!--SRC=[fLLRRgCm5Frd5NocKy42eYXhc1rO5tCXRi16lgPjD9szZnyuiO6e8pK_iU_xSOv1EO_be7g6xoWD8_kdXRcLVuhI_em6ZlxKOZFt_aG6Z3y8sIb_-00jXGnQr5ffV-h0m53yBGeX3UhE1d9vUjIi0Nv5sIuvNirjGYRQmqjvB4Lhgn2Tm13ZbT2m5ebhCHcXvE4bYD65PCJLX54q8BpZIcJRuXVGjYqOfm4FTLqlgWPx8Tc8HD2dScXR1hgVHviX4NT22hhis2yAcyacjRto0OXAEG-3aoMTtdLq8wTvedqZ9P_f9gq-RvdoTFhjPETpCCi6pTHifjcsRZJ266VzOPUBXsPG_1ex66QwfCMJQTbF_864-b40ZqPfT0IX1q6dz0ZfIkoMmktkrzZCd0MCHLSXBLmbVuglPP8HCIDSaTtphufAmePz1oWwmCVBmeHuTGo9PqURUFPaYXVFiGmzCA9VWOMedMBpXjpi97PbUewbWgmQ9rXLv4HfLUwULkRkMNLEiAbGAsKUWzuJC-NvIYlyzXf6no-A_NWUFbXzNuJbLPjc7C7IbPlFnpWsgY3RHszLVPstfB1mSC-2upeLJs3x7vx5rkjKLMh3vMCv4mRpz1KyVLNLziN8CknvxBmZt_fiNfVCO_k-nERJGD-u_Agg7PSM1-p189L6XNa5WY_6wu_FiRm0RStoc66O6Udh-foy7hPIptuZNERSKcr3BXCBJQV6kMTOrmv5YrtUUlCrV8ird5qrKLQax4esi9AVSpujyrZRx54ocFu3]--></g></svg>