<?xml version="1.0" encoding="us-ascii" standalone="no"?><svg xmlns="http://www.w3.org/2000/svg" xmlns:xlink="http://www.w3.org/1999/xlink" contentStyleType="text/css" height="1443px" preserveAspectRatio="none" style="width:1164px;height:1443px;background:#FFFFFF;" version="1.1" viewBox="0 0 1164 1443" width="1164px" zoomAndPan="magnify"><defs/><g><!--cluster Backends--><g id="cluster_Backends"><path d="M659.5,6 L737.5,6 A3.75,3.75 0 0 1 740,8.5 L747,28.2969 L1154.5,28.2969 A2.5,2.5 0 0 1 1157,30.7969 L1157,1433.5 A2.5,2.5 0 0 1 1154.5,1436 L659.5,1436 A2.5,2.5 0 0 1 657,1433.5 L657,8.5 A2.5,2.5 0 0 1 659.5,6 " fill="#DDDDDD" style="stroke:#000000;stroke-width:1.5;"/><line style="stroke:#000000;stroke-width:1.5;" x1="657" x2="747" y1="28.2969" y2="28.2969"/><text fill="#000000" font-family="sans-serif" font-size="14" font-weight="bold" lengthAdjust="spacing" textLength="77" x="661" y="20.9951">Backends</text></g><!--cluster Text log\noutputs--><g id="cluster_Text log\noutputs"><path d="M720.5,49 L788.5,49 A3.75,3.75 0 0 1 791,51.5 L798,87.5938 L1093.5,87.5938 A2.5,2.5 0 0 1 1096,90.0938 L1096,583 A2.5,2.5 0 0 1 1093.5,585.5 L720.5,585.5 A2.5,2.5 0 0 1 718,583 L718,51.5 A2.5,2.5 0 0 1 720.5,49 " fill="#BBBBBB" style="stroke:#000000;stroke-width:1.5;"/><line style="stroke:#000000;stroke-width:1.5;" x1="718" x2="798" y1="87.5938" y2="87.5938"/><text fill="#000000" font-family="sans-serif" font-size="14" font-weight="bold" lengthAdjust="spacing" textLength="67" x="722" y="63.9951">Text log</text><text fill="#000000" font-family="sans-serif" font-size="14" font-weight="bold" lengthAdjust="spacing" textLength="65" x="723" y="80.292">outputs</text></g><!--cluster Loggers--><g id="cluster_Loggers"><path d="M159.5,466 L224.5,466 A3.75,3.75 0 0 1 227,468.5 L234,488.2969 L454.5,488.2969 A2.5,2.5 0 0 1 457,490.7969 L457,1300 A2.5,2.5 0 0 1 454.5,1302.5 L159.5,1302.5 A2.5,2.5 0 0 1 157,1300 L157,468.5 A2.5,2.5 0 0 1 159.5,466 " fill="#DDDDDD" style="stroke:#000000;stroke-width:1.5;"/><line style="stroke:#000000;stroke-width:1.5;" x1="157" x2="234" y1="488.2969" y2="488.2969"/><text fill="#000000" font-family="sans-serif" font-size="14" font-weight="bold" lengthAdjust="spacing" textLength="64" x="161" y="480.9951">Loggers</text></g><!--class logger_backend--><g id="elem_logger_backend"><rect codeLine="13" fill="#F1F1F1" height="194.6719" id="logger_backend" rx="2.5" ry="2.5" style="stroke:#181818;stroke-width:0.5;" width="177" x="676.5" y="1100"/><ellipse cx="705.45" cy="1116" fill="#B4A7E5" rx="11" ry="11" style="stroke:#181818;stroke-width:1.0;"/><path d="M706.4031,1112.7813 L708.1219,1112.7813 C708.5125,1112.7813 708.7,1112.75 708.825,1112.6719 C709.0906,1112.5156 709.2313,1112.2344 709.2313,1111.9375 C709.2313,1111.6719 709.1219,1111.4063 708.8875,1111.2344 C708.7156,1111.125 708.575,1111.0938 708.1219,1111.0938 L702.9813,1111.0938 C702.5438,1111.0938 702.4188,1111.1094 702.2625,1111.2031 C702.0125,1111.3594 701.8563,1111.6563 701.8563,1111.9375 C701.8563,1112.2188 701.9969,1112.4688 702.2156,1112.6406 C702.3719,1112.75 702.5594,1112.7813 702.9813,1112.7813 L704.7,1112.7813 L704.7,1119.2969 L702.9813,1119.2969 C702.5438,1119.2969 702.4188,1119.3125 702.2625,1119.4219 C702.0125,1119.5781 701.8563,1119.8594 701.8563,1120.1563 C701.8563,1120.4063 701.9969,1120.6719 702.2156,1120.8281 C702.3719,1120.9531 702.575,1121 702.9813,1121 L708.1219,1121 C708.8719,1121 709.2313,1120.7188 709.2313,1120.1563 C709.2313,1119.875 709.1219,1119.625 708.8875,1119.4531 C708.7156,1119.3281 708.575,1119.2969 708.1219,1119.2969 L706.4031,1119.2969 L706.4031,1112.7813 Z " fill="#000000"/><text fill="#000000" font-family="sans-serif" font-size="14" font-style="italic" lengthAdjust="spacing" textLength="114" x="722.55" y="1120.8467">logger_backend</text><line style="stroke:#181818;stroke-width:0.5;" x1="677.5" x2="852.5" y1="1132" y2="1132"/><line style="stroke:#181818;stroke-width:0.5;" x1="677.5" x2="852.5" y1="1140" y2="1140"/><ellipse cx="687.5" cy="1153.6484" fill="#84BE84" rx="3" ry="3" style="stroke:#038048;stroke-width:1.0;"/><text fill="#000000" font-family="sans-serif" font-size="14" lengthAdjust="spacing" textLength="144" x="696.5" y="1156.9951">type_id() : identifier</text><ellipse cx="687.5" cy="1169.9453" fill="#84BE84" rx="3" ry="3" style="stroke:#038048;stroke-width:1.0;"/><text fill="#000000" font-family="sans-serif" font-size="14" lengthAdjust="spacing" textLength="122" x="696.5" y="1173.292">set_description()</text><ellipse cx="687.5" cy="1186.2422" fill="#84BE84" rx="3" ry="3" style="stroke:#038048;stroke-width:1.0;"/><text fill="#000000" font-family="sans-serif" font-size="14" lengthAdjust="spacing" textLength="100" x="696.5" y="1189.5889">enter_scope()</text><ellipse cx="687.5" cy="1202.5391" fill="#84BE84" rx="3" ry="3" style="stroke:#038048;stroke-width:1.0;"/><text fill="#000000" font-family="sans-serif" font-size="14" lengthAdjust="spacing" textLength="98" x="696.5" y="1205.8857">leave_scope()</text><ellipse cx="687.5" cy="1218.8359" fill="#84BE84" rx="3" ry="3" style="stroke:#038048;stroke-width:1.0;"/><text fill="#000000" font-family="sans-serif" font-size="14" lengthAdjust="spacing" textLength="151" x="696.5" y="1222.1826">log_chart_sample(...)</text><ellipse cx="687.5" cy="1235.1328" fill="#84BE84" rx="3" ry="3" style="stroke:#038048;stroke-width:1.0;"/><text fill="#000000" font-family="sans-serif" font-size="14" lengthAdjust="spacing" textLength="136" x="696.5" y="1238.4795">begin_message(...)</text><ellipse cx="687.5" cy="1251.4297" fill="#84BE84" rx="3" ry="3" style="stroke:#038048;stroke-width:1.0;"/><text fill="#000000" font-family="sans-serif" font-size="14" lengthAdjust="spacing" textLength="128" x="696.5" y="1254.7764">add_argument(...)</text><ellipse cx="687.5" cy="1267.7266" fill="#84BE84" rx="3" ry="3" style="stroke:#038048;stroke-width:1.0;"/><text fill="#000000" font-family="sans-serif" font-size="14" lengthAdjust="spacing" textLength="134" x="696.5" y="1271.0732">finish_message(...)</text><ellipse cx="687.5" cy="1284.0234" fill="#84BE84" rx="3" ry="3" style="stroke:#038048;stroke-width:1.0;"/><text fill="#000000" font-family="sans-serif" font-size="14" lengthAdjust="spacing" textLength="78" x="696.5" y="1287.3701">finish_log()</text></g><!--class null_log_backend--><g id="elem_null_log_backend"><rect codeLine="25" fill="#F1F1F1" height="48" id="null_log_backend" rx="2.5" ry="2.5" style="stroke:#181818;stroke-width:0.5;" width="155" x="966.5" y="1173.5"/><ellipse cx="981.5" cy="1189.5" fill="#ADD1B2" rx="11" ry="11" style="stroke:#181818;stroke-width:1.0;"/><path d="M983.8438,1185.1719 C982.9063,1184.7344 982.3125,1184.5938 981.4375,1184.5938 C978.8125,1184.5938 976.8125,1186.6719 976.8125,1189.3906 L976.8125,1190.5156 C976.8125,1193.0938 978.9219,1194.9844 981.8125,1194.9844 C983.0313,1194.9844 984.1875,1194.6875 984.9375,1194.1406 C985.5156,1193.7344 985.8438,1193.2813 985.8438,1192.8906 C985.8438,1192.4375 985.4531,1192.0469 984.9844,1192.0469 C984.7656,1192.0469 984.5625,1192.125 984.375,1192.3125 C983.9219,1192.7969 983.9219,1192.7969 983.7344,1192.8906 C983.3125,1193.1563 982.625,1193.2813 981.8594,1193.2813 C979.8125,1193.2813 978.5156,1192.1875 978.5156,1190.4844 L978.5156,1189.3906 C978.5156,1187.6094 979.7656,1186.2969 981.5,1186.2969 C982.0781,1186.2969 982.6875,1186.4531 983.1563,1186.7031 C983.6406,1186.9844 983.8125,1187.2031 983.9063,1187.6094 C983.9688,1188.0156 984,1188.1406 984.1406,1188.2656 C984.2813,1188.4063 984.5156,1188.5156 984.7344,1188.5156 C985,1188.5156 985.2656,1188.375 985.4375,1188.1563 C985.5469,1188 985.5781,1187.8125 985.5781,1187.3906 L985.5781,1185.9688 C985.5781,1185.5313 985.5625,1185.4063 985.4688,1185.25 C985.3125,1184.9844 985.0313,1184.8438 984.7344,1184.8438 C984.4375,1184.8438 984.2344,1184.9375 984.0156,1185.25 L983.8438,1185.1719 Z " fill="#000000"/><text fill="#000000" font-family="sans-serif" font-size="14" lengthAdjust="spacing" textLength="123" x="995.5" y="1194.3467">null_log_backend</text><line style="stroke:#181818;stroke-width:0.5;" x1="967.5" x2="1120.5" y1="1205.5" y2="1205.5"/><line style="stroke:#181818;stroke-width:0.5;" x1="967.5" x2="1120.5" y1="1213.5" y2="1213.5"/></g><!--class syslog_log_backend--><g id="elem_syslog_log_backend"><rect codeLine="28" fill="#F1F1F1" height="48" id="syslog_log_backend" rx="2.5" ry="2.5" style="stroke:#181818;stroke-width:0.5;" width="174" x="678" y="1372"/><ellipse cx="693" cy="1388" fill="#ADD1B2" rx="11" ry="11" style="stroke:#181818;stroke-width:1.0;"/><path d="M695.3438,1383.6719 C694.4063,1383.2344 693.8125,1383.0938 692.9375,1383.0938 C690.3125,1383.0938 688.3125,1385.1719 688.3125,1387.8906 L688.3125,1389.0156 C688.3125,1391.5938 690.4219,1393.4844 693.3125,1393.4844 C694.5313,1393.4844 695.6875,1393.1875 696.4375,1392.6406 C697.0156,1392.2344 697.3438,1391.7813 697.3438,1391.3906 C697.3438,1390.9375 696.9531,1390.5469 696.4844,1390.5469 C696.2656,1390.5469 696.0625,1390.625 695.875,1390.8125 C695.4219,1391.2969 695.4219,1391.2969 695.2344,1391.3906 C694.8125,1391.6563 694.125,1391.7813 693.3594,1391.7813 C691.3125,1391.7813 690.0156,1390.6875 690.0156,1388.9844 L690.0156,1387.8906 C690.0156,1386.1094 691.2656,1384.7969 693,1384.7969 C693.5781,1384.7969 694.1875,1384.9531 694.6563,1385.2031 C695.1406,1385.4844 695.3125,1385.7031 695.4063,1386.1094 C695.4688,1386.5156 695.5,1386.6406 695.6406,1386.7656 C695.7813,1386.9063 696.0156,1387.0156 696.2344,1387.0156 C696.5,1387.0156 696.7656,1386.875 696.9375,1386.6563 C697.0469,1386.5 697.0781,1386.3125 697.0781,1385.8906 L697.0781,1384.4688 C697.0781,1384.0313 697.0625,1383.9063 696.9688,1383.75 C696.8125,1383.4844 696.5313,1383.3438 696.2344,1383.3438 C695.9375,1383.3438 695.7344,1383.4375 695.5156,1383.75 L695.3438,1383.6719 Z " fill="#000000"/><text fill="#000000" font-family="sans-serif" font-size="14" lengthAdjust="spacing" textLength="142" x="707" y="1392.8467">syslog_log_backend</text><line style="stroke:#181818;stroke-width:0.5;" x1="679" x2="851" y1="1404" y2="1404"/><line style="stroke:#181818;stroke-width:0.5;" x1="679" x2="851" y1="1412" y2="1412"/></g><!--class json_log_backend--><g id="elem_json_log_backend"><rect codeLine="31" fill="#F1F1F1" height="48" id="json_log_backend" rx="2.5" ry="2.5" style="stroke:#181818;stroke-width:0.5;" width="159" x="679.5" y="744"/><ellipse cx="694.5" cy="760" fill="#ADD1B2" rx="11" ry="11" style="stroke:#181818;stroke-width:1.0;"/><path d="M696.8438,755.6719 C695.9063,755.2344 695.3125,755.0938 694.4375,755.0938 C691.8125,755.0938 689.8125,757.1719 689.8125,759.8906 L689.8125,761.0156 C689.8125,763.5938 691.9219,765.4844 694.8125,765.4844 C696.0313,765.4844 697.1875,765.1875 697.9375,764.6406 C698.5156,764.2344 698.8438,763.7813 698.8438,763.3906 C698.8438,762.9375 698.4531,762.5469 697.9844,762.5469 C697.7656,762.5469 697.5625,762.625 697.375,762.8125 C696.9219,763.2969 696.9219,763.2969 696.7344,763.3906 C696.3125,763.6563 695.625,763.7813 694.8594,763.7813 C692.8125,763.7813 691.5156,762.6875 691.5156,760.9844 L691.5156,759.8906 C691.5156,758.1094 692.7656,756.7969 694.5,756.7969 C695.0781,756.7969 695.6875,756.9531 696.1563,757.2031 C696.6406,757.4844 696.8125,757.7031 696.9063,758.1094 C696.9688,758.5156 697,758.6406 697.1406,758.7656 C697.2813,758.9063 697.5156,759.0156 697.7344,759.0156 C698,759.0156 698.2656,758.875 698.4375,758.6563 C698.5469,758.5 698.5781,758.3125 698.5781,757.8906 L698.5781,756.4688 C698.5781,756.0313 698.5625,755.9063 698.4688,755.75 C698.3125,755.4844 698.0313,755.3438 697.7344,755.3438 C697.4375,755.3438 697.2344,755.4375 697.0156,755.75 L696.8438,755.6719 Z " fill="#000000"/><text fill="#000000" font-family="sans-serif" font-size="14" lengthAdjust="spacing" textLength="127" x="708.5" y="764.8467">json_log_backend</text><line style="stroke:#181818;stroke-width:0.5;" x1="680.5" x2="837.5" y1="776" y2="776"/><line style="stroke:#181818;stroke-width:0.5;" x1="680.5" x2="837.5" y1="784" y2="784"/></g><!--class xml_log_backend--><g id="elem_xml_log_backend"><rect codeLine="34" fill="#F1F1F1" height="48" id="xml_log_backend" rx="2.5" ry="2.5" style="stroke:#181818;stroke-width:0.5;" width="156" x="874" y="744"/><ellipse cx="889" cy="760" fill="#ADD1B2" rx="11" ry="11" style="stroke:#181818;stroke-width:1.0;"/><path d="M891.3438,755.6719 C890.4063,755.2344 889.8125,755.0938 888.9375,755.0938 C886.3125,755.0938 884.3125,757.1719 884.3125,759.8906 L884.3125,761.0156 C884.3125,763.5938 886.4219,765.4844 889.3125,765.4844 C890.5313,765.4844 891.6875,765.1875 892.4375,764.6406 C893.0156,764.2344 893.3438,763.7813 893.3438,763.3906 C893.3438,762.9375 892.9531,762.5469 892.4844,762.5469 C892.2656,762.5469 892.0625,762.625 891.875,762.8125 C891.4219,763.2969 891.4219,763.2969 891.2344,763.3906 C890.8125,763.6563 890.125,763.7813 889.3594,763.7813 C887.3125,763.7813 886.0156,762.6875 886.0156,760.9844 L886.0156,759.8906 C886.0156,758.1094 887.2656,756.7969 889,756.7969 C889.5781,756.7969 890.1875,756.9531 890.6563,757.2031 C891.1406,757.4844 891.3125,757.7031 891.4063,758.1094 C891.4688,758.5156 891.5,758.6406 891.6406,758.7656 C891.7813,758.9063 892.0156,759.0156 892.2344,759.0156 C892.5,759.0156 892.7656,758.875 892.9375,758.6563 C893.0469,758.5 893.0781,758.3125 893.0781,757.8906 L893.0781,756.4688 C893.0781,756.0313 893.0625,755.9063 892.9688,755.75 C892.8125,755.4844 892.5313,755.3438 892.2344,755.3438 C891.9375,755.3438 891.7344,755.4375 891.5156,755.75 L891.3438,755.6719 Z " fill="#000000"/><text fill="#000000" font-family="sans-serif" font-size="14" lengthAdjust="spacing" textLength="124" x="903" y="764.8467">xml_log_backend</text><line style="stroke:#181818;stroke-width:0.5;" x1="875" x2="1029" y1="776" y2="776"/><line style="stroke:#181818;stroke-width:0.5;" x1="875" x2="1029" y1="784" y2="784"/></g><!--class proxy_log_backend--><g id="elem_proxy_log_backend"><rect codeLine="37" fill="#F1F1F1" height="56.2656" id="proxy_log_backend" rx="2.5" ry="2.5" style="stroke:#181818;stroke-width:0.5;" width="171" x="821.5" y="946.5"/><ellipse cx="836.5" cy="966.6328" fill="#ADD1B2" rx="11" ry="11" style="stroke:#181818;stroke-width:1.0;"/><path d="M838.8438,962.3047 C837.9063,961.8672 837.3125,961.7266 836.4375,961.7266 C833.8125,961.7266 831.8125,963.8047 831.8125,966.5234 L831.8125,967.6484 C831.8125,970.2266 833.9219,972.1172 836.8125,972.1172 C838.0313,972.1172 839.1875,971.8203 839.9375,971.2734 C840.5156,970.8672 840.8438,970.4141 840.8438,970.0234 C840.8438,969.5703 840.4531,969.1797 839.9844,969.1797 C839.7656,969.1797 839.5625,969.2578 839.375,969.4453 C838.9219,969.9297 838.9219,969.9297 838.7344,970.0234 C838.3125,970.2891 837.625,970.4141 836.8594,970.4141 C834.8125,970.4141 833.5156,969.3203 833.5156,967.6172 L833.5156,966.5234 C833.5156,964.7422 834.7656,963.4297 836.5,963.4297 C837.0781,963.4297 837.6875,963.5859 838.1563,963.8359 C838.6406,964.1172 838.8125,964.3359 838.9063,964.7422 C838.9688,965.1484 839,965.2734 839.1406,965.3984 C839.2813,965.5391 839.5156,965.6484 839.7344,965.6484 C840,965.6484 840.2656,965.5078 840.4375,965.2891 C840.5469,965.1328 840.5781,964.9453 840.5781,964.5234 L840.5781,963.1016 C840.5781,962.6641 840.5625,962.5391 840.4688,962.3828 C840.3125,962.1172 840.0313,961.9766 839.7344,961.9766 C839.4375,961.9766 839.2344,962.0703 839.0156,962.3828 L838.8438,962.3047 Z " fill="#000000"/><text fill="#000000" font-family="sans-serif" font-size="12" font-style="italic" lengthAdjust="spacing" textLength="47" x="896.5" y="962.6387">&#171;Proxy&#187;</text><text fill="#000000" font-family="sans-serif" font-size="14" lengthAdjust="spacing" textLength="139" x="850.5" y="978.4639">proxy_log_backend</text><line style="stroke:#181818;stroke-width:0.5;" x1="822.5" x2="991.5" y1="986.7656" y2="986.7656"/><line style="stroke:#181818;stroke-width:0.5;" x1="822.5" x2="991.5" y1="994.7656" y2="994.7656"/></g><!--class log_output_stream--><g id="elem_log_output_stream"><rect codeLine="45" fill="#F1F1F1" height="80.5938" id="log_output_stream" rx="2.5" ry="2.5" style="stroke:#181818;stroke-width:0.5;" width="164" x="775" y="488.5"/><ellipse cx="790" cy="504.5" fill="#B4A7E5" rx="11" ry="11" style="stroke:#181818;stroke-width:1.0;"/><path d="M790.9531,501.2813 L792.6719,501.2813 C793.0625,501.2813 793.25,501.25 793.375,501.1719 C793.6406,501.0156 793.7813,500.7344 793.7813,500.4375 C793.7813,500.1719 793.6719,499.9063 793.4375,499.7344 C793.2656,499.625 793.125,499.5938 792.6719,499.5938 L787.5313,499.5938 C787.0938,499.5938 786.9688,499.6094 786.8125,499.7031 C786.5625,499.8594 786.4063,500.1563 786.4063,500.4375 C786.4063,500.7188 786.5469,500.9688 786.7656,501.1406 C786.9219,501.25 787.1094,501.2813 787.5313,501.2813 L789.25,501.2813 L789.25,507.7969 L787.5313,507.7969 C787.0938,507.7969 786.9688,507.8125 786.8125,507.9219 C786.5625,508.0781 786.4063,508.3594 786.4063,508.6563 C786.4063,508.9063 786.5469,509.1719 786.7656,509.3281 C786.9219,509.4531 787.125,509.5 787.5313,509.5 L792.6719,509.5 C793.4219,509.5 793.7813,509.2188 793.7813,508.6563 C793.7813,508.375 793.6719,508.125 793.4375,507.9531 C793.2656,507.8281 793.125,507.7969 792.6719,507.7969 L790.9531,507.7969 L790.9531,501.2813 Z " fill="#000000"/><text fill="#000000" font-family="sans-serif" font-size="14" font-style="italic" lengthAdjust="spacing" textLength="132" x="804" y="509.3467">log_output_stream</text><line style="stroke:#181818;stroke-width:0.5;" x1="776" x2="938" y1="520.5" y2="520.5"/><line style="stroke:#181818;stroke-width:0.5;" x1="776" x2="938" y1="528.5" y2="528.5"/><ellipse cx="786" cy="542.1484" fill="#84BE84" rx="3" ry="3" style="stroke:#038048;stroke-width:1.0;"/><text fill="#000000" font-family="sans-serif" font-size="14" lengthAdjust="spacing" textLength="87" x="795" y="545.4951">write(block)</text><ellipse cx="786" cy="558.4453" fill="#84BE84" rx="3" ry="3" style="stroke:#038048;stroke-width:1.0;"/><text fill="#000000" font-family="sans-serif" font-size="14" lengthAdjust="spacing" textLength="44" x="795" y="561.792">flush()</text></g><!--class std_log_output_stream--><g id="elem_std_log_output_stream"><rect codeLine="50" fill="#F1F1F1" height="96.8906" id="std_log_output_stream" rx="2.5" ry="2.5" style="stroke:#181818;stroke-width:0.5;" width="198" x="882" y="274"/><ellipse cx="897" cy="290" fill="#ADD1B2" rx="11" ry="11" style="stroke:#181818;stroke-width:1.0;"/><path d="M899.3438,285.6719 C898.4063,285.2344 897.8125,285.0938 896.9375,285.0938 C894.3125,285.0938 892.3125,287.1719 892.3125,289.8906 L892.3125,291.0156 C892.3125,293.5938 894.4219,295.4844 897.3125,295.4844 C898.5313,295.4844 899.6875,295.1875 900.4375,294.6406 C901.0156,294.2344 901.3438,293.7813 901.3438,293.3906 C901.3438,292.9375 900.9531,292.5469 900.4844,292.5469 C900.2656,292.5469 900.0625,292.625 899.875,292.8125 C899.4219,293.2969 899.4219,293.2969 899.2344,293.3906 C898.8125,293.6563 898.125,293.7813 897.3594,293.7813 C895.3125,293.7813 894.0156,292.6875 894.0156,290.9844 L894.0156,289.8906 C894.0156,288.1094 895.2656,286.7969 897,286.7969 C897.5781,286.7969 898.1875,286.9531 898.6563,287.2031 C899.1406,287.4844 899.3125,287.7031 899.4063,288.1094 C899.4688,288.5156 899.5,288.6406 899.6406,288.7656 C899.7813,288.9063 900.0156,289.0156 900.2344,289.0156 C900.5,289.0156 900.7656,288.875 900.9375,288.6563 C901.0469,288.5 901.0781,288.3125 901.0781,287.8906 L901.0781,286.4688 C901.0781,286.0313 901.0625,285.9063 900.9688,285.75 C900.8125,285.4844 900.5313,285.3438 900.2344,285.3438 C899.9375,285.3438 899.7344,285.4375 899.5156,285.75 L899.3438,285.6719 Z " fill="#000000"/><text fill="#000000" font-family="sans-serif" font-size="14" lengthAdjust="spacing" textLength="166" x="911" y="294.8467">std_log_output_stream</text><line style="stroke:#181818;stroke-width:0.5;" x1="883" x2="1079" y1="306" y2="306"/><rect fill="none" height="6" style="stroke:#C82930;stroke-width:1.0;" width="6" x="890" y="316.6484"/><text fill="#000000" font-family="sans-serif" font-size="14" lengthAdjust="spacing" textLength="118" x="902" y="322.9951">output: ostream</text><line style="stroke:#181818;stroke-width:0.5;" x1="883" x2="1079" y1="330.2969" y2="330.2969"/><ellipse cx="893" cy="343.9453" fill="#84BE84" rx="3" ry="3" style="stroke:#038048;stroke-width:1.0;"/><text fill="#000000" font-family="sans-serif" font-size="14" lengthAdjust="spacing" textLength="87" x="902" y="347.292">write(block)</text><ellipse cx="893" cy="360.2422" fill="#84BE84" rx="3" ry="3" style="stroke:#038048;stroke-width:1.0;"/><text fill="#000000" font-family="sans-serif" font-size="14" lengthAdjust="spacing" textLength="44" x="902" y="363.5889">flush()</text></g><!--class asio_log_output_stream--><g id="elem_asio_log_output_stream"><rect codeLine="56" fill="#F1F1F1" height="96.8906" id="asio_log_output_stream" rx="2.5" ry="2.5" style="stroke:#181818;stroke-width:0.5;" width="203" x="805.5" y="100"/><ellipse cx="820.5" cy="116" fill="#ADD1B2" rx="11" ry="11" style="stroke:#181818;stroke-width:1.0;"/><path d="M822.8438,111.6719 C821.9063,111.2344 821.3125,111.0938 820.4375,111.0938 C817.8125,111.0938 815.8125,113.1719 815.8125,115.8906 L815.8125,117.0156 C815.8125,119.5938 817.9219,121.4844 820.8125,121.4844 C822.0313,121.4844 823.1875,121.1875 823.9375,120.6406 C824.5156,120.2344 824.8438,119.7813 824.8438,119.3906 C824.8438,118.9375 824.4531,118.5469 823.9844,118.5469 C823.7656,118.5469 823.5625,118.625 823.375,118.8125 C822.9219,119.2969 822.9219,119.2969 822.7344,119.3906 C822.3125,119.6563 821.625,119.7813 820.8594,119.7813 C818.8125,119.7813 817.5156,118.6875 817.5156,116.9844 L817.5156,115.8906 C817.5156,114.1094 818.7656,112.7969 820.5,112.7969 C821.0781,112.7969 821.6875,112.9531 822.1563,113.2031 C822.6406,113.4844 822.8125,113.7031 822.9063,114.1094 C822.9688,114.5156 823,114.6406 823.1406,114.7656 C823.2813,114.9063 823.5156,115.0156 823.7344,115.0156 C824,115.0156 824.2656,114.875 824.4375,114.6563 C824.5469,114.5 824.5781,114.3125 824.5781,113.8906 L824.5781,112.4688 C824.5781,112.0313 824.5625,111.9063 824.4688,111.75 C824.3125,111.4844 824.0313,111.3438 823.7344,111.3438 C823.4375,111.3438 823.2344,111.4375 823.0156,111.75 L822.8438,111.6719 Z " fill="#000000"/><text fill="#000000" font-family="sans-serif" font-size="14" lengthAdjust="spacing" textLength="171" x="834.5" y="120.8467">asio_log_output_stream</text><line style="stroke:#181818;stroke-width:0.5;" x1="806.5" x2="1007.5" y1="132" y2="132"/><rect fill="none" height="6" style="stroke:#C82930;stroke-width:1.0;" width="6" x="813.5" y="142.6484"/><text fill="#000000" font-family="sans-serif" font-size="14" lengthAdjust="spacing" textLength="109" x="825.5" y="148.9951">socket: Socket</text><line style="stroke:#181818;stroke-width:0.5;" x1="806.5" x2="1007.5" y1="156.2969" y2="156.2969"/><ellipse cx="816.5" cy="169.9453" fill="#84BE84" rx="3" ry="3" style="stroke:#038048;stroke-width:1.0;"/><text fill="#000000" font-family="sans-serif" font-size="14" lengthAdjust="spacing" textLength="87" x="825.5" y="173.292">write(block)</text><ellipse cx="816.5" cy="186.2422" fill="#84BE84" rx="3" ry="3" style="stroke:#038048;stroke-width:1.0;"/><text fill="#000000" font-family="sans-serif" font-size="14" lengthAdjust="spacing" textLength="44" x="825.5" y="189.5889">flush()</text></g><!--class basic_logger--><g id="elem_basic_logger"><rect codeLine="75" fill="#F1F1F1" height="96.8906" id="basic_logger" rx="2.5" ry="2.5" style="stroke:#181818;stroke-width:0.5;" width="197" x="243.5" y="926"/><ellipse cx="292.75" cy="942" fill="#ADD1B2" rx="11" ry="11" style="stroke:#181818;stroke-width:1.0;"/><path d="M295.0938,937.6719 C294.1563,937.2344 293.5625,937.0938 292.6875,937.0938 C290.0625,937.0938 288.0625,939.1719 288.0625,941.8906 L288.0625,943.0156 C288.0625,945.5938 290.1719,947.4844 293.0625,947.4844 C294.2813,947.4844 295.4375,947.1875 296.1875,946.6406 C296.7656,946.2344 297.0938,945.7813 297.0938,945.3906 C297.0938,944.9375 296.7031,944.5469 296.2344,944.5469 C296.0156,944.5469 295.8125,944.625 295.625,944.8125 C295.1719,945.2969 295.1719,945.2969 294.9844,945.3906 C294.5625,945.6563 293.875,945.7813 293.1094,945.7813 C291.0625,945.7813 289.7656,944.6875 289.7656,942.9844 L289.7656,941.8906 C289.7656,940.1094 291.0156,938.7969 292.75,938.7969 C293.3281,938.7969 293.9375,938.9531 294.4063,939.2031 C294.8906,939.4844 295.0625,939.7031 295.1563,940.1094 C295.2188,940.5156 295.25,940.6406 295.3906,940.7656 C295.5313,940.9063 295.7656,941.0156 295.9844,941.0156 C296.25,941.0156 296.5156,940.875 296.6875,940.6563 C296.7969,940.5 296.8281,940.3125 296.8281,939.8906 L296.8281,938.4688 C296.8281,938.0313 296.8125,937.9063 296.7188,937.75 C296.5625,937.4844 296.2813,937.3438 295.9844,937.3438 C295.6875,937.3438 295.4844,937.4375 295.2656,937.75 L295.0938,937.6719 Z " fill="#000000"/><text fill="#000000" font-family="sans-serif" font-size="14" lengthAdjust="spacing" textLength="90" x="313.25" y="946.8467">basic_logger</text><line style="stroke:#181818;stroke-width:0.5;" x1="244.5" x2="439.5" y1="958" y2="958"/><line style="stroke:#181818;stroke-width:0.5;" x1="244.5" x2="439.5" y1="966" y2="966"/><ellipse cx="254.5" cy="979.6484" fill="#84BE84" rx="3" ry="3" style="stroke:#038048;stroke-width:1.0;"/><text fill="#000000" font-family="sans-serif" font-size="14" lengthAdjust="spacing" textLength="171" x="263.5" y="982.9951">instance_id() : identifier</text><ellipse cx="254.5" cy="995.9453" fill="#84BE84" rx="3" ry="3" style="stroke:#038048;stroke-width:1.0;"/><text fill="#000000" font-family="sans-serif" font-size="14" lengthAdjust="spacing" textLength="72" x="263.5" y="999.292">backend()</text><ellipse cx="254.5" cy="1012.2422" fill="#84BE84" rx="3" ry="3" style="stroke:#038048;stroke-width:1.0;"/><text fill="#000000" font-family="sans-serif" font-size="14" lengthAdjust="spacing" textLength="125" x="263.5" y="1015.5889">make_log_entry()</text></g><!--class logger--><g id="elem_logger"><rect codeLine="81" fill="#F1F1F1" height="162.0781" id="logger" rx="2.5" ry="2.5" style="stroke:#181818;stroke-width:0.5;" width="92" x="296" y="687"/><ellipse cx="317.3" cy="703" fill="#ADD1B2" rx="11" ry="11" style="stroke:#181818;stroke-width:1.0;"/><path d="M319.6438,698.6719 C318.7063,698.2344 318.1125,698.0938 317.2375,698.0938 C314.6125,698.0938 312.6125,700.1719 312.6125,702.8906 L312.6125,704.0156 C312.6125,706.5938 314.7219,708.4844 317.6125,708.4844 C318.8313,708.4844 319.9875,708.1875 320.7375,707.6406 C321.3156,707.2344 321.6438,706.7813 321.6438,706.3906 C321.6438,705.9375 321.2531,705.5469 320.7844,705.5469 C320.5656,705.5469 320.3625,705.625 320.175,705.8125 C319.7219,706.2969 319.7219,706.2969 319.5344,706.3906 C319.1125,706.6563 318.425,706.7813 317.6594,706.7813 C315.6125,706.7813 314.3156,705.6875 314.3156,703.9844 L314.3156,702.8906 C314.3156,701.1094 315.5656,699.7969 317.3,699.7969 C317.8781,699.7969 318.4875,699.9531 318.9563,700.2031 C319.4406,700.4844 319.6125,700.7031 319.7063,701.1094 C319.7688,701.5156 319.8,701.6406 319.9406,701.7656 C320.0813,701.9063 320.3156,702.0156 320.5344,702.0156 C320.8,702.0156 321.0656,701.875 321.2375,701.6563 C321.3469,701.5 321.3781,701.3125 321.3781,700.8906 L321.3781,699.4688 C321.3781,699.0313 321.3625,698.9063 321.2688,698.75 C321.1125,698.4844 320.8313,698.3438 320.5344,698.3438 C320.2375,698.3438 320.0344,698.4375 319.8156,698.75 L319.6438,698.6719 Z " fill="#000000"/><text fill="#000000" font-family="sans-serif" font-size="14" lengthAdjust="spacing" textLength="46" x="332.7" y="707.8467">logger</text><line style="stroke:#181818;stroke-width:0.5;" x1="297" x2="387" y1="719" y2="719"/><line style="stroke:#181818;stroke-width:0.5;" x1="297" x2="387" y1="727" y2="727"/><ellipse cx="307" cy="740.6484" fill="#84BE84" rx="3" ry="3" style="stroke:#038048;stroke-width:1.0;"/><text fill="#000000" font-family="sans-serif" font-size="14" lengthAdjust="spacing" textLength="32" x="316" y="743.9951">log()</text><ellipse cx="307" cy="756.9453" fill="#84BE84" rx="3" ry="3" style="stroke:#038048;stroke-width:1.0;"/><text fill="#000000" font-family="sans-serif" font-size="14" lengthAdjust="spacing" textLength="46" x="316" y="760.292">error()</text><ellipse cx="307" cy="773.2422" fill="#84BE84" rx="3" ry="3" style="stroke:#038048;stroke-width:1.0;"/><text fill="#000000" font-family="sans-serif" font-size="14" lengthAdjust="spacing" textLength="66" x="316" y="776.5889">warning()</text><ellipse cx="307" cy="789.5391" fill="#84BE84" rx="3" ry="3" style="stroke:#038048;stroke-width:1.0;"/><text fill="#000000" font-family="sans-serif" font-size="14" lengthAdjust="spacing" textLength="38" x="316" y="792.8857">info()</text><ellipse cx="307" cy="805.8359" fill="#84BE84" rx="3" ry="3" style="stroke:#038048;stroke-width:1.0;"/><text fill="#000000" font-family="sans-serif" font-size="14" lengthAdjust="spacing" textLength="39" x="316" y="809.1826">stat()</text><ellipse cx="307" cy="822.1328" fill="#84BE84" rx="3" ry="3" style="stroke:#038048;stroke-width:1.0;"/><text fill="#000000" font-family="sans-serif" font-size="14" lengthAdjust="spacing" textLength="55" x="316" y="825.4795">debug()</text><ellipse cx="307" cy="838.4297" fill="#84BE84" rx="3" ry="3" style="stroke:#038048;stroke-width:1.0;"/><text fill="#000000" font-family="sans-serif" font-size="14" lengthAdjust="spacing" textLength="48" x="316" y="841.7764">trace()</text></g><!--class named_logging_object--><g id="elem_named_logging_object"><rect codeLine="91" fill="#F1F1F1" height="178.375" id="named_logging_object" rx="2.5" ry="2.5" style="stroke:#181818;stroke-width:0.5;" width="195" x="173.5" y="1108.5"/><ellipse cx="188.5" cy="1124.5" fill="#ADD1B2" rx="11" ry="11" style="stroke:#181818;stroke-width:1.0;"/><path d="M190.8438,1120.1719 C189.9063,1119.7344 189.3125,1119.5938 188.4375,1119.5938 C185.8125,1119.5938 183.8125,1121.6719 183.8125,1124.3906 L183.8125,1125.5156 C183.8125,1128.0938 185.9219,1129.9844 188.8125,1129.9844 C190.0313,1129.9844 191.1875,1129.6875 191.9375,1129.1406 C192.5156,1128.7344 192.8438,1128.2813 192.8438,1127.8906 C192.8438,1127.4375 192.4531,1127.0469 191.9844,1127.0469 C191.7656,1127.0469 191.5625,1127.125 191.375,1127.3125 C190.9219,1127.7969 190.9219,1127.7969 190.7344,1127.8906 C190.3125,1128.1563 189.625,1128.2813 188.8594,1128.2813 C186.8125,1128.2813 185.5156,1127.1875 185.5156,1125.4844 L185.5156,1124.3906 C185.5156,1122.6094 186.7656,1121.2969 188.5,1121.2969 C189.0781,1121.2969 189.6875,1121.4531 190.1563,1121.7031 C190.6406,1121.9844 190.8125,1122.2031 190.9063,1122.6094 C190.9688,1123.0156 191,1123.1406 191.1406,1123.2656 C191.2813,1123.4063 191.5156,1123.5156 191.7344,1123.5156 C192,1123.5156 192.2656,1123.375 192.4375,1123.1563 C192.5469,1123 192.5781,1122.8125 192.5781,1122.3906 L192.5781,1120.9688 C192.5781,1120.5313 192.5625,1120.4063 192.4688,1120.25 C192.3125,1119.9844 192.0313,1119.8438 191.7344,1119.8438 C191.4375,1119.8438 191.2344,1119.9375 191.0156,1120.25 L190.8438,1120.1719 Z " fill="#000000"/><text fill="#000000" font-family="sans-serif" font-size="14" lengthAdjust="spacing" textLength="163" x="202.5" y="1129.3467">named_logging_object</text><line style="stroke:#181818;stroke-width:0.5;" x1="174.5" x2="367.5" y1="1140.5" y2="1140.5"/><line style="stroke:#181818;stroke-width:0.5;" x1="174.5" x2="367.5" y1="1148.5" y2="1148.5"/><ellipse cx="184.5" cy="1162.1484" fill="#84BE84" rx="3" ry="3" style="stroke:#038048;stroke-width:1.0;"/><text fill="#000000" font-family="sans-serif" font-size="14" lengthAdjust="spacing" textLength="32" x="193.5" y="1165.4951">log()</text><ellipse cx="184.5" cy="1178.4453" fill="#84BE84" rx="3" ry="3" style="stroke:#038048;stroke-width:1.0;"/><text fill="#000000" font-family="sans-serif" font-size="14" lengthAdjust="spacing" textLength="72" x="193.5" y="1181.792">log_fatal()</text><ellipse cx="184.5" cy="1194.7422" fill="#84BE84" rx="3" ry="3" style="stroke:#038048;stroke-width:1.0;"/><text fill="#000000" font-family="sans-serif" font-size="14" lengthAdjust="spacing" textLength="75" x="193.5" y="1198.0889">log_error()</text><ellipse cx="184.5" cy="1211.0391" fill="#84BE84" rx="3" ry="3" style="stroke:#038048;stroke-width:1.0;"/><text fill="#000000" font-family="sans-serif" font-size="14" lengthAdjust="spacing" textLength="95" x="193.5" y="1214.3857">log_warning()</text><ellipse cx="184.5" cy="1227.3359" fill="#84BE84" rx="3" ry="3" style="stroke:#038048;stroke-width:1.0;"/><text fill="#000000" font-family="sans-serif" font-size="14" lengthAdjust="spacing" textLength="67" x="193.5" y="1230.6826">log_info()</text><ellipse cx="184.5" cy="1243.6328" fill="#84BE84" rx="3" ry="3" style="stroke:#038048;stroke-width:1.0;"/><text fill="#000000" font-family="sans-serif" font-size="14" lengthAdjust="spacing" textLength="68" x="193.5" y="1246.9795">log_stat()</text><ellipse cx="184.5" cy="1259.9297" fill="#84BE84" rx="3" ry="3" style="stroke:#038048;stroke-width:1.0;"/><text fill="#000000" font-family="sans-serif" font-size="14" lengthAdjust="spacing" textLength="84" x="193.5" y="1263.2764">log_debug()</text><ellipse cx="184.5" cy="1276.2266" fill="#84BE84" rx="3" ry="3" style="stroke:#038048;stroke-width:1.0;"/><text fill="#000000" font-family="sans-serif" font-size="14" lengthAdjust="spacing" textLength="77" x="193.5" y="1279.5732">log_trace()</text></g><!--class root_logger--><g id="elem_root_logger"><rect codeLine="104" fill="#F1F1F1" height="56.2656" id="root_logger" rx="2.5" ry="2.5" style="stroke:#181818;stroke-width:0.5;" width="134" x="275" y="501"/><ellipse cx="290" cy="521.1328" fill="#ADD1B2" rx="11" ry="11" style="stroke:#181818;stroke-width:1.0;"/><path d="M292.3438,516.8047 C291.4063,516.3672 290.8125,516.2266 289.9375,516.2266 C287.3125,516.2266 285.3125,518.3047 285.3125,521.0234 L285.3125,522.1484 C285.3125,524.7266 287.4219,526.6172 290.3125,526.6172 C291.5313,526.6172 292.6875,526.3203 293.4375,525.7734 C294.0156,525.3672 294.3438,524.9141 294.3438,524.5234 C294.3438,524.0703 293.9531,523.6797 293.4844,523.6797 C293.2656,523.6797 293.0625,523.7578 292.875,523.9453 C292.4219,524.4297 292.4219,524.4297 292.2344,524.5234 C291.8125,524.7891 291.125,524.9141 290.3594,524.9141 C288.3125,524.9141 287.0156,523.8203 287.0156,522.1172 L287.0156,521.0234 C287.0156,519.2422 288.2656,517.9297 290,517.9297 C290.5781,517.9297 291.1875,518.0859 291.6563,518.3359 C292.1406,518.6172 292.3125,518.8359 292.4063,519.2422 C292.4688,519.6484 292.5,519.7734 292.6406,519.8984 C292.7813,520.0391 293.0156,520.1484 293.2344,520.1484 C293.5,520.1484 293.7656,520.0078 293.9375,519.7891 C294.0469,519.6328 294.0781,519.4453 294.0781,519.0234 L294.0781,517.6016 C294.0781,517.1641 294.0625,517.0391 293.9688,516.8828 C293.8125,516.6172 293.5313,516.4766 293.2344,516.4766 C292.9375,516.4766 292.7344,516.5703 292.5156,516.8828 L292.3438,516.8047 Z " fill="#000000"/><text fill="#000000" font-family="sans-serif" font-size="12" font-style="italic" lengthAdjust="spacing" textLength="106" x="302" y="517.1387">&#171;Single instance&#187;</text><text fill="#000000" font-family="sans-serif" font-size="14" lengthAdjust="spacing" textLength="84" x="313" y="532.9639">root_logger</text><line style="stroke:#181818;stroke-width:0.5;" x1="276" x2="408" y1="541.2656" y2="541.2656"/><line style="stroke:#181818;stroke-width:0.5;" x1="276" x2="408" y1="549.2656" y2="549.2656"/></g><!--class log_event_severity--><g id="elem_log_event_severity"><rect codeLine="1" fill="#F1F1F1" height="162.0781" id="log_event_severity" rx="2.5" ry="2.5" style="stroke:#181818;stroke-width:0.5;" width="168" x="473" y="448"/><ellipse cx="488" cy="464" fill="#EB937F" rx="11" ry="11" style="stroke:#181818;stroke-width:1.0;"/><path d="M486.7969,464.875 L488.25,464.875 L488.25,464.9844 C488.25,465.3906 488.2813,465.5469 488.3594,465.7031 C488.5156,465.9531 488.7969,466.1094 489.0938,466.1094 C489.3438,466.1094 489.6094,465.9688 489.7656,465.75 C489.8906,465.5938 489.9219,465.4375 489.9219,464.9844 L489.9219,463.0625 C489.9219,462.9063 489.9219,462.8594 489.9063,462.7031 C489.8438,462.2344 489.5313,461.9219 489.0781,461.9219 C488.8281,461.9219 488.5625,462.0625 488.3906,462.2813 C488.2813,462.4531 488.25,462.6094 488.25,463.0625 L488.25,463.1875 L486.7969,463.1875 L486.7969,460.7813 L490.7813,460.7813 L490.7813,461.6406 C490.7813,462.0469 490.8125,462.2188 490.8906,462.375 C491.0625,462.625 491.3438,462.7813 491.625,462.7813 C491.8906,462.7813 492.1563,462.6406 492.3281,462.4219 C492.4375,462.25 492.4688,462.1094 492.4688,461.6406 L492.4688,459.0938 L484.8438,459.0938 C484.4063,459.0938 484.2813,459.1094 484.125,459.2031 C483.875,459.3594 483.7188,459.6563 483.7188,459.9375 C483.7188,460.2188 483.8594,460.4688 484.0781,460.6406 C484.2344,460.75 484.4219,460.7813 484.8438,460.7813 L485.0938,460.7813 L485.0938,467.2969 L484.8438,467.2969 C484.4375,467.2969 484.2813,467.3125 484.125,467.4219 C483.875,467.5938 483.7188,467.8594 483.7188,468.1563 C483.7188,468.4219 483.8594,468.6719 484.0781,468.8281 C484.2188,468.9531 484.4531,469 484.8438,469 L492.8438,469 L492.8438,466.4219 C492.8438,465.9844 492.8125,465.8438 492.7344,465.6875 C492.5625,465.4375 492.2813,465.2813 492,465.2813 C491.7344,465.2813 491.4688,465.3906 491.2969,465.6406 C491.1875,465.7969 491.1563,465.9375 491.1563,466.4219 L491.1563,467.2969 L486.7969,467.2969 L486.7969,464.875 Z " fill="#000000"/><text fill="#000000" font-family="sans-serif" font-size="14" lengthAdjust="spacing" textLength="136" x="502" y="468.8467">log_event_severity</text><line style="stroke:#181818;stroke-width:0.5;" x1="474" x2="640" y1="480" y2="480"/><text fill="#000000" font-family="sans-serif" font-size="14" lengthAdjust="spacing" textLength="38" x="479" y="496.9951">trace</text><text fill="#000000" font-family="sans-serif" font-size="14" lengthAdjust="spacing" textLength="45" x="479" y="513.292">debug</text><text fill="#000000" font-family="sans-serif" font-size="14" lengthAdjust="spacing" textLength="29" x="479" y="529.5889">stat</text><text fill="#000000" font-family="sans-serif" font-size="14" lengthAdjust="spacing" textLength="28" x="479" y="545.8857">info</text><text fill="#000000" font-family="sans-serif" font-size="14" lengthAdjust="spacing" textLength="56" x="479" y="562.1826">warning</text><text fill="#000000" font-family="sans-serif" font-size="14" lengthAdjust="spacing" textLength="36" x="479" y="578.4795">error</text><text fill="#000000" font-family="sans-serif" font-size="14" lengthAdjust="spacing" textLength="33" x="479" y="594.7764">fatal</text><line style="stroke:#181818;stroke-width:0.5;" x1="474" x2="640" y1="602.0781" y2="602.0781"/></g><!--class log_entry--><g id="elem_log_entry"><rect codeLine="68" fill="#F1F1F1" height="80.5938" id="log_entry" rx="2.5" ry="2.5" style="stroke:#181818;stroke-width:0.5;" width="131" x="491.5" y="727.5"/><ellipse cx="520.45" cy="743.5" fill="#ADD1B2" rx="11" ry="11" style="stroke:#181818;stroke-width:1.0;"/><path d="M522.7938,739.1719 C521.8563,738.7344 521.2625,738.5938 520.3875,738.5938 C517.7625,738.5938 515.7625,740.6719 515.7625,743.3906 L515.7625,744.5156 C515.7625,747.0938 517.8719,748.9844 520.7625,748.9844 C521.9813,748.9844 523.1375,748.6875 523.8875,748.1406 C524.4656,747.7344 524.7938,747.2813 524.7938,746.8906 C524.7938,746.4375 524.4031,746.0469 523.9344,746.0469 C523.7156,746.0469 523.5125,746.125 523.325,746.3125 C522.8719,746.7969 522.8719,746.7969 522.6844,746.8906 C522.2625,747.1563 521.575,747.2813 520.8094,747.2813 C518.7625,747.2813 517.4656,746.1875 517.4656,744.4844 L517.4656,743.3906 C517.4656,741.6094 518.7156,740.2969 520.45,740.2969 C521.0281,740.2969 521.6375,740.4531 522.1063,740.7031 C522.5906,740.9844 522.7625,741.2031 522.8563,741.6094 C522.9188,742.0156 522.95,742.1406 523.0906,742.2656 C523.2313,742.4063 523.4656,742.5156 523.6844,742.5156 C523.95,742.5156 524.2156,742.375 524.3875,742.1563 C524.4969,742 524.5281,741.8125 524.5281,741.3906 L524.5281,739.9688 C524.5281,739.5313 524.5125,739.4063 524.4188,739.25 C524.2625,738.9844 523.9813,738.8438 523.6844,738.8438 C523.3875,738.8438 523.1844,738.9375 522.9656,739.25 L522.7938,739.1719 Z " fill="#000000"/><text fill="#000000" font-family="sans-serif" font-size="14" lengthAdjust="spacing" textLength="68" x="537.55" y="748.3467">log_entry</text><line style="stroke:#181818;stroke-width:0.5;" x1="492.5" x2="621.5" y1="759.5" y2="759.5"/><line style="stroke:#181818;stroke-width:0.5;" x1="492.5" x2="621.5" y1="767.5" y2="767.5"/><ellipse cx="502.5" cy="781.1484" fill="#84BE84" rx="3" ry="3" style="stroke:#038048;stroke-width:1.0;"/><text fill="#000000" font-family="sans-serif" font-size="14" lengthAdjust="spacing" textLength="105" x="511.5" y="784.4951">set_format(...)</text><ellipse cx="502.5" cy="797.4453" fill="#84BE84" rx="3" ry="3" style="stroke:#038048;stroke-width:1.0;"/><text fill="#000000" font-family="sans-serif" font-size="14" lengthAdjust="spacing" textLength="48" x="511.5" y="800.792">arg(...)</text></g><!--class root_logger_options--><g id="elem_root_logger_options"><rect codeLine="109" fill="#F1F1F1" height="48" id="root_logger_options" rx="2.5" ry="2.5" style="stroke:#181818;stroke-width:0.5;" width="178" x="328" y="298.5"/><ellipse cx="343" cy="314.5" fill="#ADD1B2" rx="11" ry="11" style="stroke:#181818;stroke-width:1.0;"/><path d="M345.3438,310.1719 C344.4063,309.7344 343.8125,309.5938 342.9375,309.5938 C340.3125,309.5938 338.3125,311.6719 338.3125,314.3906 L338.3125,315.5156 C338.3125,318.0938 340.4219,319.9844 343.3125,319.9844 C344.5313,319.9844 345.6875,319.6875 346.4375,319.1406 C347.0156,318.7344 347.3438,318.2813 347.3438,317.8906 C347.3438,317.4375 346.9531,317.0469 346.4844,317.0469 C346.2656,317.0469 346.0625,317.125 345.875,317.3125 C345.4219,317.7969 345.4219,317.7969 345.2344,317.8906 C344.8125,318.1563 344.125,318.2813 343.3594,318.2813 C341.3125,318.2813 340.0156,317.1875 340.0156,315.4844 L340.0156,314.3906 C340.0156,312.6094 341.2656,311.2969 343,311.2969 C343.5781,311.2969 344.1875,311.4531 344.6563,311.7031 C345.1406,311.9844 345.3125,312.2031 345.4063,312.6094 C345.4688,313.0156 345.5,313.1406 345.6406,313.2656 C345.7813,313.4063 346.0156,313.5156 346.2344,313.5156 C346.5,313.5156 346.7656,313.375 346.9375,313.1563 C347.0469,313 347.0781,312.8125 347.0781,312.3906 L347.0781,310.9688 C347.0781,310.5313 347.0625,310.4063 346.9688,310.25 C346.8125,309.9844 346.5313,309.8438 346.2344,309.8438 C345.9375,309.8438 345.7344,309.9375 345.5156,310.25 L345.3438,310.1719 Z " fill="#000000"/><text fill="#000000" font-family="sans-serif" font-size="14" lengthAdjust="spacing" textLength="146" x="357" y="319.3467">root_logger_options</text><line style="stroke:#181818;stroke-width:0.5;" x1="329" x2="505" y1="330.5" y2="330.5"/><line style="stroke:#181818;stroke-width:0.5;" x1="329" x2="505" y1="338.5" y2="338.5"/></g><!--class program_args--><g id="elem_program_args"><rect codeLine="112" fill="#F1F1F1" height="96.8906" id="program_args" rx="2.5" ry="2.5" style="stroke:#181818;stroke-width:0.5;" width="131" x="161.5" y="274"/><ellipse cx="176.5" cy="290" fill="#ADD1B2" rx="11" ry="11" style="stroke:#181818;stroke-width:1.0;"/><path d="M178.8438,285.6719 C177.9063,285.2344 177.3125,285.0938 176.4375,285.0938 C173.8125,285.0938 171.8125,287.1719 171.8125,289.8906 L171.8125,291.0156 C171.8125,293.5938 173.9219,295.4844 176.8125,295.4844 C178.0313,295.4844 179.1875,295.1875 179.9375,294.6406 C180.5156,294.2344 180.8438,293.7813 180.8438,293.3906 C180.8438,292.9375 180.4531,292.5469 179.9844,292.5469 C179.7656,292.5469 179.5625,292.625 179.375,292.8125 C178.9219,293.2969 178.9219,293.2969 178.7344,293.3906 C178.3125,293.6563 177.625,293.7813 176.8594,293.7813 C174.8125,293.7813 173.5156,292.6875 173.5156,290.9844 L173.5156,289.8906 C173.5156,288.1094 174.7656,286.7969 176.5,286.7969 C177.0781,286.7969 177.6875,286.9531 178.1563,287.2031 C178.6406,287.4844 178.8125,287.7031 178.9063,288.1094 C178.9688,288.5156 179,288.6406 179.1406,288.7656 C179.2813,288.9063 179.5156,289.0156 179.7344,289.0156 C180,289.0156 180.2656,288.875 180.4375,288.6563 C180.5469,288.5 180.5781,288.3125 180.5781,287.8906 L180.5781,286.4688 C180.5781,286.0313 180.5625,285.9063 180.4688,285.75 C180.3125,285.4844 180.0313,285.3438 179.7344,285.3438 C179.4375,285.3438 179.2344,285.4375 179.0156,285.75 L178.8438,285.6719 Z " fill="#000000"/><text fill="#000000" font-family="sans-serif" font-size="14" lengthAdjust="spacing" textLength="99" x="190.5" y="294.8467">program_args</text><line style="stroke:#181818;stroke-width:0.5;" x1="162.5" x2="291.5" y1="306" y2="306"/><line style="stroke:#181818;stroke-width:0.5;" x1="162.5" x2="291.5" y1="314" y2="314"/><ellipse cx="172.5" cy="327.6484" fill="#84BE84" rx="3" ry="3" style="stroke:#038048;stroke-width:1.0;"/><text fill="#000000" font-family="sans-serif" font-size="14" lengthAdjust="spacing" textLength="51" x="181.5" y="330.9951">begin()</text><ellipse cx="172.5" cy="343.9453" fill="#84BE84" rx="3" ry="3" style="stroke:#038048;stroke-width:1.0;"/><text fill="#000000" font-family="sans-serif" font-size="14" lengthAdjust="spacing" textLength="37" x="181.5" y="347.292">end()</text><ellipse cx="172.5" cy="360.2422" fill="#84BE84" rx="3" ry="3" style="stroke:#038048;stroke-width:1.0;"/><text fill="#000000" font-family="sans-serif" font-size="14" lengthAdjust="spacing" textLength="38" x="181.5" y="363.5889">find()</text></g><!--class main_ctx_object--><g id="elem_main_ctx_object"><rect codeLine="118" fill="#F1F1F1" height="48" id="main_ctx_object" rx="2.5" ry="2.5" style="stroke:#181818;stroke-width:0.5;" width="151" x="74.5" y="1372"/><ellipse cx="89.5" cy="1388" fill="#ADD1B2" rx="11" ry="11" style="stroke:#181818;stroke-width:1.0;"/><path d="M91.8438,1383.6719 C90.9063,1383.2344 90.3125,1383.0938 89.4375,1383.0938 C86.8125,1383.0938 84.8125,1385.1719 84.8125,1387.8906 L84.8125,1389.0156 C84.8125,1391.5938 86.9219,1393.4844 89.8125,1393.4844 C91.0313,1393.4844 92.1875,1393.1875 92.9375,1392.6406 C93.5156,1392.2344 93.8438,1391.7813 93.8438,1391.3906 C93.8438,1390.9375 93.4531,1390.5469 92.9844,1390.5469 C92.7656,1390.5469 92.5625,1390.625 92.375,1390.8125 C91.9219,1391.2969 91.9219,1391.2969 91.7344,1391.3906 C91.3125,1391.6563 90.625,1391.7813 89.8594,1391.7813 C87.8125,1391.7813 86.5156,1390.6875 86.5156,1388.9844 L86.5156,1387.8906 C86.5156,1386.1094 87.7656,1384.7969 89.5,1384.7969 C90.0781,1384.7969 90.6875,1384.9531 91.1563,1385.2031 C91.6406,1385.4844 91.8125,1385.7031 91.9063,1386.1094 C91.9688,1386.5156 92,1386.6406 92.1406,1386.7656 C92.2813,1386.9063 92.5156,1387.0156 92.7344,1387.0156 C93,1387.0156 93.2656,1386.875 93.4375,1386.6563 C93.5469,1386.5 93.5781,1386.3125 93.5781,1385.8906 L93.5781,1384.4688 C93.5781,1384.0313 93.5625,1383.9063 93.4688,1383.75 C93.3125,1383.4844 93.0313,1383.3438 92.7344,1383.3438 C92.4375,1383.3438 92.2344,1383.4375 92.0156,1383.75 L91.8438,1383.6719 Z " fill="#000000"/><text fill="#000000" font-family="sans-serif" font-size="14" lengthAdjust="spacing" textLength="119" x="103.5" y="1392.8467">main_ctx_object</text><line style="stroke:#181818;stroke-width:0.5;" x1="75.5" x2="224.5" y1="1404" y2="1404"/><line style="stroke:#181818;stroke-width:0.5;" x1="75.5" x2="224.5" y1="1412" y2="1412"/></g><!--class main_ctx--><g id="elem_main_ctx"><rect codeLine="121" fill="#F1F1F1" height="56.2656" id="main_ctx" rx="2.5" ry="2.5" style="stroke:#181818;stroke-width:0.5;" width="134" x="7" y="501"/><ellipse cx="22" cy="521.1328" fill="#ADD1B2" rx="11" ry="11" style="stroke:#181818;stroke-width:1.0;"/><path d="M24.3438,516.8047 C23.4063,516.3672 22.8125,516.2266 21.9375,516.2266 C19.3125,516.2266 17.3125,518.3047 17.3125,521.0234 L17.3125,522.1484 C17.3125,524.7266 19.4219,526.6172 22.3125,526.6172 C23.5313,526.6172 24.6875,526.3203 25.4375,525.7734 C26.0156,525.3672 26.3438,524.9141 26.3438,524.5234 C26.3438,524.0703 25.9531,523.6797 25.4844,523.6797 C25.2656,523.6797 25.0625,523.7578 24.875,523.9453 C24.4219,524.4297 24.4219,524.4297 24.2344,524.5234 C23.8125,524.7891 23.125,524.9141 22.3594,524.9141 C20.3125,524.9141 19.0156,523.8203 19.0156,522.1172 L19.0156,521.0234 C19.0156,519.2422 20.2656,517.9297 22,517.9297 C22.5781,517.9297 23.1875,518.0859 23.6563,518.3359 C24.1406,518.6172 24.3125,518.8359 24.4063,519.2422 C24.4688,519.6484 24.5,519.7734 24.6406,519.8984 C24.7813,520.0391 25.0156,520.1484 25.2344,520.1484 C25.5,520.1484 25.7656,520.0078 25.9375,519.7891 C26.0469,519.6328 26.0781,519.4453 26.0781,519.0234 L26.0781,517.6016 C26.0781,517.1641 26.0625,517.0391 25.9688,516.8828 C25.8125,516.6172 25.5313,516.4766 25.2344,516.4766 C24.9375,516.4766 24.7344,516.5703 24.5156,516.8828 L24.3438,516.8047 Z " fill="#000000"/><text fill="#000000" font-family="sans-serif" font-size="12" font-style="italic" lengthAdjust="spacing" textLength="106" x="34" y="517.1387">&#171;Single instance&#187;</text><text fill="#000000" font-family="sans-serif" font-size="14" lengthAdjust="spacing" textLength="65" x="54.5" y="532.9639">main_ctx</text><line style="stroke:#181818;stroke-width:0.5;" x1="8" x2="140" y1="541.2656" y2="541.2656"/><line style="stroke:#181818;stroke-width:0.5;" x1="8" x2="140" y1="549.2656" y2="549.2656"/></g><!--class main--><g id="elem_main"><rect codeLine="124" fill="#F1F1F1" height="56.2656" id="main" rx="2.5" ry="2.5" style="stroke:#181818;stroke-width:0.5;" width="95" x="107.5" y="120.5"/><ellipse cx="122.5" cy="140.6328" fill="#ADD1B2" rx="11" ry="11" style="stroke:#181818;stroke-width:1.0;"/><path d="M124.8438,136.3047 C123.9063,135.8672 123.3125,135.7266 122.4375,135.7266 C119.8125,135.7266 117.8125,137.8047 117.8125,140.5234 L117.8125,141.6484 C117.8125,144.2266 119.9219,146.1172 122.8125,146.1172 C124.0313,146.1172 125.1875,145.8203 125.9375,145.2734 C126.5156,144.8672 126.8438,144.4141 126.8438,144.0234 C126.8438,143.5703 126.4531,143.1797 125.9844,143.1797 C125.7656,143.1797 125.5625,143.2578 125.375,143.4453 C124.9219,143.9297 124.9219,143.9297 124.7344,144.0234 C124.3125,144.2891 123.625,144.4141 122.8594,144.4141 C120.8125,144.4141 119.5156,143.3203 119.5156,141.6172 L119.5156,140.5234 C119.5156,138.7422 120.7656,137.4297 122.5,137.4297 C123.0781,137.4297 123.6875,137.5859 124.1563,137.8359 C124.6406,138.1172 124.8125,138.3359 124.9063,138.7422 C124.9688,139.1484 125,139.2734 125.1406,139.3984 C125.2813,139.5391 125.5156,139.6484 125.7344,139.6484 C126,139.6484 126.2656,139.5078 126.4375,139.2891 C126.5469,139.1328 126.5781,138.9453 126.5781,138.5234 L126.5781,137.1016 C126.5781,136.6641 126.5625,136.5391 126.4688,136.3828 C126.3125,136.1172 126.0313,135.9766 125.7344,135.9766 C125.4375,135.9766 125.2344,136.0703 125.0156,136.3828 L124.8438,136.3047 Z " fill="#000000"/><text fill="#000000" font-family="sans-serif" font-size="12" font-style="italic" lengthAdjust="spacing" textLength="67" x="134.5" y="136.6387">&#171;Function&#187;</text><text fill="#000000" font-family="sans-serif" font-size="14" lengthAdjust="spacing" textLength="35" x="150.5" y="152.4639">main</text><line style="stroke:#181818;stroke-width:0.5;" x1="108.5" x2="201.5" y1="160.7656" y2="160.7656"/><line style="stroke:#181818;stroke-width:0.5;" x1="108.5" x2="201.5" y1="168.7656" y2="168.7656"/></g><!--link json_log_backend to proxy_log_backend--><!--link xml_log_backend to proxy_log_backend--><!--link asio_log_output_stream to std_log_output_stream--><!--link named_logging_object to named_logging_object--><g id="link_named_logging_object_named_logging_object"><path codeLine="102" d="M368.648,1172.896 C388.922,1175.486 403.5,1183.688 403.5,1197.5 C403.5,1211.312 394.8736,1218.7537 374.5996,1221.3437 " fill="none" id="named_logging_object-to-named_logging_object" style="stroke:#181818;stroke-width:1.0;"/><polygon fill="#181818" points="368.648,1222.104,378.0823,1224.9313,373.6077,1221.4704,377.0686,1216.9958,368.648,1222.104" style="stroke:#181818;stroke-width:1.0;"/><text fill="#000000" font-family="sans-serif" font-size="13" lengthAdjust="spacing" textLength="42" x="409.5" y="1202.0669">parent</text></g><!--link std_log_output_stream to log_output_stream--><g id="link_std_log_output_stream_log_output_stream"><path codeLine="127" d="M952.084,371.19 C930.472,406.83 910.607,439.5926 890.291,473.0966 " fill="none" id="std_log_output_stream-to-log_output_stream" style="stroke:#181818;stroke-width:1.0;"/><polygon fill="none" points="880.958,488.488,895.4214,476.2076,885.1605,469.9856,880.958,488.488" style="stroke:#181818;stroke-width:1.0;"/><text fill="#000000" font-family="sans-serif" font-size="13" lengthAdjust="spacing" textLength="76" x="934" y="414.0669">implements</text></g><!--link asio_log_output_stream to log_output_stream--><g id="link_asio_log_output_stream_log_output_stream"><path codeLine="128" d="M843.432,197.15 C820.826,217.96 798.016,244.4 786,274 C756.209,347.4 789.738,422.2205 820.686,472.9895 " fill="none" id="asio_log_output_stream-to-log_output_stream" style="stroke:#181818;stroke-width:1.0;"/><polygon fill="none" points="830.055,488.359,825.8092,469.8665,815.5628,476.1125,830.055,488.359" style="stroke:#181818;stroke-width:1.0;"/><text fill="#000000" font-family="sans-serif" font-size="13" lengthAdjust="spacing" textLength="76" x="787" y="327.0669">implements</text></g><!--link log_output_stream to json_log_backend--><g id="link_log_output_stream_json_log_backend"><path codeLine="130" d="M838.3043,575.2127 C817.7073,625.0237 789.9266,692.2087 773.1946,732.6717 " fill="none" id="log_output_stream-json_log_backend" style="stroke:#181818;stroke-width:1.0;"/><polygon fill="#181818" points="840.597,569.668,833.4614,576.4565,838.6864,574.2886,840.8543,579.5135,840.597,569.668" style="stroke:#181818;stroke-width:1.0;"/><polygon fill="none" points="768.609,743.761,774.5982,739.7449,773.1946,732.6717,767.2054,736.6878,768.609,743.761" style="stroke:#181818;stroke-width:1.0;"/><text fill="#000000" font-family="sans-serif" font-size="13" lengthAdjust="spacing" textLength="30" x="812" y="653.0669">uses</text></g><!--link log_output_stream to xml_log_backend--><g id="link_log_output_stream_xml_log_backend"><path codeLine="131" d="M875.1334,575.2373 C895.0994,625.0483 922.0013,692.1595 938.2203,732.6225 " fill="none" id="log_output_stream-xml_log_backend" style="stroke:#181818;stroke-width:1.0;"/><polygon fill="#181818" points="872.901,569.668,872.5367,579.5101,874.7613,574.309,879.9624,576.5336,872.901,569.668" style="stroke:#181818;stroke-width:1.0;"/><polygon fill="none" points="942.685,743.761,944.1655,736.7035,938.2203,732.6225,936.7398,739.68,942.685,743.761" style="stroke:#181818;stroke-width:1.0;"/><text fill="#000000" font-family="sans-serif" font-size="13" lengthAdjust="spacing" textLength="30" x="909" y="653.0669">uses</text></g><!--reverse link logger_backend to null_log_backend--><g id="link_logger_backend_null_log_backend"><path codeLine="133" d="M871.661,1197.5 C907.881,1197.5 931.399,1197.5 966.397,1197.5 " fill="none" id="logger_backend-backto-null_log_backend" style="stroke:#181818;stroke-width:1.0;"/><polygon fill="none" points="853.661,1197.5,871.661,1203.5,871.661,1191.5,853.661,1197.5" style="stroke:#181818;stroke-width:1.0;"/><text fill="#000000" font-family="sans-serif" font-size="13" lengthAdjust="spacing" textLength="76" x="872" y="1190.5669">implements</text></g><!--reverse link logger_backend to syslog_log_backend--><g id="link_logger_backend_syslog_log_backend"><path codeLine="134" d="M765,1313.023 C765,1341.752 765,1352.6785 765,1371.9718 " fill="none" id="logger_backend-backto-syslog_log_backend" style="stroke:#181818;stroke-width:1.0;"/><polygon fill="none" points="765,1295.023,759,1313.023,771,1313.023,765,1295.023" style="stroke:#181818;stroke-width:1.0;"/><text fill="#000000" font-family="sans-serif" font-size="13" lengthAdjust="spacing" textLength="76" x="766" y="1338.0669">implements</text></g><!--link json_log_backend to logger_backend--><g id="link_json_log_backend_logger_backend"><path codeLine="135" d="M752.554,792.168 C744.456,822.589 731.011,877.796 726,926 C721.542,968.88 721.244,980.152 726,1023 C728.793,1048.161 729.9012,1057.4319 735.4152,1082.2979 " fill="none" id="json_log_backend-to-logger_backend" style="stroke:#181818;stroke-width:1.0;"/><polygon fill="none" points="739.312,1099.871,741.2729,1080.9989,729.5575,1083.5968,739.312,1099.871" style="stroke:#181818;stroke-width:1.0;"/><text fill="#000000" font-family="sans-serif" font-size="13" lengthAdjust="spacing" textLength="76" x="727" y="979.0669">implements</text></g><!--link xml_log_backend to logger_backend--><g id="link_xml_log_backend_logger_backend"><path codeLine="136" d="M966.989,792.184 C994.711,838.225 1047.86,943.587 1010,1023 C979.102,1087.807 926.6598,1125.1378 869.8938,1153.1578 " fill="none" id="xml_log_backend-to-logger_backend" style="stroke:#181818;stroke-width:1.0;"/><polygon fill="none" points="853.753,1161.125,872.5495,1158.5381,867.238,1147.7776,853.753,1161.125" style="stroke:#181818;stroke-width:1.0;"/><text fill="#000000" font-family="sans-serif" font-size="13" lengthAdjust="spacing" textLength="76" x="1024" y="979.0669">implements</text></g><!--link proxy_log_backend to logger_backend--><g id="link_proxy_log_backend_logger_backend"><path codeLine="137" d="M893.977,1002.544 C884.417,1021.757 870.753,1047.952 857,1070 C850.892,1079.792 854.4431,1074.9664 847.6571,1084.8804 " fill="none" id="proxy_log_backend-to-logger_backend" style="stroke:#181818;stroke-width:1.0;"/><polygon fill="none" points="837.49,1099.734,852.6083,1088.2694,842.7059,1081.4913,837.49,1099.734" style="stroke:#181818;stroke-width:1.0;"/><text fill="#000000" font-family="sans-serif" font-size="13" lengthAdjust="spacing" textLength="76" x="867" y="1066.0669">implements</text></g><!--link proxy_log_backend to logger_backend--><g id="link_proxy_log_backend_logger_backend"><path codeLine="138" d="M833.3948,1007.776 C800.5698,1023.369 776.171,1037.687 767,1053 C758.615,1067.001 754.9888,1077.262 753.3438,1093.664 " fill="none" id="proxy_log_backend-logger_backend" style="stroke:#181818;stroke-width:1.0;"/><polygon fill="#181818" points="844.234,1002.627,837.0981,1001.5884,833.3948,1007.776,840.5307,1008.8146,844.234,1002.627" style="stroke:#181818;stroke-width:1.0;"/><polygon fill="#181818" points="752.745,1099.634,757.6232,1091.0781,753.244,1094.659,749.6631,1090.2798,752.745,1099.634" style="stroke:#181818;stroke-width:1.0;"/><text fill="#000000" font-family="sans-serif" font-size="13" lengthAdjust="spacing" textLength="80" x="768" y="1066.0669">delegates to</text></g><!--reverse link log_event_severity to log_entry--><g id="link_log_event_severity_log_entry"><path codeLine="140" d="M557,616.237 C557,655.718 557,695.547 557,727.415 " fill="none" id="log_event_severity-backto-log_entry" style="stroke:#181818;stroke-width:1.0;"/><polygon fill="#181818" points="557,610.237,553,619.237,557,615.237,561,619.237,557,610.237" style="stroke:#181818;stroke-width:1.0;"/><text fill="#000000" font-family="sans-serif" font-size="13" lengthAdjust="spacing" textLength="23" x="558" y="653.0669">has</text></g><!--link log_entry to logger_backend--><g id="link_log_entry_logger_backend"><path codeLine="141" d="M576.381,808.834 C608.402,874.645 670.6169,1002.5147 715.2589,1094.2677 " fill="none" id="log_entry-to-logger_backend" style="stroke:#181818;stroke-width:1.0;"/><polygon fill="#181818" points="717.884,1099.663,717.5433,1089.82,715.6965,1095.1669,710.3496,1093.3201,717.884,1099.663" style="stroke:#181818;stroke-width:1.0;"/><text fill="#000000" font-family="sans-serif" font-size="13" lengthAdjust="spacing" textLength="30" x="680" y="979.0669">uses</text></g><!--reverse link log_entry to basic_logger--><g id="link_log_entry_basic_logger"><path codeLine="143" d="M510.9436,812.8072 C475.7746,846.2592 429.687,890.095 392.289,925.667 " fill="none" id="log_entry-backto-basic_logger" style="stroke:#181818;stroke-width:1.0;stroke-dasharray:7.0,7.0;"/><polygon fill="#181818" points="515.291,808.672,506.0131,811.9765,511.6681,812.118,511.5266,817.7731,515.291,808.672" style="stroke:#181818;stroke-width:1.0;"/><text fill="#000000" font-family="sans-serif" font-size="13" lengthAdjust="spacing" textLength="75" x="438" y="892.0669">instantiates</text></g><!--link basic_logger to logger_backend--><g id="link_basic_logger_logger_backend"><path codeLine="144" d="M443.6399,1028.6028 C515.6339,1066.2168 599.6281,1110.1006 671.0101,1147.3946 " fill="none" id="basic_logger-logger_backend" style="stroke:#181818;stroke-width:1.0;"/><polygon fill="none" points="433.004,1023.046,436.4697,1029.3697,443.6399,1028.6028,440.1742,1022.2791,433.004,1023.046" style="stroke:#181818;stroke-width:1.0;"/><polygon fill="#181818" points="676.328,1150.173,670.2033,1142.4601,671.8964,1147.8577,666.4988,1149.5507,676.328,1150.173" style="stroke:#181818;stroke-width:1.0;"/></g><!--link logger to basic_logger--><g id="link_logger_basic_logger"><path codeLine="145" d="M342,849.237 C342,875.197 342,885.145 342,907.949 " fill="none" id="logger-to-basic_logger" style="stroke:#181818;stroke-width:1.0;"/><polygon fill="none" points="342,925.949,348,907.949,336,907.949,342,925.949" style="stroke:#181818;stroke-width:1.0;"/></g><!--reverse link basic_logger to named_logging_object--><g id="link_basic_logger_named_logging_object"><path codeLine="146" d="M321.1753,1040.3193 C313.1853,1065.1893 308.659,1079.28 299.319,1108.354 " fill="none" id="basic_logger-backto-named_logging_object" style="stroke:#181818;stroke-width:1.0;"/><polygon fill="none" points="326.681,1023.182,315.4629,1038.4841,326.8877,1042.1545,326.681,1023.182" style="stroke:#181818;stroke-width:1.0;"/></g><!--reverse link named_logging_object to main_ctx_object--><g id="link_named_logging_object_main_ctx_object"><path codeLine="147" d="M207.2559,1302.0182 C188.0309,1333.2392 177.401,1350.501 164.365,1371.6713 " fill="none" id="named_logging_object-backto-main_ctx_object" style="stroke:#181818;stroke-width:1.0;"/><polygon fill="none" points="216.694,1286.691,202.1469,1298.8722,212.365,1305.1642,216.694,1286.691" style="stroke:#181818;stroke-width:1.0;"/></g><!--reverse link main_ctx to main_ctx_object--><g id="link_main_ctx_main_ctx_object"><path codeLine="148" d="M79.2798,563.2192 C85.953,607.2272 97,690.729 97,767 C97,767 97,767 97,1198.5 C97,1263.161 124.083,1335.789 139.529,1371.9514 " fill="none" id="main_ctx-backto-main_ctx_object" style="stroke:#181818;stroke-width:1.0;"/><polygon fill="#181818" points="78.3803,557.287,75.7748,566.785,79.1299,562.2305,83.6844,565.5856,78.3803,557.287" style="stroke:#181818;stroke-width:1.0;"/></g><!--link program_args to main_ctx--><g id="link_program_args_main_ctx"><path codeLine="149" d="M187.7264,375.9941 C157.5274,416.3541 126.1098,458.3506 101.4141,491.3586 " fill="none" id="program_args-main_ctx" style="stroke:#181818;stroke-width:1.0;"/><polygon fill="#181818" points="191.321,371.19,182.7264,375.9997,188.3255,375.1934,189.1318,380.7925,191.321,371.19" style="stroke:#181818;stroke-width:1.0;"/><polygon fill="#181818" points="94.2253,500.967,101.0225,498.559,101.4141,491.3586,94.6169,493.7665,94.2253,500.967" style="stroke:#181818;stroke-width:1.0;"/></g><!--link root_logger to logger--><g id="link_root_logger_logger"><path codeLine="150" d="M342,557.187 C342,588.617 342,623.793 342,668.745 " fill="none" id="root_logger-to-logger" style="stroke:#181818;stroke-width:1.0;"/><polygon fill="none" points="342,686.745,348,668.745,336,668.745,342,686.745" style="stroke:#181818;stroke-width:1.0;"/></g><!--reverse link program_args to root_logger--><g id="link_program_args_root_logger"><path codeLine="151" d="M256.7582,376.4196 C279.4572,416.7796 308.236,467.959 326.798,500.967 " fill="none" id="program_args-backto-root_logger" style="stroke:#181818;stroke-width:1.0;"/><polygon fill="#181818" points="253.817,371.19,254.7424,380.9953,256.268,375.548,261.7153,377.0737,253.817,371.19" style="stroke:#181818;stroke-width:1.0;"/><text fill="#000000" font-family="sans-serif" font-size="13" lengthAdjust="spacing" textLength="30" x="279" y="414.0669">uses</text></g><!--reverse link root_logger_options to root_logger--><g id="link_root_logger_options_root_logger"><path codeLine="152" d="M406.476,352.1931 C392.532,390.2131 366.848,460.248 351.97,500.814 " fill="none" id="root_logger_options-backto-root_logger" style="stroke:#181818;stroke-width:1.0;"/><polygon fill="#181818" points="408.542,346.56,401.6877,353.6323,406.8204,351.2542,409.1985,356.387,408.542,346.56" style="stroke:#181818;stroke-width:1.0;"/><text fill="#000000" font-family="sans-serif" font-size="13" lengthAdjust="spacing" textLength="30" x="390" y="414.0669">uses</text></g><!--link main to main_ctx--><g id="link_main_main_ctx"><path codeLine="154" d="M127.99,176.87 C106.7942,200.4 78.9427,236.41 67,274 C41.8193,353.25 56.2734,447.6362 66.3018,494.9952 " fill="none" id="main-to-main_ctx" style="stroke:#181818;stroke-width:1.0;stroke-dasharray:7.0,7.0;"/><polygon fill="#181818" points="67.5448,500.865,69.5936,491.2316,66.509,495.9735,61.7671,492.8889,67.5448,500.865" style="stroke:#181818;stroke-width:1.0;"/><text fill="#000000" font-family="sans-serif" font-size="13" lengthAdjust="spacing" textLength="75" x="68" y="327.0669">instantiates</text></g><!--link main to root_logger_options--><g id="link_main_root_logger_options"><path codeLine="155" d="M196.226,176.56 C247.384,210.15 328.7213,263.5471 376.8693,295.1571 " fill="none" id="main-to-root_logger_options" style="stroke:#181818;stroke-width:1.0;stroke-dasharray:7.0,7.0;"/><polygon fill="#181818" points="381.885,298.45,376.5567,290.1669,377.7053,295.7059,372.1662,296.8545,381.885,298.45" style="stroke:#181818;stroke-width:1.0;"/><text fill="#000000" font-family="sans-serif" font-size="13" lengthAdjust="spacing" textLength="75" x="295" y="240.0669">instantiates</text></g><!--SRC=[dLPDRzmW4BtxLrZjPPF8_W6hrHwYggSUAgMtjaAiFVQIs601JdRLvBzt0BCBncwYxYKmNpncUCy1FlPv9re2py0rKVX7CdtE_sGv_hIa5TXL3OUnjIkbgROBnXjX5ozKSiQT5wGKqguQgccNlMNPGAidsaB-wHuNm6lrAV_ynVxmb8nn3RB1OmoA5YGvkAW9mPq-3q1OlRd9jpch4IDh6BWJxXHeKeEg91iq4tnpuynWIX9LYG6ygGFw33CJNhewKecNfltGmQOioybrW9PnqeDIY3kmqxecLBPZZoS4vePnfeuByPC3Jy93iHDLHvNA-TXrnXRSzE9JPsKyAzv79VYQxzIl5XsaE9qZvsxttTZsUnUMr2r-7bcDpVvTfCdP_AH_1b-d_mDEsipu5nUZ7aPjdi6z_INFWBW8ehG4slkNy88F4pQ7JbHFlh_Tg8vXQvMkoLf-uOpRN3ZpXujInSHwLOMPW5KVxDyF55qf5tHnyHOPvcBsXCaobclfYMgfq0ZPq_1Xubjrku25topBL4X1L_A0m2hYIEYhCevivzKg0QSfUqhrz0d81LhOmxYi8uJZgj4Blvc4n6-DmFYrKHs_jbhaDrQY8dhH7cp_aCFOmyCZL7hXO0FJIbHeYD0OmmoHCOMep3v4PlOHEcC842vYAuhz8kXjFb29dVGNaq9eFv_TxW43EyZzX3oLtnQYYR3og6QQq4hQ6pbJlZjMzguYUXahobWTThYdg8wLFbsRcxZM0LxZCERho2i3pJkN-LiKh_jK5l0r6jasMgnMIVL-PfPcxOf295gxpKS5QYrwfebJS3RxfErU2ydQeoxIRq24AKqhbhuCKKwguTFTmqfHHgBZxoMatv7_IBarppr9gQ63bcfGkHPk9BF_Hx3BWUXjyoDrit3xnPgN4Kn1kxACHMuxFKxDpCbPv1DfoMaixj9XS9nffxN4vsNss_0vfR8vnOeE6es8l3sB-8lDkRswGfq81XJRnm6hHKMcXgLHIqhYksjvN9PNOBEUNlmBHUBGlm00]--></g></svg>