<?xml version="1.0" encoding="us-ascii" standalone="no"?><svg xmlns="http://www.w3.org/2000/svg" xmlns:xlink="http://www.w3.org/1999/xlink" contentStyleType="text/css" height="1541px" preserveAspectRatio="none" style="width:1164px;height:1541px;background:#FFFFFF;" version="1.1" viewBox="0 0 1164 1541" width="1164px" zoomAndPan="magnify"><defs/><g><!--cluster Backends--><g id="cluster_Backends"><path d="M659.5,6 L737.5,6 A3.75,3.75 0 0 1 740,8.5 L747,28.2969 L1154.5,28.2969 A2.5,2.5 0 0 1 1157,30.7969 L1157,1531.5 A2.5,2.5 0 0 1 1154.5,1534 L659.5,1534 A2.5,2.5 0 0 1 657,1531.5 L657,8.5 A2.5,2.5 0 0 1 659.5,6 " fill="#DDDDDD" style="stroke:#000000;stroke-width:1.5;"/><line style="stroke:#000000;stroke-width:1.5;" x1="657" x2="747" y1="28.2969" y2="28.2969"/><text fill="#000000" font-family="sans-serif" font-size="14" font-weight="bold" lengthAdjust="spacing" textLength="77" x="661" y="20.9951">Backends</text></g><!--cluster Text log\noutputs--><g id="cluster_Text log\noutputs"><path d="M720.5,49 L788.5,49 A3.75,3.75 0 0 1 791,51.5 L798,87.5938 L1093.5,87.5938 A2.5,2.5 0 0 1 1096,90.0938 L1096,705 A2.5,2.5 0 0 1 1093.5,707.5 L720.5,707.5 A2.5,2.5 0 0 1 718,705 L718,51.5 A2.5,2.5 0 0 1 720.5,49 " fill="#BBBBBB" style="stroke:#000000;stroke-width:1.5;"/><line style="stroke:#000000;stroke-width:1.5;" x1="718" x2="798" y1="87.5938" y2="87.5938"/><text fill="#000000" font-family="sans-serif" font-size="14" font-weight="bold" lengthAdjust="spacing" textLength="67" x="722" y="63.9951">Text log</text><text fill="#000000" font-family="sans-serif" font-size="14" font-weight="bold" lengthAdjust="spacing" textLength="65" x="723" y="80.292">outputs</text></g><!--cluster Loggers--><g id="cluster_Loggers"><path d="M159.5,564 L224.5,564 A3.75,3.75 0 0 1 227,566.5 L234,586.2969 L454.5,586.2969 A2.5,2.5 0 0 1 457,588.7969 L457,1398 A2.5,2.5 0 0 1 454.5,1400.5 L159.5,1400.5 A2.5,2.5 0 0 1 157,1398 L157,566.5 A2.5,2.5 0 0 1 159.5,564 " fill="#DDDDDD" style="stroke:#000000;stroke-width:1.5;"/><line style="stroke:#000000;stroke-width:1.5;" x1="157" x2="234" y1="586.2969" y2="586.2969"/><text fill="#000000" font-family="sans-serif" font-size="14" font-weight="bold" lengthAdjust="spacing" textLength="64" x="161" y="578.9951">Loggers</text></g><!--class logger_backend--><g id="elem_logger_backend"><rect codeLine="13" fill="#F1F1F1" height="194.6719" id="logger_backend" rx="2.5" ry="2.5" style="stroke:#181818;stroke-width:0.5;" width="177" x="676.5" y="1198"/><ellipse cx="705.45" cy="1214" fill="#B4A7E5" rx="11" ry="11" style="stroke:#181818;stroke-width:1.0;"/><path d="M706.4031,1210.7813 L708.1219,1210.7813 C708.5125,1210.7813 708.7,1210.75 708.825,1210.6719 C709.0906,1210.5156 709.2313,1210.2344 709.2313,1209.9375 C709.2313,1209.6719 709.1219,1209.4063 708.8875,1209.2344 C708.7156,1209.125 708.575,1209.0938 708.1219,1209.0938 L702.9813,1209.0938 C702.5438,1209.0938 702.4188,1209.1094 702.2625,1209.2031 C702.0125,1209.3594 701.8563,1209.6563 701.8563,1209.9375 C701.8563,1210.2188 701.9969,1210.4688 702.2156,1210.6406 C702.3719,1210.75 702.5594,1210.7813 702.9813,1210.7813 L704.7,1210.7813 L704.7,1217.2969 L702.9813,1217.2969 C702.5438,1217.2969 702.4188,1217.3125 702.2625,1217.4219 C702.0125,1217.5781 701.8563,1217.8594 701.8563,1218.1563 C701.8563,1218.4063 701.9969,1218.6719 702.2156,1218.8281 C702.3719,1218.9531 702.575,1219 702.9813,1219 L708.1219,1219 C708.8719,1219 709.2313,1218.7188 709.2313,1218.1563 C709.2313,1217.875 709.1219,1217.625 708.8875,1217.4531 C708.7156,1217.3281 708.575,1217.2969 708.1219,1217.2969 L706.4031,1217.2969 L706.4031,1210.7813 Z " fill="#000000"/><text fill="#000000" font-family="sans-serif" font-size="14" font-style="italic" lengthAdjust="spacing" textLength="114" x="722.55" y="1218.8467">logger_backend</text><line style="stroke:#181818;stroke-width:0.5;" x1="677.5" x2="852.5" y1="1230" y2="1230"/><line style="stroke:#181818;stroke-width:0.5;" x1="677.5" x2="852.5" y1="1238" y2="1238"/><ellipse cx="687.5" cy="1251.6484" fill="#84BE84" rx="3" ry="3" style="stroke:#038048;stroke-width:1.0;"/><text fill="#000000" font-family="sans-serif" font-size="14" lengthAdjust="spacing" textLength="144" x="696.5" y="1254.9951">type_id() : identifier</text><ellipse cx="687.5" cy="1267.9453" fill="#84BE84" rx="3" ry="3" style="stroke:#038048;stroke-width:1.0;"/><text fill="#000000" font-family="sans-serif" font-size="14" lengthAdjust="spacing" textLength="122" x="696.5" y="1271.292">set_description()</text><ellipse cx="687.5" cy="1284.2422" fill="#84BE84" rx="3" ry="3" style="stroke:#038048;stroke-width:1.0;"/><text fill="#000000" font-family="sans-serif" font-size="14" lengthAdjust="spacing" textLength="100" x="696.5" y="1287.5889">enter_scope()</text><ellipse cx="687.5" cy="1300.5391" fill="#84BE84" rx="3" ry="3" style="stroke:#038048;stroke-width:1.0;"/><text fill="#000000" font-family="sans-serif" font-size="14" lengthAdjust="spacing" textLength="98" x="696.5" y="1303.8857">leave_scope()</text><ellipse cx="687.5" cy="1316.8359" fill="#84BE84" rx="3" ry="3" style="stroke:#038048;stroke-width:1.0;"/><text fill="#000000" font-family="sans-serif" font-size="14" lengthAdjust="spacing" textLength="151" x="696.5" y="1320.1826">log_chart_sample(...)</text><ellipse cx="687.5" cy="1333.1328" fill="#84BE84" rx="3" ry="3" style="stroke:#038048;stroke-width:1.0;"/><text fill="#000000" font-family="sans-serif" font-size="14" lengthAdjust="spacing" textLength="136" x="696.5" y="1336.4795">begin_message(...)</text><ellipse cx="687.5" cy="1349.4297" fill="#84BE84" rx="3" ry="3" style="stroke:#038048;stroke-width:1.0;"/><text fill="#000000" font-family="sans-serif" font-size="14" lengthAdjust="spacing" textLength="128" x="696.5" y="1352.7764">add_argument(...)</text><ellipse cx="687.5" cy="1365.7266" fill="#84BE84" rx="3" ry="3" style="stroke:#038048;stroke-width:1.0;"/><text fill="#000000" font-family="sans-serif" font-size="14" lengthAdjust="spacing" textLength="134" x="696.5" y="1369.0732">finish_message(...)</text><ellipse cx="687.5" cy="1382.0234" fill="#84BE84" rx="3" ry="3" style="stroke:#038048;stroke-width:1.0;"/><text fill="#000000" font-family="sans-serif" font-size="14" lengthAdjust="spacing" textLength="78" x="696.5" y="1385.3701">finish_log()</text></g><!--class null_log_backend--><g id="elem_null_log_backend"><rect codeLine="25" fill="#F1F1F1" height="48" id="null_log_backend" rx="2.5" ry="2.5" style="stroke:#181818;stroke-width:0.5;" width="155" x="966.5" y="1271.5"/><ellipse cx="981.5" cy="1287.5" fill="#ADD1B2" rx="11" ry="11" style="stroke:#181818;stroke-width:1.0;"/><path d="M983.8438,1283.1719 C982.9063,1282.7344 982.3125,1282.5938 981.4375,1282.5938 C978.8125,1282.5938 976.8125,1284.6719 976.8125,1287.3906 L976.8125,1288.5156 C976.8125,1291.0938 978.9219,1292.9844 981.8125,1292.9844 C983.0313,1292.9844 984.1875,1292.6875 984.9375,1292.1406 C985.5156,1291.7344 985.8438,1291.2813 985.8438,1290.8906 C985.8438,1290.4375 985.4531,1290.0469 984.9844,1290.0469 C984.7656,1290.0469 984.5625,1290.125 984.375,1290.3125 C983.9219,1290.7969 983.9219,1290.7969 983.7344,1290.8906 C983.3125,1291.1563 982.625,1291.2813 981.8594,1291.2813 C979.8125,1291.2813 978.5156,1290.1875 978.5156,1288.4844 L978.5156,1287.3906 C978.5156,1285.6094 979.7656,1284.2969 981.5,1284.2969 C982.0781,1284.2969 982.6875,1284.4531 983.1563,1284.7031 C983.6406,1284.9844 983.8125,1285.2031 983.9063,1285.6094 C983.9688,1286.0156 984,1286.1406 984.1406,1286.2656 C984.2813,1286.4063 984.5156,1286.5156 984.7344,1286.5156 C985,1286.5156 985.2656,1286.375 985.4375,1286.1563 C985.5469,1286 985.5781,1285.8125 985.5781,1285.3906 L985.5781,1283.9688 C985.5781,1283.5313 985.5625,1283.4063 985.4688,1283.25 C985.3125,1282.9844 985.0313,1282.8438 984.7344,1282.8438 C984.4375,1282.8438 984.2344,1282.9375 984.0156,1283.25 L983.8438,1283.1719 Z " fill="#000000"/><text fill="#000000" font-family="sans-serif" font-size="14" lengthAdjust="spacing" textLength="123" x="995.5" y="1292.3467">null_log_backend</text><line style="stroke:#181818;stroke-width:0.5;" x1="967.5" x2="1120.5" y1="1303.5" y2="1303.5"/><line style="stroke:#181818;stroke-width:0.5;" x1="967.5" x2="1120.5" y1="1311.5" y2="1311.5"/></g><!--class syslog_log_backend--><g id="elem_syslog_log_backend"><rect codeLine="28" fill="#F1F1F1" height="48" id="syslog_log_backend" rx="2.5" ry="2.5" style="stroke:#181818;stroke-width:0.5;" width="174" x="678" y="1470"/><ellipse cx="693" cy="1486" fill="#ADD1B2" rx="11" ry="11" style="stroke:#181818;stroke-width:1.0;"/><path d="M695.3438,1481.6719 C694.4063,1481.2344 693.8125,1481.0938 692.9375,1481.0938 C690.3125,1481.0938 688.3125,1483.1719 688.3125,1485.8906 L688.3125,1487.0156 C688.3125,1489.5938 690.4219,1491.4844 693.3125,1491.4844 C694.5313,1491.4844 695.6875,1491.1875 696.4375,1490.6406 C697.0156,1490.2344 697.3438,1489.7813 697.3438,1489.3906 C697.3438,1488.9375 696.9531,1488.5469 696.4844,1488.5469 C696.2656,1488.5469 696.0625,1488.625 695.875,1488.8125 C695.4219,1489.2969 695.4219,1489.2969 695.2344,1489.3906 C694.8125,1489.6563 694.125,1489.7813 693.3594,1489.7813 C691.3125,1489.7813 690.0156,1488.6875 690.0156,1486.9844 L690.0156,1485.8906 C690.0156,1484.1094 691.2656,1482.7969 693,1482.7969 C693.5781,1482.7969 694.1875,1482.9531 694.6563,1483.2031 C695.1406,1483.4844 695.3125,1483.7031 695.4063,1484.1094 C695.4688,1484.5156 695.5,1484.6406 695.6406,1484.7656 C695.7813,1484.9063 696.0156,1485.0156 696.2344,1485.0156 C696.5,1485.0156 696.7656,1484.875 696.9375,1484.6563 C697.0469,1484.5 697.0781,1484.3125 697.0781,1483.8906 L697.0781,1482.4688 C697.0781,1482.0313 697.0625,1481.9063 696.9688,1481.75 C696.8125,1481.4844 696.5313,1481.3438 696.2344,1481.3438 C695.9375,1481.3438 695.7344,1481.4375 695.5156,1481.75 L695.3438,1481.6719 Z " fill="#000000"/><text fill="#000000" font-family="sans-serif" font-size="14" lengthAdjust="spacing" textLength="142" x="707" y="1490.8467">syslog_log_backend</text><line style="stroke:#181818;stroke-width:0.5;" x1="679" x2="851" y1="1502" y2="1502"/><line style="stroke:#181818;stroke-width:0.5;" x1="679" x2="851" y1="1510" y2="1510"/></g><!--class json_log_backend--><g id="elem_json_log_backend"><rect codeLine="31" fill="#F1F1F1" height="48" id="json_log_backend" rx="2.5" ry="2.5" style="stroke:#181818;stroke-width:0.5;" width="159" x="681.5" y="842"/><ellipse cx="696.5" cy="858" fill="#ADD1B2" rx="11" ry="11" style="stroke:#181818;stroke-width:1.0;"/><path d="M698.8438,853.6719 C697.9063,853.2344 697.3125,853.0938 696.4375,853.0938 C693.8125,853.0938 691.8125,855.1719 691.8125,857.8906 L691.8125,859.0156 C691.8125,861.5938 693.9219,863.4844 696.8125,863.4844 C698.0313,863.4844 699.1875,863.1875 699.9375,862.6406 C700.5156,862.2344 700.8438,861.7813 700.8438,861.3906 C700.8438,860.9375 700.4531,860.5469 699.9844,860.5469 C699.7656,860.5469 699.5625,860.625 699.375,860.8125 C698.9219,861.2969 698.9219,861.2969 698.7344,861.3906 C698.3125,861.6563 697.625,861.7813 696.8594,861.7813 C694.8125,861.7813 693.5156,860.6875 693.5156,858.9844 L693.5156,857.8906 C693.5156,856.1094 694.7656,854.7969 696.5,854.7969 C697.0781,854.7969 697.6875,854.9531 698.1563,855.2031 C698.6406,855.4844 698.8125,855.7031 698.9063,856.1094 C698.9688,856.5156 699,856.6406 699.1406,856.7656 C699.2813,856.9063 699.5156,857.0156 699.7344,857.0156 C700,857.0156 700.2656,856.875 700.4375,856.6563 C700.5469,856.5 700.5781,856.3125 700.5781,855.8906 L700.5781,854.4688 C700.5781,854.0313 700.5625,853.9063 700.4688,853.75 C700.3125,853.4844 700.0313,853.3438 699.7344,853.3438 C699.4375,853.3438 699.2344,853.4375 699.0156,853.75 L698.8438,853.6719 Z " fill="#000000"/><text fill="#000000" font-family="sans-serif" font-size="14" lengthAdjust="spacing" textLength="127" x="710.5" y="862.8467">json_log_backend</text><line style="stroke:#181818;stroke-width:0.5;" x1="682.5" x2="839.5" y1="874" y2="874"/><line style="stroke:#181818;stroke-width:0.5;" x1="682.5" x2="839.5" y1="882" y2="882"/></g><!--class xml_log_backend--><g id="elem_xml_log_backend"><rect codeLine="34" fill="#F1F1F1" height="48" id="xml_log_backend" rx="2.5" ry="2.5" style="stroke:#181818;stroke-width:0.5;" width="156" x="876" y="842"/><ellipse cx="891" cy="858" fill="#ADD1B2" rx="11" ry="11" style="stroke:#181818;stroke-width:1.0;"/><path d="M893.3438,853.6719 C892.4063,853.2344 891.8125,853.0938 890.9375,853.0938 C888.3125,853.0938 886.3125,855.1719 886.3125,857.8906 L886.3125,859.0156 C886.3125,861.5938 888.4219,863.4844 891.3125,863.4844 C892.5313,863.4844 893.6875,863.1875 894.4375,862.6406 C895.0156,862.2344 895.3438,861.7813 895.3438,861.3906 C895.3438,860.9375 894.9531,860.5469 894.4844,860.5469 C894.2656,860.5469 894.0625,860.625 893.875,860.8125 C893.4219,861.2969 893.4219,861.2969 893.2344,861.3906 C892.8125,861.6563 892.125,861.7813 891.3594,861.7813 C889.3125,861.7813 888.0156,860.6875 888.0156,858.9844 L888.0156,857.8906 C888.0156,856.1094 889.2656,854.7969 891,854.7969 C891.5781,854.7969 892.1875,854.9531 892.6563,855.2031 C893.1406,855.4844 893.3125,855.7031 893.4063,856.1094 C893.4688,856.5156 893.5,856.6406 893.6406,856.7656 C893.7813,856.9063 894.0156,857.0156 894.2344,857.0156 C894.5,857.0156 894.7656,856.875 894.9375,856.6563 C895.0469,856.5 895.0781,856.3125 895.0781,855.8906 L895.0781,854.4688 C895.0781,854.0313 895.0625,853.9063 894.9688,853.75 C894.8125,853.4844 894.5313,853.3438 894.2344,853.3438 C893.9375,853.3438 893.7344,853.4375 893.5156,853.75 L893.3438,853.6719 Z " fill="#000000"/><text fill="#000000" font-family="sans-serif" font-size="14" lengthAdjust="spacing" textLength="124" x="905" y="862.8467">xml_log_backend</text><line style="stroke:#181818;stroke-width:0.5;" x1="877" x2="1031" y1="874" y2="874"/><line style="stroke:#181818;stroke-width:0.5;" x1="877" x2="1031" y1="882" y2="882"/></g><!--class proxy_log_backend--><g id="elem_proxy_log_backend"><rect codeLine="37" fill="#F1F1F1" height="56.2656" id="proxy_log_backend" rx="2.5" ry="2.5" style="stroke:#181818;stroke-width:0.5;" width="171" x="821.5" y="1044.5"/><ellipse cx="836.5" cy="1064.6328" fill="#ADD1B2" rx="11" ry="11" style="stroke:#181818;stroke-width:1.0;"/><path d="M838.8438,1060.3047 C837.9063,1059.8672 837.3125,1059.7266 836.4375,1059.7266 C833.8125,1059.7266 831.8125,1061.8047 831.8125,1064.5234 L831.8125,1065.6484 C831.8125,1068.2266 833.9219,1070.1172 836.8125,1070.1172 C838.0313,1070.1172 839.1875,1069.8203 839.9375,1069.2734 C840.5156,1068.8672 840.8438,1068.4141 840.8438,1068.0234 C840.8438,1067.5703 840.4531,1067.1797 839.9844,1067.1797 C839.7656,1067.1797 839.5625,1067.2578 839.375,1067.4453 C838.9219,1067.9297 838.9219,1067.9297 838.7344,1068.0234 C838.3125,1068.2891 837.625,1068.4141 836.8594,1068.4141 C834.8125,1068.4141 833.5156,1067.3203 833.5156,1065.6172 L833.5156,1064.5234 C833.5156,1062.7422 834.7656,1061.4297 836.5,1061.4297 C837.0781,1061.4297 837.6875,1061.5859 838.1563,1061.8359 C838.6406,1062.1172 838.8125,1062.3359 838.9063,1062.7422 C838.9688,1063.1484 839,1063.2734 839.1406,1063.3984 C839.2813,1063.5391 839.5156,1063.6484 839.7344,1063.6484 C840,1063.6484 840.2656,1063.5078 840.4375,1063.2891 C840.5469,1063.1328 840.5781,1062.9453 840.5781,1062.5234 L840.5781,1061.1016 C840.5781,1060.6641 840.5625,1060.5391 840.4688,1060.3828 C840.3125,1060.1172 840.0313,1059.9766 839.7344,1059.9766 C839.4375,1059.9766 839.2344,1060.0703 839.0156,1060.3828 L838.8438,1060.3047 Z " fill="#000000"/><text fill="#000000" font-family="sans-serif" font-size="12" font-style="italic" lengthAdjust="spacing" textLength="47" x="896.5" y="1060.6387">&#171;Proxy&#187;</text><text fill="#000000" font-family="sans-serif" font-size="14" lengthAdjust="spacing" textLength="139" x="850.5" y="1076.4639">proxy_log_backend</text><line style="stroke:#181818;stroke-width:0.5;" x1="822.5" x2="991.5" y1="1084.7656" y2="1084.7656"/><line style="stroke:#181818;stroke-width:0.5;" x1="822.5" x2="991.5" y1="1092.7656" y2="1092.7656"/></g><!--class log_output_stream--><g id="elem_log_output_stream"><rect codeLine="45" fill="#F1F1F1" height="129.4844" id="log_output_stream" rx="2.5" ry="2.5" style="stroke:#181818;stroke-width:0.5;" width="177" x="773.5" y="562.5"/><ellipse cx="794.35" cy="578.5" fill="#B4A7E5" rx="11" ry="11" style="stroke:#181818;stroke-width:1.0;"/><path d="M795.3031,575.2813 L797.0219,575.2813 C797.4125,575.2813 797.6,575.25 797.725,575.1719 C797.9906,575.0156 798.1313,574.7344 798.1313,574.4375 C798.1313,574.1719 798.0219,573.9063 797.7875,573.7344 C797.6156,573.625 797.475,573.5938 797.0219,573.5938 L791.8813,573.5938 C791.4438,573.5938 791.3188,573.6094 791.1625,573.7031 C790.9125,573.8594 790.7563,574.1563 790.7563,574.4375 C790.7563,574.7188 790.8969,574.9688 791.1156,575.1406 C791.2719,575.25 791.4594,575.2813 791.8813,575.2813 L793.6,575.2813 L793.6,581.7969 L791.8813,581.7969 C791.4438,581.7969 791.3188,581.8125 791.1625,581.9219 C790.9125,582.0781 790.7563,582.3594 790.7563,582.6563 C790.7563,582.9063 790.8969,583.1719 791.1156,583.3281 C791.2719,583.4531 791.475,583.5 791.8813,583.5 L797.0219,583.5 C797.7719,583.5 798.1313,583.2188 798.1313,582.6563 C798.1313,582.375 798.0219,582.125 797.7875,581.9531 C797.6156,581.8281 797.475,581.7969 797.0219,581.7969 L795.3031,581.7969 L795.3031,575.2813 Z " fill="#000000"/><text fill="#000000" font-family="sans-serif" font-size="14" font-style="italic" lengthAdjust="spacing" textLength="132" x="809.65" y="583.3467">log_output_stream</text><line style="stroke:#181818;stroke-width:0.5;" x1="774.5" x2="949.5" y1="594.5" y2="594.5"/><line style="stroke:#181818;stroke-width:0.5;" x1="774.5" x2="949.5" y1="602.5" y2="602.5"/><ellipse cx="784.5" cy="616.1484" fill="#84BE84" rx="3" ry="3" style="stroke:#038048;stroke-width:1.0;"/><text fill="#000000" font-family="sans-serif" font-size="14" lengthAdjust="spacing" textLength="109" x="793.5" y="619.4951">begin_stream()</text><ellipse cx="784.5" cy="632.4453" fill="#84BE84" rx="3" ry="3" style="stroke:#038048;stroke-width:1.0;"/><text fill="#000000" font-family="sans-serif" font-size="14" lengthAdjust="spacing" textLength="97" x="793.5" y="635.792">begin_entry()</text><ellipse cx="784.5" cy="648.7422" fill="#84BE84" rx="3" ry="3" style="stroke:#038048;stroke-width:1.0;"/><text fill="#000000" font-family="sans-serif" font-size="14" lengthAdjust="spacing" textLength="151" x="793.5" y="652.0889">entry_append(block)</text><ellipse cx="784.5" cy="665.0391" fill="#84BE84" rx="3" ry="3" style="stroke:#038048;stroke-width:1.0;"/><text fill="#000000" font-family="sans-serif" font-size="14" lengthAdjust="spacing" textLength="95" x="793.5" y="668.3857">finish_entry()</text><ellipse cx="784.5" cy="681.3359" fill="#84BE84" rx="3" ry="3" style="stroke:#038048;stroke-width:1.0;"/><text fill="#000000" font-family="sans-serif" font-size="14" lengthAdjust="spacing" textLength="107" x="793.5" y="684.6826">finish_stream()</text></g><!--class std_log_output_stream--><g id="elem_std_log_output_stream"><rect codeLine="53" fill="#F1F1F1" height="145.7813" id="std_log_output_stream" rx="2.5" ry="2.5" style="stroke:#181818;stroke-width:0.5;" width="198" x="882" y="323"/><ellipse cx="897" cy="339" fill="#ADD1B2" rx="11" ry="11" style="stroke:#181818;stroke-width:1.0;"/><path d="M899.3438,334.6719 C898.4063,334.2344 897.8125,334.0938 896.9375,334.0938 C894.3125,334.0938 892.3125,336.1719 892.3125,338.8906 L892.3125,340.0156 C892.3125,342.5938 894.4219,344.4844 897.3125,344.4844 C898.5313,344.4844 899.6875,344.1875 900.4375,343.6406 C901.0156,343.2344 901.3438,342.7813 901.3438,342.3906 C901.3438,341.9375 900.9531,341.5469 900.4844,341.5469 C900.2656,341.5469 900.0625,341.625 899.875,341.8125 C899.4219,342.2969 899.4219,342.2969 899.2344,342.3906 C898.8125,342.6563 898.125,342.7813 897.3594,342.7813 C895.3125,342.7813 894.0156,341.6875 894.0156,339.9844 L894.0156,338.8906 C894.0156,337.1094 895.2656,335.7969 897,335.7969 C897.5781,335.7969 898.1875,335.9531 898.6563,336.2031 C899.1406,336.4844 899.3125,336.7031 899.4063,337.1094 C899.4688,337.5156 899.5,337.6406 899.6406,337.7656 C899.7813,337.9063 900.0156,338.0156 900.2344,338.0156 C900.5,338.0156 900.7656,337.875 900.9375,337.6563 C901.0469,337.5 901.0781,337.3125 901.0781,336.8906 L901.0781,335.4688 C901.0781,335.0313 901.0625,334.9063 900.9688,334.75 C900.8125,334.4844 900.5313,334.3438 900.2344,334.3438 C899.9375,334.3438 899.7344,334.4375 899.5156,334.75 L899.3438,334.6719 Z " fill="#000000"/><text fill="#000000" font-family="sans-serif" font-size="14" lengthAdjust="spacing" textLength="166" x="911" y="343.8467">std_log_output_stream</text><line style="stroke:#181818;stroke-width:0.5;" x1="883" x2="1079" y1="355" y2="355"/><rect fill="none" height="6" style="stroke:#C82930;stroke-width:1.0;" width="6" x="890" y="365.6484"/><text fill="#000000" font-family="sans-serif" font-size="14" lengthAdjust="spacing" textLength="118" x="902" y="371.9951">output: ostream</text><line style="stroke:#181818;stroke-width:0.5;" x1="883" x2="1079" y1="379.2969" y2="379.2969"/><ellipse cx="893" cy="392.9453" fill="#84BE84" rx="3" ry="3" style="stroke:#038048;stroke-width:1.0;"/><text fill="#000000" font-family="sans-serif" font-size="14" lengthAdjust="spacing" textLength="109" x="902" y="396.292">begin_stream()</text><ellipse cx="893" cy="409.2422" fill="#84BE84" rx="3" ry="3" style="stroke:#038048;stroke-width:1.0;"/><text fill="#000000" font-family="sans-serif" font-size="14" lengthAdjust="spacing" textLength="97" x="902" y="412.5889">begin_entry()</text><ellipse cx="893" cy="425.5391" fill="#84BE84" rx="3" ry="3" style="stroke:#038048;stroke-width:1.0;"/><text fill="#000000" font-family="sans-serif" font-size="14" lengthAdjust="spacing" textLength="151" x="902" y="428.8857">entry_append(block)</text><ellipse cx="893" cy="441.8359" fill="#84BE84" rx="3" ry="3" style="stroke:#038048;stroke-width:1.0;"/><text fill="#000000" font-family="sans-serif" font-size="14" lengthAdjust="spacing" textLength="95" x="902" y="445.1826">finish_entry()</text><ellipse cx="893" cy="458.1328" fill="#84BE84" rx="3" ry="3" style="stroke:#038048;stroke-width:1.0;"/><text fill="#000000" font-family="sans-serif" font-size="14" lengthAdjust="spacing" textLength="107" x="902" y="461.4795">finish_stream()</text></g><!--class asio_log_output_stream--><g id="elem_asio_log_output_stream"><rect codeLine="62" fill="#F1F1F1" height="145.7813" id="asio_log_output_stream" rx="2.5" ry="2.5" style="stroke:#181818;stroke-width:0.5;" width="203" x="805.5" y="100"/><ellipse cx="820.5" cy="116" fill="#ADD1B2" rx="11" ry="11" style="stroke:#181818;stroke-width:1.0;"/><path d="M822.8438,111.6719 C821.9063,111.2344 821.3125,111.0938 820.4375,111.0938 C817.8125,111.0938 815.8125,113.1719 815.8125,115.8906 L815.8125,117.0156 C815.8125,119.5938 817.9219,121.4844 820.8125,121.4844 C822.0313,121.4844 823.1875,121.1875 823.9375,120.6406 C824.5156,120.2344 824.8438,119.7813 824.8438,119.3906 C824.8438,118.9375 824.4531,118.5469 823.9844,118.5469 C823.7656,118.5469 823.5625,118.625 823.375,118.8125 C822.9219,119.2969 822.9219,119.2969 822.7344,119.3906 C822.3125,119.6563 821.625,119.7813 820.8594,119.7813 C818.8125,119.7813 817.5156,118.6875 817.5156,116.9844 L817.5156,115.8906 C817.5156,114.1094 818.7656,112.7969 820.5,112.7969 C821.0781,112.7969 821.6875,112.9531 822.1563,113.2031 C822.6406,113.4844 822.8125,113.7031 822.9063,114.1094 C822.9688,114.5156 823,114.6406 823.1406,114.7656 C823.2813,114.9063 823.5156,115.0156 823.7344,115.0156 C824,115.0156 824.2656,114.875 824.4375,114.6563 C824.5469,114.5 824.5781,114.3125 824.5781,113.8906 L824.5781,112.4688 C824.5781,112.0313 824.5625,111.9063 824.4688,111.75 C824.3125,111.4844 824.0313,111.3438 823.7344,111.3438 C823.4375,111.3438 823.2344,111.4375 823.0156,111.75 L822.8438,111.6719 Z " fill="#000000"/><text fill="#000000" font-family="sans-serif" font-size="14" lengthAdjust="spacing" textLength="171" x="834.5" y="120.8467">asio_log_output_stream</text><line style="stroke:#181818;stroke-width:0.5;" x1="806.5" x2="1007.5" y1="132" y2="132"/><rect fill="none" height="6" style="stroke:#C82930;stroke-width:1.0;" width="6" x="813.5" y="142.6484"/><text fill="#000000" font-family="sans-serif" font-size="14" lengthAdjust="spacing" textLength="109" x="825.5" y="148.9951">socket: Socket</text><line style="stroke:#181818;stroke-width:0.5;" x1="806.5" x2="1007.5" y1="156.2969" y2="156.2969"/><ellipse cx="816.5" cy="169.9453" fill="#84BE84" rx="3" ry="3" style="stroke:#038048;stroke-width:1.0;"/><text fill="#000000" font-family="sans-serif" font-size="14" lengthAdjust="spacing" textLength="109" x="825.5" y="173.292">begin_stream()</text><ellipse cx="816.5" cy="186.2422" fill="#84BE84" rx="3" ry="3" style="stroke:#038048;stroke-width:1.0;"/><text fill="#000000" font-family="sans-serif" font-size="14" lengthAdjust="spacing" textLength="97" x="825.5" y="189.5889">begin_entry()</text><ellipse cx="816.5" cy="202.5391" fill="#84BE84" rx="3" ry="3" style="stroke:#038048;stroke-width:1.0;"/><text fill="#000000" font-family="sans-serif" font-size="14" lengthAdjust="spacing" textLength="151" x="825.5" y="205.8857">entry_append(block)</text><ellipse cx="816.5" cy="218.8359" fill="#84BE84" rx="3" ry="3" style="stroke:#038048;stroke-width:1.0;"/><text fill="#000000" font-family="sans-serif" font-size="14" lengthAdjust="spacing" textLength="95" x="825.5" y="222.1826">finish_entry()</text><ellipse cx="816.5" cy="235.1328" fill="#84BE84" rx="3" ry="3" style="stroke:#038048;stroke-width:1.0;"/><text fill="#000000" font-family="sans-serif" font-size="14" lengthAdjust="spacing" textLength="107" x="825.5" y="238.4795">finish_stream()</text></g><!--class basic_logger--><g id="elem_basic_logger"><rect codeLine="84" fill="#F1F1F1" height="96.8906" id="basic_logger" rx="2.5" ry="2.5" style="stroke:#181818;stroke-width:0.5;" width="197" x="243.5" y="1024"/><ellipse cx="292.75" cy="1040" fill="#ADD1B2" rx="11" ry="11" style="stroke:#181818;stroke-width:1.0;"/><path d="M295.0938,1035.6719 C294.1563,1035.2344 293.5625,1035.0938 292.6875,1035.0938 C290.0625,1035.0938 288.0625,1037.1719 288.0625,1039.8906 L288.0625,1041.0156 C288.0625,1043.5938 290.1719,1045.4844 293.0625,1045.4844 C294.2813,1045.4844 295.4375,1045.1875 296.1875,1044.6406 C296.7656,1044.2344 297.0938,1043.7813 297.0938,1043.3906 C297.0938,1042.9375 296.7031,1042.5469 296.2344,1042.5469 C296.0156,1042.5469 295.8125,1042.625 295.625,1042.8125 C295.1719,1043.2969 295.1719,1043.2969 294.9844,1043.3906 C294.5625,1043.6563 293.875,1043.7813 293.1094,1043.7813 C291.0625,1043.7813 289.7656,1042.6875 289.7656,1040.9844 L289.7656,1039.8906 C289.7656,1038.1094 291.0156,1036.7969 292.75,1036.7969 C293.3281,1036.7969 293.9375,1036.9531 294.4063,1037.2031 C294.8906,1037.4844 295.0625,1037.7031 295.1563,1038.1094 C295.2188,1038.5156 295.25,1038.6406 295.3906,1038.7656 C295.5313,1038.9063 295.7656,1039.0156 295.9844,1039.0156 C296.25,1039.0156 296.5156,1038.875 296.6875,1038.6563 C296.7969,1038.5 296.8281,1038.3125 296.8281,1037.8906 L296.8281,1036.4688 C296.8281,1036.0313 296.8125,1035.9063 296.7188,1035.75 C296.5625,1035.4844 296.2813,1035.3438 295.9844,1035.3438 C295.6875,1035.3438 295.4844,1035.4375 295.2656,1035.75 L295.0938,1035.6719 Z " fill="#000000"/><text fill="#000000" font-family="sans-serif" font-size="14" lengthAdjust="spacing" textLength="90" x="313.25" y="1044.8467">basic_logger</text><line style="stroke:#181818;stroke-width:0.5;" x1="244.5" x2="439.5" y1="1056" y2="1056"/><line style="stroke:#181818;stroke-width:0.5;" x1="244.5" x2="439.5" y1="1064" y2="1064"/><ellipse cx="254.5" cy="1077.6484" fill="#84BE84" rx="3" ry="3" style="stroke:#038048;stroke-width:1.0;"/><text fill="#000000" font-family="sans-serif" font-size="14" lengthAdjust="spacing" textLength="171" x="263.5" y="1080.9951">instance_id() : identifier</text><ellipse cx="254.5" cy="1093.9453" fill="#84BE84" rx="3" ry="3" style="stroke:#038048;stroke-width:1.0;"/><text fill="#000000" font-family="sans-serif" font-size="14" lengthAdjust="spacing" textLength="72" x="263.5" y="1097.292">backend()</text><ellipse cx="254.5" cy="1110.2422" fill="#84BE84" rx="3" ry="3" style="stroke:#038048;stroke-width:1.0;"/><text fill="#000000" font-family="sans-serif" font-size="14" lengthAdjust="spacing" textLength="125" x="263.5" y="1113.5889">make_log_entry()</text></g><!--class logger--><g id="elem_logger"><rect codeLine="90" fill="#F1F1F1" height="162.0781" id="logger" rx="2.5" ry="2.5" style="stroke:#181818;stroke-width:0.5;" width="92" x="296" y="785"/><ellipse cx="317.3" cy="801" fill="#ADD1B2" rx="11" ry="11" style="stroke:#181818;stroke-width:1.0;"/><path d="M319.6438,796.6719 C318.7063,796.2344 318.1125,796.0938 317.2375,796.0938 C314.6125,796.0938 312.6125,798.1719 312.6125,800.8906 L312.6125,802.0156 C312.6125,804.5938 314.7219,806.4844 317.6125,806.4844 C318.8313,806.4844 319.9875,806.1875 320.7375,805.6406 C321.3156,805.2344 321.6438,804.7813 321.6438,804.3906 C321.6438,803.9375 321.2531,803.5469 320.7844,803.5469 C320.5656,803.5469 320.3625,803.625 320.175,803.8125 C319.7219,804.2969 319.7219,804.2969 319.5344,804.3906 C319.1125,804.6563 318.425,804.7813 317.6594,804.7813 C315.6125,804.7813 314.3156,803.6875 314.3156,801.9844 L314.3156,800.8906 C314.3156,799.1094 315.5656,797.7969 317.3,797.7969 C317.8781,797.7969 318.4875,797.9531 318.9563,798.2031 C319.4406,798.4844 319.6125,798.7031 319.7063,799.1094 C319.7688,799.5156 319.8,799.6406 319.9406,799.7656 C320.0813,799.9063 320.3156,800.0156 320.5344,800.0156 C320.8,800.0156 321.0656,799.875 321.2375,799.6563 C321.3469,799.5 321.3781,799.3125 321.3781,798.8906 L321.3781,797.4688 C321.3781,797.0313 321.3625,796.9063 321.2688,796.75 C321.1125,796.4844 320.8313,796.3438 320.5344,796.3438 C320.2375,796.3438 320.0344,796.4375 319.8156,796.75 L319.6438,796.6719 Z " fill="#000000"/><text fill="#000000" font-family="sans-serif" font-size="14" lengthAdjust="spacing" textLength="46" x="332.7" y="805.8467">logger</text><line style="stroke:#181818;stroke-width:0.5;" x1="297" x2="387" y1="817" y2="817"/><line style="stroke:#181818;stroke-width:0.5;" x1="297" x2="387" y1="825" y2="825"/><ellipse cx="307" cy="838.6484" fill="#84BE84" rx="3" ry="3" style="stroke:#038048;stroke-width:1.0;"/><text fill="#000000" font-family="sans-serif" font-size="14" lengthAdjust="spacing" textLength="32" x="316" y="841.9951">log()</text><ellipse cx="307" cy="854.9453" fill="#84BE84" rx="3" ry="3" style="stroke:#038048;stroke-width:1.0;"/><text fill="#000000" font-family="sans-serif" font-size="14" lengthAdjust="spacing" textLength="46" x="316" y="858.292">error()</text><ellipse cx="307" cy="871.2422" fill="#84BE84" rx="3" ry="3" style="stroke:#038048;stroke-width:1.0;"/><text fill="#000000" font-family="sans-serif" font-size="14" lengthAdjust="spacing" textLength="66" x="316" y="874.5889">warning()</text><ellipse cx="307" cy="887.5391" fill="#84BE84" rx="3" ry="3" style="stroke:#038048;stroke-width:1.0;"/><text fill="#000000" font-family="sans-serif" font-size="14" lengthAdjust="spacing" textLength="38" x="316" y="890.8857">info()</text><ellipse cx="307" cy="903.8359" fill="#84BE84" rx="3" ry="3" style="stroke:#038048;stroke-width:1.0;"/><text fill="#000000" font-family="sans-serif" font-size="14" lengthAdjust="spacing" textLength="39" x="316" y="907.1826">stat()</text><ellipse cx="307" cy="920.1328" fill="#84BE84" rx="3" ry="3" style="stroke:#038048;stroke-width:1.0;"/><text fill="#000000" font-family="sans-serif" font-size="14" lengthAdjust="spacing" textLength="55" x="316" y="923.4795">debug()</text><ellipse cx="307" cy="936.4297" fill="#84BE84" rx="3" ry="3" style="stroke:#038048;stroke-width:1.0;"/><text fill="#000000" font-family="sans-serif" font-size="14" lengthAdjust="spacing" textLength="48" x="316" y="939.7764">trace()</text></g><!--class named_logging_object--><g id="elem_named_logging_object"><rect codeLine="100" fill="#F1F1F1" height="178.375" id="named_logging_object" rx="2.5" ry="2.5" style="stroke:#181818;stroke-width:0.5;" width="195" x="173.5" y="1206.5"/><ellipse cx="188.5" cy="1222.5" fill="#ADD1B2" rx="11" ry="11" style="stroke:#181818;stroke-width:1.0;"/><path d="M190.8438,1218.1719 C189.9063,1217.7344 189.3125,1217.5938 188.4375,1217.5938 C185.8125,1217.5938 183.8125,1219.6719 183.8125,1222.3906 L183.8125,1223.5156 C183.8125,1226.0938 185.9219,1227.9844 188.8125,1227.9844 C190.0313,1227.9844 191.1875,1227.6875 191.9375,1227.1406 C192.5156,1226.7344 192.8438,1226.2813 192.8438,1225.8906 C192.8438,1225.4375 192.4531,1225.0469 191.9844,1225.0469 C191.7656,1225.0469 191.5625,1225.125 191.375,1225.3125 C190.9219,1225.7969 190.9219,1225.7969 190.7344,1225.8906 C190.3125,1226.1563 189.625,1226.2813 188.8594,1226.2813 C186.8125,1226.2813 185.5156,1225.1875 185.5156,1223.4844 L185.5156,1222.3906 C185.5156,1220.6094 186.7656,1219.2969 188.5,1219.2969 C189.0781,1219.2969 189.6875,1219.4531 190.1563,1219.7031 C190.6406,1219.9844 190.8125,1220.2031 190.9063,1220.6094 C190.9688,1221.0156 191,1221.1406 191.1406,1221.2656 C191.2813,1221.4063 191.5156,1221.5156 191.7344,1221.5156 C192,1221.5156 192.2656,1221.375 192.4375,1221.1563 C192.5469,1221 192.5781,1220.8125 192.5781,1220.3906 L192.5781,1218.9688 C192.5781,1218.5313 192.5625,1218.4063 192.4688,1218.25 C192.3125,1217.9844 192.0313,1217.8438 191.7344,1217.8438 C191.4375,1217.8438 191.2344,1217.9375 191.0156,1218.25 L190.8438,1218.1719 Z " fill="#000000"/><text fill="#000000" font-family="sans-serif" font-size="14" lengthAdjust="spacing" textLength="163" x="202.5" y="1227.3467">named_logging_object</text><line style="stroke:#181818;stroke-width:0.5;" x1="174.5" x2="367.5" y1="1238.5" y2="1238.5"/><line style="stroke:#181818;stroke-width:0.5;" x1="174.5" x2="367.5" y1="1246.5" y2="1246.5"/><ellipse cx="184.5" cy="1260.1484" fill="#84BE84" rx="3" ry="3" style="stroke:#038048;stroke-width:1.0;"/><text fill="#000000" font-family="sans-serif" font-size="14" lengthAdjust="spacing" textLength="32" x="193.5" y="1263.4951">log()</text><ellipse cx="184.5" cy="1276.4453" fill="#84BE84" rx="3" ry="3" style="stroke:#038048;stroke-width:1.0;"/><text fill="#000000" font-family="sans-serif" font-size="14" lengthAdjust="spacing" textLength="72" x="193.5" y="1279.792">log_fatal()</text><ellipse cx="184.5" cy="1292.7422" fill="#84BE84" rx="3" ry="3" style="stroke:#038048;stroke-width:1.0;"/><text fill="#000000" font-family="sans-serif" font-size="14" lengthAdjust="spacing" textLength="75" x="193.5" y="1296.0889">log_error()</text><ellipse cx="184.5" cy="1309.0391" fill="#84BE84" rx="3" ry="3" style="stroke:#038048;stroke-width:1.0;"/><text fill="#000000" font-family="sans-serif" font-size="14" lengthAdjust="spacing" textLength="95" x="193.5" y="1312.3857">log_warning()</text><ellipse cx="184.5" cy="1325.3359" fill="#84BE84" rx="3" ry="3" style="stroke:#038048;stroke-width:1.0;"/><text fill="#000000" font-family="sans-serif" font-size="14" lengthAdjust="spacing" textLength="67" x="193.5" y="1328.6826">log_info()</text><ellipse cx="184.5" cy="1341.6328" fill="#84BE84" rx="3" ry="3" style="stroke:#038048;stroke-width:1.0;"/><text fill="#000000" font-family="sans-serif" font-size="14" lengthAdjust="spacing" textLength="68" x="193.5" y="1344.9795">log_stat()</text><ellipse cx="184.5" cy="1357.9297" fill="#84BE84" rx="3" ry="3" style="stroke:#038048;stroke-width:1.0;"/><text fill="#000000" font-family="sans-serif" font-size="14" lengthAdjust="spacing" textLength="84" x="193.5" y="1361.2764">log_debug()</text><ellipse cx="184.5" cy="1374.2266" fill="#84BE84" rx="3" ry="3" style="stroke:#038048;stroke-width:1.0;"/><text fill="#000000" font-family="sans-serif" font-size="14" lengthAdjust="spacing" textLength="77" x="193.5" y="1377.5732">log_trace()</text></g><!--class root_logger--><g id="elem_root_logger"><rect codeLine="113" fill="#F1F1F1" height="56.2656" id="root_logger" rx="2.5" ry="2.5" style="stroke:#181818;stroke-width:0.5;" width="134" x="275" y="599"/><ellipse cx="290" cy="619.1328" fill="#ADD1B2" rx="11" ry="11" style="stroke:#181818;stroke-width:1.0;"/><path d="M292.3438,614.8047 C291.4063,614.3672 290.8125,614.2266 289.9375,614.2266 C287.3125,614.2266 285.3125,616.3047 285.3125,619.0234 L285.3125,620.1484 C285.3125,622.7266 287.4219,624.6172 290.3125,624.6172 C291.5313,624.6172 292.6875,624.3203 293.4375,623.7734 C294.0156,623.3672 294.3438,622.9141 294.3438,622.5234 C294.3438,622.0703 293.9531,621.6797 293.4844,621.6797 C293.2656,621.6797 293.0625,621.7578 292.875,621.9453 C292.4219,622.4297 292.4219,622.4297 292.2344,622.5234 C291.8125,622.7891 291.125,622.9141 290.3594,622.9141 C288.3125,622.9141 287.0156,621.8203 287.0156,620.1172 L287.0156,619.0234 C287.0156,617.2422 288.2656,615.9297 290,615.9297 C290.5781,615.9297 291.1875,616.0859 291.6563,616.3359 C292.1406,616.6172 292.3125,616.8359 292.4063,617.2422 C292.4688,617.6484 292.5,617.7734 292.6406,617.8984 C292.7813,618.0391 293.0156,618.1484 293.2344,618.1484 C293.5,618.1484 293.7656,618.0078 293.9375,617.7891 C294.0469,617.6328 294.0781,617.4453 294.0781,617.0234 L294.0781,615.6016 C294.0781,615.1641 294.0625,615.0391 293.9688,614.8828 C293.8125,614.6172 293.5313,614.4766 293.2344,614.4766 C292.9375,614.4766 292.7344,614.5703 292.5156,614.8828 L292.3438,614.8047 Z " fill="#000000"/><text fill="#000000" font-family="sans-serif" font-size="12" font-style="italic" lengthAdjust="spacing" textLength="106" x="302" y="615.1387">&#171;Single instance&#187;</text><text fill="#000000" font-family="sans-serif" font-size="14" lengthAdjust="spacing" textLength="84" x="313" y="630.9639">root_logger</text><line style="stroke:#181818;stroke-width:0.5;" x1="276" x2="408" y1="639.2656" y2="639.2656"/><line style="stroke:#181818;stroke-width:0.5;" x1="276" x2="408" y1="647.2656" y2="647.2656"/></g><!--class log_event_severity--><g id="elem_log_event_severity"><rect codeLine="1" fill="#F1F1F1" height="162.0781" id="log_event_severity" rx="2.5" ry="2.5" style="stroke:#181818;stroke-width:0.5;" width="168" x="473" y="546"/><ellipse cx="488" cy="562" fill="#EB937F" rx="11" ry="11" style="stroke:#181818;stroke-width:1.0;"/><path d="M486.7969,562.875 L488.25,562.875 L488.25,562.9844 C488.25,563.3906 488.2813,563.5469 488.3594,563.7031 C488.5156,563.9531 488.7969,564.1094 489.0938,564.1094 C489.3438,564.1094 489.6094,563.9688 489.7656,563.75 C489.8906,563.5938 489.9219,563.4375 489.9219,562.9844 L489.9219,561.0625 C489.9219,560.9063 489.9219,560.8594 489.9063,560.7031 C489.8438,560.2344 489.5313,559.9219 489.0781,559.9219 C488.8281,559.9219 488.5625,560.0625 488.3906,560.2813 C488.2813,560.4531 488.25,560.6094 488.25,561.0625 L488.25,561.1875 L486.7969,561.1875 L486.7969,558.7813 L490.7813,558.7813 L490.7813,559.6406 C490.7813,560.0469 490.8125,560.2188 490.8906,560.375 C491.0625,560.625 491.3438,560.7813 491.625,560.7813 C491.8906,560.7813 492.1563,560.6406 492.3281,560.4219 C492.4375,560.25 492.4688,560.1094 492.4688,559.6406 L492.4688,557.0938 L484.8438,557.0938 C484.4063,557.0938 484.2813,557.1094 484.125,557.2031 C483.875,557.3594 483.7188,557.6563 483.7188,557.9375 C483.7188,558.2188 483.8594,558.4688 484.0781,558.6406 C484.2344,558.75 484.4219,558.7813 484.8438,558.7813 L485.0938,558.7813 L485.0938,565.2969 L484.8438,565.2969 C484.4375,565.2969 484.2813,565.3125 484.125,565.4219 C483.875,565.5938 483.7188,565.8594 483.7188,566.1563 C483.7188,566.4219 483.8594,566.6719 484.0781,566.8281 C484.2188,566.9531 484.4531,567 484.8438,567 L492.8438,567 L492.8438,564.4219 C492.8438,563.9844 492.8125,563.8438 492.7344,563.6875 C492.5625,563.4375 492.2813,563.2813 492,563.2813 C491.7344,563.2813 491.4688,563.3906 491.2969,563.6406 C491.1875,563.7969 491.1563,563.9375 491.1563,564.4219 L491.1563,565.2969 L486.7969,565.2969 L486.7969,562.875 Z " fill="#000000"/><text fill="#000000" font-family="sans-serif" font-size="14" lengthAdjust="spacing" textLength="136" x="502" y="566.8467">log_event_severity</text><line style="stroke:#181818;stroke-width:0.5;" x1="474" x2="640" y1="578" y2="578"/><text fill="#000000" font-family="sans-serif" font-size="14" lengthAdjust="spacing" textLength="38" x="479" y="594.9951">trace</text><text fill="#000000" font-family="sans-serif" font-size="14" lengthAdjust="spacing" textLength="45" x="479" y="611.292">debug</text><text fill="#000000" font-family="sans-serif" font-size="14" lengthAdjust="spacing" textLength="29" x="479" y="627.5889">stat</text><text fill="#000000" font-family="sans-serif" font-size="14" lengthAdjust="spacing" textLength="28" x="479" y="643.8857">info</text><text fill="#000000" font-family="sans-serif" font-size="14" lengthAdjust="spacing" textLength="56" x="479" y="660.1826">warning</text><text fill="#000000" font-family="sans-serif" font-size="14" lengthAdjust="spacing" textLength="36" x="479" y="676.4795">error</text><text fill="#000000" font-family="sans-serif" font-size="14" lengthAdjust="spacing" textLength="33" x="479" y="692.7764">fatal</text><line style="stroke:#181818;stroke-width:0.5;" x1="474" x2="640" y1="700.0781" y2="700.0781"/></g><!--class log_entry--><g id="elem_log_entry"><rect codeLine="77" fill="#F1F1F1" height="80.5938" id="log_entry" rx="2.5" ry="2.5" style="stroke:#181818;stroke-width:0.5;" width="131" x="491.5" y="825.5"/><ellipse cx="520.45" cy="841.5" fill="#ADD1B2" rx="11" ry="11" style="stroke:#181818;stroke-width:1.0;"/><path d="M522.7938,837.1719 C521.8563,836.7344 521.2625,836.5938 520.3875,836.5938 C517.7625,836.5938 515.7625,838.6719 515.7625,841.3906 L515.7625,842.5156 C515.7625,845.0938 517.8719,846.9844 520.7625,846.9844 C521.9813,846.9844 523.1375,846.6875 523.8875,846.1406 C524.4656,845.7344 524.7938,845.2813 524.7938,844.8906 C524.7938,844.4375 524.4031,844.0469 523.9344,844.0469 C523.7156,844.0469 523.5125,844.125 523.325,844.3125 C522.8719,844.7969 522.8719,844.7969 522.6844,844.8906 C522.2625,845.1563 521.575,845.2813 520.8094,845.2813 C518.7625,845.2813 517.4656,844.1875 517.4656,842.4844 L517.4656,841.3906 C517.4656,839.6094 518.7156,838.2969 520.45,838.2969 C521.0281,838.2969 521.6375,838.4531 522.1063,838.7031 C522.5906,838.9844 522.7625,839.2031 522.8563,839.6094 C522.9188,840.0156 522.95,840.1406 523.0906,840.2656 C523.2313,840.4063 523.4656,840.5156 523.6844,840.5156 C523.95,840.5156 524.2156,840.375 524.3875,840.1563 C524.4969,840 524.5281,839.8125 524.5281,839.3906 L524.5281,837.9688 C524.5281,837.5313 524.5125,837.4063 524.4188,837.25 C524.2625,836.9844 523.9813,836.8438 523.6844,836.8438 C523.3875,836.8438 523.1844,836.9375 522.9656,837.25 L522.7938,837.1719 Z " fill="#000000"/><text fill="#000000" font-family="sans-serif" font-size="14" lengthAdjust="spacing" textLength="68" x="537.55" y="846.3467">log_entry</text><line style="stroke:#181818;stroke-width:0.5;" x1="492.5" x2="621.5" y1="857.5" y2="857.5"/><line style="stroke:#181818;stroke-width:0.5;" x1="492.5" x2="621.5" y1="865.5" y2="865.5"/><ellipse cx="502.5" cy="879.1484" fill="#84BE84" rx="3" ry="3" style="stroke:#038048;stroke-width:1.0;"/><text fill="#000000" font-family="sans-serif" font-size="14" lengthAdjust="spacing" textLength="105" x="511.5" y="882.4951">set_format(...)</text><ellipse cx="502.5" cy="895.4453" fill="#84BE84" rx="3" ry="3" style="stroke:#038048;stroke-width:1.0;"/><text fill="#000000" font-family="sans-serif" font-size="14" lengthAdjust="spacing" textLength="48" x="511.5" y="898.792">arg(...)</text></g><!--class root_logger_options--><g id="elem_root_logger_options"><rect codeLine="118" fill="#F1F1F1" height="48" id="root_logger_options" rx="2.5" ry="2.5" style="stroke:#181818;stroke-width:0.5;" width="178" x="328" y="372"/><ellipse cx="343" cy="388" fill="#ADD1B2" rx="11" ry="11" style="stroke:#181818;stroke-width:1.0;"/><path d="M345.3438,383.6719 C344.4063,383.2344 343.8125,383.0938 342.9375,383.0938 C340.3125,383.0938 338.3125,385.1719 338.3125,387.8906 L338.3125,389.0156 C338.3125,391.5938 340.4219,393.4844 343.3125,393.4844 C344.5313,393.4844 345.6875,393.1875 346.4375,392.6406 C347.0156,392.2344 347.3438,391.7813 347.3438,391.3906 C347.3438,390.9375 346.9531,390.5469 346.4844,390.5469 C346.2656,390.5469 346.0625,390.625 345.875,390.8125 C345.4219,391.2969 345.4219,391.2969 345.2344,391.3906 C344.8125,391.6563 344.125,391.7813 343.3594,391.7813 C341.3125,391.7813 340.0156,390.6875 340.0156,388.9844 L340.0156,387.8906 C340.0156,386.1094 341.2656,384.7969 343,384.7969 C343.5781,384.7969 344.1875,384.9531 344.6563,385.2031 C345.1406,385.4844 345.3125,385.7031 345.4063,386.1094 C345.4688,386.5156 345.5,386.6406 345.6406,386.7656 C345.7813,386.9063 346.0156,387.0156 346.2344,387.0156 C346.5,387.0156 346.7656,386.875 346.9375,386.6563 C347.0469,386.5 347.0781,386.3125 347.0781,385.8906 L347.0781,384.4688 C347.0781,384.0313 347.0625,383.9063 346.9688,383.75 C346.8125,383.4844 346.5313,383.3438 346.2344,383.3438 C345.9375,383.3438 345.7344,383.4375 345.5156,383.75 L345.3438,383.6719 Z " fill="#000000"/><text fill="#000000" font-family="sans-serif" font-size="14" lengthAdjust="spacing" textLength="146" x="357" y="392.8467">root_logger_options</text><line style="stroke:#181818;stroke-width:0.5;" x1="329" x2="505" y1="404" y2="404"/><line style="stroke:#181818;stroke-width:0.5;" x1="329" x2="505" y1="412" y2="412"/></g><!--class program_args--><g id="elem_program_args"><rect codeLine="121" fill="#F1F1F1" height="96.8906" id="program_args" rx="2.5" ry="2.5" style="stroke:#181818;stroke-width:0.5;" width="131" x="161.5" y="347.5"/><ellipse cx="176.5" cy="363.5" fill="#ADD1B2" rx="11" ry="11" style="stroke:#181818;stroke-width:1.0;"/><path d="M178.8438,359.1719 C177.9063,358.7344 177.3125,358.5938 176.4375,358.5938 C173.8125,358.5938 171.8125,360.6719 171.8125,363.3906 L171.8125,364.5156 C171.8125,367.0938 173.9219,368.9844 176.8125,368.9844 C178.0313,368.9844 179.1875,368.6875 179.9375,368.1406 C180.5156,367.7344 180.8438,367.2813 180.8438,366.8906 C180.8438,366.4375 180.4531,366.0469 179.9844,366.0469 C179.7656,366.0469 179.5625,366.125 179.375,366.3125 C178.9219,366.7969 178.9219,366.7969 178.7344,366.8906 C178.3125,367.1563 177.625,367.2813 176.8594,367.2813 C174.8125,367.2813 173.5156,366.1875 173.5156,364.4844 L173.5156,363.3906 C173.5156,361.6094 174.7656,360.2969 176.5,360.2969 C177.0781,360.2969 177.6875,360.4531 178.1563,360.7031 C178.6406,360.9844 178.8125,361.2031 178.9063,361.6094 C178.9688,362.0156 179,362.1406 179.1406,362.2656 C179.2813,362.4063 179.5156,362.5156 179.7344,362.5156 C180,362.5156 180.2656,362.375 180.4375,362.1563 C180.5469,362 180.5781,361.8125 180.5781,361.3906 L180.5781,359.9688 C180.5781,359.5313 180.5625,359.4063 180.4688,359.25 C180.3125,358.9844 180.0313,358.8438 179.7344,358.8438 C179.4375,358.8438 179.2344,358.9375 179.0156,359.25 L178.8438,359.1719 Z " fill="#000000"/><text fill="#000000" font-family="sans-serif" font-size="14" lengthAdjust="spacing" textLength="99" x="190.5" y="368.3467">program_args</text><line style="stroke:#181818;stroke-width:0.5;" x1="162.5" x2="291.5" y1="379.5" y2="379.5"/><line style="stroke:#181818;stroke-width:0.5;" x1="162.5" x2="291.5" y1="387.5" y2="387.5"/><ellipse cx="172.5" cy="401.1484" fill="#84BE84" rx="3" ry="3" style="stroke:#038048;stroke-width:1.0;"/><text fill="#000000" font-family="sans-serif" font-size="14" lengthAdjust="spacing" textLength="51" x="181.5" y="404.4951">begin()</text><ellipse cx="172.5" cy="417.4453" fill="#84BE84" rx="3" ry="3" style="stroke:#038048;stroke-width:1.0;"/><text fill="#000000" font-family="sans-serif" font-size="14" lengthAdjust="spacing" textLength="37" x="181.5" y="420.792">end()</text><ellipse cx="172.5" cy="433.7422" fill="#84BE84" rx="3" ry="3" style="stroke:#038048;stroke-width:1.0;"/><text fill="#000000" font-family="sans-serif" font-size="14" lengthAdjust="spacing" textLength="38" x="181.5" y="437.0889">find()</text></g><!--class main_ctx_object--><g id="elem_main_ctx_object"><rect codeLine="127" fill="#F1F1F1" height="48" id="main_ctx_object" rx="2.5" ry="2.5" style="stroke:#181818;stroke-width:0.5;" width="151" x="74.5" y="1470"/><ellipse cx="89.5" cy="1486" fill="#ADD1B2" rx="11" ry="11" style="stroke:#181818;stroke-width:1.0;"/><path d="M91.8438,1481.6719 C90.9063,1481.2344 90.3125,1481.0938 89.4375,1481.0938 C86.8125,1481.0938 84.8125,1483.1719 84.8125,1485.8906 L84.8125,1487.0156 C84.8125,1489.5938 86.9219,1491.4844 89.8125,1491.4844 C91.0313,1491.4844 92.1875,1491.1875 92.9375,1490.6406 C93.5156,1490.2344 93.8438,1489.7813 93.8438,1489.3906 C93.8438,1488.9375 93.4531,1488.5469 92.9844,1488.5469 C92.7656,1488.5469 92.5625,1488.625 92.375,1488.8125 C91.9219,1489.2969 91.9219,1489.2969 91.7344,1489.3906 C91.3125,1489.6563 90.625,1489.7813 89.8594,1489.7813 C87.8125,1489.7813 86.5156,1488.6875 86.5156,1486.9844 L86.5156,1485.8906 C86.5156,1484.1094 87.7656,1482.7969 89.5,1482.7969 C90.0781,1482.7969 90.6875,1482.9531 91.1563,1483.2031 C91.6406,1483.4844 91.8125,1483.7031 91.9063,1484.1094 C91.9688,1484.5156 92,1484.6406 92.1406,1484.7656 C92.2813,1484.9063 92.5156,1485.0156 92.7344,1485.0156 C93,1485.0156 93.2656,1484.875 93.4375,1484.6563 C93.5469,1484.5 93.5781,1484.3125 93.5781,1483.8906 L93.5781,1482.4688 C93.5781,1482.0313 93.5625,1481.9063 93.4688,1481.75 C93.3125,1481.4844 93.0313,1481.3438 92.7344,1481.3438 C92.4375,1481.3438 92.2344,1481.4375 92.0156,1481.75 L91.8438,1481.6719 Z " fill="#000000"/><text fill="#000000" font-family="sans-serif" font-size="14" lengthAdjust="spacing" textLength="119" x="103.5" y="1490.8467">main_ctx_object</text><line style="stroke:#181818;stroke-width:0.5;" x1="75.5" x2="224.5" y1="1502" y2="1502"/><line style="stroke:#181818;stroke-width:0.5;" x1="75.5" x2="224.5" y1="1510" y2="1510"/></g><!--class main_ctx--><g id="elem_main_ctx"><rect codeLine="130" fill="#F1F1F1" height="56.2656" id="main_ctx" rx="2.5" ry="2.5" style="stroke:#181818;stroke-width:0.5;" width="134" x="7" y="599"/><ellipse cx="22" cy="619.1328" fill="#ADD1B2" rx="11" ry="11" style="stroke:#181818;stroke-width:1.0;"/><path d="M24.3438,614.8047 C23.4063,614.3672 22.8125,614.2266 21.9375,614.2266 C19.3125,614.2266 17.3125,616.3047 17.3125,619.0234 L17.3125,620.1484 C17.3125,622.7266 19.4219,624.6172 22.3125,624.6172 C23.5313,624.6172 24.6875,624.3203 25.4375,623.7734 C26.0156,623.3672 26.3438,622.9141 26.3438,622.5234 C26.3438,622.0703 25.9531,621.6797 25.4844,621.6797 C25.2656,621.6797 25.0625,621.7578 24.875,621.9453 C24.4219,622.4297 24.4219,622.4297 24.2344,622.5234 C23.8125,622.7891 23.125,622.9141 22.3594,622.9141 C20.3125,622.9141 19.0156,621.8203 19.0156,620.1172 L19.0156,619.0234 C19.0156,617.2422 20.2656,615.9297 22,615.9297 C22.5781,615.9297 23.1875,616.0859 23.6563,616.3359 C24.1406,616.6172 24.3125,616.8359 24.4063,617.2422 C24.4688,617.6484 24.5,617.7734 24.6406,617.8984 C24.7813,618.0391 25.0156,618.1484 25.2344,618.1484 C25.5,618.1484 25.7656,618.0078 25.9375,617.7891 C26.0469,617.6328 26.0781,617.4453 26.0781,617.0234 L26.0781,615.6016 C26.0781,615.1641 26.0625,615.0391 25.9688,614.8828 C25.8125,614.6172 25.5313,614.4766 25.2344,614.4766 C24.9375,614.4766 24.7344,614.5703 24.5156,614.8828 L24.3438,614.8047 Z " fill="#000000"/><text fill="#000000" font-family="sans-serif" font-size="12" font-style="italic" lengthAdjust="spacing" textLength="106" x="34" y="615.1387">&#171;Single instance&#187;</text><text fill="#000000" font-family="sans-serif" font-size="14" lengthAdjust="spacing" textLength="65" x="54.5" y="630.9639">main_ctx</text><line style="stroke:#181818;stroke-width:0.5;" x1="8" x2="140" y1="639.2656" y2="639.2656"/><line style="stroke:#181818;stroke-width:0.5;" x1="8" x2="140" y1="647.2656" y2="647.2656"/></g><!--class main--><g id="elem_main"><rect codeLine="133" fill="#F1F1F1" height="56.2656" id="main" rx="2.5" ry="2.5" style="stroke:#181818;stroke-width:0.5;" width="95" x="107.5" y="145"/><ellipse cx="122.5" cy="165.1328" fill="#ADD1B2" rx="11" ry="11" style="stroke:#181818;stroke-width:1.0;"/><path d="M124.8438,160.8047 C123.9063,160.3672 123.3125,160.2266 122.4375,160.2266 C119.8125,160.2266 117.8125,162.3047 117.8125,165.0234 L117.8125,166.1484 C117.8125,168.7266 119.9219,170.6172 122.8125,170.6172 C124.0313,170.6172 125.1875,170.3203 125.9375,169.7734 C126.5156,169.3672 126.8438,168.9141 126.8438,168.5234 C126.8438,168.0703 126.4531,167.6797 125.9844,167.6797 C125.7656,167.6797 125.5625,167.7578 125.375,167.9453 C124.9219,168.4297 124.9219,168.4297 124.7344,168.5234 C124.3125,168.7891 123.625,168.9141 122.8594,168.9141 C120.8125,168.9141 119.5156,167.8203 119.5156,166.1172 L119.5156,165.0234 C119.5156,163.2422 120.7656,161.9297 122.5,161.9297 C123.0781,161.9297 123.6875,162.0859 124.1563,162.3359 C124.6406,162.6172 124.8125,162.8359 124.9063,163.2422 C124.9688,163.6484 125,163.7734 125.1406,163.8984 C125.2813,164.0391 125.5156,164.1484 125.7344,164.1484 C126,164.1484 126.2656,164.0078 126.4375,163.7891 C126.5469,163.6328 126.5781,163.4453 126.5781,163.0234 L126.5781,161.6016 C126.5781,161.1641 126.5625,161.0391 126.4688,160.8828 C126.3125,160.6172 126.0313,160.4766 125.7344,160.4766 C125.4375,160.4766 125.2344,160.5703 125.0156,160.8828 L124.8438,160.8047 Z " fill="#000000"/><text fill="#000000" font-family="sans-serif" font-size="12" font-style="italic" lengthAdjust="spacing" textLength="67" x="134.5" y="161.1387">&#171;Function&#187;</text><text fill="#000000" font-family="sans-serif" font-size="14" lengthAdjust="spacing" textLength="35" x="150.5" y="176.9639">main</text><line style="stroke:#181818;stroke-width:0.5;" x1="108.5" x2="201.5" y1="185.2656" y2="185.2656"/><line style="stroke:#181818;stroke-width:0.5;" x1="108.5" x2="201.5" y1="193.2656" y2="193.2656"/></g><!--link json_log_backend to proxy_log_backend--><!--link xml_log_backend to proxy_log_backend--><!--link asio_log_output_stream to std_log_output_stream--><!--link named_logging_object to named_logging_object--><g id="link_named_logging_object_named_logging_object"><path codeLine="111" d="M368.648,1270.896 C388.922,1273.486 403.5,1281.688 403.5,1295.5 C403.5,1309.312 394.8736,1316.7537 374.5996,1319.3437 " fill="none" id="named_logging_object-to-named_logging_object" style="stroke:#181818;stroke-width:1.0;"/><polygon fill="#181818" points="368.648,1320.104,378.0823,1322.9313,373.6077,1319.4704,377.0686,1314.9958,368.648,1320.104" style="stroke:#181818;stroke-width:1.0;"/><text fill="#000000" font-family="sans-serif" font-size="13" lengthAdjust="spacing" textLength="42" x="409.5" y="1300.0669">parent</text></g><!--link std_log_output_stream to log_output_stream--><g id="link_std_log_output_stream_log_output_stream"><path codeLine="136" d="M943.511,469.14 C927.978,499.03 918.4151,517.4379 903.3781,546.3739 " fill="none" id="std_log_output_stream-to-log_output_stream" style="stroke:#181818;stroke-width:1.0;"/><polygon fill="none" points="895.078,562.346,908.7022,549.1406,898.0541,543.6072,895.078,562.346" style="stroke:#181818;stroke-width:1.0;"/><text fill="#000000" font-family="sans-serif" font-size="13" lengthAdjust="spacing" textLength="76" x="926" y="512.0669">implements</text></g><!--link asio_log_output_stream to log_output_stream--><g id="link_asio_log_output_stream_log_output_stream"><path codeLine="137" d="M832.052,246.2 C813.368,268.82 795.864,295.21 786,323 C764.297,384.15 771.497,405.75 786,469 C793.411,501.32 799.9272,518.8319 814.6412,546.4659 " fill="none" id="asio_log_output_stream-to-log_output_stream" style="stroke:#181818;stroke-width:1.0;"/><polygon fill="none" points="823.101,562.354,819.9373,543.646,809.3452,549.2858,823.101,562.354" style="stroke:#181818;stroke-width:1.0;"/><text fill="#000000" font-family="sans-serif" font-size="13" lengthAdjust="spacing" textLength="76" x="787" y="400.5669">implements</text></g><!--link log_output_stream to json_log_backend--><g id="link_log_output_stream_json_log_backend"><path codeLine="139" d="M832.5817,697.0317 C811.4287,746.6667 790.2854,796.2806 775.5774,830.7946 " fill="none" id="log_output_stream-json_log_backend" style="stroke:#181818;stroke-width:1.0;"/><polygon fill="#181818" points="834.934,691.512,827.7258,698.2233,832.9737,696.1117,835.0853,701.3597,834.934,691.512" style="stroke:#181818;stroke-width:1.0;"/><polygon fill="none" points="770.873,841.834,776.905,837.8824,775.5774,830.7946,769.5454,834.7462,770.873,841.834" style="stroke:#181818;stroke-width:1.0;"/><text fill="#000000" font-family="sans-serif" font-size="13" lengthAdjust="spacing" textLength="30" x="816" y="751.0669">uses</text></g><!--link log_output_stream to xml_log_backend--><g id="link_log_output_stream_xml_log_backend"><path codeLine="140" d="M888.8253,697.1053 C908.0933,746.7403 927.2677,796.1332 940.6647,830.6472 " fill="none" id="log_output_stream-xml_log_backend" style="stroke:#181818;stroke-width:1.0;"/><polygon fill="#181818" points="886.654,691.512,886.1821,701.3495,888.4634,696.1731,893.6398,698.4545,886.654,691.512" style="stroke:#181818;stroke-width:1.0;"/><polygon fill="none" points="945.007,841.834,946.5648,834.7932,940.6647,830.6472,939.1069,837.688,945.007,841.834" style="stroke:#181818;stroke-width:1.0;"/><text fill="#000000" font-family="sans-serif" font-size="13" lengthAdjust="spacing" textLength="30" x="912" y="751.0669">uses</text></g><!--reverse link logger_backend to null_log_backend--><g id="link_logger_backend_null_log_backend"><path codeLine="142" d="M871.661,1295.5 C907.881,1295.5 931.399,1295.5 966.397,1295.5 " fill="none" id="logger_backend-backto-null_log_backend" style="stroke:#181818;stroke-width:1.0;"/><polygon fill="none" points="853.661,1295.5,871.661,1301.5,871.661,1289.5,853.661,1295.5" style="stroke:#181818;stroke-width:1.0;"/><text fill="#000000" font-family="sans-serif" font-size="13" lengthAdjust="spacing" textLength="76" x="872" y="1288.5669">implements</text></g><!--reverse link logger_backend to syslog_log_backend--><g id="link_logger_backend_syslog_log_backend"><path codeLine="143" d="M765,1411.023 C765,1439.752 765,1450.6785 765,1469.9718 " fill="none" id="logger_backend-backto-syslog_log_backend" style="stroke:#181818;stroke-width:1.0;"/><polygon fill="none" points="765,1393.023,759,1411.023,771,1411.023,765,1393.023" style="stroke:#181818;stroke-width:1.0;"/><text fill="#000000" font-family="sans-serif" font-size="13" lengthAdjust="spacing" textLength="76" x="766" y="1436.0669">implements</text></g><!--link json_log_backend to logger_backend--><g id="link_json_log_backend_logger_backend"><path codeLine="144" d="M754.164,890.139 C745.576,920.528 731.318,975.701 726,1024 C721.281,1066.852 721.244,1078.152 726,1121 C728.793,1146.161 729.9012,1155.4319 735.4152,1180.2979 " fill="none" id="json_log_backend-to-logger_backend" style="stroke:#181818;stroke-width:1.0;"/><polygon fill="none" points="739.312,1197.871,741.2729,1178.9989,729.5575,1181.5968,739.312,1197.871" style="stroke:#181818;stroke-width:1.0;"/><text fill="#000000" font-family="sans-serif" font-size="13" lengthAdjust="spacing" textLength="76" x="727" y="1077.0669">implements</text></g><!--link xml_log_backend to logger_backend--><g id="link_xml_log_backend_logger_backend"><path codeLine="145" d="M968.687,890.208 C995.835,936.289 1047.8,1041.721 1010,1121 C979.102,1185.807 926.6598,1223.1378 869.8938,1251.1578 " fill="none" id="xml_log_backend-to-logger_backend" style="stroke:#181818;stroke-width:1.0;"/><polygon fill="none" points="853.753,1259.125,872.5495,1256.5381,867.238,1245.7776,853.753,1259.125" style="stroke:#181818;stroke-width:1.0;"/><text fill="#000000" font-family="sans-serif" font-size="13" lengthAdjust="spacing" textLength="76" x="1024" y="1077.0669">implements</text></g><!--link proxy_log_backend to logger_backend--><g id="link_proxy_log_backend_logger_backend"><path codeLine="146" d="M893.977,1100.544 C884.417,1119.757 870.753,1145.952 857,1168 C850.892,1177.792 854.4431,1172.9664 847.6571,1182.8804 " fill="none" id="proxy_log_backend-to-logger_backend" style="stroke:#181818;stroke-width:1.0;"/><polygon fill="none" points="837.49,1197.734,852.6083,1186.2694,842.7059,1179.4913,837.49,1197.734" style="stroke:#181818;stroke-width:1.0;"/><text fill="#000000" font-family="sans-serif" font-size="13" lengthAdjust="spacing" textLength="76" x="867" y="1164.0669">implements</text></g><!--link proxy_log_backend to logger_backend--><g id="link_proxy_log_backend_logger_backend"><path codeLine="147" d="M833.3948,1105.776 C800.5698,1121.369 776.171,1135.687 767,1151 C758.615,1165.001 754.9888,1175.262 753.3438,1191.664 " fill="none" id="proxy_log_backend-logger_backend" style="stroke:#181818;stroke-width:1.0;"/><polygon fill="#181818" points="844.234,1100.627,837.0981,1099.5884,833.3948,1105.776,840.5307,1106.8146,844.234,1100.627" style="stroke:#181818;stroke-width:1.0;"/><polygon fill="#181818" points="752.745,1197.634,757.6232,1189.0781,753.244,1192.659,749.6631,1188.2798,752.745,1197.634" style="stroke:#181818;stroke-width:1.0;"/><text fill="#000000" font-family="sans-serif" font-size="13" lengthAdjust="spacing" textLength="80" x="768" y="1164.0669">delegates to</text></g><!--reverse link log_event_severity to log_entry--><g id="link_log_event_severity_log_entry"><path codeLine="149" d="M557,714.237 C557,753.718 557,793.547 557,825.415 " fill="none" id="log_event_severity-backto-log_entry" style="stroke:#181818;stroke-width:1.0;"/><polygon fill="#181818" points="557,708.237,553,717.237,557,713.237,561,717.237,557,708.237" style="stroke:#181818;stroke-width:1.0;"/><text fill="#000000" font-family="sans-serif" font-size="13" lengthAdjust="spacing" textLength="23" x="558" y="751.0669">has</text></g><!--link log_entry to logger_backend--><g id="link_log_entry_logger_backend"><path codeLine="150" d="M576.381,906.834 C608.402,972.645 670.6169,1100.5147 715.2589,1192.2677 " fill="none" id="log_entry-to-logger_backend" style="stroke:#181818;stroke-width:1.0;"/><polygon fill="#181818" points="717.884,1197.663,717.5433,1187.82,715.6965,1193.1669,710.3496,1191.3201,717.884,1197.663" style="stroke:#181818;stroke-width:1.0;"/><text fill="#000000" font-family="sans-serif" font-size="13" lengthAdjust="spacing" textLength="30" x="680" y="1077.0669">uses</text></g><!--reverse link log_entry to basic_logger--><g id="link_log_entry_basic_logger"><path codeLine="152" d="M510.9436,910.8072 C475.7746,944.2592 429.687,988.095 392.289,1023.667 " fill="none" id="log_entry-backto-basic_logger" style="stroke:#181818;stroke-width:1.0;stroke-dasharray:7.0,7.0;"/><polygon fill="#181818" points="515.291,906.672,506.0131,909.9765,511.6681,910.118,511.5266,915.7731,515.291,906.672" style="stroke:#181818;stroke-width:1.0;"/><text fill="#000000" font-family="sans-serif" font-size="13" lengthAdjust="spacing" textLength="75" x="438" y="990.0669">instantiates</text></g><!--link basic_logger to logger_backend--><g id="link_basic_logger_logger_backend"><path codeLine="153" d="M443.6399,1126.6028 C515.6339,1164.2168 599.6281,1208.1006 671.0101,1245.3946 " fill="none" id="basic_logger-logger_backend" style="stroke:#181818;stroke-width:1.0;"/><polygon fill="none" points="433.004,1121.046,436.4697,1127.3697,443.6399,1126.6028,440.1742,1120.2791,433.004,1121.046" style="stroke:#181818;stroke-width:1.0;"/><polygon fill="#181818" points="676.328,1248.173,670.2033,1240.4601,671.8964,1245.8577,666.4988,1247.5507,676.328,1248.173" style="stroke:#181818;stroke-width:1.0;"/></g><!--link logger to basic_logger--><g id="link_logger_basic_logger"><path codeLine="154" d="M342,947.237 C342,973.197 342,983.145 342,1005.949 " fill="none" id="logger-to-basic_logger" style="stroke:#181818;stroke-width:1.0;"/><polygon fill="none" points="342,1023.949,348,1005.949,336,1005.949,342,1023.949" style="stroke:#181818;stroke-width:1.0;"/></g><!--reverse link basic_logger to named_logging_object--><g id="link_basic_logger_named_logging_object"><path codeLine="155" d="M321.1753,1138.3193 C313.1853,1163.1893 308.659,1177.28 299.319,1206.354 " fill="none" id="basic_logger-backto-named_logging_object" style="stroke:#181818;stroke-width:1.0;"/><polygon fill="none" points="326.681,1121.182,315.4629,1136.4841,326.8877,1140.1545,326.681,1121.182" style="stroke:#181818;stroke-width:1.0;"/></g><!--reverse link named_logging_object to main_ctx_object--><g id="link_named_logging_object_main_ctx_object"><path codeLine="156" d="M207.2559,1400.0182 C188.0309,1431.2392 177.401,1448.501 164.365,1469.6713 " fill="none" id="named_logging_object-backto-main_ctx_object" style="stroke:#181818;stroke-width:1.0;"/><polygon fill="none" points="216.694,1384.691,202.1469,1396.8722,212.365,1403.1642,216.694,1384.691" style="stroke:#181818;stroke-width:1.0;"/></g><!--reverse link main_ctx to main_ctx_object--><g id="link_main_ctx_main_ctx_object"><path codeLine="157" d="M79.2798,661.2192 C85.953,705.2272 97,788.729 97,865 C97,865 97,865 97,1296.5 C97,1361.161 124.083,1433.789 139.529,1469.9514 " fill="none" id="main_ctx-backto-main_ctx_object" style="stroke:#181818;stroke-width:1.0;"/><polygon fill="#181818" points="78.3803,655.287,75.7748,664.785,79.1299,660.2305,83.6844,663.5856,78.3803,655.287" style="stroke:#181818;stroke-width:1.0;"/></g><!--link program_args to main_ctx--><g id="link_program_args_main_ctx"><path codeLine="158" d="M191.7786,449.7188 C160.6016,496.3788 124.2276,550.8242 98.8623,588.7882 " fill="none" id="program_args-main_ctx" style="stroke:#181818;stroke-width:1.0;"/><polygon fill="#181818" points="195.112,444.73,186.786,449.991,192.3342,448.8874,193.4378,454.4355,195.112,444.73" style="stroke:#181818;stroke-width:1.0;"/><polygon fill="#181818" points="92.1957,598.766,98.8549,595.9993,98.8623,588.7882,92.2031,591.5549,92.1957,598.766" style="stroke:#181818;stroke-width:1.0;"/></g><!--link root_logger to logger--><g id="link_root_logger_logger"><path codeLine="159" d="M342,655.187 C342,686.617 342,721.793 342,766.745 " fill="none" id="root_logger-to-logger" style="stroke:#181818;stroke-width:1.0;"/><polygon fill="none" points="342,784.745,348,766.745,336,766.745,342,784.745" style="stroke:#181818;stroke-width:1.0;"/></g><!--reverse link program_args to root_logger--><g id="link_program_args_root_logger"><path codeLine="160" d="M253.6608,450.0918 C277.0948,496.7518 309.258,560.802 328.324,598.766 " fill="none" id="program_args-backto-root_logger" style="stroke:#181818;stroke-width:1.0;"/><polygon fill="#181818" points="250.968,444.73,251.4327,454.5679,253.212,449.1981,258.5818,450.9774,250.968,444.73" style="stroke:#181818;stroke-width:1.0;"/><text fill="#000000" font-family="sans-serif" font-size="13" lengthAdjust="spacing" textLength="30" x="286" y="512.0669">uses</text></g><!--reverse link root_logger_options to root_logger--><g id="link_root_logger_options_root_logger"><path codeLine="161" d="M407.5285,425.922 C393.5635,468.562 365.768,553.427 350.894,598.843 " fill="none" id="root_logger_options-backto-root_logger" style="stroke:#181818;stroke-width:1.0;"/><polygon fill="#181818" points="409.396,420.22,402.7935,427.528,407.8398,424.9717,410.3961,430.0179,409.396,420.22" style="stroke:#181818;stroke-width:1.0;"/><text fill="#000000" font-family="sans-serif" font-size="13" lengthAdjust="spacing" textLength="30" x="383" y="512.0669">uses</text></g><!--link main to main_ctx--><g id="link_main_main_ctx"><path codeLine="163" d="M132.906,201.05 C111.269,229.44 79.7495,276.34 67,323 C40.093,421.47 56.8668,538.8055 67.1124,592.7235 " fill="none" id="main-to-main_ctx" style="stroke:#181818;stroke-width:1.0;stroke-dasharray:7.0,7.0;"/><polygon fill="#181818" points="68.2325,598.618,70.482,589.0295,67.2991,593.7059,62.6227,590.5229,68.2325,598.618" style="stroke:#181818;stroke-width:1.0;"/><text fill="#000000" font-family="sans-serif" font-size="13" lengthAdjust="spacing" textLength="75" x="68" y="400.5669">instantiates</text></g><!--link main to root_logger_options--><g id="link_main_root_logger_options"><path codeLine="164" d="M187.126,201.1 C239.051,244.9 335.9376,326.6216 384.8086,367.8416 " fill="none" id="main-to-root_logger_options" style="stroke:#181818;stroke-width:1.0;stroke-dasharray:7.0,7.0;"/><polygon fill="#181818" points="389.395,371.71,385.0943,362.8498,385.573,368.4863,379.9364,368.965,389.395,371.71" style="stroke:#181818;stroke-width:1.0;"/><text fill="#000000" font-family="sans-serif" font-size="13" lengthAdjust="spacing" textLength="75" x="295" y="289.0669">instantiates</text></g><!--SRC=[lLPBRjim45rNfn3IZPD0Ee1XU14KNNLH8Dsr1K5BOvcDH0eabTfeSlSEVnObIWrGeDN6v7mVPpYF1ZvqUIiQ0i_0DL7u8vc-vB-o73yjQGLsLSDXQEnAQQhjWl6Zi8kVL7B6dHQa5DAkZbJJDdlDifvMJxI1_EO15y1hTPE__s0_p98nha4UCOr1qO0a1sVb4TphIm-4rPlRV9kp6Z6o8mENuLw19ZMeIh9UCy4tjquC9YHHbUWXY5gWpp0JuQ6h4vLuQDhrBMpAilIg0pICamwKGjoHdDOreR8PEimGYO-CCtLQiFSAp8H9iH9LIvNA-T2sHXQTzAfJ5sKqAzeVIl0rtRbR3TfBSRvCbBlTPoFRxvrP4hVuUc8r5ljxaJfdyqn_D1wx_mNEslJu6nU3xWTjhi63_P9hG9m5KLe2xL3zphV42R2OGO2Da1Uxjoj2-nwpRWwjg9wCr7TWDFE2Qw2nyhecIwbD8midtER2YVy77ggOM0UaC1uWe4Vx-s_nh229shvOkmnzqTiVnrACoHBcsipkKSYEnfE4m-Ls4MryihIWOivm8Gy8h2AEDK9Knf6UUBNA6FvQ1Wxew1EGAxIu_DEmRe8TkHY22nlFV65h636i3Ks6jINFiB6SEk43se6j7pOCQtZu0PLUI6nWMawD1HCqHZ13P4GnAhEFaPdz19qHH0WNiHN5VX7qDk-fn4g6WqaXTEZFRlU8XYtaeKE1UruNh8cmVAvc9DP8sXd-LQ4wzewFh7zjArxYEgvmHt4KAdqUYvkerW6ETcZpSU2LWHQKownH52_xbCVmDfftnZmUQdMetlRCKgzTKOZaSTZcWmArPZqZSM-SpTxWtKiXMNFIHVfeJJ2bRiNIKpRnIHyTV_OuqiGZUNZUSaWVlhzmkJFNFN6feOM6Qb2v5gubipzGMEM8zBRvYRfUkFrYp6iBlD6kBASaj_MNKpEJEPleH1hIjyKTEZQUUjfkBStpylHRy_b8PVCHAreuQaGKvDbaVh4uTwCgveceGLFvq6EqIH1ViDHgYKb2TUqSb-K8R5RJgtuXoDJqDm00]--></g></svg>