<?xml version="1.0" encoding="us-ascii" standalone="no"?><svg xmlns="http://www.w3.org/2000/svg" xmlns:xlink="http://www.w3.org/1999/xlink" contentStyleType="text/css" height="1521px" preserveAspectRatio="none" style="width:699px;height:1521px;background:#FFFFFF;" version="1.1" viewBox="0 0 699 1521" width="699px" zoomAndPan="magnify"><defs/><g><rect fill="#FFFFFF" height="1415.375" style="stroke:#181818;stroke-width:1.0;" width="10" x="39.5" y="46.2969"/><rect fill="#FFFFFF" height="1379.1094" style="stroke:#181818;stroke-width:1.0;" width="10" x="173.5" y="82.5625"/><rect fill="#FFFFFF" height="543.125" style="stroke:#181818;stroke-width:1.0;" width="10" x="277.5" y="193.0938"/><rect fill="#FFFFFF" height="170.6641" style="stroke:#181818;stroke-width:1.0;" width="10" x="363" y="430.0234"/><rect fill="#FFFFFF" height="245.1953" style="stroke:#181818;stroke-width:1.0;" width="10" x="448" y="811.6172"/><rect fill="#FFFFFF" height="245.1953" style="stroke:#181818;stroke-width:1.0;" width="10" x="568" y="1132.2109"/><rect fill="none" height="604.5234" style="stroke:#000000;stroke-width:1.5;" width="340.5" x="122.5" y="139.6953"/><rect fill="none" height="232.0625" style="stroke:#000000;stroke-width:1.5;" width="320.5" x="132.5" y="376.625"/><rect fill="none" height="306.5938" style="stroke:#000000;stroke-width:1.5;" width="563" x="10" y="758.2188"/><rect fill="none" height="306.5938" style="stroke:#000000;stroke-width:1.5;" width="683" x="10" y="1078.8125"/><line style="stroke:#181818;stroke-width:0.5;stroke-dasharray:5.0,5.0;" x1="44" x2="44" y1="36.2969" y2="1486.6719"/><line style="stroke:#181818;stroke-width:0.5;stroke-dasharray:5.0,5.0;" x1="178.5" x2="178.5" y1="36.2969" y2="1486.6719"/><line style="stroke:#181818;stroke-width:0.5;stroke-dasharray:5.0,5.0;" x1="282.5" x2="282.5" y1="36.2969" y2="1486.6719"/><line style="stroke:#181818;stroke-width:0.5;stroke-dasharray:5.0,5.0;" x1="367.5" x2="367.5" y1="36.2969" y2="1486.6719"/><line style="stroke:#181818;stroke-width:0.5;stroke-dasharray:5.0,5.0;" x1="453" x2="453" y1="36.2969" y2="1486.6719"/><line style="stroke:#181818;stroke-width:0.5;stroke-dasharray:5.0,5.0;" x1="572.5" x2="572.5" y1="36.2969" y2="1486.6719"/><rect fill="#E2E2F0" height="30.2969" rx="2.5" ry="2.5" style="stroke:#181818;stroke-width:0.5;" width="49" x="20" y="5"/><text fill="#000000" font-family="sans-serif" font-size="14" lengthAdjust="spacing" textLength="35" x="27" y="24.9951">main</text><rect fill="#E2E2F0" height="30.2969" rx="2.5" ry="2.5" style="stroke:#181818;stroke-width:0.5;" width="49" x="20" y="1485.6719"/><text fill="#000000" font-family="sans-serif" font-size="14" lengthAdjust="spacing" textLength="35" x="27" y="1505.667">main</text><rect fill="#E2E2F0" height="30.2969" rx="2.5" ry="2.5" style="stroke:#181818;stroke-width:0.5;" width="72" x="142.5" y="5"/><text fill="#000000" font-family="sans-serif" font-size="14" lengthAdjust="spacing" textLength="58" x="149.5" y="24.9951">develop</text><rect fill="#E2E2F0" height="30.2969" rx="2.5" ry="2.5" style="stroke:#181818;stroke-width:0.5;" width="72" x="142.5" y="1485.6719"/><text fill="#000000" font-family="sans-serif" font-size="14" lengthAdjust="spacing" textLength="58" x="149.5" y="1505.667">develop</text><rect fill="#E2E2F0" height="30.2969" rx="2.5" ry="2.5" style="stroke:#181818;stroke-width:0.5;" width="76" x="244.5" y="5"/><text fill="#000000" font-family="sans-serif" font-size="14" lengthAdjust="spacing" textLength="62" x="251.5" y="24.9951">feature1</text><rect fill="#E2E2F0" height="30.2969" rx="2.5" ry="2.5" style="stroke:#181818;stroke-width:0.5;" width="76" x="244.5" y="1485.6719"/><text fill="#000000" font-family="sans-serif" font-size="14" lengthAdjust="spacing" textLength="62" x="251.5" y="1505.667">feature1</text><rect fill="#E2E2F0" height="30.2969" rx="2.5" ry="2.5" style="stroke:#181818;stroke-width:0.5;" width="75" x="330.5" y="5"/><text fill="#000000" font-family="sans-serif" font-size="14" lengthAdjust="spacing" textLength="61" x="337.5" y="24.9951">feature2</text><rect fill="#E2E2F0" height="30.2969" rx="2.5" ry="2.5" style="stroke:#181818;stroke-width:0.5;" width="75" x="330.5" y="1485.6719"/><text fill="#000000" font-family="sans-serif" font-size="14" lengthAdjust="spacing" textLength="61" x="337.5" y="1505.667">feature2</text><rect fill="#E2E2F0" height="30.2969" rx="2.5" ry="2.5" style="stroke:#181818;stroke-width:0.5;" width="66" x="420" y="5"/><text fill="#000000" font-family="sans-serif" font-size="14" lengthAdjust="spacing" textLength="52" x="427" y="24.9951">release</text><rect fill="#E2E2F0" height="30.2969" rx="2.5" ry="2.5" style="stroke:#181818;stroke-width:0.5;" width="66" x="420" y="1485.6719"/><text fill="#000000" font-family="sans-serif" font-size="14" lengthAdjust="spacing" textLength="52" x="427" y="1505.667">release</text><rect fill="#E2E2F0" height="30.2969" rx="2.5" ry="2.5" style="stroke:#181818;stroke-width:0.5;" width="57" x="544.5" y="5"/><text fill="#000000" font-family="sans-serif" font-size="14" lengthAdjust="spacing" textLength="43" x="551.5" y="24.9951">hotfix</text><rect fill="#E2E2F0" height="30.2969" rx="2.5" ry="2.5" style="stroke:#181818;stroke-width:0.5;" width="57" x="544.5" y="1485.6719"/><text fill="#000000" font-family="sans-serif" font-size="14" lengthAdjust="spacing" textLength="43" x="551.5" y="1505.667">hotfix</text><rect fill="#FFFFFF" height="1415.375" style="stroke:#181818;stroke-width:1.0;" width="10" x="39.5" y="46.2969"/><rect fill="#FFFFFF" height="1379.1094" style="stroke:#181818;stroke-width:1.0;" width="10" x="173.5" y="82.5625"/><rect fill="#FFFFFF" height="543.125" style="stroke:#181818;stroke-width:1.0;" width="10" x="277.5" y="193.0938"/><rect fill="#FFFFFF" height="170.6641" style="stroke:#181818;stroke-width:1.0;" width="10" x="363" y="430.0234"/><rect fill="#FFFFFF" height="245.1953" style="stroke:#181818;stroke-width:1.0;" width="10" x="448" y="811.6172"/><rect fill="#FFFFFF" height="245.1953" style="stroke:#181818;stroke-width:1.0;" width="10" x="568" y="1132.2109"/><polygon fill="#181818" points="161.5,78.5625,171.5,82.5625,161.5,86.5625,165.5,82.5625" style="stroke:#181818;stroke-width:1.0;"/><line style="stroke:#181818;stroke-width:1.0;" x1="49.5" x2="167.5" y1="82.5625" y2="82.5625"/><text fill="#000000" font-family="sans-serif" font-size="13" lengthAdjust="spacing" textLength="75" x="56.5" y="62.3638">checkout -b</text><text fill="#000000" font-family="sans-serif" font-size="13" lengthAdjust="spacing" textLength="51" x="56.5" y="77.4966">develop</text><line style="stroke:#181818;stroke-width:1.0;" x1="183.5" x2="225.5" y1="111.6953" y2="111.6953"/><line style="stroke:#181818;stroke-width:1.0;" x1="225.5" x2="225.5" y1="111.6953" y2="124.6953"/><line style="stroke:#181818;stroke-width:1.0;" x1="184.5" x2="225.5" y1="124.6953" y2="124.6953"/><polygon fill="#181818" points="194.5,120.6953,184.5,124.6953,194.5,128.6953,190.5,124.6953" style="stroke:#181818;stroke-width:1.0;"/><text fill="#000000" font-family="sans-serif" font-size="13" lengthAdjust="spacing" textLength="61" x="190.5" y="106.6294">commit 1</text><path d="M122.5,139.6953 L234.5,139.6953 L234.5,146.8281 L224.5,156.8281 L122.5,156.8281 L122.5,139.6953 " fill="#EEEEEE" style="stroke:#000000;stroke-width:1.5;"/><rect fill="none" height="604.5234" style="stroke:#000000;stroke-width:1.5;" width="340.5" x="122.5" y="139.6953"/><text fill="#000000" font-family="sans-serif" font-size="13" font-weight="bold" lengthAdjust="spacing" textLength="67" x="137.5" y="152.7622">feature1</text><polygon fill="#181818" points="265.5,189.0938,275.5,193.0938,265.5,197.0938,269.5,193.0938" style="stroke:#181818;stroke-width:1.0;"/><line style="stroke:#181818;stroke-width:1.0;" x1="183.5" x2="271.5" y1="193.0938" y2="193.0938"/><text fill="#000000" font-family="sans-serif" font-size="13" lengthAdjust="spacing" textLength="75" x="190.5" y="172.895">checkout -b</text><text fill="#000000" font-family="sans-serif" font-size="13" lengthAdjust="spacing" textLength="55" x="190.5" y="188.0278">feature1</text><line style="stroke:#181818;stroke-width:1.0;" x1="287.5" x2="329.5" y1="222.2266" y2="222.2266"/><line style="stroke:#181818;stroke-width:1.0;" x1="329.5" x2="329.5" y1="222.2266" y2="235.2266"/><line style="stroke:#181818;stroke-width:1.0;" x1="288.5" x2="329.5" y1="235.2266" y2="235.2266"/><polygon fill="#181818" points="298.5,231.2266,288.5,235.2266,298.5,239.2266,294.5,235.2266" style="stroke:#181818;stroke-width:1.0;"/><text fill="#000000" font-family="sans-serif" font-size="13" lengthAdjust="spacing" textLength="61" x="294.5" y="217.1606">commit 1</text><line style="stroke:#181818;stroke-width:1.0;" x1="287.5" x2="329.5" y1="264.3594" y2="264.3594"/><line style="stroke:#181818;stroke-width:1.0;" x1="329.5" x2="329.5" y1="264.3594" y2="277.3594"/><line style="stroke:#181818;stroke-width:1.0;" x1="288.5" x2="329.5" y1="277.3594" y2="277.3594"/><polygon fill="#181818" points="298.5,273.3594,288.5,277.3594,298.5,281.3594,294.5,277.3594" style="stroke:#181818;stroke-width:1.0;"/><text fill="#000000" font-family="sans-serif" font-size="13" lengthAdjust="spacing" textLength="61" x="294.5" y="259.2935">commit 2</text><line style="stroke:#181818;stroke-width:1.0;" x1="183.5" x2="225.5" y1="306.4922" y2="306.4922"/><line style="stroke:#181818;stroke-width:1.0;" x1="225.5" x2="225.5" y1="306.4922" y2="319.4922"/><line style="stroke:#181818;stroke-width:1.0;" x1="184.5" x2="225.5" y1="319.4922" y2="319.4922"/><polygon fill="#181818" points="194.5,315.4922,184.5,319.4922,194.5,323.4922,190.5,319.4922" style="stroke:#181818;stroke-width:1.0;"/><text fill="#000000" font-family="sans-serif" font-size="13" lengthAdjust="spacing" textLength="61" x="190.5" y="301.4263">commit 2</text><line style="stroke:#181818;stroke-width:1.0;" x1="183.5" x2="225.5" y1="348.625" y2="348.625"/><line style="stroke:#181818;stroke-width:1.0;" x1="225.5" x2="225.5" y1="348.625" y2="361.625"/><line style="stroke:#181818;stroke-width:1.0;" x1="184.5" x2="225.5" y1="361.625" y2="361.625"/><polygon fill="#181818" points="194.5,357.625,184.5,361.625,194.5,365.625,190.5,361.625" style="stroke:#181818;stroke-width:1.0;"/><text fill="#000000" font-family="sans-serif" font-size="13" lengthAdjust="spacing" textLength="61" x="190.5" y="343.5591">commit 3</text><path d="M132.5,376.625 L244.5,376.625 L244.5,383.7578 L234.5,393.7578 L132.5,393.7578 L132.5,376.625 " fill="#EEEEEE" style="stroke:#000000;stroke-width:1.5;"/><rect fill="none" height="232.0625" style="stroke:#000000;stroke-width:1.5;" width="320.5" x="132.5" y="376.625"/><text fill="#000000" font-family="sans-serif" font-size="13" font-weight="bold" lengthAdjust="spacing" textLength="67" x="147.5" y="389.6919">feature2</text><polygon fill="#181818" points="351,426.0234,361,430.0234,351,434.0234,355,430.0234" style="stroke:#181818;stroke-width:1.0;"/><line style="stroke:#181818;stroke-width:1.0;" x1="183.5" x2="357" y1="430.0234" y2="430.0234"/><text fill="#000000" font-family="sans-serif" font-size="13" lengthAdjust="spacing" textLength="75" x="190.5" y="409.8247">checkout -b</text><text fill="#000000" font-family="sans-serif" font-size="13" lengthAdjust="spacing" textLength="55" x="190.5" y="424.9575">feature2</text><line style="stroke:#181818;stroke-width:1.0;" x1="373" x2="415" y1="459.1563" y2="459.1563"/><line style="stroke:#181818;stroke-width:1.0;" x1="415" x2="415" y1="459.1563" y2="472.1563"/><line style="stroke:#181818;stroke-width:1.0;" x1="374" x2="415" y1="472.1563" y2="472.1563"/><polygon fill="#181818" points="384,468.1563,374,472.1563,384,476.1563,380,472.1563" style="stroke:#181818;stroke-width:1.0;"/><text fill="#000000" font-family="sans-serif" font-size="13" lengthAdjust="spacing" textLength="61" x="380" y="454.0903">commit 1</text><line style="stroke:#181818;stroke-width:1.0;" x1="373" x2="415" y1="501.2891" y2="501.2891"/><line style="stroke:#181818;stroke-width:1.0;" x1="415" x2="415" y1="501.2891" y2="514.2891"/><line style="stroke:#181818;stroke-width:1.0;" x1="374" x2="415" y1="514.2891" y2="514.2891"/><polygon fill="#181818" points="384,510.2891,374,514.2891,384,518.2891,380,514.2891" style="stroke:#181818;stroke-width:1.0;"/><text fill="#000000" font-family="sans-serif" font-size="13" lengthAdjust="spacing" textLength="61" x="380" y="496.2231">commit 2</text><line style="stroke:#181818;stroke-width:1.0;" x1="287.5" x2="329.5" y1="543.4219" y2="543.4219"/><line style="stroke:#181818;stroke-width:1.0;" x1="329.5" x2="329.5" y1="543.4219" y2="556.4219"/><line style="stroke:#181818;stroke-width:1.0;" x1="288.5" x2="329.5" y1="556.4219" y2="556.4219"/><polygon fill="#181818" points="298.5,552.4219,288.5,556.4219,298.5,560.4219,294.5,556.4219" style="stroke:#181818;stroke-width:1.0;"/><text fill="#000000" font-family="sans-serif" font-size="13" lengthAdjust="spacing" textLength="61" x="294.5" y="538.356">commit 3</text><polygon fill="#181818" points="194.5,596.6875,184.5,600.6875,194.5,604.6875,190.5,600.6875" style="stroke:#181818;stroke-width:1.0;"/><line style="stroke:#181818;stroke-width:1.0;" x1="188.5" x2="367" y1="600.6875" y2="600.6875"/><text fill="#000000" font-family="sans-serif" font-size="13" lengthAdjust="spacing" textLength="42" x="200.5" y="580.4888">merge</text><text fill="#000000" font-family="sans-serif" font-size="13" lengthAdjust="spacing" textLength="55" x="200.5" y="595.6216">feature2</text><line style="stroke:#A80036;stroke-width:2.0;" x1="359" x2="377" y1="591.6875" y2="609.6875"/><line style="stroke:#A80036;stroke-width:2.0;" x1="359" x2="377" y1="609.6875" y2="591.6875"/><line style="stroke:#181818;stroke-width:1.0;" x1="183.5" x2="225.5" y1="636.8203" y2="636.8203"/><line style="stroke:#181818;stroke-width:1.0;" x1="225.5" x2="225.5" y1="636.8203" y2="649.8203"/><line style="stroke:#181818;stroke-width:1.0;" x1="184.5" x2="225.5" y1="649.8203" y2="649.8203"/><polygon fill="#181818" points="194.5,645.8203,184.5,649.8203,194.5,653.8203,190.5,649.8203" style="stroke:#181818;stroke-width:1.0;"/><text fill="#000000" font-family="sans-serif" font-size="13" lengthAdjust="spacing" textLength="61" x="190.5" y="631.7544">commit 4</text><line style="stroke:#181818;stroke-width:1.0;" x1="287.5" x2="329.5" y1="678.9531" y2="678.9531"/><line style="stroke:#181818;stroke-width:1.0;" x1="329.5" x2="329.5" y1="678.9531" y2="691.9531"/><line style="stroke:#181818;stroke-width:1.0;" x1="288.5" x2="329.5" y1="691.9531" y2="691.9531"/><polygon fill="#181818" points="298.5,687.9531,288.5,691.9531,298.5,695.9531,294.5,691.9531" style="stroke:#181818;stroke-width:1.0;"/><text fill="#000000" font-family="sans-serif" font-size="13" lengthAdjust="spacing" textLength="61" x="294.5" y="673.8872">commit 4</text><polygon fill="#181818" points="194.5,732.2188,184.5,736.2188,194.5,740.2188,190.5,736.2188" style="stroke:#181818;stroke-width:1.0;"/><line style="stroke:#181818;stroke-width:1.0;" x1="188.5" x2="281.5" y1="736.2188" y2="736.2188"/><text fill="#000000" font-family="sans-serif" font-size="13" lengthAdjust="spacing" textLength="42" x="200.5" y="716.02">merge</text><text fill="#000000" font-family="sans-serif" font-size="13" lengthAdjust="spacing" textLength="55" x="200.5" y="731.1528">feature1</text><line style="stroke:#A80036;stroke-width:2.0;" x1="273.5" x2="291.5" y1="727.2188" y2="745.2188"/><line style="stroke:#A80036;stroke-width:2.0;" x1="273.5" x2="291.5" y1="745.2188" y2="727.2188"/><path d="M10,758.2188 L155,758.2188 L155,765.3516 L145,775.3516 L10,775.3516 L10,758.2188 " fill="#EEEEEE" style="stroke:#000000;stroke-width:1.5;"/><rect fill="none" height="306.5938" style="stroke:#000000;stroke-width:1.5;" width="563" x="10" y="758.2188"/><text fill="#000000" font-family="sans-serif" font-size="13" font-weight="bold" lengthAdjust="spacing" textLength="100" x="25" y="771.2856">release-X.1.0</text><polygon fill="#181818" points="436,807.6172,446,811.6172,436,815.6172,440,811.6172" style="stroke:#181818;stroke-width:1.0;"/><line style="stroke:#181818;stroke-width:1.0;" x1="183.5" x2="442" y1="811.6172" y2="811.6172"/><text fill="#000000" font-family="sans-serif" font-size="13" lengthAdjust="spacing" textLength="75" x="190.5" y="791.4185">checkout -b</text><text fill="#000000" font-family="sans-serif" font-size="13" lengthAdjust="spacing" textLength="85" x="190.5" y="806.5513">release-X.1.0</text><line style="stroke:#181818;stroke-width:1.0;" x1="458" x2="500" y1="855.8828" y2="855.8828"/><line style="stroke:#181818;stroke-width:1.0;" x1="500" x2="500" y1="855.8828" y2="868.8828"/><line style="stroke:#181818;stroke-width:1.0;" x1="459" x2="500" y1="868.8828" y2="868.8828"/><polygon fill="#181818" points="469,864.8828,459,868.8828,469,872.8828,465,868.8828" style="stroke:#181818;stroke-width:1.0;"/><text fill="#000000" font-family="sans-serif" font-size="13" lengthAdjust="spacing" textLength="96" x="465" y="835.6841">update version</text><text fill="#000000" font-family="sans-serif" font-size="13" lengthAdjust="spacing" textLength="49" x="465" y="850.8169">commit</text><line style="stroke:#181818;stroke-width:1.0;" x1="458" x2="500" y1="913.1484" y2="913.1484"/><line style="stroke:#181818;stroke-width:1.0;" x1="500" x2="500" y1="913.1484" y2="926.1484"/><line style="stroke:#181818;stroke-width:1.0;" x1="459" x2="500" y1="926.1484" y2="926.1484"/><polygon fill="#181818" points="469,922.1484,459,926.1484,469,930.1484,465,926.1484" style="stroke:#181818;stroke-width:1.0;"/><text fill="#000000" font-family="sans-serif" font-size="13" lengthAdjust="spacing" textLength="16" x="465" y="892.9497">fix</text><text fill="#000000" font-family="sans-serif" font-size="13" lengthAdjust="spacing" textLength="49" x="465" y="908.0825">commit</text><polygon fill="#181818" points="60.5,966.4141,50.5,970.4141,60.5,974.4141,56.5,970.4141" style="stroke:#181818;stroke-width:1.0;"/><line style="stroke:#181818;stroke-width:1.0;" x1="54.5" x2="447" y1="970.4141" y2="970.4141"/><text fill="#000000" font-family="sans-serif" font-size="13" lengthAdjust="spacing" textLength="42" x="66.5" y="950.2153">merge</text><text fill="#000000" font-family="sans-serif" font-size="13" lengthAdjust="spacing" textLength="85" x="66.5" y="965.3481">release-X.1.0</text><line style="stroke:#181818;stroke-width:1.0;" x1="49.5" x2="91.5" y1="999.5469" y2="999.5469"/><line style="stroke:#181818;stroke-width:1.0;" x1="91.5" x2="91.5" y1="999.5469" y2="1012.5469"/><line style="stroke:#181818;stroke-width:1.0;" x1="50.5" x2="91.5" y1="1012.5469" y2="1012.5469"/><polygon fill="#181818" points="60.5,1008.5469,50.5,1012.5469,60.5,1016.5469,56.5,1012.5469" style="stroke:#181818;stroke-width:1.0;"/><text fill="#000000" font-family="sans-serif" font-size="13" lengthAdjust="spacing" textLength="110" x="56.5" y="994.481">tag release-X.1.0</text><polygon fill="#181818" points="194.5,1052.8125,184.5,1056.8125,194.5,1060.8125,190.5,1056.8125" style="stroke:#181818;stroke-width:1.0;"/><line style="stroke:#181818;stroke-width:1.0;" x1="188.5" x2="452" y1="1056.8125" y2="1056.8125"/><text fill="#000000" font-family="sans-serif" font-size="13" lengthAdjust="spacing" textLength="42" x="200.5" y="1036.6138">merge</text><text fill="#000000" font-family="sans-serif" font-size="13" lengthAdjust="spacing" textLength="85" x="200.5" y="1051.7466">release-X.1.0</text><line style="stroke:#A80036;stroke-width:2.0;" x1="444" x2="462" y1="1047.8125" y2="1065.8125"/><line style="stroke:#A80036;stroke-width:2.0;" x1="444" x2="462" y1="1065.8125" y2="1047.8125"/><path d="M10,1078.8125 L145,1078.8125 L145,1085.9453 L135,1095.9453 L10,1095.9453 L10,1078.8125 " fill="#EEEEEE" style="stroke:#000000;stroke-width:1.5;"/><rect fill="none" height="306.5938" style="stroke:#000000;stroke-width:1.5;" width="683" x="10" y="1078.8125"/><text fill="#000000" font-family="sans-serif" font-size="13" font-weight="bold" lengthAdjust="spacing" textLength="90" x="25" y="1091.8794">hotfix-X.1.1</text><polygon fill="#181818" points="556,1128.2109,566,1132.2109,556,1136.2109,560,1132.2109" style="stroke:#181818;stroke-width:1.0;"/><line style="stroke:#181818;stroke-width:1.0;" x1="49.5" x2="562" y1="1132.2109" y2="1132.2109"/><text fill="#000000" font-family="sans-serif" font-size="13" lengthAdjust="spacing" textLength="75" x="56.5" y="1112.0122">checkout -b</text><text fill="#000000" font-family="sans-serif" font-size="13" lengthAdjust="spacing" textLength="75" x="56.5" y="1127.145">hotfix-X.1.1</text><line style="stroke:#181818;stroke-width:1.0;" x1="578" x2="620" y1="1176.4766" y2="1176.4766"/><line style="stroke:#181818;stroke-width:1.0;" x1="620" x2="620" y1="1176.4766" y2="1189.4766"/><line style="stroke:#181818;stroke-width:1.0;" x1="579" x2="620" y1="1189.4766" y2="1189.4766"/><polygon fill="#181818" points="589,1185.4766,579,1189.4766,589,1193.4766,585,1189.4766" style="stroke:#181818;stroke-width:1.0;"/><text fill="#000000" font-family="sans-serif" font-size="13" lengthAdjust="spacing" textLength="96" x="585" y="1156.2778">update version</text><text fill="#000000" font-family="sans-serif" font-size="13" lengthAdjust="spacing" textLength="49" x="585" y="1171.4106">commit</text><line style="stroke:#181818;stroke-width:1.0;" x1="578" x2="620" y1="1233.7422" y2="1233.7422"/><line style="stroke:#181818;stroke-width:1.0;" x1="620" x2="620" y1="1233.7422" y2="1246.7422"/><line style="stroke:#181818;stroke-width:1.0;" x1="579" x2="620" y1="1246.7422" y2="1246.7422"/><polygon fill="#181818" points="589,1242.7422,579,1246.7422,589,1250.7422,585,1246.7422" style="stroke:#181818;stroke-width:1.0;"/><text fill="#000000" font-family="sans-serif" font-size="13" lengthAdjust="spacing" textLength="16" x="585" y="1213.5435">fix</text><text fill="#000000" font-family="sans-serif" font-size="13" lengthAdjust="spacing" textLength="49" x="585" y="1228.6763">commit</text><polygon fill="#181818" points="60.5,1287.0078,50.5,1291.0078,60.5,1295.0078,56.5,1291.0078" style="stroke:#181818;stroke-width:1.0;"/><line style="stroke:#181818;stroke-width:1.0;" x1="54.5" x2="567" y1="1291.0078" y2="1291.0078"/><text fill="#000000" font-family="sans-serif" font-size="13" lengthAdjust="spacing" textLength="42" x="66.5" y="1270.8091">merge</text><text fill="#000000" font-family="sans-serif" font-size="13" lengthAdjust="spacing" textLength="75" x="66.5" y="1285.9419">hotfix-X.1.1</text><line style="stroke:#181818;stroke-width:1.0;" x1="49.5" x2="91.5" y1="1320.1406" y2="1320.1406"/><line style="stroke:#181818;stroke-width:1.0;" x1="91.5" x2="91.5" y1="1320.1406" y2="1333.1406"/><line style="stroke:#181818;stroke-width:1.0;" x1="50.5" x2="91.5" y1="1333.1406" y2="1333.1406"/><polygon fill="#181818" points="60.5,1329.1406,50.5,1333.1406,60.5,1337.1406,56.5,1333.1406" style="stroke:#181818;stroke-width:1.0;"/><text fill="#000000" font-family="sans-serif" font-size="13" lengthAdjust="spacing" textLength="110" x="56.5" y="1315.0747">tag release-X.1.1</text><polygon fill="#181818" points="194.5,1373.4063,184.5,1377.4063,194.5,1381.4063,190.5,1377.4063" style="stroke:#181818;stroke-width:1.0;"/><line style="stroke:#181818;stroke-width:1.0;" x1="188.5" x2="572" y1="1377.4063" y2="1377.4063"/><text fill="#000000" font-family="sans-serif" font-size="13" lengthAdjust="spacing" textLength="42" x="200.5" y="1357.2075">merge</text><text fill="#000000" font-family="sans-serif" font-size="13" lengthAdjust="spacing" textLength="75" x="200.5" y="1372.3403">hotfix-X.1.1</text><line style="stroke:#A80036;stroke-width:2.0;" x1="564" x2="582" y1="1368.4063" y2="1386.4063"/><line style="stroke:#A80036;stroke-width:2.0;" x1="564" x2="582" y1="1386.4063" y2="1368.4063"/><line style="stroke:#181818;stroke-width:1.0;" x1="183.5" x2="225.5" y1="1413.5391" y2="1413.5391"/><line style="stroke:#181818;stroke-width:1.0;" x1="225.5" x2="225.5" y1="1413.5391" y2="1426.5391"/><line style="stroke:#181818;stroke-width:1.0;" x1="184.5" x2="225.5" y1="1426.5391" y2="1426.5391"/><polygon fill="#181818" points="194.5,1422.5391,184.5,1426.5391,194.5,1430.5391,190.5,1426.5391" style="stroke:#181818;stroke-width:1.0;"/><text fill="#000000" font-family="sans-serif" font-size="13" lengthAdjust="spacing" textLength="61" x="190.5" y="1408.4731">commit 5</text><line style="stroke:#181818;stroke-width:1.0;" x1="183.5" x2="225.5" y1="1460.6719" y2="1460.6719"/><line style="stroke:#181818;stroke-width:1.0;" x1="225.5" x2="225.5" y1="1460.6719" y2="1473.6719"/><line style="stroke:#181818;stroke-width:1.0;" x1="178.5" x2="225.5" y1="1473.6719" y2="1473.6719"/><polygon fill="#181818" points="188.5,1469.6719,178.5,1473.6719,188.5,1477.6719,184.5,1473.6719" style="stroke:#181818;stroke-width:1.0;"/><text fill="#000000" font-family="sans-serif" font-size="13" lengthAdjust="spacing" textLength="61" x="190.5" y="1455.606">commit 6</text><!--SRC=[XLJDSeCW4Bxp5Bw0cKBI7dheS_IG2zMDOHg1GNJQjsyiBi9Ap4MTRtVvVeRLIkTLewpKlkgbqimcG0iJt8pDi0j8FphW9L1ae8CRo04ox6hyHVqm9Xkl9kaXSBBvMTKVIFXUDLTeliteg_hhh55674A0BH_vgEbxvIlEMEVCQ5V1IJDYX2YsHgQ8u0UPHgxTijWLAlQAH-9255o8iWknSI5GfY3Jn4MvV7Unw_AOZKSZFRWE4b4j3DwPtrKJw7OtdzCJtbDMVi3BAIyFl27SvQRMdmT-U4crB0KISDuUKyRxlhop-T6sSyi4Rb16dtNGNcozxqUfFgz8T9KhmEq9BLvsn51o2es7EWyPePCqex2v_uqyCWQGn9DrndIMpG-lTFP1DDl6D9YrckLI55cEXITdq5IoOp0K_7Kzkw-lUyMtUNJp7qkWMUmV]--></g></svg>