<?xml version="1.0" encoding="us-ascii" standalone="no"?><svg xmlns="http://www.w3.org/2000/svg" xmlns:xlink="http://www.w3.org/1999/xlink" contentStyleType="text/css" height="777px" preserveAspectRatio="none" style="width:616px;height:777px;background:#FFFFFF;" version="1.1" viewBox="0 0 616 777" width="616px" zoomAndPan="magnify"><defs/><g><!--cluster swarm--><g id="cluster_swarm"><path d="M222.8375,78.3135 C231.949,56.921 253.0831,56.9066 266.2781,73.6636 C280.5475,54.2947 293.1932,55.8757 307.3361,73.803 C317.2561,51.796 337.5605,53.0052 350.5117,70.489 C366.571,51.1131 381.508,48.4408 397.8183,70.2003 C408.7782,50.7185 427.9946,48.3059 439.3164,69.8341 C456.4746,54.8848 471.8301,53.733 481.7811,77.6987 C497.1706,52.1707 512.0547,49.4424 531.0388,74.176 C546.2403,58.3818 565.872,55.8831 574.5,81.136 C575.578,81.1812 576.0169,81.6563 575.526,82.7186 C597.9755,98.3264 603.5132,114.2183 579.316,133.32 C604.9076,144.0423 601.9182,165.7146 583.5943,180.4255 C607.367,197.5416 602.2439,212.2003 580.8306,226.6125 C603.1028,239.8989 598.4131,257.6201 580.0774,270.2048 C600.4042,285.2348 597.7272,301.8 578.799,315.7276 C602.5599,327.0869 605.1946,345.3895 586.3678,363.4965 C609.4917,376.9417 609.725,395.4835 586.4075,408.9693 C608.56,421.194 609.226,436.4442 587.5478,449.8903 C605.9343,463.0735 606.8716,484.1157 584.5958,494.6152 C607.7073,513.5497 605.0708,531.7104 578.0589,544.0118 C606.0038,558.6831 601.6413,574.6358 581.7133,592.8866 C603.9964,603.2762 601.7006,624.1245 584.3975,636.9267 C603.0537,649.1545 602.9473,669.6105 580.7359,678.2139 C601.3239,701.4324 594.3858,719.7909 567.5,731.136 C572.6565,730.0432 574.9216,733.5598 572.908,738.064 C559.1123,765.0767 538.2995,758.0948 524.0448,738.5457 C508.084,759.5215 495.3064,757.1343 482.0312,735.8743 C472.1628,759.1144 458.4754,762.5582 439.7434,745.0795 C426.7386,770.1958 407.1516,768.1184 392.8516,746.3756 C380.0703,763.4355 362.9001,765.423 353.6312,742.8958 C340.9345,759.6625 322.459,761.7235 313.135,739.4017 C296.0335,766.5979 278.8061,765.9032 262.7413,738.4457 C238.1755,760.4111 220.9861,753.5722 210.5,724.136 C216.5303,723.6814 219.583,726.1702 218.1342,732.5232 C193.3263,721.6377 193.5815,702.4923 210.9198,685.1839 C186.6202,668.6095 190.7061,652.7245 212.2078,637.3843 C191.4708,623.1205 189.8172,607.3141 213.7585,594.6723 C191.2828,580.4628 185.3496,562.6653 208.9904,544.1071 C190.4213,529.3891 189.2681,512.0556 212.9166,501.2008 C190.3329,486.5952 185.63,469.9113 209.5267,452.0969 C185.0979,439.7772 183.5353,421.302 206.5381,405.9131 C186.8973,392.9186 185.18,369.9838 208.569,358.846 C188.6825,346.6328 188.1247,323.4678 208.9119,311.5495 C189.2321,298.4948 188.5977,276.2984 211.3428,265.4823 C189.7443,254.3646 189.6545,235.5701 210.8926,223.9877 C187.3172,208.4289 191.5335,186.8809 216.8533,177.6058 C190.5237,161.5792 189.7086,143.8587 216.779,127.7525 C191.7651,113.5379 193.5739,87.6925 217.5,74.136 C221.1919,73.0377 222.9674,74.5288 222.8375,78.3135 " fill="#EEEEEE" style="stroke:#181818;stroke-width:1.0;"/><text fill="#000000" font-family="sans-serif" font-size="14" font-weight="bold" lengthAdjust="spacing" textLength="114" x="335.5" y="92.1311">Docker swarm</text></g><!--cluster log_server_container--><g id="cluster_log_server_container"><polygon fill="#DDDDDD" points="263.5,127.136,273.5,117.136,550.5,117.136,550.5,225.136,540.5,235.136,263.5,235.136,263.5,127.136" style="stroke:#181818;stroke-width:1.0;"/><line style="stroke:#181818;stroke-width:1.0;" x1="540.5" x2="550.5" y1="127.136" y2="117.136"/><line style="stroke:#181818;stroke-width:1.0;" x1="263.5" x2="540.5" y1="127.136" y2="127.136"/><line style="stroke:#181818;stroke-width:1.0;" x1="540.5" x2="540.5" y1="127.136" y2="235.136"/><text fill="#000000" font-family="sans-serif" font-size="14" font-weight="bold" lengthAdjust="spacing" textLength="182" x="312" y="143.1311">log-server &#171;container&#187;</text></g><!--cluster postgres_container--><g id="cluster_postgres_container"><polygon fill="#DDDDDD" points="260.5,285.136,270.5,275.136,509.5,275.136,509.5,382.136,499.5,392.136,260.5,392.136,260.5,285.136" style="stroke:#181818;stroke-width:1.0;"/><line style="stroke:#181818;stroke-width:1.0;" x1="499.5" x2="509.5" y1="285.136" y2="275.136"/><line style="stroke:#181818;stroke-width:1.0;" x1="260.5" x2="499.5" y1="285.136" y2="285.136"/><line style="stroke:#181818;stroke-width:1.0;" x1="499.5" x2="499.5" y1="285.136" y2="392.136"/><text fill="#000000" font-family="sans-serif" font-size="14" font-weight="bold" lengthAdjust="spacing" textLength="173" x="294.5" y="301.1311">postgres &#171;container&#187;</text></g><!--cluster influxdb_container--><g id="cluster_influxdb_container"><polygon fill="#DDDDDD" points="261.5,442.136,271.5,432.136,504.5,432.136,504.5,539.136,494.5,549.136,261.5,549.136,261.5,442.136" style="stroke:#181818;stroke-width:1.0;"/><line style="stroke:#181818;stroke-width:1.0;" x1="494.5" x2="504.5" y1="442.136" y2="432.136"/><line style="stroke:#181818;stroke-width:1.0;" x1="261.5" x2="494.5" y1="442.136" y2="442.136"/><line style="stroke:#181818;stroke-width:1.0;" x1="494.5" x2="494.5" y1="442.136" y2="549.136"/><text fill="#000000" font-family="sans-serif" font-size="14" font-weight="bold" lengthAdjust="spacing" textLength="167" x="295.5" y="458.1311">influxdb &#171;container&#187;</text></g><!--cluster grafana_container--><g id="cluster_grafana_container"><polygon fill="#DDDDDD" points="263.5,599.136,273.5,589.136,504.5,589.136,504.5,697.136,494.5,707.136,263.5,707.136,263.5,599.136" style="stroke:#181818;stroke-width:1.0;"/><line style="stroke:#181818;stroke-width:1.0;" x1="494.5" x2="504.5" y1="599.136" y2="589.136"/><line style="stroke:#181818;stroke-width:1.0;" x1="263.5" x2="494.5" y1="599.136" y2="599.136"/><line style="stroke:#181818;stroke-width:1.0;" x1="494.5" x2="494.5" y1="599.136" y2="707.136"/><text fill="#000000" font-family="sans-serif" font-size="14" font-weight="bold" lengthAdjust="spacing" textLength="165" x="297.5" y="615.1311">grafana &#171;container&#187;</text></g><!--entity app--><g id="elem_app"><rect fill="#F1F1F1" height="62.5938" rx="2.5" ry="2.5" style="stroke:#181818;stroke-width:0.5;" width="123" x="7" y="156.636"/><rect fill="#F1F1F1" height="10" style="stroke:#181818;stroke-width:0.5;" width="15" x="110" y="161.636"/><rect fill="#F1F1F1" height="2" style="stroke:#181818;stroke-width:0.5;" width="4" x="108" y="163.636"/><rect fill="#F1F1F1" height="2" style="stroke:#181818;stroke-width:0.5;" width="4" x="108" y="167.636"/><text fill="#000000" font-family="sans-serif" font-size="14" lengthAdjust="spacing" textLength="57" x="22" y="189.6311">Logging</text><text fill="#000000" font-family="sans-serif" font-size="14" lengthAdjust="spacing" textLength="83" x="22" y="205.928">Application</text></g><!--entity log_server_container_tcp--><g id="elem_log_server_container_tcp"><ellipse cx="227.5" cy="188.136" fill="#F1F1F1" rx="8" ry="8" style="stroke:#181818;stroke-width:0.5;"/><text fill="#000000" font-family="sans-serif" font-size="14" lengthAdjust="spacing" textLength="28" x="213.5" y="218.1311">TCP</text></g><!--entity postgres_container_tcp--><g id="elem_postgres_container_tcp"><ellipse cx="227.5" cy="345.636" fill="#F1F1F1" rx="8" ry="8" style="stroke:#181818;stroke-width:0.5;"/><text fill="#000000" font-family="sans-serif" font-size="14" lengthAdjust="spacing" textLength="28" x="213.5" y="375.6311">TCP</text></g><!--entity influxdb_container_tcp--><g id="elem_influxdb_container_tcp"><ellipse cx="227.5" cy="502.636" fill="#F1F1F1" rx="8" ry="8" style="stroke:#181818;stroke-width:0.5;"/><text fill="#000000" font-family="sans-serif" font-size="14" lengthAdjust="spacing" textLength="28" x="213.5" y="532.6311">TCP</text></g><!--entity grafana_container_tcp--><g id="elem_grafana_container_tcp"><ellipse cx="227.5" cy="660.136" fill="#F1F1F1" rx="8" ry="8" style="stroke:#181818;stroke-width:0.5;"/><text fill="#000000" font-family="sans-serif" font-size="14" lengthAdjust="spacing" textLength="28" x="213.5" y="690.1311">TCP</text></g><!--entity log_server_output--><g id="elem_log_server_output"><ellipse cx="315.5" cy="188.136" fill="#F1F1F1" rx="8" ry="8" style="stroke:#181818;stroke-width:0.5;"/><text fill="#000000" font-family="sans-serif" font-size="14" lengthAdjust="spacing" textLength="28" x="301.5" y="218.1311">TCP</text></g><!--entity log_server_input--><g id="elem_log_server_input"><ellipse cx="517.5" cy="188.136" fill="#F1F1F1" rx="8" ry="8" style="stroke:#181818;stroke-width:0.5;"/><text fill="#000000" font-family="sans-serif" font-size="14" lengthAdjust="spacing" textLength="28" x="495" y="218.1311">TCP</text><text fill="#000000" font-family="sans-serif" font-size="14" lengthAdjust="spacing" textLength="45" x="495" y="234.428">server</text></g><!--entity log_server_app--><g id="elem_log_server_app"><rect fill="#F1F1F1" height="46.2969" rx="2.5" ry="2.5" style="stroke:#181818;stroke-width:0.5;" width="113" x="360" y="165.136"/><rect fill="#F1F1F1" height="10" style="stroke:#181818;stroke-width:0.5;" width="15" x="453" y="170.136"/><rect fill="#F1F1F1" height="2" style="stroke:#181818;stroke-width:0.5;" width="4" x="451" y="172.136"/><rect fill="#F1F1F1" height="2" style="stroke:#181818;stroke-width:0.5;" width="4" x="451" y="176.136"/><text fill="#000000" font-family="sans-serif" font-size="14" lengthAdjust="spacing" textLength="73" x="375" y="198.1311">log-server</text></g><!--entity postgres_tcp--><g id="elem_postgres_tcp"><ellipse cx="315.5" cy="345.636" fill="#F1F1F1" rx="8" ry="8" style="stroke:#181818;stroke-width:0.5;"/><text fill="#000000" font-family="sans-serif" font-size="14" lengthAdjust="spacing" textLength="28" x="301.5" y="375.6311">TCP</text></g><!--entity postgres_db--><g id="elem_postgres_db"><path d="M359.5,333.136 C359.5,323.136 411.5,323.136 411.5,323.136 C411.5,323.136 463.5,323.136 463.5,333.136 L463.5,358.4329 C463.5,368.4329 411.5,368.4329 411.5,368.4329 C411.5,368.4329 359.5,368.4329 359.5,358.4329 L359.5,333.136 " fill="#F1F1F1" style="stroke:#181818;stroke-width:0.5;"/><path d="M359.5,333.136 C359.5,343.136 411.5,343.136 411.5,343.136 C411.5,343.136 463.5,343.136 463.5,333.136 " fill="none" style="stroke:#181818;stroke-width:0.5;"/><text fill="#000000" font-family="sans-serif" font-size="14" lengthAdjust="spacing" textLength="84" x="369.5" y="360.1311">PostgreSQL</text></g><!--entity influxdb_tcp--><g id="elem_influxdb_tcp"><ellipse cx="347.5" cy="502.636" fill="#F1F1F1" rx="8" ry="8" style="stroke:#181818;stroke-width:0.5;"/><text fill="#000000" font-family="sans-serif" font-size="14" lengthAdjust="spacing" textLength="28" x="333.5" y="532.6311">TCP</text></g><!--entity influxdb_db--><g id="elem_influxdb_db"><path d="M391.5,490.136 C391.5,480.136 431.5,480.136 431.5,480.136 C431.5,480.136 471.5,480.136 471.5,490.136 L471.5,515.4329 C471.5,525.4329 431.5,525.4329 431.5,525.4329 C431.5,525.4329 391.5,525.4329 391.5,515.4329 L391.5,490.136 " fill="#F1F1F1" style="stroke:#181818;stroke-width:0.5;"/><path d="M391.5,490.136 C391.5,500.136 431.5,500.136 431.5,500.136 C431.5,500.136 471.5,500.136 471.5,490.136 " fill="none" style="stroke:#181818;stroke-width:0.5;"/><text fill="#000000" font-family="sans-serif" font-size="14" lengthAdjust="spacing" textLength="60" x="401.5" y="517.1311">InfluxDB</text></g><!--entity grafana_tcp--><g id="elem_grafana_tcp"><ellipse cx="340.5" cy="660.136" fill="#F1F1F1" rx="8" ry="8" style="stroke:#181818;stroke-width:0.5;"/><text fill="#000000" font-family="sans-serif" font-size="14" lengthAdjust="spacing" textLength="28" x="326.5" y="690.1311">TCP</text></g><!--entity grafana_db--><g id="elem_grafana_db"><polygon fill="#F1F1F1" points="384.5,647.136,394.5,637.136,480.5,637.136,480.5,673.4329,470.5,683.4329,384.5,683.4329,384.5,647.136" style="stroke:#181818;stroke-width:0.5;"/><line style="stroke:#181818;stroke-width:0.5;" x1="470.5" x2="480.5" y1="647.136" y2="637.136"/><line style="stroke:#181818;stroke-width:0.5;" x1="384.5" x2="470.5" y1="647.136" y2="647.136"/><line style="stroke:#181818;stroke-width:0.5;" x1="470.5" x2="470.5" y1="647.136" y2="683.4329"/><text fill="#000000" font-family="sans-serif" font-size="14" lengthAdjust="spacing" textLength="56" x="399.5" y="670.1311">Grafana</text></g><!--entity app_log_output--><g id="elem_app_log_output"><ellipse cx="174.5" cy="188.136" fill="#F1F1F1" rx="8" ry="8" style="stroke:#181818;stroke-width:0.5;"/><text fill="#000000" font-family="sans-serif" font-size="14" lengthAdjust="spacing" textLength="28" x="160.5" y="218.1311">TCP</text></g><!--entity client1--><g id="elem_client1"><rect fill="#F1F1F1" height="46.2969" rx="2.5" ry="2.5" style="stroke:#181818;stroke-width:0.5;" width="96" x="34.5" y="322.636"/><rect fill="#F1F1F1" height="10" style="stroke:#181818;stroke-width:0.5;" width="15" x="110.5" y="327.636"/><rect fill="#F1F1F1" height="2" style="stroke:#181818;stroke-width:0.5;" width="4" x="108.5" y="329.636"/><rect fill="#F1F1F1" height="2" style="stroke:#181818;stroke-width:0.5;" width="4" x="108.5" y="333.636"/><text fill="#000000" font-family="sans-serif" font-size="14" lengthAdjust="spacing" textLength="56" x="49.5" y="355.6311">Client 1</text></g><!--entity client1_tcp--><g id="elem_client1_tcp"><ellipse cx="174.5" cy="345.636" fill="#F1F1F1" rx="8" ry="8" style="stroke:#181818;stroke-width:0.5;"/><text fill="#000000" font-family="sans-serif" font-size="14" lengthAdjust="spacing" textLength="28" x="160.5" y="375.6311">TCP</text></g><!--entity client2--><g id="elem_client2"><rect fill="#F1F1F1" height="46.2969" rx="2.5" ry="2.5" style="stroke:#181818;stroke-width:0.5;" width="95" x="35" y="479.636"/><rect fill="#F1F1F1" height="10" style="stroke:#181818;stroke-width:0.5;" width="15" x="110" y="484.636"/><rect fill="#F1F1F1" height="2" style="stroke:#181818;stroke-width:0.5;" width="4" x="108" y="486.636"/><rect fill="#F1F1F1" height="2" style="stroke:#181818;stroke-width:0.5;" width="4" x="108" y="490.636"/><text fill="#000000" font-family="sans-serif" font-size="14" lengthAdjust="spacing" textLength="55" x="50" y="512.6311">Client 2</text></g><!--entity client2_tcp--><g id="elem_client2_tcp"><ellipse cx="174.5" cy="502.636" fill="#F1F1F1" rx="8" ry="8" style="stroke:#181818;stroke-width:0.5;"/><text fill="#000000" font-family="sans-serif" font-size="14" lengthAdjust="spacing" textLength="28" x="160.5" y="532.6311">TCP</text></g><!--entity client3--><g id="elem_client3"><rect fill="#F1F1F1" height="46.2969" rx="2.5" ry="2.5" style="stroke:#181818;stroke-width:0.5;" width="96" x="34.5" y="637.136"/><rect fill="#F1F1F1" height="10" style="stroke:#181818;stroke-width:0.5;" width="15" x="110.5" y="642.136"/><rect fill="#F1F1F1" height="2" style="stroke:#181818;stroke-width:0.5;" width="4" x="108.5" y="644.136"/><rect fill="#F1F1F1" height="2" style="stroke:#181818;stroke-width:0.5;" width="4" x="108.5" y="648.136"/><text fill="#000000" font-family="sans-serif" font-size="14" lengthAdjust="spacing" textLength="56" x="49.5" y="670.1311">Client 3</text></g><!--entity client3_tcp--><g id="elem_client3_tcp"><ellipse cx="174.5" cy="660.136" fill="#F1F1F1" rx="8" ry="8" style="stroke:#181818;stroke-width:0.5;"/><text fill="#000000" font-family="sans-serif" font-size="14" lengthAdjust="spacing" textLength="28" x="160.5" y="690.1311">TCP</text></g><!--link app to app_log_output--><g id="link_app_app_log_output"><path d="M130.195,188.136 C141.848,188.136 153.501,188.136 165.154,188.136 " fill="none" id="app-app_log_output" style="stroke:#181818;stroke-width:1.0;"/></g><!--link client1 to client1_tcp--><g id="link_client1_client1_tcp"><path d="M130.656,345.636 C142.188,345.636 153.72,345.636 165.252,345.636 " fill="none" id="client1-client1_tcp" style="stroke:#181818;stroke-width:1.0;"/></g><!--link client2 to client2_tcp--><g id="link_client2_client2_tcp"><path d="M130.297,502.636 C141.923,502.636 153.55,502.636 165.176,502.636 " fill="none" id="client2-client2_tcp" style="stroke:#181818;stroke-width:1.0;"/></g><!--link client3 to client3_tcp--><g id="link_client3_client3_tcp"><path d="M130.656,660.136 C142.188,660.136 153.72,660.136 165.252,660.136 " fill="none" id="client3-client3_tcp" style="stroke:#181818;stroke-width:1.0;"/></g><!--link log_server_app to log_server_input--><g id="link_log_server_app_log_server_input"><path d="M473.312,188.136 C484.935,188.136 496.557,188.136 508.179,188.136 " fill="none" id="log_server_app-log_server_input" style="stroke:#181818;stroke-width:1.0;"/></g><!--link log_server_output to log_server_app--><g id="link_log_server_output_log_server_app"><path d="M324.574,188.136 C336.304,188.136 348.034,188.136 359.765,188.136 " fill="none" id="log_server_output-log_server_app" style="stroke:#181818;stroke-width:1.0;"/></g><!--link log_server_container to log_server_container_tcp--><g id="link_log_server_container_log_server_container_tcp"><path d="M263.4815,188.136 C263.1255,188.136 262.7694,188.136 262.4134,188.136 C259.5653,188.136 256.7172,188.136 253.8691,188.136 C248.173,188.136 242.477,188.136 236.781,188.136 " fill="none" id="log_server_container-log_server_container_tcp" style="stroke:#181818;stroke-width:1.0;"/></g><!--link log_server_container_tcp to log_server_input--><g id="link_log_server_container_tcp_log_server_input"><path d="M226.445,179.115 C223.621,150.043 219.409,58.917 273,28.136 C311.54,6 434.46,6 473,28.136 C526.503,58.867 522.2741,144.0583 519.2421,173.1433 " fill="none" id="log_server_container_tcp-to-log_server_input" style="stroke:#FF0000;stroke-width:8.0;"/><polygon fill="#FF0000" points="518.62,179.111,523.5316,170.5742,519.1384,174.1379,515.5747,169.7448,518.62,179.111" style="stroke:#FF0000;stroke-width:8.0;"/></g><!--link postgres_tcp to postgres_db--><g id="link_postgres_tcp_postgres_db"><path d="M324.875,345.636 C336.38,345.636 347.885,345.636 359.39,345.636 " fill="none" id="postgres_tcp-postgres_db" style="stroke:#181818;stroke-width:1.0;"/></g><!--link postgres_container to postgres_container_tcp--><g id="link_postgres_container_postgres_container_tcp"><path d="M260.4108,345.636 C260.3663,345.636 260.3218,345.636 260.2773,345.636 C259.5653,345.636 258.8533,345.636 258.1412,345.636 C256.7172,345.636 255.2932,345.636 253.8691,345.636 C248.173,345.636 242.477,345.636 236.781,345.636 " fill="none" id="postgres_container-postgres_container_tcp" style="stroke:#181818;stroke-width:1.0;"/></g><!--link log_server_output to postgres_tcp--><g id="link_log_server_output_postgres_tcp"><path d="M315.5,197.496 C315.5,224.622 315.5,303.968 315.5,330.61 " fill="none" id="log_server_output-to-postgres_tcp" style="stroke:#FF0000;stroke-width:8.0;"/><polygon fill="#FF0000" points="315.5,336.61,319.5,327.61,315.5,331.61,311.5,327.61,315.5,336.61" style="stroke:#FF0000;stroke-width:8.0;"/></g><!--link influxdb_tcp to influxdb_db--><g id="link_influxdb_tcp_influxdb_db"><path d="M356.688,502.636 C368.28,502.636 379.872,502.636 391.464,502.636 " fill="none" id="influxdb_tcp-influxdb_db" style="stroke:#181818;stroke-width:1.0;"/></g><!--link influxdb_container_tcp to influxdb_container--><g id="link_influxdb_container_tcp_influxdb_container"><path d="M236.781,502.636 C242.477,502.636 248.173,502.636 253.8691,502.636 C255.2932,502.636 256.7172,502.636 258.1412,502.636 C258.8533,502.636 259.5653,502.636 260.2773,502.636 C260.6333,502.636 260.9894,502.636 261.3454,502.636 C261.3899,502.636 261.4344,502.636 261.4789,502.636 " fill="none" id="influxdb_container_tcp-influxdb_container" style="stroke:#181818;stroke-width:1.0;"/></g><!--link log_server_output to influxdb_tcp--><g id="link_log_server_output_influxdb_tcp"><path d="M316.372,197.262 C318.323,210.989 324.399,238.506 342.5,251.136 C355.005,259.861 469.037,248.044 479.5,259.136 C524.941,307.308 524.512,359.564 479.5,408.136 C463.594,425.3 392.835,401.596 374.5,416.136 C350.351,435.287 347.4387,469.9601 347.3437,487.4071 " fill="none" id="log_server_output-to-influxdb_tcp" style="stroke:#FF0000;stroke-width:8.0;"/><polygon fill="#FF0000" points="347.311,493.407,351.3599,484.4289,347.3382,488.4071,343.3601,484.3854,347.311,493.407" style="stroke:#FF0000;stroke-width:8.0;"/></g><!--link grafana_tcp to grafana_db--><g id="link_grafana_tcp_grafana_db"><path d="M349.844,660.136 C361.36,660.136 372.876,660.136 384.391,660.136 " fill="none" id="grafana_tcp-grafana_db" style="stroke:#181818;stroke-width:1.0;"/></g><!--link grafana_container_tcp to grafana_container--><g id="link_grafana_container_tcp_grafana_container"><path d="M236.781,660.136 C242.477,660.136 248.173,660.136 253.8691,660.136 C256.7172,660.136 259.5653,660.136 262.4134,660.136 C262.7694,660.136 263.1255,660.136 263.4815,660.136 " fill="none" id="grafana_container_tcp-grafana_container" style="stroke:#181818;stroke-width:1.0;"/></g><!--link influxdb_tcp to grafana_tcp--><g id="link_influxdb_tcp_grafana_tcp"><path d="M347.124,511.996 C345.903,539.122 342.331,618.4741 341.131,645.1161 " fill="none" id="influxdb_tcp-to-grafana_tcp" style="stroke:#FF0000;stroke-width:8.0;"/><polygon fill="#FF0000" points="340.861,651.11,345.2619,642.2991,341.086,646.1151,337.27,641.9391,340.861,651.11" style="stroke:#FF0000;stroke-width:8.0;"/></g><!--link log_server_container to postgres_container--><!--link postgres_container to influxdb_container--><!--link influxdb_container to grafana_container--><!--link app_log_output to log_server_container_tcp--><g id="link_app_log_output_log_server_container_tcp"><path d="M183.609,188.136 C195.154,188.136 200.698,188.136 212.242,188.136 " fill="none" id="app_log_output-to-log_server_container_tcp" style="stroke:#FF0000;stroke-width:8.0;"/><polygon fill="#FF0000" points="218.242,188.136,209.242,184.136,213.242,188.136,209.242,192.136,218.242,188.136" style="stroke:#FF0000;stroke-width:8.0;"/></g><!--link app to client1--><!--link client1 to client2--><!--link client2 to client3--><!--link postgres_container_tcp to client1_tcp--><g id="link_postgres_container_tcp_client1_tcp"><path d="M218.242,345.636 C206.698,345.636 201.154,345.636 189.609,345.636 " fill="none" id="postgres_container_tcp-to-client1_tcp" style="stroke:#008000;stroke-width:8.0;"/><polygon fill="#008000" points="183.609,345.636,192.609,349.636,188.609,345.636,192.609,341.636,183.609,345.636" style="stroke:#008000;stroke-width:8.0;"/></g><!--link influxdb_container_tcp to client2_tcp--><g id="link_influxdb_container_tcp_client2_tcp"><path d="M218.242,502.636 C206.698,502.636 201.154,502.636 189.609,502.636 " fill="none" id="influxdb_container_tcp-to-client2_tcp" style="stroke:#008000;stroke-width:8.0;"/><polygon fill="#008000" points="183.609,502.636,192.609,506.636,188.609,502.636,192.609,498.636,183.609,502.636" style="stroke:#008000;stroke-width:8.0;"/></g><!--link grafana_container_tcp to client3_tcp--><g id="link_grafana_container_tcp_client3_tcp"><path d="M218.242,660.136 C206.698,660.136 201.154,660.136 189.609,660.136 " fill="none" id="grafana_container_tcp-to-client3_tcp" style="stroke:#008000;stroke-width:8.0;"/><polygon fill="#008000" points="183.609,660.136,192.609,664.136,188.609,660.136,192.609,656.136,183.609,660.136" style="stroke:#008000;stroke-width:8.0;"/></g><!--SRC=[dPLDRvmm48Rl_XKZzj9AvH2uz92kr6Qhgb8EgTfR4gsyu2Ken4RWRIjL-UyrDXzZCwPIkG2UTrxRpnYcK2-jaa9gI6vLLTMoUf0VsxQf2wvh9HFWFV2sXJ_ibRrv2ycFcxjfxDYewgWkkhreDaZIS90LY_bDKm_tAvjSs9Shpt0SE-gYPUEpSSIZX5s6KZF2BaDssMoNnUnob9eJTZcoosUxVBHhrAM4vA2APz51_ujtBpRLFi7kixqCHm1iFE3gHVTJTCT2ISrhQPu6Fm2fIW694QHE0DVNisI_ZsR3xc0lErLqih54Wm9nM2OBzUuC3F9NRFiWQNajxG4Ob859kfO5AhSqNsWocPkQt7AwnJ4MWlHUFzN5inHz_-7zkrqdoiSzkGdCi5MzhZhHHyerXObYhJCtIZMBdJb0oJK_yTvCSUT2tx_T-ihoD5V8th258OHq8qfwAv0sugnJ8ih8Cb4GlTK706jvRYw_orC4u1Gc0AupDm3EuZN0hpPq-EJhGdpOmE13kX4VlH4i_Gzoth83SbN7prpo2BWnId1RvMrWcxGJDUVznOrwYf0NoZGC5jL8Yrmy4c9MFdeA4rvczATm_rINfP2FaRDCV8yeXImYSG9Hodehfcaolod-ywVZ5zSrrcMAgNFE7J8CPKkt2qCvOx4ltb-JKPYqlTTyOuTzAzFrMRhmsvcsfVu5]--></g></svg>