<?xml version="1.0" encoding="us-ascii" standalone="no"?><svg xmlns="http://www.w3.org/2000/svg" xmlns:xlink="http://www.w3.org/1999/xlink" contentStyleType="text/css" height="940px" preserveAspectRatio="none" style="width:621px;height:940px;background:#FFFFFF;" version="1.1" viewBox="0 0 621 940" width="621px" zoomAndPan="magnify"><defs/><g><!--cluster swarm--><g id="cluster_swarm"><path d="M221.14,78.1682 C240.5177,47.9438 260.5421,44.2981 283.259,74.7497 C304.3946,44.3216 325.5314,44.9404 344.0976,77.2416 C355.8389,53.3688 378.8893,52.6497 393.8423,73.6839 C414.3889,45.6331 438.5556,49.6102 456.8819,76.2435 C477.2023,51.1404 500.1846,53.2203 518.3708,78.8311 C534.0715,48.8214 561.1857,53.033 574.5,81.136 C581.5831,80.229 585.7671,83.6098 583.9951,91.1223 C611.6431,108.7285 605.8245,127.9183 583.7536,145.3029 C607.6121,161.7119 605.1698,187.4356 576.9782,197.0265 C607.8437,212.9954 608.3595,240.6925 581.5636,260.8069 C608.5793,277.5219 602.2117,304.8807 577.826,318.2514 C606.6769,336.8608 603.3824,356.4285 580.303,377.2193 C611.143,391.8969 607.6389,413.6658 584.5257,432.4672 C610.536,450.5415 607.5932,471.7209 580.9182,486.2622 C609.4323,499.8034 611.065,524.444 585.7002,542.5616 C614.2963,559.2312 612.6791,590.5381 584.4481,606.0877 C612.6219,624.0207 602.8455,651.2827 577.4454,662.574 C603.3952,676.7172 605.2006,697.8569 582.0472,716.2128 C613.1365,736.5549 607.7409,760.958 577.9362,777.1951 C605.7563,794.4446 605.4268,814.6392 579.4004,833.2941 C605.3739,856.7923 597.2807,877.5195 567.5,889.136 C575.1023,888.134 578.6483,890.9746 577.3501,898.9269 C555.273,933.3844 526.5508,926.8991 509.341,894.0115 C493.7014,924.3332 472.9459,924.6405 454.1281,897.0412 C438.3734,920.3671 418.3214,926.9201 401.098,898.5478 C382.4315,923.8764 352.8602,924.2956 338.0058,894.2077 C318.6876,917.8211 298.426,913.6376 282.6796,890.0234 C254.5761,924.8563 231.1973,915.0795 210.5,882.136 C213.6651,881.3772 214.5577,882.9271 214.0802,885.7634 C186.7776,868.6587 190.102,841.1683 218.0113,827.8085 C191.6545,812.503 188.6401,793.3299 215.3451,775.3286 C187.8038,760.6319 189.0544,739.1338 209.7793,719.6153 C175.7444,696.6746 175.5298,676.5989 209.4229,653.2931 C183.7328,637.7838 184.0902,618.5966 206.1859,600.1753 C180.6747,583.4596 182.3593,559.271 209.8577,546.1587 C181.132,526.6025 187.3046,506.2659 212.1006,488.8025 C181.7475,470.4848 177.6918,451.5112 205.3426,426.8647 C183.4131,409.5936 185.8239,388.5758 208.1235,373.6146 C179.8413,354.1887 181.7754,335.1058 207.0688,314.7205 C186.4392,296.8338 186.6323,277.0867 211.1871,262.7828 C178.8937,245.4987 179.9303,223.9382 209.2316,204.5846 C185.1646,186.0533 183.041,165.5646 209.9573,147.6836 C177.5421,121.1509 184.5649,93.9667 217.5,74.136 C220.6829,73.8209 221.5711,75.2208 221.14,78.1682 " fill="#EEEEEE" style="stroke:#181818;stroke-width:1.0;"/><text fill="#000000" font-family="sans-serif" font-size="14" font-weight="bold" lengthAdjust="spacing" textLength="114" x="335.5" y="92.1311">Docker swarm</text></g><!--cluster log_server_container--><g id="cluster_log_server_container"><polygon fill="#DDDDDD" points="263.5,127.136,273.5,117.136,550.5,117.136,550.5,225.136,540.5,235.136,263.5,235.136,263.5,127.136" style="stroke:#181818;stroke-width:1.0;"/><line style="stroke:#181818;stroke-width:1.0;" x1="540.5" x2="550.5" y1="127.136" y2="117.136"/><line style="stroke:#181818;stroke-width:1.0;" x1="263.5" x2="540.5" y1="127.136" y2="127.136"/><line style="stroke:#181818;stroke-width:1.0;" x1="540.5" x2="540.5" y1="127.136" y2="235.136"/><text fill="#000000" font-family="sans-serif" font-size="14" font-weight="bold" lengthAdjust="spacing" textLength="182" x="312" y="143.1311">log-server &#171;container&#187;</text></g><!--cluster postgres_container--><g id="cluster_postgres_container"><polygon fill="#DDDDDD" points="260.5,285.136,270.5,275.136,509.5,275.136,509.5,382.136,499.5,392.136,260.5,392.136,260.5,285.136" style="stroke:#181818;stroke-width:1.0;"/><line style="stroke:#181818;stroke-width:1.0;" x1="499.5" x2="509.5" y1="285.136" y2="275.136"/><line style="stroke:#181818;stroke-width:1.0;" x1="260.5" x2="499.5" y1="285.136" y2="285.136"/><line style="stroke:#181818;stroke-width:1.0;" x1="499.5" x2="499.5" y1="285.136" y2="392.136"/><text fill="#000000" font-family="sans-serif" font-size="14" font-weight="bold" lengthAdjust="spacing" textLength="173" x="294.5" y="301.1311">postgres &#171;container&#187;</text></g><!--cluster influxdb_container--><g id="cluster_influxdb_container"><polygon fill="#DDDDDD" points="302.5,442.136,312.5,432.136,545.5,432.136,545.5,539.136,535.5,549.136,302.5,549.136,302.5,442.136" style="stroke:#181818;stroke-width:1.0;"/><line style="stroke:#181818;stroke-width:1.0;" x1="535.5" x2="545.5" y1="442.136" y2="432.136"/><line style="stroke:#181818;stroke-width:1.0;" x1="302.5" x2="535.5" y1="442.136" y2="442.136"/><line style="stroke:#181818;stroke-width:1.0;" x1="535.5" x2="535.5" y1="442.136" y2="549.136"/><text fill="#000000" font-family="sans-serif" font-size="14" font-weight="bold" lengthAdjust="spacing" textLength="167" x="336.5" y="458.1311">influxdb &#171;container&#187;</text></g><!--cluster grafana_container--><g id="cluster_grafana_container"><polygon fill="#DDDDDD" points="299.5,599.136,309.5,589.136,540.5,589.136,540.5,697.136,530.5,707.136,299.5,707.136,299.5,599.136" style="stroke:#181818;stroke-width:1.0;"/><line style="stroke:#181818;stroke-width:1.0;" x1="530.5" x2="540.5" y1="599.136" y2="589.136"/><line style="stroke:#181818;stroke-width:1.0;" x1="299.5" x2="530.5" y1="599.136" y2="599.136"/><line style="stroke:#181818;stroke-width:1.0;" x1="530.5" x2="530.5" y1="599.136" y2="707.136"/><text fill="#000000" font-family="sans-serif" font-size="14" font-weight="bold" lengthAdjust="spacing" textLength="165" x="333.5" y="615.1311">grafana &#171;container&#187;</text></g><!--cluster web_container--><g id="cluster_web_container"><polygon fill="#DDDDDD" points="283.5,757.136,293.5,747.136,492.5,747.136,492.5,855.136,482.5,865.136,283.5,865.136,283.5,757.136" style="stroke:#181818;stroke-width:1.0;"/><line style="stroke:#181818;stroke-width:1.0;" x1="482.5" x2="492.5" y1="757.136" y2="747.136"/><line style="stroke:#181818;stroke-width:1.0;" x1="283.5" x2="482.5" y1="757.136" y2="757.136"/><line style="stroke:#181818;stroke-width:1.0;" x1="482.5" x2="482.5" y1="757.136" y2="865.136"/><text fill="#000000" font-family="sans-serif" font-size="14" font-weight="bold" lengthAdjust="spacing" textLength="133" x="317.5" y="773.1311">web &#171;container&#187;</text></g><!--entity app--><g id="elem_app"><rect fill="#F1F1F1" height="62.5938" rx="2.5" ry="2.5" style="stroke:#181818;stroke-width:0.5;" width="123" x="7" y="156.636"/><rect fill="#F1F1F1" height="10" style="stroke:#181818;stroke-width:0.5;" width="15" x="110" y="161.636"/><rect fill="#F1F1F1" height="2" style="stroke:#181818;stroke-width:0.5;" width="4" x="108" y="163.636"/><rect fill="#F1F1F1" height="2" style="stroke:#181818;stroke-width:0.5;" width="4" x="108" y="167.636"/><text fill="#000000" font-family="sans-serif" font-size="14" lengthAdjust="spacing" textLength="57" x="22" y="189.6311">Logging</text><text fill="#000000" font-family="sans-serif" font-size="14" lengthAdjust="spacing" textLength="83" x="22" y="205.928">Application</text></g><!--entity log_server_container_tcp--><g id="elem_log_server_container_tcp"><ellipse cx="227.5" cy="188.136" fill="#F1F1F1" rx="8" ry="8" style="stroke:#181818;stroke-width:0.5;"/><text fill="#000000" font-family="sans-serif" font-size="14" lengthAdjust="spacing" textLength="28" x="213.5" y="218.1311">TCP</text></g><!--entity postgres_container_tcp--><g id="elem_postgres_container_tcp"><ellipse cx="227.5" cy="345.636" fill="#F1F1F1" rx="8" ry="8" style="stroke:#181818;stroke-width:0.5;"/><text fill="#000000" font-family="sans-serif" font-size="14" lengthAdjust="spacing" textLength="28" x="213.5" y="375.6311">TCP</text></g><!--entity influxdb_container_tcp--><g id="elem_influxdb_container_tcp"><ellipse cx="228.5" cy="502.636" fill="#F1F1F1" rx="8" ry="8" style="stroke:#181818;stroke-width:0.5;"/><text fill="#000000" font-family="sans-serif" font-size="14" lengthAdjust="spacing" textLength="28" x="214.5" y="532.6311">TCP</text></g><!--entity grafana_container_tcp--><g id="elem_grafana_container_tcp"><ellipse cx="229.5" cy="660.136" fill="#F1F1F1" rx="8" ry="8" style="stroke:#181818;stroke-width:0.5;"/><text fill="#000000" font-family="sans-serif" font-size="14" lengthAdjust="spacing" textLength="28" x="215.5" y="690.1311">TCP</text></g><!--entity web_container_tcp--><g id="elem_web_container_tcp"><ellipse cx="246.5" cy="818.136" fill="#F1F1F1" rx="8" ry="8" style="stroke:#181818;stroke-width:0.5;"/><text fill="#000000" font-family="sans-serif" font-size="14" lengthAdjust="spacing" textLength="28" x="232.5" y="848.1311">TCP</text></g><!--entity log_server_output--><g id="elem_log_server_output"><ellipse cx="315.5" cy="188.136" fill="#F1F1F1" rx="8" ry="8" style="stroke:#181818;stroke-width:0.5;"/><text fill="#000000" font-family="sans-serif" font-size="14" lengthAdjust="spacing" textLength="28" x="301.5" y="218.1311">TCP</text></g><!--entity log_server_input--><g id="elem_log_server_input"><ellipse cx="517.5" cy="188.136" fill="#F1F1F1" rx="8" ry="8" style="stroke:#181818;stroke-width:0.5;"/><text fill="#000000" font-family="sans-serif" font-size="14" lengthAdjust="spacing" textLength="28" x="495" y="218.1311">TCP</text><text fill="#000000" font-family="sans-serif" font-size="14" lengthAdjust="spacing" textLength="45" x="495" y="234.428">server</text></g><!--entity log_server_app--><g id="elem_log_server_app"><rect fill="#F1F1F1" height="46.2969" rx="2.5" ry="2.5" style="stroke:#181818;stroke-width:0.5;" width="113" x="360" y="165.136"/><rect fill="#F1F1F1" height="10" style="stroke:#181818;stroke-width:0.5;" width="15" x="453" y="170.136"/><rect fill="#F1F1F1" height="2" style="stroke:#181818;stroke-width:0.5;" width="4" x="451" y="172.136"/><rect fill="#F1F1F1" height="2" style="stroke:#181818;stroke-width:0.5;" width="4" x="451" y="176.136"/><text fill="#000000" font-family="sans-serif" font-size="14" lengthAdjust="spacing" textLength="73" x="375" y="198.1311">log-server</text></g><!--entity postgres_tcp--><g id="elem_postgres_tcp"><ellipse cx="315.5" cy="345.636" fill="#F1F1F1" rx="8" ry="8" style="stroke:#181818;stroke-width:0.5;"/><text fill="#000000" font-family="sans-serif" font-size="14" lengthAdjust="spacing" textLength="28" x="301.5" y="375.6311">TCP</text></g><!--entity postgres_db--><g id="elem_postgres_db"><path d="M359.5,333.136 C359.5,323.136 411.5,323.136 411.5,323.136 C411.5,323.136 463.5,323.136 463.5,333.136 L463.5,358.4329 C463.5,368.4329 411.5,368.4329 411.5,368.4329 C411.5,368.4329 359.5,368.4329 359.5,358.4329 L359.5,333.136 " fill="#F1F1F1" style="stroke:#181818;stroke-width:0.5;"/><path d="M359.5,333.136 C359.5,343.136 411.5,343.136 411.5,343.136 C411.5,343.136 463.5,343.136 463.5,333.136 " fill="none" style="stroke:#181818;stroke-width:0.5;"/><text fill="#000000" font-family="sans-serif" font-size="14" lengthAdjust="spacing" textLength="84" x="369.5" y="360.1311">PostgreSQL</text></g><!--entity influxdb_tcp--><g id="elem_influxdb_tcp"><ellipse cx="397.5" cy="502.636" fill="#F1F1F1" rx="8" ry="8" style="stroke:#181818;stroke-width:0.5;"/><text fill="#000000" font-family="sans-serif" font-size="14" lengthAdjust="spacing" textLength="28" x="383.5" y="532.6311">TCP</text></g><!--entity influxdb_db--><g id="elem_influxdb_db"><path d="M441.5,490.136 C441.5,480.136 481.5,480.136 481.5,480.136 C481.5,480.136 521.5,480.136 521.5,490.136 L521.5,515.4329 C521.5,525.4329 481.5,525.4329 481.5,525.4329 C481.5,525.4329 441.5,525.4329 441.5,515.4329 L441.5,490.136 " fill="#F1F1F1" style="stroke:#181818;stroke-width:0.5;"/><path d="M441.5,490.136 C441.5,500.136 481.5,500.136 481.5,500.136 C481.5,500.136 521.5,500.136 521.5,490.136 " fill="none" style="stroke:#181818;stroke-width:0.5;"/><text fill="#000000" font-family="sans-serif" font-size="14" lengthAdjust="spacing" textLength="60" x="451.5" y="517.1311">InfluxDB</text></g><!--entity grafana_tcp--><g id="elem_grafana_tcp"><ellipse cx="376.5" cy="660.136" fill="#F1F1F1" rx="8" ry="8" style="stroke:#181818;stroke-width:0.5;"/><text fill="#000000" font-family="sans-serif" font-size="14" lengthAdjust="spacing" textLength="28" x="362.5" y="690.1311">TCP</text></g><!--entity grafana_db--><g id="elem_grafana_db"><polygon fill="#F1F1F1" points="420.5,647.136,430.5,637.136,516.5,637.136,516.5,673.4329,506.5,683.4329,420.5,683.4329,420.5,647.136" style="stroke:#181818;stroke-width:0.5;"/><line style="stroke:#181818;stroke-width:0.5;" x1="506.5" x2="516.5" y1="647.136" y2="637.136"/><line style="stroke:#181818;stroke-width:0.5;" x1="420.5" x2="506.5" y1="647.136" y2="647.136"/><line style="stroke:#181818;stroke-width:0.5;" x1="506.5" x2="506.5" y1="647.136" y2="683.4329"/><text fill="#000000" font-family="sans-serif" font-size="14" lengthAdjust="spacing" textLength="56" x="435.5" y="670.1311">Grafana</text></g><!--entity web_tcp--><g id="elem_web_tcp"><ellipse cx="343.5" cy="818.136" fill="#F1F1F1" rx="8" ry="8" style="stroke:#181818;stroke-width:0.5;"/><text fill="#000000" font-family="sans-serif" font-size="14" lengthAdjust="spacing" textLength="28" x="329.5" y="848.1311">TCP</text></g><!--entity web_db--><g id="elem_web_db"><polygon fill="#F1F1F1" points="388,805.136,398,795.136,461,795.136,461,831.4329,451,841.4329,388,841.4329,388,805.136" style="stroke:#181818;stroke-width:0.5;"/><line style="stroke:#181818;stroke-width:0.5;" x1="451" x2="461" y1="805.136" y2="795.136"/><line style="stroke:#181818;stroke-width:0.5;" x1="388" x2="451" y1="805.136" y2="805.136"/><line style="stroke:#181818;stroke-width:0.5;" x1="451" x2="451" y1="805.136" y2="841.4329"/><text fill="#000000" font-family="sans-serif" font-size="14" lengthAdjust="spacing" textLength="33" x="403" y="828.1311">Web</text></g><!--entity app_log_output--><g id="elem_app_log_output"><ellipse cx="174.5" cy="188.136" fill="#F1F1F1" rx="8" ry="8" style="stroke:#181818;stroke-width:0.5;"/><text fill="#000000" font-family="sans-serif" font-size="14" lengthAdjust="spacing" textLength="28" x="160.5" y="218.1311">TCP</text></g><!--entity client1--><g id="elem_client1"><rect fill="#F1F1F1" height="46.2969" rx="2.5" ry="2.5" style="stroke:#181818;stroke-width:0.5;" width="96" x="33.5" y="322.636"/><rect fill="#F1F1F1" height="10" style="stroke:#181818;stroke-width:0.5;" width="15" x="109.5" y="327.636"/><rect fill="#F1F1F1" height="2" style="stroke:#181818;stroke-width:0.5;" width="4" x="107.5" y="329.636"/><rect fill="#F1F1F1" height="2" style="stroke:#181818;stroke-width:0.5;" width="4" x="107.5" y="333.636"/><text fill="#000000" font-family="sans-serif" font-size="14" lengthAdjust="spacing" textLength="56" x="48.5" y="355.6311">Client 1</text></g><!--entity client1_tcp--><g id="elem_client1_tcp"><ellipse cx="173.5" cy="345.636" fill="#F1F1F1" rx="8" ry="8" style="stroke:#181818;stroke-width:0.5;"/><text fill="#000000" font-family="sans-serif" font-size="14" lengthAdjust="spacing" textLength="28" x="159.5" y="375.6311">TCP</text></g><!--entity client2--><g id="elem_client2"><rect fill="#F1F1F1" height="46.2969" rx="2.5" ry="2.5" style="stroke:#181818;stroke-width:0.5;" width="95" x="34" y="479.636"/><rect fill="#F1F1F1" height="10" style="stroke:#181818;stroke-width:0.5;" width="15" x="109" y="484.636"/><rect fill="#F1F1F1" height="2" style="stroke:#181818;stroke-width:0.5;" width="4" x="107" y="486.636"/><rect fill="#F1F1F1" height="2" style="stroke:#181818;stroke-width:0.5;" width="4" x="107" y="490.636"/><text fill="#000000" font-family="sans-serif" font-size="14" lengthAdjust="spacing" textLength="55" x="49" y="512.6311">Client 2</text></g><!--entity client2_tcp--><g id="elem_client2_tcp"><ellipse cx="174.5" cy="502.636" fill="#F1F1F1" rx="8" ry="8" style="stroke:#181818;stroke-width:0.5;"/><text fill="#000000" font-family="sans-serif" font-size="14" lengthAdjust="spacing" textLength="28" x="160.5" y="532.6311">TCP</text></g><!--entity client3--><g id="elem_client3"><rect fill="#F1F1F1" height="46.2969" rx="2.5" ry="2.5" style="stroke:#181818;stroke-width:0.5;" width="102" x="30.5" y="637.136"/><rect fill="#F1F1F1" height="10" style="stroke:#181818;stroke-width:0.5;" width="15" x="112.5" y="642.136"/><rect fill="#F1F1F1" height="2" style="stroke:#181818;stroke-width:0.5;" width="4" x="110.5" y="644.136"/><rect fill="#F1F1F1" height="2" style="stroke:#181818;stroke-width:0.5;" width="4" x="110.5" y="648.136"/><text fill="#000000" font-family="sans-serif" font-size="14" lengthAdjust="spacing" textLength="58" x="49.5" y="670.1311">Browser</text></g><!--entity client3_tcp--><g id="elem_client3_tcp"><ellipse cx="176.5" cy="660.136" fill="#F1F1F1" rx="8" ry="8" style="stroke:#181818;stroke-width:0.5;"/><text fill="#000000" font-family="sans-serif" font-size="14" lengthAdjust="spacing" textLength="28" x="162.5" y="690.1311">TCP</text></g><!--link app to app_log_output--><g id="link_app_app_log_output"><path d="M130.195,188.136 C141.848,188.136 153.501,188.136 165.154,188.136 " fill="none" id="app-app_log_output" style="stroke:#181818;stroke-width:1.0;"/></g><!--link client1 to client1_tcp--><g id="link_client1_client1_tcp"><path d="M129.656,345.636 C141.188,345.636 152.72,345.636 164.252,345.636 " fill="none" id="client1-client1_tcp" style="stroke:#181818;stroke-width:1.0;"/></g><!--link client2 to client2_tcp--><g id="link_client2_client2_tcp"><path d="M129.09,502.636 C141.152,502.636 153.214,502.636 165.276,502.636 " fill="none" id="client2-client2_tcp" style="stroke:#181818;stroke-width:1.0;"/></g><!--link client3 to client3_tcp--><g id="link_client3_client3_tcp"><path d="M132.711,660.136 C144.228,660.136 155.746,660.136 167.263,660.136 " fill="none" id="client3-client3_tcp" style="stroke:#181818;stroke-width:1.0;"/></g><!--link log_server_app to log_server_input--><g id="link_log_server_app_log_server_input"><path d="M473.312,188.136 C484.935,188.136 496.557,188.136 508.179,188.136 " fill="none" id="log_server_app-log_server_input" style="stroke:#181818;stroke-width:1.0;"/></g><!--link log_server_output to log_server_app--><g id="link_log_server_output_log_server_app"><path d="M324.574,188.136 C336.304,188.136 348.034,188.136 359.765,188.136 " fill="none" id="log_server_output-log_server_app" style="stroke:#181818;stroke-width:1.0;"/></g><!--link log_server_container to log_server_container_tcp--><g id="link_log_server_container_log_server_container_tcp"><path d="M263.4815,188.136 C263.1255,188.136 262.7694,188.136 262.4134,188.136 C259.5653,188.136 256.7172,188.136 253.8691,188.136 C248.173,188.136 242.477,188.136 236.781,188.136 " fill="none" id="log_server_container-log_server_container_tcp" style="stroke:#181818;stroke-width:1.0;"/></g><!--link log_server_container_tcp to log_server_input--><g id="link_log_server_container_tcp_log_server_input"><path d="M226.445,179.115 C223.621,150.043 219.409,58.917 273,28.136 C311.54,6 434.46,6 473,28.136 C526.503,58.867 522.2741,144.0583 519.2421,173.1433 " fill="none" id="log_server_container_tcp-to-log_server_input" style="stroke:#FF0000;stroke-width:8.0;"/><polygon fill="#FF0000" points="518.62,179.111,523.5316,170.5742,519.1384,174.1379,515.5747,169.7448,518.62,179.111" style="stroke:#FF0000;stroke-width:8.0;"/></g><!--link postgres_tcp to postgres_db--><g id="link_postgres_tcp_postgres_db"><path d="M324.875,345.636 C336.38,345.636 347.885,345.636 359.39,345.636 " fill="none" id="postgres_tcp-postgres_db" style="stroke:#181818;stroke-width:1.0;"/></g><!--link postgres_container to postgres_container_tcp--><g id="link_postgres_container_postgres_container_tcp"><path d="M260.4108,345.636 C260.3663,345.636 260.3218,345.636 260.2773,345.636 C259.5653,345.636 258.8533,345.636 258.1412,345.636 C256.7172,345.636 255.2932,345.636 253.8691,345.636 C248.173,345.636 242.477,345.636 236.781,345.636 " fill="none" id="postgres_container-postgres_container_tcp" style="stroke:#181818;stroke-width:1.0;"/></g><!--link log_server_output to postgres_tcp--><g id="link_log_server_output_postgres_tcp"><path d="M315.5,197.496 C315.5,224.622 315.5,303.968 315.5,330.61 " fill="none" id="log_server_output-to-postgres_tcp" style="stroke:#FF0000;stroke-width:8.0;"/><polygon fill="#FF0000" points="315.5,336.61,319.5,327.61,315.5,331.61,311.5,327.61,315.5,336.61" style="stroke:#FF0000;stroke-width:8.0;"/></g><!--link influxdb_tcp to influxdb_db--><g id="link_influxdb_tcp_influxdb_db"><path d="M406.688,502.636 C418.28,502.636 429.872,502.636 441.464,502.636 " fill="none" id="influxdb_tcp-influxdb_db" style="stroke:#181818;stroke-width:1.0;"/></g><!--link influxdb_container_tcp to influxdb_container--><g id="link_influxdb_container_tcp_influxdb_container"><path d="M237.789,502.636 C249.813,502.636 261.8368,502.636 273.8605,502.636 C279.8724,502.636 285.8843,502.636 291.8962,502.636 C294.9021,502.636 297.9081,502.636 300.914,502.636 C301.2898,502.636 301.6655,502.636 302.0413,502.636 C302.1352,502.636 302.2292,502.636 302.3231,502.636 " fill="none" id="influxdb_container_tcp-influxdb_container" style="stroke:#181818;stroke-width:1.0;"/></g><!--link log_server_output to influxdb_tcp--><g id="link_log_server_output_influxdb_tcp"><path d="M316.372,197.262 C318.323,210.989 324.399,238.506 342.5,251.136 C355.005,259.861 469.037,248.044 479.5,259.136 C524.941,307.308 522.825,358.053 479.5,408.136 C463.339,426.818 443.318,400.135 424.5,416.136 C401.02,436.102 397.8119,470.3309 397.5169,487.5339 " fill="none" id="log_server_output-to-influxdb_tcp" style="stroke:#FF0000;stroke-width:8.0;"/><polygon fill="#FF0000" points="397.414,493.533,401.5677,484.6029,397.4997,488.5337,393.5689,484.4657,397.414,493.533" style="stroke:#FF0000;stroke-width:8.0;"/></g><!--link grafana_tcp to grafana_db--><g id="link_grafana_tcp_grafana_db"><path d="M385.844,660.136 C397.36,660.136 408.876,660.136 420.391,660.136 " fill="none" id="grafana_tcp-grafana_db" style="stroke:#181818;stroke-width:1.0;"/></g><!--link grafana_container_tcp to grafana_container--><g id="link_grafana_container_tcp_grafana_container"><path d="M238.676,660.136 C250.553,660.136 262.4303,660.136 274.3075,660.136 C280.2461,660.136 286.1848,660.136 292.1233,660.136 C293.608,660.136 295.0926,660.136 296.5773,660.136 C297.3196,660.136 298.0619,660.136 298.8042,660.136 C298.9898,660.136 299.1754,660.136 299.361,660.136 " fill="none" id="grafana_container_tcp-grafana_container" style="stroke:#181818;stroke-width:1.0;"/></g><!--link influxdb_tcp to grafana_tcp--><g id="link_influxdb_tcp_grafana_tcp"><path d="M396.371,511.996 C392.708,539.122 381.985,618.522 378.387,645.164 " fill="none" id="influxdb_tcp-to-grafana_tcp" style="stroke:#FF0000;stroke-width:8.0;"/><polygon fill="#FF0000" points="377.584,651.11,382.7525,642.7263,378.2532,646.155,374.8245,641.6556,377.584,651.11" style="stroke:#FF0000;stroke-width:8.0;"/></g><!--link web_tcp to web_db--><g id="link_web_tcp_web_db"><path d="M352.676,818.136 C364.366,818.136 376.056,818.136 387.746,818.136 " fill="none" id="web_tcp-web_db" style="stroke:#181818;stroke-width:1.0;"/></g><!--link web_container_tcp to web_container--><g id="link_web_container_tcp_web_container"><path d="M255.875,818.136 C262.54,818.136 269.205,818.136 275.87,818.136 C277.5363,818.136 279.2025,818.136 280.8688,818.136 C281.7019,818.136 282.535,818.136 283.3681,818.136 " fill="none" id="web_container_tcp-web_container" style="stroke:#181818;stroke-width:1.0;"/></g><!--link postgres_tcp to web_tcp--><g id="link_postgres_tcp_web_tcp"><path d="M315.242,354.705 C314.544,366.958 311.967,390.676 302.5,408.136 C300.103,412.556 296.469,411.509 294.5,416.136 C281.145,447.526 269.938,696.702 291.5,723.136 C302.684,736.847 318.32,718.301 330.5,731.136 C350.977,752.713 348.555,786.0796 345.928,803.0466 " fill="none" id="postgres_tcp-to-web_tcp" style="stroke:#FF0000;stroke-width:8.0;"/><polygon fill="#FF0000" points="345.01,808.976,350.34,800.694,345.775,804.0349,342.4342,799.4699,345.01,808.976" style="stroke:#FF0000;stroke-width:8.0;"/></g><!--link influxdb_tcp to web_tcp--><g id="link_influxdb_tcp_web_tcp"><path d="M398.414,511.669 C400.43,525.244 406.601,552.478 424.5,565.136 C444.149,579.031 516.124,555.502 532.5,573.136 C577.866,621.987 578.463,674.847 532.5,723.136 C520.075,736.19 384.76,720.115 370.5,731.136 C345.86,750.179 343.1973,785.583 343.2403,803.076 " fill="none" id="influxdb_tcp-to-web_tcp" style="stroke:#FF0000;stroke-width:8.0;"/><polygon fill="#FF0000" points="343.255,809.076,347.2329,800.0662,343.2427,804.076,339.2329,800.0859,343.255,809.076" style="stroke:#FF0000;stroke-width:8.0;"/></g><!--link log_server_container to postgres_container--><!--link postgres_container to influxdb_container--><!--link influxdb_container to grafana_container--><!--link grafana_container to web_container--><!--link app_log_output to log_server_container_tcp--><g id="link_app_log_output_log_server_container_tcp"><path d="M183.609,188.136 C195.154,188.136 200.698,188.136 212.242,188.136 " fill="none" id="app_log_output-to-log_server_container_tcp" style="stroke:#FF0000;stroke-width:8.0;"/><polygon fill="#FF0000" points="218.242,188.136,209.242,184.136,213.242,188.136,209.242,192.136,218.242,188.136" style="stroke:#FF0000;stroke-width:8.0;"/></g><!--link app to client1--><!--link client1 to client2--><!--link client2 to client3--><!--link postgres_container_tcp to client1_tcp--><g id="link_postgres_container_tcp_client1_tcp"><path d="M218.417,345.636 C206.538,345.636 200.66,345.636 188.781,345.636 " fill="none" id="postgres_container_tcp-to-client1_tcp" style="stroke:#008000;stroke-width:8.0;"/><polygon fill="#008000" points="182.781,345.636,191.781,349.636,187.781,345.636,191.781,341.636,182.781,345.636" style="stroke:#008000;stroke-width:8.0;"/></g><!--link influxdb_container_tcp to client2_tcp--><g id="link_influxdb_container_tcp_client2_tcp"><path d="M219.417,502.636 C207.538,502.636 201.66,502.636 189.781,502.636 " fill="none" id="influxdb_container_tcp-to-client2_tcp" style="stroke:#008000;stroke-width:8.0;"/><polygon fill="#008000" points="183.781,502.636,192.781,506.636,188.781,502.636,192.781,498.636,183.781,502.636" style="stroke:#008000;stroke-width:8.0;"/></g><!--link grafana_container_tcp to client3_tcp--><g id="link_grafana_container_tcp_client3_tcp"><path d="M220.242,660.136 C208.698,660.136 203.154,660.136 191.609,660.136 " fill="none" id="grafana_container_tcp-to-client3_tcp" style="stroke:#008000;stroke-width:8.0;"/><polygon fill="#008000" points="185.609,660.136,194.609,664.136,190.609,660.136,194.609,656.136,185.609,660.136" style="stroke:#008000;stroke-width:8.0;"/></g><!--reverse link client3_tcp to web_container_tcp--><g id="link_client3_tcp_web_container_tcp"><path d="M182.0215,674.7653 C186.8485,686.6393 193.982,703.93 202.5,723.136 C216.672,755.091 234.633,792.596 242.501,808.889 " fill="none" id="client3_tcp-backto-web_container_tcp" style="stroke:#008000;stroke-width:8.0;"/><polygon fill="#008000" points="179.762,669.207,179.4458,679.0508,181.645,673.8389,186.8568,676.0381,179.762,669.207" style="stroke:#008000;stroke-width:8.0;"/></g><!--SRC=[dPR1Qjmm48RlUWhXlRHG7s9VUjWkDDbI2ZcajD134XQjhNLC7CdOscwXvDqhIx8zaaSET2_sQlxvDVeaYodaIoi55uecjxAgQb4zYCzjszG5KxKK2MKzPMrB_v9NykuzJNxUt8rZXqPM1tbMxLcHGPA6WwIOpM-QUdXUcUJ2_Bdo3DtOGHKjSU_Q4OuYTXb8pH2x3DXbarssiAFNdRpql0EfEMAN0xjyiikTNIFF9KtsidZc7Uqlh7ingUQDRhwOd-P8AJGUSEc9V_FkK4YXM2tqs-17gP0bfuaMf5P0jzj9ijj5i-bcRtvcgkXaRei61U0mJnRgxHaOvA_Gza7WybgO0p0e0vDqAGjKjZHVg3E9dHfTShh6CHQYwRrwgejdmVl-qySFcuwNZpjq4P1XAtjLTRoFRDSOHZPhcRcoLPFOcbDQCiMEhDTJtDdGZ- -tlh8yJZja7j124m8wXn9V2aqRVb8f4YNeDc4GlUe3WBKuDUS_vJ42S0mZ09UPAm0dyHBWDnFQN_kw41yqqFY0pk735mAb_q7EApiWLtNin0IBW7DHXDiYRmNRg1sfMU-lTjHJXBn0fcOmgnmjj7WWXAnyz1WcM6P0wS9ZHqj743gUVeNCeFEf_EB7AHBIS6gzG1jr51R5EG5SlV_TOgkVItcRrAYDNfttJtLPSl4O-UAHMmkae4ST-Kv12hRXonCA4dm-kWyXVf_nvZtkdmRRgypsOpCoDHrXA9iRY32K4nAxHFsQj4AdxRn-9dP_h6NQrWN_bjOplTx5wBUeFbsUqNy0]--></g></svg>