<?xml version="1.0" encoding="us-ascii" standalone="no"?><svg xmlns="http://www.w3.org/2000/svg" xmlns:xlink="http://www.w3.org/1999/xlink" contentStyleType="text/css" height="1053px" preserveAspectRatio="none" style="width:698px;height:1053px;background:#FFFFFF;" version="1.1" viewBox="0 0 698 1053" width="698px" zoomAndPan="magnify"><defs/><g><!--cluster io--><g id="cluster_io"><path d="M341.5,134 L357.5,134 A3.75,3.75 0 0 1 360,136.5 L367,156.2969 L583.5,156.2969 A2.5,2.5 0 0 1 586,158.7969 L586,230.5 A2.5,2.5 0 0 1 583.5,233 L341.5,233 A2.5,2.5 0 0 1 339,230.5 L339,136.5 A2.5,2.5 0 0 1 341.5,134 " fill="lightgray" style="stroke:#000000;stroke-width:1.5;"/><line style="stroke:#000000;stroke-width:1.5;" x1="339" x2="367" y1="156.2969" y2="156.2969"/><text fill="#000000" font-family="sans-serif" font-size="14" font-weight="bold" lengthAdjust="spacing" textLength="15" x="343" y="148.9951">io</text></g><!--class istream--><g id="elem_istream"><rect codeLine="2" fill="#F1F1F1" height="48" id="istream" rx="2.5" ry="2.5" style="stroke:#181818;stroke-width:0.5;" width="87" x="355.5" y="169"/><ellipse cx="370.5" cy="185" fill="#ADD1B2" rx="11" ry="11" style="stroke:#181818;stroke-width:1.0;"/><path d="M372.8438,180.6719 C371.9063,180.2344 371.3125,180.0938 370.4375,180.0938 C367.8125,180.0938 365.8125,182.1719 365.8125,184.8906 L365.8125,186.0156 C365.8125,188.5938 367.9219,190.4844 370.8125,190.4844 C372.0313,190.4844 373.1875,190.1875 373.9375,189.6406 C374.5156,189.2344 374.8438,188.7813 374.8438,188.3906 C374.8438,187.9375 374.4531,187.5469 373.9844,187.5469 C373.7656,187.5469 373.5625,187.625 373.375,187.8125 C372.9219,188.2969 372.9219,188.2969 372.7344,188.3906 C372.3125,188.6563 371.625,188.7813 370.8594,188.7813 C368.8125,188.7813 367.5156,187.6875 367.5156,185.9844 L367.5156,184.8906 C367.5156,183.1094 368.7656,181.7969 370.5,181.7969 C371.0781,181.7969 371.6875,181.9531 372.1563,182.2031 C372.6406,182.4844 372.8125,182.7031 372.9063,183.1094 C372.9688,183.5156 373,183.6406 373.1406,183.7656 C373.2813,183.9063 373.5156,184.0156 373.7344,184.0156 C374,184.0156 374.2656,183.875 374.4375,183.6563 C374.5469,183.5 374.5781,183.3125 374.5781,182.8906 L374.5781,181.4688 C374.5781,181.0313 374.5625,180.9063 374.4688,180.75 C374.3125,180.4844 374.0313,180.3438 373.7344,180.3438 C373.4375,180.3438 373.2344,180.4375 373.0156,180.75 L372.8438,180.6719 Z " fill="#000000"/><text fill="#000000" font-family="sans-serif" font-size="14" lengthAdjust="spacing" textLength="55" x="384.5" y="189.8467">istream</text><line style="stroke:#181818;stroke-width:0.5;" x1="356.5" x2="441.5" y1="201" y2="201"/><line style="stroke:#181818;stroke-width:0.5;" x1="356.5" x2="441.5" y1="209" y2="209"/></g><!--class ostream--><g id="elem_ostream"><rect codeLine="3" fill="#F1F1F1" height="48" id="ostream" rx="2.5" ry="2.5" style="stroke:#181818;stroke-width:0.5;" width="92" x="478" y="169"/><ellipse cx="493" cy="185" fill="#ADD1B2" rx="11" ry="11" style="stroke:#181818;stroke-width:1.0;"/><path d="M495.3438,180.6719 C494.4063,180.2344 493.8125,180.0938 492.9375,180.0938 C490.3125,180.0938 488.3125,182.1719 488.3125,184.8906 L488.3125,186.0156 C488.3125,188.5938 490.4219,190.4844 493.3125,190.4844 C494.5313,190.4844 495.6875,190.1875 496.4375,189.6406 C497.0156,189.2344 497.3438,188.7813 497.3438,188.3906 C497.3438,187.9375 496.9531,187.5469 496.4844,187.5469 C496.2656,187.5469 496.0625,187.625 495.875,187.8125 C495.4219,188.2969 495.4219,188.2969 495.2344,188.3906 C494.8125,188.6563 494.125,188.7813 493.3594,188.7813 C491.3125,188.7813 490.0156,187.6875 490.0156,185.9844 L490.0156,184.8906 C490.0156,183.1094 491.2656,181.7969 493,181.7969 C493.5781,181.7969 494.1875,181.9531 494.6563,182.2031 C495.1406,182.4844 495.3125,182.7031 495.4063,183.1094 C495.4688,183.5156 495.5,183.6406 495.6406,183.7656 C495.7813,183.9063 496.0156,184.0156 496.2344,184.0156 C496.5,184.0156 496.7656,183.875 496.9375,183.6563 C497.0469,183.5 497.0781,183.3125 497.0781,182.8906 L497.0781,181.4688 C497.0781,181.0313 497.0625,180.9063 496.9688,180.75 C496.8125,180.4844 496.5313,180.3438 496.2344,180.3438 C495.9375,180.3438 495.7344,180.4375 495.5156,180.75 L495.3438,180.6719 Z " fill="#000000"/><text fill="#000000" font-family="sans-serif" font-size="14" lengthAdjust="spacing" textLength="60" x="507" y="189.8467">ostream</text><line style="stroke:#181818;stroke-width:0.5;" x1="479" x2="569" y1="201" y2="201"/><line style="stroke:#181818;stroke-width:0.5;" x1="479" x2="569" y1="209" y2="209"/></g><!--class reader--><g id="elem_reader"><rect codeLine="6" fill="#F1F1F1" height="64.2969" id="reader" rx="2.5" ry="2.5" style="stroke:#181818;stroke-width:0.5;" width="80" x="174" y="161"/><ellipse cx="189" cy="177" fill="#B4A7E5" rx="11" ry="11" style="stroke:#181818;stroke-width:1.0;"/><path d="M189.9531,173.7813 L191.6719,173.7813 C192.0625,173.7813 192.25,173.75 192.375,173.6719 C192.6406,173.5156 192.7813,173.2344 192.7813,172.9375 C192.7813,172.6719 192.6719,172.4063 192.4375,172.2344 C192.2656,172.125 192.125,172.0938 191.6719,172.0938 L186.5313,172.0938 C186.0938,172.0938 185.9688,172.1094 185.8125,172.2031 C185.5625,172.3594 185.4063,172.6563 185.4063,172.9375 C185.4063,173.2188 185.5469,173.4688 185.7656,173.6406 C185.9219,173.75 186.1094,173.7813 186.5313,173.7813 L188.25,173.7813 L188.25,180.2969 L186.5313,180.2969 C186.0938,180.2969 185.9688,180.3125 185.8125,180.4219 C185.5625,180.5781 185.4063,180.8594 185.4063,181.1563 C185.4063,181.4063 185.5469,181.6719 185.7656,181.8281 C185.9219,181.9531 186.125,182 186.5313,182 L191.6719,182 C192.4219,182 192.7813,181.7188 192.7813,181.1563 C192.7813,180.875 192.6719,180.625 192.4375,180.4531 C192.2656,180.3281 192.125,180.2969 191.6719,180.2969 L189.9531,180.2969 L189.9531,173.7813 Z " fill="#000000"/><text fill="#000000" font-family="sans-serif" font-size="14" font-style="italic" lengthAdjust="spacing" textLength="48" x="203" y="181.8467">reader</text><line style="stroke:#181818;stroke-width:0.5;" x1="175" x2="253" y1="193" y2="193"/><line style="stroke:#181818;stroke-width:0.5;" x1="175" x2="253" y1="201" y2="201"/><ellipse cx="185" cy="214.6484" fill="#84BE84" rx="3" ry="3" style="stroke:#038048;stroke-width:1.0;"/><text fill="#000000" font-family="sans-serif" font-size="14" lengthAdjust="spacing" textLength="33" x="194" y="217.9951">run()</text></g><!--class main--><g id="elem_main"><rect codeLine="10" fill="#F1F1F1" height="64.2969" id="main" rx="2.5" ry="2.5" style="stroke:#181818;stroke-width:0.5;" width="67" x="180.5" y="7"/><ellipse cx="195.5" cy="23" fill="#E3664A" rx="11" ry="11" style="stroke:#181818;stroke-width:1.0;"/><path d="M196.4219,20.25 C194.5156,20.3906 193.2031,21.5781 193.2031,23.1563 C193.2031,24.5625 194.4063,25.7813 195.8594,25.7813 C196.0156,25.7813 196.1563,25.7656 196.4219,25.7188 L196.4219,25.7813 L197.2188,25.7813 C197.8438,25.7813 198.1563,25.5625 198.1563,25.0781 C198.1563,24.7969 198.0313,24.6094 197.7656,24.4844 L197.7656,19.7031 C197.7656,17.8125 196.4531,16.4531 194.6094,16.4531 C192.4063,16.4531 190.7969,18.5781 190.7969,21.5156 L190.7969,24.375 C190.7969,25.625 191.0781,26.8438 191.5938,27.7656 C192.3125,29.0156 193.2344,29.5781 194.6406,29.5781 C196.25,29.5781 197.6406,28.9219 197.6406,28.125 C197.6406,27.7344 197.3438,27.4219 196.9688,27.4219 C196.7656,27.4219 196.6719,27.4688 196.4375,27.7188 C196.1094,28.0469 195.4375,28.2656 194.6875,28.2656 C193.9375,28.2656 193.4063,28 193,27.4063 C192.4219,26.6094 192.1406,25.5625 192.1406,24.2656 L192.1406,21.6094 C192.1406,19.4375 193.2031,17.7969 194.6406,17.7969 C195.6875,17.7969 196.4219,18.5781 196.4219,19.7031 L196.4219,20.25 Z M196.4219,24.3594 C196.1875,24.4063 196.0938,24.4063 195.9844,24.4063 C195.1563,24.4063 194.5469,23.875 194.5469,23.1719 C194.5469,22.3438 195.2969,21.7344 196.4219,21.625 L196.4219,24.3594 Z " fill="#000000"/><text fill="#000000" font-family="sans-serif" font-size="14" lengthAdjust="spacing" textLength="35" x="209.5" y="27.8467">main</text><line style="stroke:#181818;stroke-width:0.5;" x1="181.5" x2="246.5" y1="39" y2="39"/><line style="stroke:#181818;stroke-width:0.5;" x1="181.5" x2="246.5" y1="47" y2="47"/><text fill="#000000" font-family="sans-serif" font-size="14" lengthAdjust="spacing" textLength="45" x="186.5" y="63.9951">main()</text></g><!--class istream_reader--><g id="elem_istream_reader"><rect codeLine="16" fill="#F1F1F1" height="96.8906" id="istream_reader" rx="2.5" ry="2.5" style="stroke:#181818;stroke-width:0.5;" width="155" x="136.5" y="302"/><ellipse cx="157.8" cy="318" fill="#ADD1B2" rx="11" ry="11" style="stroke:#181818;stroke-width:1.0;"/><path d="M160.1438,313.6719 C159.2063,313.2344 158.6125,313.0938 157.7375,313.0938 C155.1125,313.0938 153.1125,315.1719 153.1125,317.8906 L153.1125,319.0156 C153.1125,321.5938 155.2219,323.4844 158.1125,323.4844 C159.3313,323.4844 160.4875,323.1875 161.2375,322.6406 C161.8156,322.2344 162.1438,321.7813 162.1438,321.3906 C162.1438,320.9375 161.7531,320.5469 161.2844,320.5469 C161.0656,320.5469 160.8625,320.625 160.675,320.8125 C160.2219,321.2969 160.2219,321.2969 160.0344,321.3906 C159.6125,321.6563 158.925,321.7813 158.1594,321.7813 C156.1125,321.7813 154.8156,320.6875 154.8156,318.9844 L154.8156,317.8906 C154.8156,316.1094 156.0656,314.7969 157.8,314.7969 C158.3781,314.7969 158.9875,314.9531 159.4563,315.2031 C159.9406,315.4844 160.1125,315.7031 160.2063,316.1094 C160.2688,316.5156 160.3,316.6406 160.4406,316.7656 C160.5813,316.9063 160.8156,317.0156 161.0344,317.0156 C161.3,317.0156 161.5656,316.875 161.7375,316.6563 C161.8469,316.5 161.8781,316.3125 161.8781,315.8906 L161.8781,314.4688 C161.8781,314.0313 161.8625,313.9063 161.7688,313.75 C161.6125,313.4844 161.3313,313.3438 161.0344,313.3438 C160.7375,313.3438 160.5344,313.4375 160.3156,313.75 L160.1438,313.6719 Z " fill="#000000"/><text fill="#000000" font-family="sans-serif" font-size="14" lengthAdjust="spacing" textLength="109" x="173.2" y="322.8467">istream_reader</text><line style="stroke:#181818;stroke-width:0.5;" x1="137.5" x2="290.5" y1="334" y2="334"/><rect fill="none" height="6" style="stroke:#C82930;stroke-width:1.0;" width="6" x="144.5" y="344.6484"/><text fill="#000000" font-family="sans-serif" font-size="14" lengthAdjust="spacing" textLength="102" x="156.5" y="350.9951">input: istream</text><rect fill="none" height="6" style="stroke:#C82930;stroke-width:1.0;" width="6" x="144.5" y="360.9453"/><text fill="#000000" font-family="sans-serif" font-size="14" lengthAdjust="spacing" textLength="129" x="156.5" y="367.292">sink: parser_input</text><line style="stroke:#181818;stroke-width:0.5;" x1="137.5" x2="290.5" y1="374.5938" y2="374.5938"/><ellipse cx="147.5" cy="388.2422" fill="#84BE84" rx="3" ry="3" style="stroke:#038048;stroke-width:1.0;"/><text fill="#000000" font-family="sans-serif" font-size="14" lengthAdjust="spacing" textLength="33" x="156.5" y="391.5889">run()</text></g><!--class parser_input--><g id="elem_parser_input"><rect codeLine="24" fill="#F1F1F1" height="64.2969" id="parser_input" rx="2.5" ry="2.5" style="stroke:#181818;stroke-width:0.5;" width="138" x="7" y="468.5"/><ellipse cx="29.65" cy="484.5" fill="#B4A7E5" rx="11" ry="11" style="stroke:#181818;stroke-width:1.0;"/><path d="M30.6031,481.2813 L32.3219,481.2813 C32.7125,481.2813 32.9,481.25 33.025,481.1719 C33.2906,481.0156 33.4313,480.7344 33.4313,480.4375 C33.4313,480.1719 33.3219,479.9063 33.0875,479.7344 C32.9156,479.625 32.775,479.5938 32.3219,479.5938 L27.1813,479.5938 C26.7438,479.5938 26.6188,479.6094 26.4625,479.7031 C26.2125,479.8594 26.0563,480.1563 26.0563,480.4375 C26.0563,480.7188 26.1969,480.9688 26.4156,481.1406 C26.5719,481.25 26.7594,481.2813 27.1813,481.2813 L28.9,481.2813 L28.9,487.7969 L27.1813,487.7969 C26.7438,487.7969 26.6188,487.8125 26.4625,487.9219 C26.2125,488.0781 26.0563,488.3594 26.0563,488.6563 C26.0563,488.9063 26.1969,489.1719 26.4156,489.3281 C26.5719,489.4531 26.775,489.5 27.1813,489.5 L32.3219,489.5 C33.0719,489.5 33.4313,489.2188 33.4313,488.6563 C33.4313,488.375 33.3219,488.125 33.0875,487.9531 C32.9156,487.8281 32.775,487.7969 32.3219,487.7969 L30.6031,487.7969 L30.6031,481.2813 Z " fill="#000000"/><text fill="#000000" font-family="sans-serif" font-size="14" font-style="italic" lengthAdjust="spacing" textLength="89" x="45.35" y="489.3467">parser_input</text><line style="stroke:#181818;stroke-width:0.5;" x1="8" x2="144" y1="500.5" y2="500.5"/><line style="stroke:#181818;stroke-width:0.5;" x1="8" x2="144" y1="508.5" y2="508.5"/><ellipse cx="18" cy="522.1484" fill="#84BE84" rx="3" ry="3" style="stroke:#038048;stroke-width:1.0;"/><text fill="#000000" font-family="sans-serif" font-size="14" lengthAdjust="spacing" textLength="112" x="27" y="525.4951">consume_text()</text></g><!--class json_data_extractor--><g id="elem_json_data_extractor"><rect codeLine="28" fill="#F1F1F1" height="80.5938" id="json_data_extractor" rx="2.5" ry="2.5" style="stroke:#181818;stroke-width:0.5;" width="175" x="111.5" y="808"/><ellipse cx="126.5" cy="824" fill="#ADD1B2" rx="11" ry="11" style="stroke:#181818;stroke-width:1.0;"/><path d="M128.8438,819.6719 C127.9063,819.2344 127.3125,819.0938 126.4375,819.0938 C123.8125,819.0938 121.8125,821.1719 121.8125,823.8906 L121.8125,825.0156 C121.8125,827.5938 123.9219,829.4844 126.8125,829.4844 C128.0313,829.4844 129.1875,829.1875 129.9375,828.6406 C130.5156,828.2344 130.8438,827.7813 130.8438,827.3906 C130.8438,826.9375 130.4531,826.5469 129.9844,826.5469 C129.7656,826.5469 129.5625,826.625 129.375,826.8125 C128.9219,827.2969 128.9219,827.2969 128.7344,827.3906 C128.3125,827.6563 127.625,827.7813 126.8594,827.7813 C124.8125,827.7813 123.5156,826.6875 123.5156,824.9844 L123.5156,823.8906 C123.5156,822.1094 124.7656,820.7969 126.5,820.7969 C127.0781,820.7969 127.6875,820.9531 128.1563,821.2031 C128.6406,821.4844 128.8125,821.7031 128.9063,822.1094 C128.9688,822.5156 129,822.6406 129.1406,822.7656 C129.2813,822.9063 129.5156,823.0156 129.7344,823.0156 C130,823.0156 130.2656,822.875 130.4375,822.6563 C130.5469,822.5 130.5781,822.3125 130.5781,821.8906 L130.5781,820.4688 C130.5781,820.0313 130.5625,819.9063 130.4688,819.75 C130.3125,819.4844 130.0313,819.3438 129.7344,819.3438 C129.4375,819.3438 129.2344,819.4375 129.0156,819.75 L128.8438,819.6719 Z " fill="#000000"/><text fill="#000000" font-family="sans-serif" font-size="14" lengthAdjust="spacing" textLength="143" x="140.5" y="828.8467">json_data_extractor</text><line style="stroke:#181818;stroke-width:0.5;" x1="112.5" x2="285.5" y1="840" y2="840"/><rect fill="none" height="6" style="stroke:#C82930;stroke-width:1.0;" width="6" x="119.5" y="850.6484"/><text fill="#000000" font-family="sans-serif" font-size="14" lengthAdjust="spacing" textLength="125" x="131.5" y="856.9951">sink: stream_sink</text><line style="stroke:#181818;stroke-width:0.5;" x1="112.5" x2="285.5" y1="864.2969" y2="864.2969"/><ellipse cx="122.5" cy="877.9453" fill="#84BE84" rx="3" ry="3" style="stroke:#038048;stroke-width:1.0;"/><text fill="#000000" font-family="sans-serif" font-size="14" lengthAdjust="spacing" textLength="112" x="131.5" y="881.292">consume_text()</text></g><!--class stream_sink--><g id="elem_stream_sink"><rect codeLine="38" fill="#F1F1F1" height="64.2969" id="stream_sink" rx="2.5" ry="2.5" style="stroke:#181818;stroke-width:0.5;" width="162" x="258" y="642.5"/><ellipse cx="293.25" cy="658.5" fill="#B4A7E5" rx="11" ry="11" style="stroke:#181818;stroke-width:1.0;"/><path d="M294.2031,655.2813 L295.9219,655.2813 C296.3125,655.2813 296.5,655.25 296.625,655.1719 C296.8906,655.0156 297.0313,654.7344 297.0313,654.4375 C297.0313,654.1719 296.9219,653.9063 296.6875,653.7344 C296.5156,653.625 296.375,653.5938 295.9219,653.5938 L290.7813,653.5938 C290.3438,653.5938 290.2188,653.6094 290.0625,653.7031 C289.8125,653.8594 289.6563,654.1563 289.6563,654.4375 C289.6563,654.7188 289.7969,654.9688 290.0156,655.1406 C290.1719,655.25 290.3594,655.2813 290.7813,655.2813 L292.5,655.2813 L292.5,661.7969 L290.7813,661.7969 C290.3438,661.7969 290.2188,661.8125 290.0625,661.9219 C289.8125,662.0781 289.6563,662.3594 289.6563,662.6563 C289.6563,662.9063 289.7969,663.1719 290.0156,663.3281 C290.1719,663.4531 290.375,663.5 290.7813,663.5 L295.9219,663.5 C296.6719,663.5 297.0313,663.2188 297.0313,662.6563 C297.0313,662.375 296.9219,662.125 296.6875,661.9531 C296.5156,661.8281 296.375,661.7969 295.9219,661.7969 L294.2031,661.7969 L294.2031,655.2813 Z " fill="#000000"/><text fill="#000000" font-family="sans-serif" font-size="14" font-style="italic" lengthAdjust="spacing" textLength="85" x="311.75" y="663.3467">stream_sink</text><line style="stroke:#181818;stroke-width:0.5;" x1="259" x2="419" y1="674.5" y2="674.5"/><line style="stroke:#181818;stroke-width:0.5;" x1="259" x2="419" y1="682.5" y2="682.5"/><ellipse cx="269" cy="696.1484" fill="#84BE84" rx="3" ry="3" style="stroke:#038048;stroke-width:1.0;"/><text fill="#000000" font-family="sans-serif" font-size="14" lengthAdjust="spacing" textLength="136" x="278" y="699.4951">void consume(Info)</text></g><!--class stream_sink_factory--><g id="elem_stream_sink_factory"><rect codeLine="42" fill="#F1F1F1" height="80.5938" id="stream_sink_factory" rx="2.5" ry="2.5" style="stroke:#181818;stroke-width:0.5;" width="230" x="251" y="460"/><ellipse cx="291.2" cy="476" fill="#B4A7E5" rx="11" ry="11" style="stroke:#181818;stroke-width:1.0;"/><path d="M292.1531,472.7813 L293.8719,472.7813 C294.2625,472.7813 294.45,472.75 294.575,472.6719 C294.8406,472.5156 294.9813,472.2344 294.9813,471.9375 C294.9813,471.6719 294.8719,471.4063 294.6375,471.2344 C294.4656,471.125 294.325,471.0938 293.8719,471.0938 L288.7313,471.0938 C288.2938,471.0938 288.1688,471.1094 288.0125,471.2031 C287.7625,471.3594 287.6063,471.6563 287.6063,471.9375 C287.6063,472.2188 287.7469,472.4688 287.9656,472.6406 C288.1219,472.75 288.3094,472.7813 288.7313,472.7813 L290.45,472.7813 L290.45,479.2969 L288.7313,479.2969 C288.2938,479.2969 288.1688,479.3125 288.0125,479.4219 C287.7625,479.5781 287.6063,479.8594 287.6063,480.1563 C287.6063,480.4063 287.7469,480.6719 287.9656,480.8281 C288.1219,480.9531 288.325,481 288.7313,481 L293.8719,481 C294.6219,481 294.9813,480.7188 294.9813,480.1563 C294.9813,479.875 294.8719,479.625 294.6375,479.4531 C294.4656,479.3281 294.325,479.2969 293.8719,479.2969 L292.1531,479.2969 L292.1531,472.7813 Z " fill="#000000"/><text fill="#000000" font-family="sans-serif" font-size="14" font-style="italic" lengthAdjust="spacing" textLength="142" x="310.8" y="480.8467">stream_sink_factory</text><line style="stroke:#181818;stroke-width:0.5;" x1="252" x2="480" y1="492" y2="492"/><line style="stroke:#181818;stroke-width:0.5;" x1="252" x2="480" y1="500" y2="500"/><ellipse cx="262" cy="513.6484" fill="#84BE84" rx="3" ry="3" style="stroke:#038048;stroke-width:1.0;"/><text fill="#000000" font-family="sans-serif" font-size="14" lengthAdjust="spacing" textLength="204" x="271" y="516.9951">make_stream(): stream_sink</text><ellipse cx="262" cy="529.9453" fill="#84BE84" rx="3" ry="3" style="stroke:#038048;stroke-width:1.0;"/><text fill="#000000" font-family="sans-serif" font-size="14" lengthAdjust="spacing" textLength="61" x="271" y="533.292">update()</text></g><!--class text_tree_sink--><g id="elem_text_tree_sink"><rect codeLine="53" fill="#F1F1F1" height="80.5938" id="text_tree_sink" rx="2.5" ry="2.5" style="stroke:#181818;stroke-width:0.5;" width="248" x="275" y="966"/><ellipse cx="342.25" cy="982" fill="#ADD1B2" rx="11" ry="11" style="stroke:#181818;stroke-width:1.0;"/><path d="M344.5938,977.6719 C343.6563,977.2344 343.0625,977.0938 342.1875,977.0938 C339.5625,977.0938 337.5625,979.1719 337.5625,981.8906 L337.5625,983.0156 C337.5625,985.5938 339.6719,987.4844 342.5625,987.4844 C343.7813,987.4844 344.9375,987.1875 345.6875,986.6406 C346.2656,986.2344 346.5938,985.7813 346.5938,985.3906 C346.5938,984.9375 346.2031,984.5469 345.7344,984.5469 C345.5156,984.5469 345.3125,984.625 345.125,984.8125 C344.6719,985.2969 344.6719,985.2969 344.4844,985.3906 C344.0625,985.6563 343.375,985.7813 342.6094,985.7813 C340.5625,985.7813 339.2656,984.6875 339.2656,982.9844 L339.2656,981.8906 C339.2656,980.1094 340.5156,978.7969 342.25,978.7969 C342.8281,978.7969 343.4375,978.9531 343.9063,979.2031 C344.3906,979.4844 344.5625,979.7031 344.6563,980.1094 C344.7188,980.5156 344.75,980.6406 344.8906,980.7656 C345.0313,980.9063 345.2656,981.0156 345.4844,981.0156 C345.75,981.0156 346.0156,980.875 346.1875,980.6563 C346.2969,980.5 346.3281,980.3125 346.3281,979.8906 L346.3281,978.4688 C346.3281,978.0313 346.3125,977.9063 346.2188,977.75 C346.0625,977.4844 345.7813,977.3438 345.4844,977.3438 C345.1875,977.3438 344.9844,977.4375 344.7656,977.75 L344.5938,977.6719 Z " fill="#000000"/><text fill="#000000" font-family="sans-serif" font-size="14" lengthAdjust="spacing" textLength="105" x="362.75" y="986.8467">text_tree_sink</text><line style="stroke:#181818;stroke-width:0.5;" x1="276" x2="522" y1="998" y2="998"/><rect fill="none" height="6" style="stroke:#C82930;stroke-width:1.0;" width="6" x="283" y="1008.6484"/><text fill="#000000" font-family="sans-serif" font-size="14" lengthAdjust="spacing" textLength="222" x="295" y="1014.9951">parent: text_tree_sink_factory</text><line style="stroke:#181818;stroke-width:0.5;" x1="276" x2="522" y1="1022.2969" y2="1022.2969"/><ellipse cx="286" cy="1035.9453" fill="#84BE84" rx="3" ry="3" style="stroke:#038048;stroke-width:1.0;"/><text fill="#000000" font-family="sans-serif" font-size="14" lengthAdjust="spacing" textLength="102" x="295" y="1039.292">consume(Info)</text></g><!--class text_tree_sink_factory--><g id="elem_text_tree_sink_factory"><rect codeLine="60" fill="#F1F1F1" height="113.1875" id="text_tree_sink_factory" rx="2.5" ry="2.5" style="stroke:#181818;stroke-width:0.5;" width="230" x="455" y="618"/><ellipse cx="485.3" cy="634" fill="#ADD1B2" rx="11" ry="11" style="stroke:#181818;stroke-width:1.0;"/><path d="M487.6438,629.6719 C486.7063,629.2344 486.1125,629.0938 485.2375,629.0938 C482.6125,629.0938 480.6125,631.1719 480.6125,633.8906 L480.6125,635.0156 C480.6125,637.5938 482.7219,639.4844 485.6125,639.4844 C486.8313,639.4844 487.9875,639.1875 488.7375,638.6406 C489.3156,638.2344 489.6438,637.7813 489.6438,637.3906 C489.6438,636.9375 489.2531,636.5469 488.7844,636.5469 C488.5656,636.5469 488.3625,636.625 488.175,636.8125 C487.7219,637.2969 487.7219,637.2969 487.5344,637.3906 C487.1125,637.6563 486.425,637.7813 485.6594,637.7813 C483.6125,637.7813 482.3156,636.6875 482.3156,634.9844 L482.3156,633.8906 C482.3156,632.1094 483.5656,630.7969 485.3,630.7969 C485.8781,630.7969 486.4875,630.9531 486.9563,631.2031 C487.4406,631.4844 487.6125,631.7031 487.7063,632.1094 C487.7688,632.5156 487.8,632.6406 487.9406,632.7656 C488.0813,632.9063 488.3156,633.0156 488.5344,633.0156 C488.8,633.0156 489.0656,632.875 489.2375,632.6563 C489.3469,632.5 489.3781,632.3125 489.3781,631.8906 L489.3781,630.4688 C489.3781,630.0313 489.3625,629.9063 489.2688,629.75 C489.1125,629.4844 488.8313,629.3438 488.5344,629.3438 C488.2375,629.3438 488.0344,629.4375 487.8156,629.75 L487.6438,629.6719 Z " fill="#000000"/><text fill="#000000" font-family="sans-serif" font-size="14" lengthAdjust="spacing" textLength="164" x="502.7" y="638.8467">text_tree_sink_factory</text><line style="stroke:#181818;stroke-width:0.5;" x1="456" x2="684" y1="650" y2="650"/><rect fill="none" height="6" style="stroke:#C82930;stroke-width:1.0;" width="6" x="463" y="660.6484"/><text fill="#000000" font-family="sans-serif" font-size="14" lengthAdjust="spacing" textLength="145" x="475" y="666.9951">output: text_output</text><line style="stroke:#181818;stroke-width:0.5;" x1="456" x2="684" y1="674.2969" y2="674.2969"/><rect fill="#F24D5C" height="6" style="stroke:#C82930;stroke-width:1.0;" width="6" x="463" y="684.9453"/><text fill="#000000" font-family="sans-serif" font-size="14" lengthAdjust="spacing" textLength="47" x="475" y="691.292">write()</text><ellipse cx="466" cy="704.2422" fill="#84BE84" rx="3" ry="3" style="stroke:#038048;stroke-width:1.0;"/><text fill="#000000" font-family="sans-serif" font-size="14" lengthAdjust="spacing" textLength="204" x="475" y="707.5889">make_stream(): stream_sink</text><ellipse cx="466" cy="720.5391" fill="#84BE84" rx="3" ry="3" style="stroke:#038048;stroke-width:1.0;"/><text fill="#000000" font-family="sans-serif" font-size="14" lengthAdjust="spacing" textLength="61" x="475" y="723.8857">update()</text></g><!--class text_output--><g id="elem_text_output"><rect codeLine="70" fill="#F1F1F1" height="80.5938" id="text_output" rx="2.5" ry="2.5" style="stroke:#181818;stroke-width:0.5;" width="115" x="516.5" y="460"/><ellipse cx="532.85" cy="476" fill="#B4A7E5" rx="11" ry="11" style="stroke:#181818;stroke-width:1.0;"/><path d="M533.8031,472.7813 L535.5219,472.7813 C535.9125,472.7813 536.1,472.75 536.225,472.6719 C536.4906,472.5156 536.6313,472.2344 536.6313,471.9375 C536.6313,471.6719 536.5219,471.4063 536.2875,471.2344 C536.1156,471.125 535.975,471.0938 535.5219,471.0938 L530.3813,471.0938 C529.9438,471.0938 529.8188,471.1094 529.6625,471.2031 C529.4125,471.3594 529.2563,471.6563 529.2563,471.9375 C529.2563,472.2188 529.3969,472.4688 529.6156,472.6406 C529.7719,472.75 529.9594,472.7813 530.3813,472.7813 L532.1,472.7813 L532.1,479.2969 L530.3813,479.2969 C529.9438,479.2969 529.8188,479.3125 529.6625,479.4219 C529.4125,479.5781 529.2563,479.8594 529.2563,480.1563 C529.2563,480.4063 529.3969,480.6719 529.6156,480.8281 C529.7719,480.9531 529.975,481 530.3813,481 L535.5219,481 C536.2719,481 536.6313,480.7188 536.6313,480.1563 C536.6313,479.875 536.5219,479.625 536.2875,479.4531 C536.1156,479.3281 535.975,479.2969 535.5219,479.2969 L533.8031,479.2969 L533.8031,472.7813 Z " fill="#000000"/><text fill="#000000" font-family="sans-serif" font-size="14" font-style="italic" lengthAdjust="spacing" textLength="80" x="547.15" y="480.8467">text_output</text><line style="stroke:#181818;stroke-width:0.5;" x1="517.5" x2="630.5" y1="492" y2="492"/><line style="stroke:#181818;stroke-width:0.5;" x1="517.5" x2="630.5" y1="500" y2="500"/><ellipse cx="527.5" cy="513.6484" fill="#84BE84" rx="3" ry="3" style="stroke:#038048;stroke-width:1.0;"/><text fill="#000000" font-family="sans-serif" font-size="14" lengthAdjust="spacing" textLength="89" x="536.5" y="516.9951">write(string)</text><ellipse cx="527.5" cy="529.9453" fill="#84BE84" rx="3" ry="3" style="stroke:#038048;stroke-width:1.0;"/><text fill="#000000" font-family="sans-serif" font-size="14" lengthAdjust="spacing" textLength="44" x="536.5" y="533.292">flush()</text></g><!--class ostream_output--><g id="elem_ostream_output"><rect codeLine="77" fill="#F1F1F1" height="96.8906" id="ostream_output" rx="2.5" ry="2.5" style="stroke:#181818;stroke-width:0.5;" width="148" x="500" y="302"/><ellipse cx="515" cy="318" fill="#ADD1B2" rx="11" ry="11" style="stroke:#181818;stroke-width:1.0;"/><path d="M517.3438,313.6719 C516.4063,313.2344 515.8125,313.0938 514.9375,313.0938 C512.3125,313.0938 510.3125,315.1719 510.3125,317.8906 L510.3125,319.0156 C510.3125,321.5938 512.4219,323.4844 515.3125,323.4844 C516.5313,323.4844 517.6875,323.1875 518.4375,322.6406 C519.0156,322.2344 519.3438,321.7813 519.3438,321.3906 C519.3438,320.9375 518.9531,320.5469 518.4844,320.5469 C518.2656,320.5469 518.0625,320.625 517.875,320.8125 C517.4219,321.2969 517.4219,321.2969 517.2344,321.3906 C516.8125,321.6563 516.125,321.7813 515.3594,321.7813 C513.3125,321.7813 512.0156,320.6875 512.0156,318.9844 L512.0156,317.8906 C512.0156,316.1094 513.2656,314.7969 515,314.7969 C515.5781,314.7969 516.1875,314.9531 516.6563,315.2031 C517.1406,315.4844 517.3125,315.7031 517.4063,316.1094 C517.4688,316.5156 517.5,316.6406 517.6406,316.7656 C517.7813,316.9063 518.0156,317.0156 518.2344,317.0156 C518.5,317.0156 518.7656,316.875 518.9375,316.6563 C519.0469,316.5 519.0781,316.3125 519.0781,315.8906 L519.0781,314.4688 C519.0781,314.0313 519.0625,313.9063 518.9688,313.75 C518.8125,313.4844 518.5313,313.3438 518.2344,313.3438 C517.9375,313.3438 517.7344,313.4375 517.5156,313.75 L517.3438,313.6719 Z " fill="#000000"/><text fill="#000000" font-family="sans-serif" font-size="14" lengthAdjust="spacing" textLength="116" x="529" y="322.8467">ostream_output</text><line style="stroke:#181818;stroke-width:0.5;" x1="501" x2="647" y1="334" y2="334"/><rect fill="none" height="6" style="stroke:#C82930;stroke-width:1.0;" width="6" x="508" y="344.6484"/><text fill="#000000" font-family="sans-serif" font-size="14" lengthAdjust="spacing" textLength="118" x="520" y="350.9951">output: ostream</text><line style="stroke:#181818;stroke-width:0.5;" x1="501" x2="647" y1="358.2969" y2="358.2969"/><ellipse cx="511" cy="371.9453" fill="#84BE84" rx="3" ry="3" style="stroke:#038048;stroke-width:1.0;"/><text fill="#000000" font-family="sans-serif" font-size="14" lengthAdjust="spacing" textLength="89" x="520" y="375.292">write(string)</text><ellipse cx="511" cy="388.2422" fill="#84BE84" rx="3" ry="3" style="stroke:#038048;stroke-width:1.0;"/><text fill="#000000" font-family="sans-serif" font-size="14" lengthAdjust="spacing" textLength="44" x="520" y="391.5889">flush()</text></g><!--link main to reader--><g id="link_main_reader"><path codeLine="14" d="M214,71.126 C214,97.356 214,128.697 214,154.915 " fill="none" id="main-to-reader" style="stroke:#181818;stroke-width:1.0;"/><polygon fill="#181818" points="214,160.915,218,151.915,214,155.915,210,151.915,214,160.915" style="stroke:#181818;stroke-width:1.0;"/><text fill="#000000" font-family="sans-serif" font-size="13" lengthAdjust="spacing" textLength="52" x="215" y="114.0669">execute</text></g><!--reverse link reader to istream_reader--><g id="link_reader_istream_reader"><path codeLine="22" d="M214,243.094 C214,265.074 214,276.949 214,301.914 " fill="none" id="reader-backto-istream_reader" style="stroke:#181818;stroke-width:1.0;"/><polygon fill="none" points="214,225.094,208,243.094,220,243.094,214,225.094" style="stroke:#181818;stroke-width:1.0;"/></g><!--reverse link parser_input to json_data_extractor--><g id="link_parser_input_json_data_extractor"><path codeLine="33" d="M92.1601,549.7947 C109.4067,601.1577 139.469,689.53 172,778 C175.574,787.719 179.551,798.151 183.33,807.901 " fill="none" id="parser_input-backto-json_data_extractor" style="stroke:#181818;stroke-width:1.0;"/><polygon fill="none" points="86.4305,532.731,86.4722,551.7046,97.8481,547.8849,86.4305,532.731" style="stroke:#181818;stroke-width:1.0;"/></g><!--link istream_reader to parser_input--><g id="link_istream_reader_parser_input"><path codeLine="35" d="M161.3924,407.9196 C140.2764,430.5656 127.9027,443.8356 109.2051,463.8886 " fill="none" id="istream_reader-parser_input" style="stroke:#181818;stroke-width:1.0;"/><polygon fill="none" points="169.576,399.143,162.5587,400.8034,161.3924,407.9196,168.4097,406.2592,169.576,399.143" style="stroke:#181818;stroke-width:1.0;"/><polygon fill="#181818" points="105.1134,468.277,114.1766,464.4223,108.5232,464.62,108.3254,458.9666,105.1134,468.277" style="stroke:#181818;stroke-width:1.0;"/></g><!--link stream_sink_factory to stream_sink--><g id="link_stream_sink_factory_stream_sink"><path codeLine="47" d="M359.738,541.393 C354.909,572.157 349.2554,608.1696 344.8124,636.4746 " fill="none" id="stream_sink_factory-to-stream_sink" style="stroke:#181818;stroke-width:1.0;stroke-dasharray:7.0,7.0;"/><polygon fill="#181818" points="343.882,642.402,349.2292,634.1311,344.6573,637.4625,341.326,632.8906,343.882,642.402" style="stroke:#181818;stroke-width:1.0;"/><text fill="#000000" font-family="sans-serif" font-size="13" lengthAdjust="spacing" textLength="68" x="356" y="584.0669">instantiate</text></g><!--link istream_reader to stream_sink_factory--><g id="link_istream_reader_stream_sink_factory"><path codeLine="49" d="M271.5279,407.5142 C291.6629,427.1182 301.8162,437.0053 321.0052,455.6893 " fill="none" id="istream_reader-stream_sink_factory" style="stroke:#181818;stroke-width:1.0;"/><polygon fill="none" points="262.93,399.143,264.4386,406.1945,271.5279,407.5142,270.0193,400.4626,262.93,399.143" style="stroke:#181818;stroke-width:1.0;"/><polygon fill="#181818" points="325.304,459.875,321.6462,450.7306,321.7216,456.3869,316.0653,456.4623,325.304,459.875" style="stroke:#181818;stroke-width:1.0;"/></g><!--link stream_sink to json_data_extractor--><g id="link_stream_sink_json_data_extractor"><path codeLine="51" d="M309.8594,711.3014 C286.7714,739.6664 263.9264,767.7333 238.8854,798.4973 " fill="none" id="stream_sink-json_data_extractor" style="stroke:#181818;stroke-width:1.0;"/><polygon fill="#181818" points="313.647,706.648,304.8633,711.1029,310.4906,710.5258,311.0678,716.1531,313.647,706.648" style="stroke:#181818;stroke-width:1.0;"/><polygon fill="none" points="231.31,807.804,238.1999,805.6758,238.8854,798.4973,231.9955,800.6255,231.31,807.804" style="stroke:#181818;stroke-width:1.0;"/><text fill="#000000" font-family="sans-serif" font-size="13" lengthAdjust="spacing" textLength="23" x="270" y="774.0669">use</text></g><!--link stream_sink to text_tree_sink--><g id="link_stream_sink_text_tree_sink"><path codeLine="58" d="M344.645,706.546 C355.599,766.794 376.502,881.7604 388.586,948.221 " fill="none" id="stream_sink-to-text_tree_sink" style="stroke:#181818;stroke-width:1.0;"/><polygon fill="none" points="391.806,965.9306,394.4892,947.1476,382.6828,949.2943,391.806,965.9306" style="stroke:#181818;stroke-width:1.0;"/></g><!--link stream_sink_factory to text_tree_sink_factory--><g id="link_stream_sink_factory_text_tree_sink_factory"><path codeLine="67" d="M413.058,541.176 C440.004,563.895 460.4805,581.1603 490.0965,606.1303 " fill="none" id="stream_sink_factory-to-text_tree_sink_factory" style="stroke:#181818;stroke-width:1.0;"/><polygon fill="none" points="503.858,617.733,493.9641,601.5432,486.229,610.7175,503.858,617.733" style="stroke:#181818;stroke-width:1.0;"/></g><!--link text_tree_sink_factory to text_tree_sink--><g id="link_text_tree_sink_factory_text_tree_sink"><path codeLine="68" d="M570.778,731.095 C569.119,776.312 561.393,840.364 534,889 C516.757,919.615 493.0594,942.3738 466.6844,962.2426 " fill="none" id="text_tree_sink_factory-to-text_tree_sink" style="stroke:#181818;stroke-width:1.0;stroke-dasharray:7.0,7.0;"/><polygon fill="#181818" points="461.892,965.8528,471.4873,963.6324,465.8856,962.8443,466.6737,957.2426,461.892,965.8528" style="stroke:#181818;stroke-width:1.0;"/></g><!--reverse link text_tree_sink_factory to text_tree_sink--><g id="link_text_tree_sink_factory_text_tree_sink"><path codeLine="88" d="M535.066,736.4583 C521.783,759.9943 509.337,782.565 496,808 C467.617,862.131 436.822,925.746 417.717,965.8461 " fill="none" id="text_tree_sink_factory-backto-text_tree_sink" style="stroke:#FF0000;stroke-width:8.0;"/><polygon fill="#FF0000" points="538.015,731.233,530.108,737.1049,535.5575,735.5874,537.075,741.0369,538.015,731.233" style="stroke:#FF0000;stroke-width:8.0;"/><text fill="#000000" font-family="sans-serif" font-size="13" lengthAdjust="spacing" textLength="32" x="497" y="853.0669">write</text></g><!--link text_output to text_tree_sink_factory--><g id="link_text_output_text_tree_sink_factory"><path codeLine="75" d="M572.9326,547.3914 C572.4046,570.1164 572.1517,580.9462 571.5727,605.8672 " fill="none" id="text_output-text_tree_sink_factory" style="stroke:#181818;stroke-width:1.0;"/><polygon fill="#181818" points="573.072,541.393,568.864,550.2977,572.9559,546.3917,576.8619,550.4835,573.072,541.393" style="stroke:#181818;stroke-width:1.0;"/><polygon fill="none" points="571.294,617.864,575.4323,611.9585,571.5727,605.8672,567.4344,611.7727,571.294,617.864" style="stroke:#181818;stroke-width:1.0;"/><text fill="#000000" font-family="sans-serif" font-size="13" lengthAdjust="spacing" textLength="23" x="574" y="584.0669">use</text></g><!--link ostream_output to text_output--><g id="link_ostream_output_text_output"><path codeLine="83" d="M574,399.143 C574,418.747 574,423.191 574,441.875 " fill="none" id="ostream_output-to-text_output" style="stroke:#181818;stroke-width:1.0;"/><polygon fill="none" points="574,459.875,580,441.875,568,441.875,574,459.875" style="stroke:#181818;stroke-width:1.0;"/></g><!--link istream to istream_reader--><g id="link_istream_istream_reader"><path codeLine="85" d="M371.304,217.28 C344.794,239.563 308.6061,269.9804 275.2101,298.0504 " fill="none" id="istream-to-istream_reader" style="stroke:#FF0000;stroke-width:8.0;"/><polygon fill="#FF0000" points="270.617,301.911,280.0803,299.1822,274.4445,298.6939,274.9329,293.0581,270.617,301.911" style="stroke:#FF0000;stroke-width:8.0;"/><text fill="#000000" font-family="sans-serif" font-size="13" lengthAdjust="spacing" textLength="29" x="325" y="268.0669">read</text></g><!--link istream_reader to json_data_extractor--><g id="link_istream_reader_json_data_extractor"><path codeLine="86" d="M212.562,399.059 C209.614,496.532 203.1164,711.3947 200.3824,801.7967 " fill="none" id="istream_reader-to-json_data_extractor" style="stroke:#FF0000;stroke-width:8.0;"/><polygon fill="#FF0000" points="200.201,807.794,204.4712,798.919,200.3521,802.7963,196.4749,798.6772,200.201,807.794" style="stroke:#FF0000;stroke-width:8.0;"/><text fill="#000000" font-family="sans-serif" font-size="13" lengthAdjust="spacing" textLength="92" x="209" y="584.0669">consume_text</text></g><!--link json_data_extractor to text_tree_sink--><g id="link_json_data_extractor_text_tree_sink"><path codeLine="87" d="M218.469,889.109 C227.829,905.179 240.244,922.98 255,936 C267.906,947.3868 277.7525,954.4363 293.2285,962.9743 " fill="none" id="json_data_extractor-to-text_tree_sink" style="stroke:#FF0000;stroke-width:8.0;"/><polygon fill="#FF0000" points="298.482,965.8726,292.5339,958.0227,294.1041,963.4573,288.6695,965.0274,298.482,965.8726" style="stroke:#FF0000;stroke-width:8.0;"/><text fill="#000000" font-family="sans-serif" font-size="13" lengthAdjust="spacing" textLength="59" x="256" y="932.0669">consume</text></g><!--reverse link ostream_output to text_tree_sink_factory--><g id="link_ostream_output_text_tree_sink_factory"><path codeLine="89" d="M619.7724,404.0102 C632.9364,421.8432 642.214,438.249 649,460 C659.722,494.366 658.561,506.293 649,541 C641.531,568.111 626.899,595.273 612.236,617.883 " fill="none" id="ostream_output-backto-text_tree_sink_factory" style="stroke:#FF0000;stroke-width:8.0;"/><polygon fill="#FF0000" points="616.209,399.183,618.3359,408.7995,619.1785,403.2057,624.7722,404.0483,616.209,399.183" style="stroke:#FF0000;stroke-width:8.0;"/><text fill="#000000" font-family="sans-serif" font-size="13" lengthAdjust="spacing" textLength="32" x="658" y="505.0669">write</text></g><!--reverse link ostream to ostream_output--><g id="link_ostream_ostream_output"><path codeLine="90" d="M533.3224,222.9921 C540.4864,245.2751 549.672,273.841 558.698,301.911 " fill="none" id="ostream-backto-ostream_output" style="stroke:#FF0000;stroke-width:8.0;"/><polygon fill="#FF0000" points="531.486,217.28,530.4326,227.0724,533.0164,222.04,538.0487,224.6238,531.486,217.28" style="stroke:#FF0000;stroke-width:8.0;"/><text fill="#000000" font-family="sans-serif" font-size="13" lengthAdjust="spacing" textLength="32" x="550" y="268.0669">write</text></g><!--SRC=[fLHBReCm4Drp2alT96gTTONIx7k6ga8M38sRC4QsQLCbkNlz8M0xfflkmEFtcJS3o3fGFQk1S47EHNraIX6kj0JMaVDrF13pmRKeE6gGhSMOmmQamH7oA0TShMsP8GhDD1T8EiRHLUs3hxeZIdStR4dW1FMWeOZ5gu2RSkm7NTvAzaHnF9IaPrA1h5mvyZ22jnTA4yBGVWZtJTG2rT11fU6aFPCtzQa4LWtJh385oMejHcVUnwXWN_8iaP9pbM4qrkBUXSqfwZ5q7uXwyr-2DsJKNhrYAzRnj090rJh57m_is04gNrsjxxePUcCJV1yvYirc5tanSqAb6MhEx5HpFMLe8cwofLHaGo_9eAPLiVbM1WLp2DJ41MXs9QvDAlDqveH2OKelkmIRLuiIf6BGRaFT7VzYZxybTydzE-EChQcb1LzsB6aZyou4HlqEUAj6c-E7CzmU1xNtZiBBRZ8Baj5mndz6A3B59AOF-K_TX68EOKpujbk4lZr8Q9xqdjS71ALUdj_DbYMRLxfVJhgFUMX-zSBlkiXToPCbQphnB4rkcw6v9t71fH7be7HvN1770ZXH646_]--></g></svg>
