<?xml version="1.0" encoding="us-ascii" standalone="no"?><svg xmlns="http://www.w3.org/2000/svg" xmlns:xlink="http://www.w3.org/1999/xlink" contentStyleType="text/css" height="1069px" preserveAspectRatio="none" style="width:759px;height:1069px;background:#FFFFFF;" version="1.1" viewBox="0 0 759 1069" width="759px" zoomAndPan="magnify"><defs/><g><!--cluster network--><g id="cluster_network"><path d="M348.0849,134 L415.0849,134 A3.75,3.75 0 0 1 417.5849,136.5 L424.5849,156.2969 L577.0849,156.2969 A2.5,2.5 0 0 1 579.5849,158.7969 L579.5849,230.5 A2.5,2.5 0 0 1 577.0849,233 L348.0849,233 A2.5,2.5 0 0 1 345.5849,230.5 L345.5849,136.5 A2.5,2.5 0 0 1 348.0849,134 " fill="lightgray" style="stroke:#000000;stroke-width:1.5;"/><line style="stroke:#000000;stroke-width:1.5;" x1="345.5849" x2="424.5849" y1="156.2969" y2="156.2969"/><text fill="#000000" font-family="sans-serif" font-size="14" font-weight="bold" lengthAdjust="spacing" textLength="66" x="349.5849" y="148.9951">network</text></g><!--class isocket--><g id="elem_isocket"><rect codeLine="2" fill="#F1F1F1" height="48" id="isocket" rx="2.5" ry="2.5" style="stroke:#181818;stroke-width:0.5;" width="83" x="362.0849" y="169"/><ellipse cx="377.0849" cy="185" fill="#ADD1B2" rx="11" ry="11" style="stroke:#181818;stroke-width:1.0;"/><path d="M379.4286,180.6719 C378.4911,180.2344 377.8974,180.0938 377.0224,180.0938 C374.3974,180.0938 372.3974,182.1719 372.3974,184.8906 L372.3974,186.0156 C372.3974,188.5938 374.5068,190.4844 377.3974,190.4844 C378.6161,190.4844 379.7724,190.1875 380.5224,189.6406 C381.1005,189.2344 381.4286,188.7813 381.4286,188.3906 C381.4286,187.9375 381.038,187.5469 380.5693,187.5469 C380.3505,187.5469 380.1474,187.625 379.9599,187.8125 C379.5068,188.2969 379.5068,188.2969 379.3193,188.3906 C378.8974,188.6563 378.2099,188.7813 377.4443,188.7813 C375.3974,188.7813 374.1005,187.6875 374.1005,185.9844 L374.1005,184.8906 C374.1005,183.1094 375.3505,181.7969 377.0849,181.7969 C377.663,181.7969 378.2724,181.9531 378.7411,182.2031 C379.2255,182.4844 379.3974,182.7031 379.4911,183.1094 C379.5536,183.5156 379.5849,183.6406 379.7255,183.7656 C379.8661,183.9063 380.1005,184.0156 380.3193,184.0156 C380.5849,184.0156 380.8505,183.875 381.0224,183.6563 C381.1318,183.5 381.163,183.3125 381.163,182.8906 L381.163,181.4688 C381.163,181.0313 381.1474,180.9063 381.0536,180.75 C380.8974,180.4844 380.6161,180.3438 380.3193,180.3438 C380.0224,180.3438 379.8193,180.4375 379.6005,180.75 L379.4286,180.6719 Z " fill="#000000"/><text fill="#000000" font-family="sans-serif" font-size="14" lengthAdjust="spacing" textLength="51" x="391.0849" y="189.8467">Socket</text><line style="stroke:#181818;stroke-width:0.5;" x1="363.0849" x2="444.0849" y1="201" y2="201"/><line style="stroke:#181818;stroke-width:0.5;" x1="363.0849" x2="444.0849" y1="209" y2="209"/></g><!--class osocket--><g id="elem_osocket"><rect codeLine="3" fill="#F1F1F1" height="48" id="osocket" rx="2.5" ry="2.5" style="stroke:#181818;stroke-width:0.5;" width="83" x="480.0849" y="169"/><ellipse cx="495.0849" cy="185" fill="#ADD1B2" rx="11" ry="11" style="stroke:#181818;stroke-width:1.0;"/><path d="M497.4286,180.6719 C496.4911,180.2344 495.8974,180.0938 495.0224,180.0938 C492.3974,180.0938 490.3974,182.1719 490.3974,184.8906 L490.3974,186.0156 C490.3974,188.5938 492.5068,190.4844 495.3974,190.4844 C496.6161,190.4844 497.7724,190.1875 498.5224,189.6406 C499.1005,189.2344 499.4286,188.7813 499.4286,188.3906 C499.4286,187.9375 499.038,187.5469 498.5693,187.5469 C498.3505,187.5469 498.1474,187.625 497.9599,187.8125 C497.5068,188.2969 497.5068,188.2969 497.3193,188.3906 C496.8974,188.6563 496.2099,188.7813 495.4443,188.7813 C493.3974,188.7813 492.1005,187.6875 492.1005,185.9844 L492.1005,184.8906 C492.1005,183.1094 493.3505,181.7969 495.0849,181.7969 C495.663,181.7969 496.2724,181.9531 496.7411,182.2031 C497.2255,182.4844 497.3974,182.7031 497.4911,183.1094 C497.5536,183.5156 497.5849,183.6406 497.7255,183.7656 C497.8661,183.9063 498.1005,184.0156 498.3193,184.0156 C498.5849,184.0156 498.8505,183.875 499.0224,183.6563 C499.1318,183.5 499.163,183.3125 499.163,182.8906 L499.163,181.4688 C499.163,181.0313 499.1474,180.9063 499.0536,180.75 C498.8974,180.4844 498.6161,180.3438 498.3193,180.3438 C498.0224,180.3438 497.8193,180.4375 497.6005,180.75 L497.4286,180.6719 Z " fill="#000000"/><text fill="#000000" font-family="sans-serif" font-size="14" lengthAdjust="spacing" textLength="51" x="509.0849" y="189.8467">Socket</text><line style="stroke:#181818;stroke-width:0.5;" x1="481.0849" x2="562.0849" y1="201" y2="201"/><line style="stroke:#181818;stroke-width:0.5;" x1="481.0849" x2="562.0849" y1="209" y2="209"/></g><!--class reader--><g id="elem_reader"><rect codeLine="6" fill="#F1F1F1" height="64.2969" id="reader" rx="2.5" ry="2.5" style="stroke:#181818;stroke-width:0.5;" width="80" x="178.5849" y="161"/><ellipse cx="193.5849" cy="177" fill="#B4A7E5" rx="11" ry="11" style="stroke:#181818;stroke-width:1.0;"/><path d="M194.538,173.7813 L196.2568,173.7813 C196.6474,173.7813 196.8349,173.75 196.9599,173.6719 C197.2255,173.5156 197.3661,173.2344 197.3661,172.9375 C197.3661,172.6719 197.2568,172.4063 197.0224,172.2344 C196.8505,172.125 196.7099,172.0938 196.2568,172.0938 L191.1161,172.0938 C190.6786,172.0938 190.5536,172.1094 190.3974,172.2031 C190.1474,172.3594 189.9911,172.6563 189.9911,172.9375 C189.9911,173.2188 190.1318,173.4688 190.3505,173.6406 C190.5068,173.75 190.6943,173.7813 191.1161,173.7813 L192.8349,173.7813 L192.8349,180.2969 L191.1161,180.2969 C190.6786,180.2969 190.5536,180.3125 190.3974,180.4219 C190.1474,180.5781 189.9911,180.8594 189.9911,181.1563 C189.9911,181.4063 190.1318,181.6719 190.3505,181.8281 C190.5068,181.9531 190.7099,182 191.1161,182 L196.2568,182 C197.0068,182 197.3661,181.7188 197.3661,181.1563 C197.3661,180.875 197.2568,180.625 197.0224,180.4531 C196.8505,180.3281 196.7099,180.2969 196.2568,180.2969 L194.538,180.2969 L194.538,173.7813 Z " fill="#000000"/><text fill="#000000" font-family="sans-serif" font-size="14" font-style="italic" lengthAdjust="spacing" textLength="48" x="207.5849" y="181.8467">reader</text><line style="stroke:#181818;stroke-width:0.5;" x1="179.5849" x2="257.5849" y1="193" y2="193"/><line style="stroke:#181818;stroke-width:0.5;" x1="179.5849" x2="257.5849" y1="201" y2="201"/><ellipse cx="189.5849" cy="214.6484" fill="#84BE84" rx="3" ry="3" style="stroke:#038048;stroke-width:1.0;"/><text fill="#000000" font-family="sans-serif" font-size="14" lengthAdjust="spacing" textLength="33" x="198.5849" y="217.9951">run()</text></g><!--class main--><g id="elem_main"><rect codeLine="11" fill="#F1F1F1" height="64.2969" id="main" rx="2.5" ry="2.5" style="stroke:#181818;stroke-width:0.5;" width="67" x="185.0849" y="7"/><ellipse cx="200.0849" cy="23" fill="#E3664A" rx="11" ry="11" style="stroke:#181818;stroke-width:1.0;"/><path d="M201.0068,20.25 C199.1005,20.3906 197.788,21.5781 197.788,23.1563 C197.788,24.5625 198.9911,25.7813 200.4443,25.7813 C200.6005,25.7813 200.7411,25.7656 201.0068,25.7188 L201.0068,25.7813 L201.8036,25.7813 C202.4286,25.7813 202.7411,25.5625 202.7411,25.0781 C202.7411,24.7969 202.6161,24.6094 202.3505,24.4844 L202.3505,19.7031 C202.3505,17.8125 201.038,16.4531 199.1943,16.4531 C196.9911,16.4531 195.3818,18.5781 195.3818,21.5156 L195.3818,24.375 C195.3818,25.625 195.663,26.8438 196.1786,27.7656 C196.8974,29.0156 197.8193,29.5781 199.2255,29.5781 C200.8349,29.5781 202.2255,28.9219 202.2255,28.125 C202.2255,27.7344 201.9286,27.4219 201.5536,27.4219 C201.3505,27.4219 201.2568,27.4688 201.0224,27.7188 C200.6943,28.0469 200.0224,28.2656 199.2724,28.2656 C198.5224,28.2656 197.9911,28 197.5849,27.4063 C197.0068,26.6094 196.7255,25.5625 196.7255,24.2656 L196.7255,21.6094 C196.7255,19.4375 197.788,17.7969 199.2255,17.7969 C200.2724,17.7969 201.0068,18.5781 201.0068,19.7031 L201.0068,20.25 Z M201.0068,24.3594 C200.7724,24.4063 200.6786,24.4063 200.5693,24.4063 C199.7411,24.4063 199.1318,23.875 199.1318,23.1719 C199.1318,22.3438 199.8818,21.7344 201.0068,21.625 L201.0068,24.3594 Z " fill="#000000"/><text fill="#000000" font-family="sans-serif" font-size="14" lengthAdjust="spacing" textLength="35" x="214.0849" y="27.8467">main</text><line style="stroke:#181818;stroke-width:0.5;" x1="186.0849" x2="251.0849" y1="39" y2="39"/><line style="stroke:#181818;stroke-width:0.5;" x1="186.0849" x2="251.0849" y1="47" y2="47"/><text fill="#000000" font-family="sans-serif" font-size="14" lengthAdjust="spacing" textLength="45" x="191.0849" y="63.9951">main()</text></g><!--class asio_reader--><g id="elem_asio_reader"><rect codeLine="17" fill="#F1F1F1" height="96.8906" id="asio_reader" rx="2.5" ry="2.5" style="stroke:#181818;stroke-width:0.5;" width="167" x="135.0849" y="302"/><ellipse cx="173.9349" cy="318" fill="#ADD1B2" rx="11" ry="11" style="stroke:#181818;stroke-width:1.0;"/><path d="M176.2786,313.6719 C175.3411,313.2344 174.7474,313.0938 173.8724,313.0938 C171.2474,313.0938 169.2474,315.1719 169.2474,317.8906 L169.2474,319.0156 C169.2474,321.5938 171.3568,323.4844 174.2474,323.4844 C175.4661,323.4844 176.6224,323.1875 177.3724,322.6406 C177.9505,322.2344 178.2786,321.7813 178.2786,321.3906 C178.2786,320.9375 177.888,320.5469 177.4193,320.5469 C177.2005,320.5469 176.9974,320.625 176.8099,320.8125 C176.3568,321.2969 176.3568,321.2969 176.1693,321.3906 C175.7474,321.6563 175.0599,321.7813 174.2943,321.7813 C172.2474,321.7813 170.9505,320.6875 170.9505,318.9844 L170.9505,317.8906 C170.9505,316.1094 172.2005,314.7969 173.9349,314.7969 C174.513,314.7969 175.1224,314.9531 175.5911,315.2031 C176.0755,315.4844 176.2474,315.7031 176.3411,316.1094 C176.4036,316.5156 176.4349,316.6406 176.5755,316.7656 C176.7161,316.9063 176.9505,317.0156 177.1693,317.0156 C177.4349,317.0156 177.7005,316.875 177.8724,316.6563 C177.9818,316.5 178.013,316.3125 178.013,315.8906 L178.013,314.4688 C178.013,314.0313 177.9974,313.9063 177.9036,313.75 C177.7474,313.4844 177.4661,313.3438 177.1693,313.3438 C176.8724,313.3438 176.6693,313.4375 176.4505,313.75 L176.2786,313.6719 Z " fill="#000000"/><text fill="#000000" font-family="sans-serif" font-size="14" lengthAdjust="spacing" textLength="82" x="193.2349" y="322.8467">asio_reader</text><line style="stroke:#181818;stroke-width:0.5;" x1="136.0849" x2="301.0849" y1="334" y2="334"/><rect fill="none" height="6" style="stroke:#C82930;stroke-width:1.0;" width="6" x="143.0849" y="344.6484"/><text fill="#000000" font-family="sans-serif" font-size="14" lengthAdjust="spacing" textLength="141" x="155.0849" y="350.9951">acceptor: Acceptor</text><line style="stroke:#181818;stroke-width:0.5;" x1="136.0849" x2="301.0849" y1="358.2969" y2="358.2969"/><rect fill="#F24D5C" height="6" style="stroke:#C82930;stroke-width:1.0;" width="6" x="143.0849" y="368.9453"/><text fill="#000000" font-family="sans-serif" font-size="14" lengthAdjust="spacing" textLength="60" x="155.0849" y="375.292">accept()</text><ellipse cx="146.0849" cy="388.2422" fill="#84BE84" rx="3" ry="3" style="stroke:#038048;stroke-width:1.0;"/><text fill="#000000" font-family="sans-serif" font-size="14" lengthAdjust="spacing" textLength="33" x="155.0849" y="391.5889">run()</text></g><!--class asio_reader_stream--><g id="elem_asio_reader_stream"><rect codeLine="25" fill="#F1F1F1" height="96.8906" id="asio_reader_stream" rx="2.5" ry="2.5" style="stroke:#181818;stroke-width:0.5;" width="172" x="93.5847" y="484"/><ellipse cx="108.5847" cy="500" fill="#ADD1B2" rx="11" ry="11" style="stroke:#181818;stroke-width:1.0;"/><path d="M110.9284,495.6719 C109.9909,495.2344 109.3972,495.0938 108.5222,495.0938 C105.8972,495.0938 103.8972,497.1719 103.8972,499.8906 L103.8972,501.0156 C103.8972,503.5938 106.0066,505.4844 108.8972,505.4844 C110.1159,505.4844 111.2722,505.1875 112.0222,504.6406 C112.6003,504.2344 112.9284,503.7813 112.9284,503.3906 C112.9284,502.9375 112.5378,502.5469 112.0691,502.5469 C111.8503,502.5469 111.6472,502.625 111.4597,502.8125 C111.0066,503.2969 111.0066,503.2969 110.8191,503.3906 C110.3972,503.6563 109.7097,503.7813 108.9441,503.7813 C106.8972,503.7813 105.6003,502.6875 105.6003,500.9844 L105.6003,499.8906 C105.6003,498.1094 106.8503,496.7969 108.5847,496.7969 C109.1628,496.7969 109.7722,496.9531 110.2409,497.2031 C110.7253,497.4844 110.8972,497.7031 110.9909,498.1094 C111.0534,498.5156 111.0847,498.6406 111.2253,498.7656 C111.3659,498.9063 111.6003,499.0156 111.8191,499.0156 C112.0847,499.0156 112.3503,498.875 112.5222,498.6563 C112.6316,498.5 112.6628,498.3125 112.6628,497.8906 L112.6628,496.4688 C112.6628,496.0313 112.6472,495.9063 112.5534,495.75 C112.3972,495.4844 112.1159,495.3438 111.8191,495.3438 C111.5222,495.3438 111.3191,495.4375 111.1003,495.75 L110.9284,495.6719 Z " fill="#000000"/><text fill="#000000" font-family="sans-serif" font-size="14" lengthAdjust="spacing" textLength="140" x="122.5847" y="504.8467">asio_reader_stream</text><line style="stroke:#181818;stroke-width:0.5;" x1="94.5847" x2="264.5847" y1="516" y2="516"/><rect fill="none" height="6" style="stroke:#C82930;stroke-width:1.0;" width="6" x="101.5847" y="526.6484"/><text fill="#000000" font-family="sans-serif" font-size="14" lengthAdjust="spacing" textLength="129" x="113.5847" y="532.9951">sink: parser_input</text><rect fill="none" height="6" style="stroke:#C82930;stroke-width:1.0;" width="6" x="101.5847" y="542.9453"/><text fill="#000000" font-family="sans-serif" font-size="14" lengthAdjust="spacing" textLength="109" x="113.5847" y="549.292">socket: Socket</text><ellipse cx="104.5847" cy="562.2422" fill="none" rx="3" ry="3" style="stroke:#038048;stroke-width:1.0;"/><text fill="#000000" font-family="sans-serif" font-size="14" lengthAdjust="spacing" textLength="35" x="113.5847" y="565.5889">start</text><line style="stroke:#181818;stroke-width:0.5;" x1="94.5847" x2="264.5847" y1="572.8906" y2="572.8906"/></g><!--class parser_input--><g id="elem_parser_input"><rect codeLine="33" fill="#F1F1F1" height="64.2969" id="parser_input" rx="2.5" ry="2.5" style="stroke:#181818;stroke-width:0.5;" width="138" x="135.5849" y="658.5"/><ellipse cx="158.2349" cy="674.5" fill="#B4A7E5" rx="11" ry="11" style="stroke:#181818;stroke-width:1.0;"/><path d="M159.188,671.2813 L160.9068,671.2813 C161.2974,671.2813 161.4849,671.25 161.6099,671.1719 C161.8755,671.0156 162.0161,670.7344 162.0161,670.4375 C162.0161,670.1719 161.9068,669.9063 161.6724,669.7344 C161.5005,669.625 161.3599,669.5938 160.9068,669.5938 L155.7661,669.5938 C155.3286,669.5938 155.2036,669.6094 155.0474,669.7031 C154.7974,669.8594 154.6411,670.1563 154.6411,670.4375 C154.6411,670.7188 154.7818,670.9688 155.0005,671.1406 C155.1568,671.25 155.3443,671.2813 155.7661,671.2813 L157.4849,671.2813 L157.4849,677.7969 L155.7661,677.7969 C155.3286,677.7969 155.2036,677.8125 155.0474,677.9219 C154.7974,678.0781 154.6411,678.3594 154.6411,678.6563 C154.6411,678.9063 154.7818,679.1719 155.0005,679.3281 C155.1568,679.4531 155.3599,679.5 155.7661,679.5 L160.9068,679.5 C161.6568,679.5 162.0161,679.2188 162.0161,678.6563 C162.0161,678.375 161.9068,678.125 161.6724,677.9531 C161.5005,677.8281 161.3599,677.7969 160.9068,677.7969 L159.188,677.7969 L159.188,671.2813 Z " fill="#000000"/><text fill="#000000" font-family="sans-serif" font-size="14" font-style="italic" lengthAdjust="spacing" textLength="89" x="173.9349" y="679.3467">parser_input</text><line style="stroke:#181818;stroke-width:0.5;" x1="136.5849" x2="272.5849" y1="690.5" y2="690.5"/><line style="stroke:#181818;stroke-width:0.5;" x1="136.5849" x2="272.5849" y1="698.5" y2="698.5"/><ellipse cx="146.5849" cy="712.1484" fill="#84BE84" rx="3" ry="3" style="stroke:#038048;stroke-width:1.0;"/><text fill="#000000" font-family="sans-serif" font-size="14" lengthAdjust="spacing" textLength="112" x="155.5849" y="715.4951">consume_text()</text></g><!--class json_data_extractor--><g id="elem_json_data_extractor"><rect codeLine="37" fill="#F1F1F1" height="80.5938" id="json_data_extractor" rx="2.5" ry="2.5" style="stroke:#181818;stroke-width:0.5;" width="175" x="139.0849" y="816"/><ellipse cx="154.0849" cy="832" fill="#ADD1B2" rx="11" ry="11" style="stroke:#181818;stroke-width:1.0;"/><path d="M156.4286,827.6719 C155.4911,827.2344 154.8974,827.0938 154.0224,827.0938 C151.3974,827.0938 149.3974,829.1719 149.3974,831.8906 L149.3974,833.0156 C149.3974,835.5938 151.5068,837.4844 154.3974,837.4844 C155.6161,837.4844 156.7724,837.1875 157.5224,836.6406 C158.1005,836.2344 158.4286,835.7813 158.4286,835.3906 C158.4286,834.9375 158.038,834.5469 157.5693,834.5469 C157.3505,834.5469 157.1474,834.625 156.9599,834.8125 C156.5068,835.2969 156.5068,835.2969 156.3193,835.3906 C155.8974,835.6563 155.2099,835.7813 154.4443,835.7813 C152.3974,835.7813 151.1005,834.6875 151.1005,832.9844 L151.1005,831.8906 C151.1005,830.1094 152.3505,828.7969 154.0849,828.7969 C154.663,828.7969 155.2724,828.9531 155.7411,829.2031 C156.2255,829.4844 156.3974,829.7031 156.4911,830.1094 C156.5536,830.5156 156.5849,830.6406 156.7255,830.7656 C156.8661,830.9063 157.1005,831.0156 157.3193,831.0156 C157.5849,831.0156 157.8505,830.875 158.0224,830.6563 C158.1318,830.5 158.163,830.3125 158.163,829.8906 L158.163,828.4688 C158.163,828.0313 158.1474,827.9063 158.0536,827.75 C157.8974,827.4844 157.6161,827.3438 157.3193,827.3438 C157.0224,827.3438 156.8193,827.4375 156.6005,827.75 L156.4286,827.6719 Z " fill="#000000"/><text fill="#000000" font-family="sans-serif" font-size="14" lengthAdjust="spacing" textLength="143" x="168.0849" y="836.8467">json_data_extractor</text><line style="stroke:#181818;stroke-width:0.5;" x1="140.0849" x2="313.0849" y1="848" y2="848"/><rect fill="none" height="6" style="stroke:#C82930;stroke-width:1.0;" width="6" x="147.0849" y="858.6484"/><text fill="#000000" font-family="sans-serif" font-size="14" lengthAdjust="spacing" textLength="125" x="159.0849" y="864.9951">sink: stream_sink</text><line style="stroke:#181818;stroke-width:0.5;" x1="140.0849" x2="313.0849" y1="872.2969" y2="872.2969"/><ellipse cx="150.0849" cy="885.9453" fill="#84BE84" rx="3" ry="3" style="stroke:#038048;stroke-width:1.0;"/><text fill="#000000" font-family="sans-serif" font-size="14" lengthAdjust="spacing" textLength="112" x="159.0849" y="889.292">consume_text()</text></g><!--class stream_sink--><g id="elem_stream_sink"><rect codeLine="46" fill="#F1F1F1" height="64.2969" id="stream_sink" rx="2.5" ry="2.5" style="stroke:#181818;stroke-width:0.5;" width="162" x="308.5849" y="658.5"/><ellipse cx="343.8349" cy="674.5" fill="#B4A7E5" rx="11" ry="11" style="stroke:#181818;stroke-width:1.0;"/><path d="M344.788,671.2813 L346.5068,671.2813 C346.8974,671.2813 347.0849,671.25 347.2099,671.1719 C347.4755,671.0156 347.6161,670.7344 347.6161,670.4375 C347.6161,670.1719 347.5068,669.9063 347.2724,669.7344 C347.1005,669.625 346.9599,669.5938 346.5068,669.5938 L341.3661,669.5938 C340.9286,669.5938 340.8036,669.6094 340.6474,669.7031 C340.3974,669.8594 340.2411,670.1563 340.2411,670.4375 C340.2411,670.7188 340.3818,670.9688 340.6005,671.1406 C340.7568,671.25 340.9443,671.2813 341.3661,671.2813 L343.0849,671.2813 L343.0849,677.7969 L341.3661,677.7969 C340.9286,677.7969 340.8036,677.8125 340.6474,677.9219 C340.3974,678.0781 340.2411,678.3594 340.2411,678.6563 C340.2411,678.9063 340.3818,679.1719 340.6005,679.3281 C340.7568,679.4531 340.9599,679.5 341.3661,679.5 L346.5068,679.5 C347.2568,679.5 347.6161,679.2188 347.6161,678.6563 C347.6161,678.375 347.5068,678.125 347.2724,677.9531 C347.1005,677.8281 346.9599,677.7969 346.5068,677.7969 L344.788,677.7969 L344.788,671.2813 Z " fill="#000000"/><text fill="#000000" font-family="sans-serif" font-size="14" font-style="italic" lengthAdjust="spacing" textLength="85" x="362.3349" y="679.3467">stream_sink</text><line style="stroke:#181818;stroke-width:0.5;" x1="309.5849" x2="469.5849" y1="690.5" y2="690.5"/><line style="stroke:#181818;stroke-width:0.5;" x1="309.5849" x2="469.5849" y1="698.5" y2="698.5"/><ellipse cx="319.5849" cy="712.1484" fill="#84BE84" rx="3" ry="3" style="stroke:#038048;stroke-width:1.0;"/><text fill="#000000" font-family="sans-serif" font-size="14" lengthAdjust="spacing" textLength="136" x="328.5849" y="715.4951">void consume(Info)</text></g><!--class stream_sink_factory--><g id="elem_stream_sink_factory"><rect codeLine="50" fill="#F1F1F1" height="80.5938" id="stream_sink_factory" rx="2.5" ry="2.5" style="stroke:#181818;stroke-width:0.5;" width="230" x="300.5849" y="492"/><ellipse cx="340.7849" cy="508" fill="#B4A7E5" rx="11" ry="11" style="stroke:#181818;stroke-width:1.0;"/><path d="M341.738,504.7813 L343.4568,504.7813 C343.8474,504.7813 344.0349,504.75 344.1599,504.6719 C344.4255,504.5156 344.5661,504.2344 344.5661,503.9375 C344.5661,503.6719 344.4568,503.4063 344.2224,503.2344 C344.0505,503.125 343.9099,503.0938 343.4568,503.0938 L338.3161,503.0938 C337.8786,503.0938 337.7536,503.1094 337.5974,503.2031 C337.3474,503.3594 337.1911,503.6563 337.1911,503.9375 C337.1911,504.2188 337.3318,504.4688 337.5505,504.6406 C337.7068,504.75 337.8943,504.7813 338.3161,504.7813 L340.0349,504.7813 L340.0349,511.2969 L338.3161,511.2969 C337.8786,511.2969 337.7536,511.3125 337.5974,511.4219 C337.3474,511.5781 337.1911,511.8594 337.1911,512.1563 C337.1911,512.4063 337.3318,512.6719 337.5505,512.8281 C337.7068,512.9531 337.9099,513 338.3161,513 L343.4568,513 C344.2068,513 344.5661,512.7188 344.5661,512.1563 C344.5661,511.875 344.4568,511.625 344.2224,511.4531 C344.0505,511.3281 343.9099,511.2969 343.4568,511.2969 L341.738,511.2969 L341.738,504.7813 Z " fill="#000000"/><text fill="#000000" font-family="sans-serif" font-size="14" font-style="italic" lengthAdjust="spacing" textLength="142" x="360.3849" y="512.8467">stream_sink_factory</text><line style="stroke:#181818;stroke-width:0.5;" x1="301.5849" x2="529.5849" y1="524" y2="524"/><line style="stroke:#181818;stroke-width:0.5;" x1="301.5849" x2="529.5849" y1="532" y2="532"/><ellipse cx="311.5849" cy="545.6484" fill="#84BE84" rx="3" ry="3" style="stroke:#038048;stroke-width:1.0;"/><text fill="#000000" font-family="sans-serif" font-size="14" lengthAdjust="spacing" textLength="204" x="320.5849" y="548.9951">make_stream(): stream_sink</text><ellipse cx="311.5849" cy="561.9453" fill="#84BE84" rx="3" ry="3" style="stroke:#038048;stroke-width:1.0;"/><text fill="#000000" font-family="sans-serif" font-size="14" lengthAdjust="spacing" textLength="61" x="320.5849" y="565.292">update()</text></g><!--class text_tree_sink--><g id="elem_text_tree_sink"><rect codeLine="61" fill="#F1F1F1" height="80.5938" id="text_tree_sink" rx="2.5" ry="2.5" style="stroke:#181818;stroke-width:0.5;" width="248" x="307.5849" y="982"/><ellipse cx="374.8349" cy="998" fill="#ADD1B2" rx="11" ry="11" style="stroke:#181818;stroke-width:1.0;"/><path d="M377.1786,993.6719 C376.2411,993.2344 375.6474,993.0938 374.7724,993.0938 C372.1474,993.0938 370.1474,995.1719 370.1474,997.8906 L370.1474,999.0156 C370.1474,1001.5938 372.2568,1003.4844 375.1474,1003.4844 C376.3661,1003.4844 377.5224,1003.1875 378.2724,1002.6406 C378.8505,1002.2344 379.1786,1001.7813 379.1786,1001.3906 C379.1786,1000.9375 378.788,1000.5469 378.3193,1000.5469 C378.1005,1000.5469 377.8974,1000.625 377.7099,1000.8125 C377.2568,1001.2969 377.2568,1001.2969 377.0693,1001.3906 C376.6474,1001.6563 375.9599,1001.7813 375.1943,1001.7813 C373.1474,1001.7813 371.8505,1000.6875 371.8505,998.9844 L371.8505,997.8906 C371.8505,996.1094 373.1005,994.7969 374.8349,994.7969 C375.413,994.7969 376.0224,994.9531 376.4911,995.2031 C376.9755,995.4844 377.1474,995.7031 377.2411,996.1094 C377.3036,996.5156 377.3349,996.6406 377.4755,996.7656 C377.6161,996.9063 377.8505,997.0156 378.0693,997.0156 C378.3349,997.0156 378.6005,996.875 378.7724,996.6563 C378.8818,996.5 378.913,996.3125 378.913,995.8906 L378.913,994.4688 C378.913,994.0313 378.8974,993.9063 378.8036,993.75 C378.6474,993.4844 378.3661,993.3438 378.0693,993.3438 C377.7724,993.3438 377.5693,993.4375 377.3505,993.75 L377.1786,993.6719 Z " fill="#000000"/><text fill="#000000" font-family="sans-serif" font-size="14" lengthAdjust="spacing" textLength="105" x="395.3349" y="1002.8467">text_tree_sink</text><line style="stroke:#181818;stroke-width:0.5;" x1="308.5849" x2="554.5849" y1="1014" y2="1014"/><rect fill="none" height="6" style="stroke:#C82930;stroke-width:1.0;" width="6" x="315.5849" y="1024.6484"/><text fill="#000000" font-family="sans-serif" font-size="14" lengthAdjust="spacing" textLength="222" x="327.5849" y="1030.9951">parent: text_tree_sink_factory</text><line style="stroke:#181818;stroke-width:0.5;" x1="308.5849" x2="554.5849" y1="1038.2969" y2="1038.2969"/><ellipse cx="318.5849" cy="1051.9453" fill="#84BE84" rx="3" ry="3" style="stroke:#038048;stroke-width:1.0;"/><text fill="#000000" font-family="sans-serif" font-size="14" lengthAdjust="spacing" textLength="102" x="327.5849" y="1055.292">consume(Info)</text></g><!--class text_tree_sink_factory--><g id="elem_text_tree_sink_factory"><rect codeLine="68" fill="#F1F1F1" height="96.8906" id="text_tree_sink_factory" rx="2.5" ry="2.5" style="stroke:#181818;stroke-width:0.5;" width="230" x="442.5849" y="808"/><ellipse cx="472.8849" cy="824" fill="#ADD1B2" rx="11" ry="11" style="stroke:#181818;stroke-width:1.0;"/><path d="M475.2286,819.6719 C474.2911,819.2344 473.6974,819.0938 472.8224,819.0938 C470.1974,819.0938 468.1974,821.1719 468.1974,823.8906 L468.1974,825.0156 C468.1974,827.5938 470.3068,829.4844 473.1974,829.4844 C474.4161,829.4844 475.5724,829.1875 476.3224,828.6406 C476.9005,828.2344 477.2286,827.7813 477.2286,827.3906 C477.2286,826.9375 476.838,826.5469 476.3693,826.5469 C476.1505,826.5469 475.9474,826.625 475.7599,826.8125 C475.3068,827.2969 475.3068,827.2969 475.1193,827.3906 C474.6974,827.6563 474.0099,827.7813 473.2443,827.7813 C471.1974,827.7813 469.9005,826.6875 469.9005,824.9844 L469.9005,823.8906 C469.9005,822.1094 471.1505,820.7969 472.8849,820.7969 C473.463,820.7969 474.0724,820.9531 474.5411,821.2031 C475.0255,821.4844 475.1974,821.7031 475.2911,822.1094 C475.3536,822.5156 475.3849,822.6406 475.5255,822.7656 C475.6661,822.9063 475.9005,823.0156 476.1193,823.0156 C476.3849,823.0156 476.6505,822.875 476.8224,822.6563 C476.9318,822.5 476.963,822.3125 476.963,821.8906 L476.963,820.4688 C476.963,820.0313 476.9474,819.9063 476.8536,819.75 C476.6974,819.4844 476.4161,819.3438 476.1193,819.3438 C475.8224,819.3438 475.6193,819.4375 475.4005,819.75 L475.2286,819.6719 Z " fill="#000000"/><text fill="#000000" font-family="sans-serif" font-size="14" lengthAdjust="spacing" textLength="164" x="490.2849" y="828.8467">text_tree_sink_factory</text><line style="stroke:#181818;stroke-width:0.5;" x1="443.5849" x2="671.5849" y1="840" y2="840"/><rect fill="none" height="6" style="stroke:#C82930;stroke-width:1.0;" width="6" x="450.5849" y="850.6484"/><text fill="#000000" font-family="sans-serif" font-size="14" lengthAdjust="spacing" textLength="145" x="462.5849" y="856.9951">output: text_output</text><line style="stroke:#181818;stroke-width:0.5;" x1="443.5849" x2="671.5849" y1="864.2969" y2="864.2969"/><ellipse cx="453.5849" cy="877.9453" fill="#84BE84" rx="3" ry="3" style="stroke:#038048;stroke-width:1.0;"/><text fill="#000000" font-family="sans-serif" font-size="14" lengthAdjust="spacing" textLength="204" x="462.5849" y="881.292">make_stream(): stream_sink</text><ellipse cx="453.5849" cy="894.2422" fill="#84BE84" rx="3" ry="3" style="stroke:#038048;stroke-width:1.0;"/><text fill="#000000" font-family="sans-serif" font-size="14" lengthAdjust="spacing" textLength="61" x="462.5849" y="897.5889">update()</text></g><!--class text_output--><g id="elem_text_output"><rect codeLine="77" fill="#F1F1F1" height="80.5938" id="text_output" rx="2.5" ry="2.5" style="stroke:#181818;stroke-width:0.5;" width="115" x="577.0849" y="650"/><ellipse cx="593.4349" cy="666" fill="#B4A7E5" rx="11" ry="11" style="stroke:#181818;stroke-width:1.0;"/><path d="M594.388,662.7813 L596.1068,662.7813 C596.4974,662.7813 596.6849,662.75 596.8099,662.6719 C597.0755,662.5156 597.2161,662.2344 597.2161,661.9375 C597.2161,661.6719 597.1068,661.4063 596.8724,661.2344 C596.7005,661.125 596.5599,661.0938 596.1068,661.0938 L590.9661,661.0938 C590.5286,661.0938 590.4036,661.1094 590.2474,661.2031 C589.9974,661.3594 589.8411,661.6563 589.8411,661.9375 C589.8411,662.2188 589.9818,662.4688 590.2005,662.6406 C590.3568,662.75 590.5443,662.7813 590.9661,662.7813 L592.6849,662.7813 L592.6849,669.2969 L590.9661,669.2969 C590.5286,669.2969 590.4036,669.3125 590.2474,669.4219 C589.9974,669.5781 589.8411,669.8594 589.8411,670.1563 C589.8411,670.4063 589.9818,670.6719 590.2005,670.8281 C590.3568,670.9531 590.5599,671 590.9661,671 L596.1068,671 C596.8568,671 597.2161,670.7188 597.2161,670.1563 C597.2161,669.875 597.1068,669.625 596.8724,669.4531 C596.7005,669.3281 596.5599,669.2969 596.1068,669.2969 L594.388,669.2969 L594.388,662.7813 Z " fill="#000000"/><text fill="#000000" font-family="sans-serif" font-size="14" font-style="italic" lengthAdjust="spacing" textLength="80" x="607.7349" y="670.8467">text_output</text><line style="stroke:#181818;stroke-width:0.5;" x1="578.0849" x2="691.0849" y1="682" y2="682"/><line style="stroke:#181818;stroke-width:0.5;" x1="578.0849" x2="691.0849" y1="690" y2="690"/><ellipse cx="588.0849" cy="703.6484" fill="#84BE84" rx="3" ry="3" style="stroke:#038048;stroke-width:1.0;"/><text fill="#000000" font-family="sans-serif" font-size="14" lengthAdjust="spacing" textLength="89" x="597.0849" y="706.9951">write(string)</text><ellipse cx="588.0849" cy="719.9453" fill="#84BE84" rx="3" ry="3" style="stroke:#038048;stroke-width:1.0;"/><text fill="#000000" font-family="sans-serif" font-size="14" lengthAdjust="spacing" textLength="44" x="597.0849" y="723.292">flush()</text></g><!--class asio_output--><g id="elem_asio_output"><rect codeLine="84" fill="#F1F1F1" height="113.1875" id="asio_output" rx="2.5" ry="2.5" style="stroke:#181818;stroke-width:0.5;" width="167" x="566.0849" y="476"/><ellipse cx="604.0349" cy="492" fill="#ADD1B2" rx="11" ry="11" style="stroke:#181818;stroke-width:1.0;"/><path d="M606.3786,487.6719 C605.4411,487.2344 604.8474,487.0938 603.9724,487.0938 C601.3474,487.0938 599.3474,489.1719 599.3474,491.8906 L599.3474,493.0156 C599.3474,495.5938 601.4568,497.4844 604.3474,497.4844 C605.5661,497.4844 606.7224,497.1875 607.4724,496.6406 C608.0505,496.2344 608.3786,495.7813 608.3786,495.3906 C608.3786,494.9375 607.988,494.5469 607.5193,494.5469 C607.3005,494.5469 607.0974,494.625 606.9099,494.8125 C606.4568,495.2969 606.4568,495.2969 606.2693,495.3906 C605.8474,495.6563 605.1599,495.7813 604.3943,495.7813 C602.3474,495.7813 601.0505,494.6875 601.0505,492.9844 L601.0505,491.8906 C601.0505,490.1094 602.3005,488.7969 604.0349,488.7969 C604.613,488.7969 605.2224,488.9531 605.6911,489.2031 C606.1755,489.4844 606.3474,489.7031 606.4411,490.1094 C606.5036,490.5156 606.5349,490.6406 606.6755,490.7656 C606.8161,490.9063 607.0505,491.0156 607.2693,491.0156 C607.5349,491.0156 607.8005,490.875 607.9724,490.6563 C608.0818,490.5 608.113,490.3125 608.113,489.8906 L608.113,488.4688 C608.113,488.0313 608.0974,487.9063 608.0036,487.75 C607.8474,487.4844 607.5661,487.3438 607.2693,487.3438 C606.9724,487.3438 606.7693,487.4375 606.5505,487.75 L606.3786,487.6719 Z " fill="#000000"/><text fill="#000000" font-family="sans-serif" font-size="14" lengthAdjust="spacing" textLength="84" x="623.1349" y="496.8467">asio_output</text><line style="stroke:#181818;stroke-width:0.5;" x1="567.0849" x2="732.0849" y1="508" y2="508"/><rect fill="none" height="6" style="stroke:#C82930;stroke-width:1.0;" width="6" x="574.0849" y="518.6484"/><text fill="#000000" font-family="sans-serif" font-size="14" lengthAdjust="spacing" textLength="141" x="586.0849" y="524.9951">acceptor: Acceptor</text><line style="stroke:#181818;stroke-width:0.5;" x1="567.0849" x2="732.0849" y1="532.2969" y2="532.2969"/><rect fill="#F24D5C" height="6" style="stroke:#C82930;stroke-width:1.0;" width="6" x="574.0849" y="542.9453"/><text fill="#000000" font-family="sans-serif" font-size="14" lengthAdjust="spacing" textLength="60" x="586.0849" y="549.292">accept()</text><ellipse cx="577.0849" cy="562.2422" fill="#84BE84" rx="3" ry="3" style="stroke:#038048;stroke-width:1.0;"/><text fill="#000000" font-family="sans-serif" font-size="14" lengthAdjust="spacing" textLength="89" x="586.0849" y="565.5889">write(string)</text><ellipse cx="577.0849" cy="578.5391" fill="#84BE84" rx="3" ry="3" style="stroke:#038048;stroke-width:1.0;"/><text fill="#000000" font-family="sans-serif" font-size="14" lengthAdjust="spacing" textLength="44" x="586.0849" y="581.8857">flush()</text></g><!--class asio_output_stream--><g id="elem_asio_output_stream"><rect codeLine="93" fill="#F1F1F1" height="80.5938" id="asio_output_stream" rx="2.5" ry="2.5" style="stroke:#181818;stroke-width:0.5;" width="174" x="505.5849" y="310"/><ellipse cx="520.5849" cy="326" fill="#ADD1B2" rx="11" ry="11" style="stroke:#181818;stroke-width:1.0;"/><path d="M522.9286,321.6719 C521.9911,321.2344 521.3974,321.0938 520.5224,321.0938 C517.8974,321.0938 515.8974,323.1719 515.8974,325.8906 L515.8974,327.0156 C515.8974,329.5938 518.0068,331.4844 520.8974,331.4844 C522.1161,331.4844 523.2724,331.1875 524.0224,330.6406 C524.6005,330.2344 524.9286,329.7813 524.9286,329.3906 C524.9286,328.9375 524.538,328.5469 524.0693,328.5469 C523.8505,328.5469 523.6474,328.625 523.4599,328.8125 C523.0068,329.2969 523.0068,329.2969 522.8193,329.3906 C522.3974,329.6563 521.7099,329.7813 520.9443,329.7813 C518.8974,329.7813 517.6005,328.6875 517.6005,326.9844 L517.6005,325.8906 C517.6005,324.1094 518.8505,322.7969 520.5849,322.7969 C521.163,322.7969 521.7724,322.9531 522.2411,323.2031 C522.7255,323.4844 522.8974,323.7031 522.9911,324.1094 C523.0536,324.5156 523.0849,324.6406 523.2255,324.7656 C523.3661,324.9063 523.6005,325.0156 523.8193,325.0156 C524.0849,325.0156 524.3505,324.875 524.5224,324.6563 C524.6318,324.5 524.663,324.3125 524.663,323.8906 L524.663,322.4688 C524.663,322.0313 524.6474,321.9063 524.5536,321.75 C524.3974,321.4844 524.1161,321.3438 523.8193,321.3438 C523.5224,321.3438 523.3193,321.4375 523.1005,321.75 L522.9286,321.6719 Z " fill="#000000"/><text fill="#000000" font-family="sans-serif" font-size="14" lengthAdjust="spacing" textLength="142" x="534.5849" y="330.8467">asio_output_stream</text><line style="stroke:#181818;stroke-width:0.5;" x1="506.5849" x2="678.5849" y1="342" y2="342"/><rect fill="none" height="6" style="stroke:#C82930;stroke-width:1.0;" width="6" x="513.5849" y="352.6484"/><text fill="#000000" font-family="sans-serif" font-size="14" lengthAdjust="spacing" textLength="109" x="525.5849" y="358.9951">socket: Socket</text><line style="stroke:#181818;stroke-width:0.5;" x1="506.5849" x2="678.5849" y1="366.2969" y2="366.2969"/><ellipse cx="516.5849" cy="379.9453" fill="#84BE84" rx="3" ry="3" style="stroke:#038048;stroke-width:1.0;"/><text fill="#000000" font-family="sans-serif" font-size="14" lengthAdjust="spacing" textLength="87" x="525.5849" y="383.292">write(block)</text></g><!--link main to reader--><g id="link_main_reader"><path codeLine="15" d="M218.5849,71.126 C218.5849,97.356 218.5849,128.697 218.5849,154.915 " fill="none" id="main-to-reader" style="stroke:#181818;stroke-width:1.0;"/><polygon fill="#181818" points="218.5849,160.915,222.5849,151.915,218.5849,155.915,214.5849,151.915,218.5849,160.915" style="stroke:#181818;stroke-width:1.0;"/><text fill="#000000" font-family="sans-serif" font-size="13" lengthAdjust="spacing" textLength="52" x="219.5849" y="114.0669">execute</text></g><!--reverse link reader to asio_reader--><g id="link_reader_asio_reader"><path codeLine="23" d="M218.5849,243.094 C218.5849,265.074 218.5849,276.949 218.5849,301.914 " fill="none" id="reader-backto-asio_reader" style="stroke:#181818;stroke-width:1.0;"/><polygon fill="none" points="218.5849,225.094,212.5849,243.094,224.5849,243.094,218.5849,225.094" style="stroke:#181818;stroke-width:1.0;"/></g><!--reverse link asio_reader to asio_reader_stream--><g id="link_asio_reader_asio_reader_stream"><path codeLine="31" d="M205.6949,410.9919 C200.0309,437.1339 195.5749,457.697 189.9139,483.825 " fill="none" id="asio_reader-backto-asio_reader_stream" style="stroke:#181818;stroke-width:1.0;"/><polygon fill="#181818" points="208.2359,399.264,203.0561,404.2809,205.6949,410.9919,210.8747,405.9749,208.2359,399.264" style="stroke:#181818;stroke-width:1.0;"/></g><!--reverse link parser_input to json_data_extractor--><g id="link_parser_input_json_data_extractor"><path codeLine="42" d="M211.168,740.5732 C214.721,767.0602 217.4439,787.357 221.2819,815.968 " fill="none" id="parser_input-backto-json_data_extractor" style="stroke:#181818;stroke-width:1.0;"/><polygon fill="none" points="208.7749,722.733,205.2213,741.3709,217.1147,739.7755,208.7749,722.733" style="stroke:#181818;stroke-width:1.0;"/></g><!--link asio_reader_stream to parser_input--><g id="link_asio_reader_stream_parser_input"><path codeLine="43" d="M189.1199,593.0018 C193.1409,618.0908 195.1084,630.3686 198.6474,652.4516 " fill="none" id="asio_reader_stream-parser_input" style="stroke:#181818;stroke-width:1.0;"/><polygon fill="none" points="187.2209,581.153,184.2208,587.7104,189.1199,593.0018,192.12,586.4444,187.2209,581.153" style="stroke:#181818;stroke-width:1.0;"/><polygon fill="#181818" points="199.5969,658.376,202.1223,648.8564,198.8057,653.439,194.2231,650.1224,199.5969,658.376" style="stroke:#181818;stroke-width:1.0;"/></g><!--link stream_sink_factory to stream_sink--><g id="link_stream_sink_factory_stream_sink"><path codeLine="55" d="M408.9569,573.269 C404.5479,599.719 399.8272,628.0416 395.7522,652.4946 " fill="none" id="stream_sink_factory-to-stream_sink" style="stroke:#181818;stroke-width:1.0;stroke-dasharray:7.0,7.0;"/><polygon fill="#181818" points="394.7659,658.413,400.1909,650.1929,395.5878,653.481,392.2997,648.8779,394.7659,658.413" style="stroke:#181818;stroke-width:1.0;"/></g><!--link asio_reader to stream_sink_factory--><g id="link_asio_reader_stream_sink_factory"><path codeLine="57" d="M279.4607,407.1225 C311.1507,436.0785 337.8825,460.5027 367.8435,487.8787 " fill="none" id="asio_reader-stream_sink_factory" style="stroke:#181818;stroke-width:1.0;"/><polygon fill="none" points="270.6019,399.028,272.3331,406.0282,279.4607,407.1225,277.7295,400.1223,270.6019,399.028" style="stroke:#181818;stroke-width:1.0;"/><polygon fill="#181818" points="372.2729,491.926,368.3269,482.9022,368.5817,488.5533,362.9306,488.8081,372.2729,491.926" style="stroke:#181818;stroke-width:1.0;"/></g><!--link stream_sink to json_data_extractor--><g id="link_stream_sink_json_data_extractor"><path codeLine="59" d="M354.3123,726.9886 C327.9873,753.4756 302.7711,778.8457 274.3351,807.4567 " fill="none" id="stream_sink-json_data_extractor" style="stroke:#181818;stroke-width:1.0;"/><polygon fill="#181818" points="358.5419,722.733,349.3604,726.2967,355.0172,726.2794,355.0346,731.9362,358.5419,722.733" style="stroke:#181818;stroke-width:1.0;"/><polygon fill="none" points="265.8759,815.968,272.9426,814.5321,274.3351,807.4567,267.2684,808.8926,265.8759,815.968" style="stroke:#181818;stroke-width:1.0;"/><text fill="#000000" font-family="sans-serif" font-size="13" lengthAdjust="spacing" textLength="23" x="319.5849" y="774.0669">use</text></g><!--link stream_sink to text_tree_sink--><g id="link_stream_sink_text_tree_sink"><path codeLine="66" d="M393.5359,722.546 C401.2039,782.794 415.8172,897.6141 424.2762,964.0747 " fill="none" id="stream_sink-to-text_tree_sink" style="stroke:#181818;stroke-width:1.0;"/><polygon fill="none" points="426.5489,981.9306,430.2282,963.3171,418.3242,964.8322,426.5489,981.9306" style="stroke:#181818;stroke-width:1.0;"/></g><!--link stream_sink_factory to text_tree_sink_factory--><g id="link_stream_sink_factory_text_tree_sink_factory"><path codeLine="74" d="M443.2349,573.213 C457.7159,595.171 475.0019,623.337 487.5849,650 C512.1959,702.15 527.392,748.0763 539.66,790.5043 " fill="none" id="stream_sink_factory-to-text_tree_sink_factory" style="stroke:#181818;stroke-width:1.0;"/><polygon fill="none" points="544.6599,807.796,545.4239,788.8377,533.8961,792.171,544.6599,807.796" style="stroke:#181818;stroke-width:1.0;"/></g><!--link text_tree_sink_factory to text_tree_sink--><g id="link_text_tree_sink_factory_text_tree_sink"><path codeLine="75" d="M541.4879,905.037 C534.8639,920.847 526.2169,937.982 515.5849,952 C507.4639,962.707 501.9029,968.8721 491.5789,977.8983 " fill="none" id="text_tree_sink_factory-to-text_tree_sink" style="stroke:#181818;stroke-width:1.0;stroke-dasharray:7.0,7.0;"/><polygon fill="#181818" points="487.0619,981.8475,496.4703,978.935,490.8261,978.5565,491.2046,972.9123,487.0619,981.8475" style="stroke:#181818;stroke-width:1.0;"/></g><!--reverse link text_tree_sink_factory to text_tree_sink--><g id="link_text_tree_sink_factory_text_tree_sink"><path codeLine="103" d="M495.646,909.4661 C486.198,918.7621 481.2749,924.646 473.5849,935 C463.0339,949.206 454.0189,966.4779 447.0779,981.8412 " fill="none" id="text_tree_sink_factory-backto-text_tree_sink" style="stroke:#FF0000;stroke-width:8.0;"/><polygon fill="#FF0000" points="499.9229,905.258,490.7021,908.7189,496.3588,908.7647,496.3129,914.4214,499.9229,905.258" style="stroke:#FF0000;stroke-width:8.0;"/><text fill="#000000" font-family="sans-serif" font-size="13" lengthAdjust="spacing" textLength="32" x="474.5849" y="948.0669">write</text></g><!--link text_output to text_tree_sink_factory--><g id="link_text_output_text_tree_sink_factory"><path codeLine="82" d="M613.3948,736.6311 C602.5348,759.7611 596.4218,772.7827 584.9888,797.1337 " fill="none" id="text_output-text_tree_sink_factory" style="stroke:#181818;stroke-width:1.0;"/><polygon fill="#181818" points="615.9449,731.2,608.4991,737.6467,613.8199,735.726,615.7406,741.0467,615.9449,731.2" style="stroke:#181818;stroke-width:1.0;"/><polygon fill="none" points="579.8889,807.996,586.0596,804.2648,584.9888,797.1337,578.8181,800.8648,579.8889,807.996" style="stroke:#181818;stroke-width:1.0;"/><text fill="#000000" font-family="sans-serif" font-size="13" lengthAdjust="spacing" textLength="23" x="601.5849" y="774.0669">use</text></g><!--link asio_output to text_output--><g id="link_asio_output_text_output"><path codeLine="91" d="M644.2119,589.379 C642.2949,609.312 641.8981,613.4296 640.1381,631.7406 " fill="none" id="asio_output-to-text_output" style="stroke:#181818;stroke-width:1.0;"/><polygon fill="none" points="638.4159,649.658,646.1105,632.3146,634.1656,631.1665,638.4159,649.658" style="stroke:#181818;stroke-width:1.0;"/></g><!--link asio_output_stream to asio_output--><g id="link_asio_output_stream_asio_output"><path codeLine="98" d="M612.4109,391.078 C617.8739,403.053 623.4329,416.378 627.5849,429 C632.5039,443.955 634.1036,448.7709 637.3856,464.1319 " fill="none" id="asio_output_stream-to-asio_output" style="stroke:#181818;stroke-width:1.0;"/><polygon fill="#181818" points="639.8929,475.867,642.5509,469.1637,637.3856,464.1319,634.7275,470.8352,639.8929,475.867" style="stroke:#181818;stroke-width:1.0;"/></g><!--reverse link asio_output_stream to asio_output--><g id="link_asio_output_stream_asio_output"><path codeLine="105" d="M581.9864,397.3707 C579.5124,414.5447 579.8179,428.674 585.5849,446 C589.0389,456.38 594.3009,466.517 600.3529,475.971 " fill="none" id="asio_output_stream-backto-asio_output" style="stroke:#FF0000;stroke-width:8.0;"/><polygon fill="#FF0000" points="582.8419,391.432,577.5995,399.7697,582.129,396.3809,585.5178,400.9104,582.8419,391.432" style="stroke:#FF0000;stroke-width:8.0;"/><text fill="#000000" font-family="sans-serif" font-size="13" lengthAdjust="spacing" textLength="32" x="586.5849" y="442.0669">write</text></g><!--link isocket to asio_reader_stream--><g id="link_isocket_asio_reader_stream"><path codeLine="100" d="M397.6069,217.084 C386.6049,256.757 360.4669,339.358 319.5849,399 C297.9209,430.605 272.1592,456.511 245.2922,479.842 " fill="none" id="isocket-to-asio_reader_stream" style="stroke:#FF0000;stroke-width:8.0;"/><polygon fill="#FF0000" points="240.7619,483.776,250.18,480.8951,244.5371,480.4976,244.9346,474.8548,240.7619,483.776" style="stroke:#FF0000;stroke-width:8.0;"/><text fill="#000000" font-family="sans-serif" font-size="13" lengthAdjust="spacing" textLength="29" x="369.5849" y="355.0669">read</text></g><!--link asio_reader_stream to json_data_extractor--><g id="link_asio_reader_stream_json_data_extractor"><path codeLine="101" d="M93.2741,576.895 C65.8498,595.395 38.7325,619.782 23.5847,650 C7.4519,682.183 6,699.587 23.5847,731 C48.3736,775.283 90.609,803.2214 133.5383,822.9134 " fill="none" id="asio_reader_stream-to-json_data_extractor" style="stroke:#FF0000;stroke-width:8.0;"/><polygon fill="#FF0000" points="138.9919,825.415,132.4792,818.0268,134.4472,823.3303,129.1437,825.2983,138.9919,825.415" style="stroke:#FF0000;stroke-width:8.0;"/><text fill="#000000" font-family="sans-serif" font-size="13" lengthAdjust="spacing" textLength="92" x="24.5847" y="695.0669">consume_text</text></g><!--link json_data_extractor to text_tree_sink--><g id="link_json_data_extractor_text_tree_sink"><path codeLine="102" d="M253.0669,897.363 C266.4439,915.515 283.8089,936.382 302.5849,952 C315.7859,962.981 325.7998,970.0012 341.0388,978.8066 " fill="none" id="json_data_extractor-to-text_tree_sink" style="stroke:#FF0000;stroke-width:8.0;"/><polygon fill="#FF0000" points="346.2339,981.8084,340.4425,973.8423,341.9046,979.3069,336.44,980.7691,346.2339,981.8084" style="stroke:#FF0000;stroke-width:8.0;"/><text fill="#000000" font-family="sans-serif" font-size="13" lengthAdjust="spacing" textLength="59" x="303.5849" y="948.0669">consume</text></g><!--reverse link asio_output to text_tree_sink_factory--><g id="link_asio_output_text_tree_sink_factory"><path codeLine="104" d="M690.8238,594.4107 C713.6098,634.8947 731.2869,685.172 709.5849,731 C694.9129,761.983 668.3349,787.827 641.4599,807.792 " fill="none" id="asio_output-backto-text_tree_sink_factory" style="stroke:#FF0000;stroke-width:8.0;"/><polygon fill="#FF0000" points="687.8809,589.182,688.8095,598.987,690.3333,593.5392,695.7811,595.0631,687.8809,589.182" style="stroke:#FF0000;stroke-width:8.0;"/><text fill="#000000" font-family="sans-serif" font-size="13" lengthAdjust="spacing" textLength="32" x="719.5849" y="695.0669">write</text></g><!--reverse link osocket to asio_output_stream--><g id="link_osocket_asio_output_stream"><path codeLine="106" d="M534.7059,222.738 C545.8469,247.139 561.0639,280.466 574.4269,309.732 " fill="none" id="osocket-backto-asio_output_stream" style="stroke:#FF0000;stroke-width:8.0;"/><polygon fill="#FF0000" points="532.2139,217.28,532.3132,227.1284,534.2906,221.8283,539.5906,223.8057,532.2139,217.28" style="stroke:#FF0000;stroke-width:8.0;"/><text fill="#000000" font-family="sans-serif" font-size="13" lengthAdjust="spacing" textLength="32" x="558.5849" y="268.0669">write</text></g><!--SRC=[fLLDRzim3BtxLmZT9UccdWSZ2x3ZpZiEWw4fpAewbWn9NZkq_U_JbsCgPhO2kybY-DxZ8yLeCO0RXGIcmJyQsxFdHfw4Sqmv8tlmJ3XsypKTRzZpQmaQElZQD4fxiCS8Q44Sm0OynjxRIM-sCTm8hOqNNXdD1g5q2iT33gShplTpSilW2UJaeId4mYdJ8MGkf8JH6zkop-Mqt0PCp5tITY-SOnm2kdC-78RCu9JkMpOAwq90wN7owJPLtR9SVUHnNbWVUR36svgh06ERC70sInhjfW4w3qy-Ayy27vpHtK5uqOM05JBKYXLcw2v-q2WLKtA1G6m86qpiI6K0BW3nPls_Z3gmGh_veezcMmy6IkYEYVHtJXn43uLpirqLD8r1AUHIA8YxktsLKlKXbK1aLL1inxaXRMxPvCup61tjGXOiDVFW3kWm3dNipBBqOp444tF-ih_8fTagmxYPVEX6OSqV_-yZeULSnnKnqVfBzKk_aRhSvqUhWe30hVJFz4IFfydTPqNunwaTLoYhZgHE8uOtR8M_QS1mYnl5tpLblIrMUo4p_JY5YqlqEPFpMmmOp2lxbNzxP-7mmTyhsMjmxjF7xs6EYIVQfer9FLuQWXvol3CQwYSqsCM3EEDS6vST1RD6ISPLpNXB8fgG5S3i2Os3cURa-O_kdnbB8rBY7m00]--></g></svg>
