<?xml version="1.0" encoding="us-ascii" standalone="no"?><svg xmlns="http://www.w3.org/2000/svg" xmlns:xlink="http://www.w3.org/1999/xlink" contentStyleType="text/css" height="915px" preserveAspectRatio="none" style="width:818px;height:915px;background:#FFFFFF;" version="1.1" viewBox="0 0 818 915" width="818px" zoomAndPan="magnify"><defs/><g><!--class reader--><g id="elem_reader"><rect codeLine="1" fill="#F1F1F1" height="64.2969" id="reader" rx="2.5" ry="2.5" style="stroke:#181818;stroke-width:0.5;" width="80" x="218" y="156.5"/><ellipse cx="233" cy="172.5" fill="#B4A7E5" rx="11" ry="11" style="stroke:#181818;stroke-width:1.0;"/><path d="M233.9531,169.2813 L235.6719,169.2813 C236.0625,169.2813 236.25,169.25 236.375,169.1719 C236.6406,169.0156 236.7813,168.7344 236.7813,168.4375 C236.7813,168.1719 236.6719,167.9063 236.4375,167.7344 C236.2656,167.625 236.125,167.5938 235.6719,167.5938 L230.5313,167.5938 C230.0938,167.5938 229.9688,167.6094 229.8125,167.7031 C229.5625,167.8594 229.4063,168.1563 229.4063,168.4375 C229.4063,168.7188 229.5469,168.9688 229.7656,169.1406 C229.9219,169.25 230.1094,169.2813 230.5313,169.2813 L232.25,169.2813 L232.25,175.7969 L230.5313,175.7969 C230.0938,175.7969 229.9688,175.8125 229.8125,175.9219 C229.5625,176.0781 229.4063,176.3594 229.4063,176.6563 C229.4063,176.9063 229.5469,177.1719 229.7656,177.3281 C229.9219,177.4531 230.125,177.5 230.5313,177.5 L235.6719,177.5 C236.4219,177.5 236.7813,177.2188 236.7813,176.6563 C236.7813,176.375 236.6719,176.125 236.4375,175.9531 C236.2656,175.8281 236.125,175.7969 235.6719,175.7969 L233.9531,175.7969 L233.9531,169.2813 Z " fill="#000000"/><text fill="#000000" font-family="sans-serif" font-size="14" font-style="italic" lengthAdjust="spacing" textLength="48" x="247" y="177.3467">reader</text><line style="stroke:#181818;stroke-width:0.5;" x1="219" x2="297" y1="188.5" y2="188.5"/><line style="stroke:#181818;stroke-width:0.5;" x1="219" x2="297" y1="196.5" y2="196.5"/><ellipse cx="229" cy="210.1484" fill="#84BE84" rx="3" ry="3" style="stroke:#038048;stroke-width:1.0;"/><text fill="#000000" font-family="sans-serif" font-size="14" lengthAdjust="spacing" textLength="33" x="238" y="213.4951">run()</text></g><!--class main--><g id="elem_main"><rect codeLine="6" fill="#F1F1F1" height="64.2969" id="main" rx="2.5" ry="2.5" style="stroke:#181818;stroke-width:0.5;" width="67" x="224.5" y="7"/><ellipse cx="239.5" cy="23" fill="#E3664A" rx="11" ry="11" style="stroke:#181818;stroke-width:1.0;"/><path d="M240.4219,20.25 C238.5156,20.3906 237.2031,21.5781 237.2031,23.1563 C237.2031,24.5625 238.4063,25.7813 239.8594,25.7813 C240.0156,25.7813 240.1563,25.7656 240.4219,25.7188 L240.4219,25.7813 L241.2188,25.7813 C241.8438,25.7813 242.1563,25.5625 242.1563,25.0781 C242.1563,24.7969 242.0313,24.6094 241.7656,24.4844 L241.7656,19.7031 C241.7656,17.8125 240.4531,16.4531 238.6094,16.4531 C236.4063,16.4531 234.7969,18.5781 234.7969,21.5156 L234.7969,24.375 C234.7969,25.625 235.0781,26.8438 235.5938,27.7656 C236.3125,29.0156 237.2344,29.5781 238.6406,29.5781 C240.25,29.5781 241.6406,28.9219 241.6406,28.125 C241.6406,27.7344 241.3438,27.4219 240.9688,27.4219 C240.7656,27.4219 240.6719,27.4688 240.4375,27.7188 C240.1094,28.0469 239.4375,28.2656 238.6875,28.2656 C237.9375,28.2656 237.4063,28 237,27.4063 C236.4219,26.6094 236.1406,25.5625 236.1406,24.2656 L236.1406,21.6094 C236.1406,19.4375 237.2031,17.7969 238.6406,17.7969 C239.6875,17.7969 240.4219,18.5781 240.4219,19.7031 L240.4219,20.25 Z M240.4219,24.3594 C240.1875,24.4063 240.0938,24.4063 239.9844,24.4063 C239.1563,24.4063 238.5469,23.875 238.5469,23.1719 C238.5469,22.3438 239.2969,21.7344 240.4219,21.625 L240.4219,24.3594 Z " fill="#000000"/><text fill="#000000" font-family="sans-serif" font-size="14" lengthAdjust="spacing" textLength="35" x="253.5" y="27.8467">main</text><line style="stroke:#181818;stroke-width:0.5;" x1="225.5" x2="290.5" y1="39" y2="39"/><line style="stroke:#181818;stroke-width:0.5;" x1="225.5" x2="290.5" y1="47" y2="47"/><text fill="#000000" font-family="sans-serif" font-size="14" lengthAdjust="spacing" textLength="45" x="230.5" y="63.9951">main()</text></g><!--class istream_reader--><g id="elem_istream_reader"><rect codeLine="13" fill="#F1F1F1" height="96.8906" id="istream_reader" rx="2.5" ry="2.5" style="stroke:#181818;stroke-width:0.5;" width="155" x="259.5" y="314"/><ellipse cx="280.8" cy="330" fill="#ADD1B2" rx="11" ry="11" style="stroke:#181818;stroke-width:1.0;"/><path d="M283.1438,325.6719 C282.2063,325.2344 281.6125,325.0938 280.7375,325.0938 C278.1125,325.0938 276.1125,327.1719 276.1125,329.8906 L276.1125,331.0156 C276.1125,333.5938 278.2219,335.4844 281.1125,335.4844 C282.3313,335.4844 283.4875,335.1875 284.2375,334.6406 C284.8156,334.2344 285.1438,333.7813 285.1438,333.3906 C285.1438,332.9375 284.7531,332.5469 284.2844,332.5469 C284.0656,332.5469 283.8625,332.625 283.675,332.8125 C283.2219,333.2969 283.2219,333.2969 283.0344,333.3906 C282.6125,333.6563 281.925,333.7813 281.1594,333.7813 C279.1125,333.7813 277.8156,332.6875 277.8156,330.9844 L277.8156,329.8906 C277.8156,328.1094 279.0656,326.7969 280.8,326.7969 C281.3781,326.7969 281.9875,326.9531 282.4563,327.2031 C282.9406,327.4844 283.1125,327.7031 283.2063,328.1094 C283.2688,328.5156 283.3,328.6406 283.4406,328.7656 C283.5813,328.9063 283.8156,329.0156 284.0344,329.0156 C284.3,329.0156 284.5656,328.875 284.7375,328.6563 C284.8469,328.5 284.8781,328.3125 284.8781,327.8906 L284.8781,326.4688 C284.8781,326.0313 284.8625,325.9063 284.7688,325.75 C284.6125,325.4844 284.3313,325.3438 284.0344,325.3438 C283.7375,325.3438 283.5344,325.4375 283.3156,325.75 L283.1438,325.6719 Z " fill="#000000"/><text fill="#000000" font-family="sans-serif" font-size="14" lengthAdjust="spacing" textLength="109" x="296.2" y="334.8467">istream_reader</text><line style="stroke:#181818;stroke-width:0.5;" x1="260.5" x2="413.5" y1="346" y2="346"/><rect fill="none" height="6" style="stroke:#C82930;stroke-width:1.0;" width="6" x="267.5" y="356.6484"/><text fill="#000000" font-family="sans-serif" font-size="14" lengthAdjust="spacing" textLength="102" x="279.5" y="362.9951">input: istream</text><rect fill="none" height="6" style="stroke:#C82930;stroke-width:1.0;" width="6" x="267.5" y="372.9453"/><text fill="#000000" font-family="sans-serif" font-size="14" lengthAdjust="spacing" textLength="129" x="279.5" y="379.292">sink: parser_input</text><line style="stroke:#181818;stroke-width:0.5;" x1="260.5" x2="413.5" y1="386.5938" y2="386.5938"/><ellipse cx="270.5" cy="400.2422" fill="#84BE84" rx="3" ry="3" style="stroke:#038048;stroke-width:1.0;"/><text fill="#000000" font-family="sans-serif" font-size="14" lengthAdjust="spacing" textLength="33" x="279.5" y="403.5889">run()</text></g><!--class asio_reader--><g id="elem_asio_reader"><rect codeLine="21" fill="#F1F1F1" height="96.8906" id="asio_reader" rx="2.5" ry="2.5" style="stroke:#181818;stroke-width:0.5;" width="167" x="57.5" y="314"/><ellipse cx="96.35" cy="330" fill="#ADD1B2" rx="11" ry="11" style="stroke:#181818;stroke-width:1.0;"/><path d="M98.6938,325.6719 C97.7563,325.2344 97.1625,325.0938 96.2875,325.0938 C93.6625,325.0938 91.6625,327.1719 91.6625,329.8906 L91.6625,331.0156 C91.6625,333.5938 93.7719,335.4844 96.6625,335.4844 C97.8813,335.4844 99.0375,335.1875 99.7875,334.6406 C100.3656,334.2344 100.6938,333.7813 100.6938,333.3906 C100.6938,332.9375 100.3031,332.5469 99.8344,332.5469 C99.6156,332.5469 99.4125,332.625 99.225,332.8125 C98.7719,333.2969 98.7719,333.2969 98.5844,333.3906 C98.1625,333.6563 97.475,333.7813 96.7094,333.7813 C94.6625,333.7813 93.3656,332.6875 93.3656,330.9844 L93.3656,329.8906 C93.3656,328.1094 94.6156,326.7969 96.35,326.7969 C96.9281,326.7969 97.5375,326.9531 98.0063,327.2031 C98.4906,327.4844 98.6625,327.7031 98.7563,328.1094 C98.8188,328.5156 98.85,328.6406 98.9906,328.7656 C99.1313,328.9063 99.3656,329.0156 99.5844,329.0156 C99.85,329.0156 100.1156,328.875 100.2875,328.6563 C100.3969,328.5 100.4281,328.3125 100.4281,327.8906 L100.4281,326.4688 C100.4281,326.0313 100.4125,325.9063 100.3188,325.75 C100.1625,325.4844 99.8813,325.3438 99.5844,325.3438 C99.2875,325.3438 99.0844,325.4375 98.8656,325.75 L98.6938,325.6719 Z " fill="#000000"/><text fill="#000000" font-family="sans-serif" font-size="14" lengthAdjust="spacing" textLength="82" x="115.65" y="334.8467">asio_reader</text><line style="stroke:#181818;stroke-width:0.5;" x1="58.5" x2="223.5" y1="346" y2="346"/><rect fill="none" height="6" style="stroke:#C82930;stroke-width:1.0;" width="6" x="65.5" y="356.6484"/><text fill="#000000" font-family="sans-serif" font-size="14" lengthAdjust="spacing" textLength="141" x="77.5" y="362.9951">acceptor: Acceptor</text><line style="stroke:#181818;stroke-width:0.5;" x1="58.5" x2="223.5" y1="370.2969" y2="370.2969"/><rect fill="#F24D5C" height="6" style="stroke:#C82930;stroke-width:1.0;" width="6" x="65.5" y="380.9453"/><text fill="#000000" font-family="sans-serif" font-size="14" lengthAdjust="spacing" textLength="60" x="77.5" y="387.292">accept()</text><ellipse cx="68.5" cy="400.2422" fill="#84BE84" rx="3" ry="3" style="stroke:#038048;stroke-width:1.0;"/><text fill="#000000" font-family="sans-serif" font-size="14" lengthAdjust="spacing" textLength="33" x="77.5" y="403.5889">run()</text></g><!--class asio_reader_stream--><g id="elem_asio_reader_stream"><rect codeLine="29" fill="#F1F1F1" height="80.5938" id="asio_reader_stream" rx="2.5" ry="2.5" style="stroke:#181818;stroke-width:0.5;" width="172" x="7" y="496"/><ellipse cx="22" cy="512" fill="#ADD1B2" rx="11" ry="11" style="stroke:#181818;stroke-width:1.0;"/><path d="M24.3438,507.6719 C23.4063,507.2344 22.8125,507.0938 21.9375,507.0938 C19.3125,507.0938 17.3125,509.1719 17.3125,511.8906 L17.3125,513.0156 C17.3125,515.5938 19.4219,517.4844 22.3125,517.4844 C23.5313,517.4844 24.6875,517.1875 25.4375,516.6406 C26.0156,516.2344 26.3438,515.7813 26.3438,515.3906 C26.3438,514.9375 25.9531,514.5469 25.4844,514.5469 C25.2656,514.5469 25.0625,514.625 24.875,514.8125 C24.4219,515.2969 24.4219,515.2969 24.2344,515.3906 C23.8125,515.6563 23.125,515.7813 22.3594,515.7813 C20.3125,515.7813 19.0156,514.6875 19.0156,512.9844 L19.0156,511.8906 C19.0156,510.1094 20.2656,508.7969 22,508.7969 C22.5781,508.7969 23.1875,508.9531 23.6563,509.2031 C24.1406,509.4844 24.3125,509.7031 24.4063,510.1094 C24.4688,510.5156 24.5,510.6406 24.6406,510.7656 C24.7813,510.9063 25.0156,511.0156 25.2344,511.0156 C25.5,511.0156 25.7656,510.875 25.9375,510.6563 C26.0469,510.5 26.0781,510.3125 26.0781,509.8906 L26.0781,508.4688 C26.0781,508.0313 26.0625,507.9063 25.9688,507.75 C25.8125,507.4844 25.5313,507.3438 25.2344,507.3438 C24.9375,507.3438 24.7344,507.4375 24.5156,507.75 L24.3438,507.6719 Z " fill="#000000"/><text fill="#000000" font-family="sans-serif" font-size="14" lengthAdjust="spacing" textLength="140" x="36" y="516.8467">asio_reader_stream</text><line style="stroke:#181818;stroke-width:0.5;" x1="8" x2="178" y1="528" y2="528"/><rect fill="none" height="6" style="stroke:#C82930;stroke-width:1.0;" width="6" x="15" y="538.6484"/><text fill="#000000" font-family="sans-serif" font-size="14" lengthAdjust="spacing" textLength="129" x="27" y="544.9951">sink: parser_input</text><ellipse cx="18" cy="557.9453" fill="none" rx="3" ry="3" style="stroke:#038048;stroke-width:1.0;"/><text fill="#000000" font-family="sans-serif" font-size="14" lengthAdjust="spacing" textLength="35" x="27" y="561.292">start</text><line style="stroke:#181818;stroke-width:0.5;" x1="8" x2="178" y1="568.5938" y2="568.5938"/></g><!--class parser_input--><g id="elem_parser_input"><rect codeLine="36" fill="#F1F1F1" height="64.2969" id="parser_input" rx="2.5" ry="2.5" style="stroke:#181818;stroke-width:0.5;" width="138" x="134" y="670.5"/><ellipse cx="156.65" cy="686.5" fill="#B4A7E5" rx="11" ry="11" style="stroke:#181818;stroke-width:1.0;"/><path d="M157.6031,683.2813 L159.3219,683.2813 C159.7125,683.2813 159.9,683.25 160.025,683.1719 C160.2906,683.0156 160.4313,682.7344 160.4313,682.4375 C160.4313,682.1719 160.3219,681.9063 160.0875,681.7344 C159.9156,681.625 159.775,681.5938 159.3219,681.5938 L154.1813,681.5938 C153.7438,681.5938 153.6188,681.6094 153.4625,681.7031 C153.2125,681.8594 153.0563,682.1563 153.0563,682.4375 C153.0563,682.7188 153.1969,682.9688 153.4156,683.1406 C153.5719,683.25 153.7594,683.2813 154.1813,683.2813 L155.9,683.2813 L155.9,689.7969 L154.1813,689.7969 C153.7438,689.7969 153.6188,689.8125 153.4625,689.9219 C153.2125,690.0781 153.0563,690.3594 153.0563,690.6563 C153.0563,690.9063 153.1969,691.1719 153.4156,691.3281 C153.5719,691.4531 153.775,691.5 154.1813,691.5 L159.3219,691.5 C160.0719,691.5 160.4313,691.2188 160.4313,690.6563 C160.4313,690.375 160.3219,690.125 160.0875,689.9531 C159.9156,689.8281 159.775,689.7969 159.3219,689.7969 L157.6031,689.7969 L157.6031,683.2813 Z " fill="#000000"/><text fill="#000000" font-family="sans-serif" font-size="14" font-style="italic" lengthAdjust="spacing" textLength="89" x="172.35" y="691.3467">parser_input</text><line style="stroke:#181818;stroke-width:0.5;" x1="135" x2="271" y1="702.5" y2="702.5"/><line style="stroke:#181818;stroke-width:0.5;" x1="135" x2="271" y1="710.5" y2="710.5"/><ellipse cx="145" cy="724.1484" fill="#84BE84" rx="3" ry="3" style="stroke:#038048;stroke-width:1.0;"/><text fill="#000000" font-family="sans-serif" font-size="14" lengthAdjust="spacing" textLength="112" x="154" y="727.4951">consume_text()</text></g><!--class json_data_extractor--><g id="elem_json_data_extractor"><rect codeLine="40" fill="#F1F1F1" height="80.5938" id="json_data_extractor" rx="2.5" ry="2.5" style="stroke:#181818;stroke-width:0.5;" width="175" x="194.5" y="828"/><ellipse cx="209.5" cy="844" fill="#ADD1B2" rx="11" ry="11" style="stroke:#181818;stroke-width:1.0;"/><path d="M211.8438,839.6719 C210.9063,839.2344 210.3125,839.0938 209.4375,839.0938 C206.8125,839.0938 204.8125,841.1719 204.8125,843.8906 L204.8125,845.0156 C204.8125,847.5938 206.9219,849.4844 209.8125,849.4844 C211.0313,849.4844 212.1875,849.1875 212.9375,848.6406 C213.5156,848.2344 213.8438,847.7813 213.8438,847.3906 C213.8438,846.9375 213.4531,846.5469 212.9844,846.5469 C212.7656,846.5469 212.5625,846.625 212.375,846.8125 C211.9219,847.2969 211.9219,847.2969 211.7344,847.3906 C211.3125,847.6563 210.625,847.7813 209.8594,847.7813 C207.8125,847.7813 206.5156,846.6875 206.5156,844.9844 L206.5156,843.8906 C206.5156,842.1094 207.7656,840.7969 209.5,840.7969 C210.0781,840.7969 210.6875,840.9531 211.1563,841.2031 C211.6406,841.4844 211.8125,841.7031 211.9063,842.1094 C211.9688,842.5156 212,842.6406 212.1406,842.7656 C212.2813,842.9063 212.5156,843.0156 212.7344,843.0156 C213,843.0156 213.2656,842.875 213.4375,842.6563 C213.5469,842.5 213.5781,842.3125 213.5781,841.8906 L213.5781,840.4688 C213.5781,840.0313 213.5625,839.9063 213.4688,839.75 C213.3125,839.4844 213.0313,839.3438 212.7344,839.3438 C212.4375,839.3438 212.2344,839.4375 212.0156,839.75 L211.8438,839.6719 Z " fill="#000000"/><text fill="#000000" font-family="sans-serif" font-size="14" lengthAdjust="spacing" textLength="143" x="223.5" y="848.8467">json_data_extractor</text><line style="stroke:#181818;stroke-width:0.5;" x1="195.5" x2="368.5" y1="860" y2="860"/><rect fill="none" height="6" style="stroke:#C82930;stroke-width:1.0;" width="6" x="202.5" y="870.6484"/><text fill="#000000" font-family="sans-serif" font-size="14" lengthAdjust="spacing" textLength="125" x="214.5" y="876.9951">sink: stream_sink</text><line style="stroke:#181818;stroke-width:0.5;" x1="195.5" x2="368.5" y1="884.2969" y2="884.2969"/><ellipse cx="205.5" cy="897.9453" fill="#84BE84" rx="3" ry="3" style="stroke:#038048;stroke-width:1.0;"/><text fill="#000000" font-family="sans-serif" font-size="14" lengthAdjust="spacing" textLength="112" x="214.5" y="901.292">consume_text()</text></g><!--class stream_sink--><g id="elem_stream_sink"><rect codeLine="51" fill="#F1F1F1" height="64.2969" id="stream_sink" rx="2.5" ry="2.5" style="stroke:#181818;stroke-width:0.5;" width="162" x="307" y="670.5"/><ellipse cx="342.25" cy="686.5" fill="#B4A7E5" rx="11" ry="11" style="stroke:#181818;stroke-width:1.0;"/><path d="M343.2031,683.2813 L344.9219,683.2813 C345.3125,683.2813 345.5,683.25 345.625,683.1719 C345.8906,683.0156 346.0313,682.7344 346.0313,682.4375 C346.0313,682.1719 345.9219,681.9063 345.6875,681.7344 C345.5156,681.625 345.375,681.5938 344.9219,681.5938 L339.7813,681.5938 C339.3438,681.5938 339.2188,681.6094 339.0625,681.7031 C338.8125,681.8594 338.6563,682.1563 338.6563,682.4375 C338.6563,682.7188 338.7969,682.9688 339.0156,683.1406 C339.1719,683.25 339.3594,683.2813 339.7813,683.2813 L341.5,683.2813 L341.5,689.7969 L339.7813,689.7969 C339.3438,689.7969 339.2188,689.8125 339.0625,689.9219 C338.8125,690.0781 338.6563,690.3594 338.6563,690.6563 C338.6563,690.9063 338.7969,691.1719 339.0156,691.3281 C339.1719,691.4531 339.375,691.5 339.7813,691.5 L344.9219,691.5 C345.6719,691.5 346.0313,691.2188 346.0313,690.6563 C346.0313,690.375 345.9219,690.125 345.6875,689.9531 C345.5156,689.8281 345.375,689.7969 344.9219,689.7969 L343.2031,689.7969 L343.2031,683.2813 Z " fill="#000000"/><text fill="#000000" font-family="sans-serif" font-size="14" font-style="italic" lengthAdjust="spacing" textLength="85" x="360.75" y="691.3467">stream_sink</text><line style="stroke:#181818;stroke-width:0.5;" x1="308" x2="468" y1="702.5" y2="702.5"/><line style="stroke:#181818;stroke-width:0.5;" x1="308" x2="468" y1="710.5" y2="710.5"/><ellipse cx="318" cy="724.1484" fill="#84BE84" rx="3" ry="3" style="stroke:#038048;stroke-width:1.0;"/><text fill="#000000" font-family="sans-serif" font-size="14" lengthAdjust="spacing" textLength="136" x="327" y="727.4951">void consume(Info)</text></g><!--class stream_sink_factory--><g id="elem_stream_sink_factory"><rect codeLine="55" fill="#F1F1F1" height="80.5938" id="stream_sink_factory" rx="2.5" ry="2.5" style="stroke:#181818;stroke-width:0.5;" width="230" x="285" y="496"/><ellipse cx="325.2" cy="512" fill="#B4A7E5" rx="11" ry="11" style="stroke:#181818;stroke-width:1.0;"/><path d="M326.1531,508.7813 L327.8719,508.7813 C328.2625,508.7813 328.45,508.75 328.575,508.6719 C328.8406,508.5156 328.9813,508.2344 328.9813,507.9375 C328.9813,507.6719 328.8719,507.4063 328.6375,507.2344 C328.4656,507.125 328.325,507.0938 327.8719,507.0938 L322.7313,507.0938 C322.2938,507.0938 322.1688,507.1094 322.0125,507.2031 C321.7625,507.3594 321.6063,507.6563 321.6063,507.9375 C321.6063,508.2188 321.7469,508.4688 321.9656,508.6406 C322.1219,508.75 322.3094,508.7813 322.7313,508.7813 L324.45,508.7813 L324.45,515.2969 L322.7313,515.2969 C322.2938,515.2969 322.1688,515.3125 322.0125,515.4219 C321.7625,515.5781 321.6063,515.8594 321.6063,516.1563 C321.6063,516.4063 321.7469,516.6719 321.9656,516.8281 C322.1219,516.9531 322.325,517 322.7313,517 L327.8719,517 C328.6219,517 328.9813,516.7188 328.9813,516.1563 C328.9813,515.875 328.8719,515.625 328.6375,515.4531 C328.4656,515.3281 328.325,515.2969 327.8719,515.2969 L326.1531,515.2969 L326.1531,508.7813 Z " fill="#000000"/><text fill="#000000" font-family="sans-serif" font-size="14" font-style="italic" lengthAdjust="spacing" textLength="142" x="344.8" y="516.8467">stream_sink_factory</text><line style="stroke:#181818;stroke-width:0.5;" x1="286" x2="514" y1="528" y2="528"/><line style="stroke:#181818;stroke-width:0.5;" x1="286" x2="514" y1="536" y2="536"/><ellipse cx="296" cy="549.6484" fill="#84BE84" rx="3" ry="3" style="stroke:#038048;stroke-width:1.0;"/><text fill="#000000" font-family="sans-serif" font-size="14" lengthAdjust="spacing" textLength="204" x="305" y="552.9951">make_stream(): stream_sink</text><ellipse cx="296" cy="565.9453" fill="#84BE84" rx="3" ry="3" style="stroke:#038048;stroke-width:1.0;"/><text fill="#000000" font-family="sans-serif" font-size="14" lengthAdjust="spacing" textLength="61" x="305" y="569.292">update()</text></g><!--class text_tree_sink--><g id="elem_text_tree_sink"><rect codeLine="67" fill="#F1F1F1" height="64.2969" id="text_tree_sink" rx="2.5" ry="2.5" style="stroke:#181818;stroke-width:0.5;" width="137" x="466.5" y="836.5"/><ellipse cx="481.5" cy="852.5" fill="#ADD1B2" rx="11" ry="11" style="stroke:#181818;stroke-width:1.0;"/><path d="M483.8438,848.1719 C482.9063,847.7344 482.3125,847.5938 481.4375,847.5938 C478.8125,847.5938 476.8125,849.6719 476.8125,852.3906 L476.8125,853.5156 C476.8125,856.0938 478.9219,857.9844 481.8125,857.9844 C483.0313,857.9844 484.1875,857.6875 484.9375,857.1406 C485.5156,856.7344 485.8438,856.2813 485.8438,855.8906 C485.8438,855.4375 485.4531,855.0469 484.9844,855.0469 C484.7656,855.0469 484.5625,855.125 484.375,855.3125 C483.9219,855.7969 483.9219,855.7969 483.7344,855.8906 C483.3125,856.1563 482.625,856.2813 481.8594,856.2813 C479.8125,856.2813 478.5156,855.1875 478.5156,853.4844 L478.5156,852.3906 C478.5156,850.6094 479.7656,849.2969 481.5,849.2969 C482.0781,849.2969 482.6875,849.4531 483.1563,849.7031 C483.6406,849.9844 483.8125,850.2031 483.9063,850.6094 C483.9688,851.0156 484,851.1406 484.1406,851.2656 C484.2813,851.4063 484.5156,851.5156 484.7344,851.5156 C485,851.5156 485.2656,851.375 485.4375,851.1563 C485.5469,851 485.5781,850.8125 485.5781,850.3906 L485.5781,848.9688 C485.5781,848.5313 485.5625,848.4063 485.4688,848.25 C485.3125,847.9844 485.0313,847.8438 484.7344,847.8438 C484.4375,847.8438 484.2344,847.9375 484.0156,848.25 L483.8438,848.1719 Z " fill="#000000"/><text fill="#000000" font-family="sans-serif" font-size="14" lengthAdjust="spacing" textLength="105" x="495.5" y="857.3467">text_tree_sink</text><line style="stroke:#181818;stroke-width:0.5;" x1="467.5" x2="602.5" y1="868.5" y2="868.5"/><line style="stroke:#181818;stroke-width:0.5;" x1="467.5" x2="602.5" y1="876.5" y2="876.5"/><ellipse cx="477.5" cy="890.1484" fill="#84BE84" rx="3" ry="3" style="stroke:#038048;stroke-width:1.0;"/><text fill="#000000" font-family="sans-serif" font-size="14" lengthAdjust="spacing" textLength="102" x="486.5" y="893.4951">consume(Info)</text></g><!--class text_tree_sink_factory--><g id="elem_text_tree_sink_factory"><rect codeLine="73" fill="#F1F1F1" height="96.8906" id="text_tree_sink_factory" rx="2.5" ry="2.5" style="stroke:#181818;stroke-width:0.5;" width="230" x="504" y="654"/><ellipse cx="534.3" cy="670" fill="#ADD1B2" rx="11" ry="11" style="stroke:#181818;stroke-width:1.0;"/><path d="M536.6438,665.6719 C535.7063,665.2344 535.1125,665.0938 534.2375,665.0938 C531.6125,665.0938 529.6125,667.1719 529.6125,669.8906 L529.6125,671.0156 C529.6125,673.5938 531.7219,675.4844 534.6125,675.4844 C535.8313,675.4844 536.9875,675.1875 537.7375,674.6406 C538.3156,674.2344 538.6438,673.7813 538.6438,673.3906 C538.6438,672.9375 538.2531,672.5469 537.7844,672.5469 C537.5656,672.5469 537.3625,672.625 537.175,672.8125 C536.7219,673.2969 536.7219,673.2969 536.5344,673.3906 C536.1125,673.6563 535.425,673.7813 534.6594,673.7813 C532.6125,673.7813 531.3156,672.6875 531.3156,670.9844 L531.3156,669.8906 C531.3156,668.1094 532.5656,666.7969 534.3,666.7969 C534.8781,666.7969 535.4875,666.9531 535.9563,667.2031 C536.4406,667.4844 536.6125,667.7031 536.7063,668.1094 C536.7688,668.5156 536.8,668.6406 536.9406,668.7656 C537.0813,668.9063 537.3156,669.0156 537.5344,669.0156 C537.8,669.0156 538.0656,668.875 538.2375,668.6563 C538.3469,668.5 538.3781,668.3125 538.3781,667.8906 L538.3781,666.4688 C538.3781,666.0313 538.3625,665.9063 538.2688,665.75 C538.1125,665.4844 537.8313,665.3438 537.5344,665.3438 C537.2375,665.3438 537.0344,665.4375 536.8156,665.75 L536.6438,665.6719 Z " fill="#000000"/><text fill="#000000" font-family="sans-serif" font-size="14" lengthAdjust="spacing" textLength="164" x="551.7" y="674.8467">text_tree_sink_factory</text><line style="stroke:#181818;stroke-width:0.5;" x1="505" x2="733" y1="686" y2="686"/><rect fill="none" height="6" style="stroke:#C82930;stroke-width:1.0;" width="6" x="512" y="696.6484"/><text fill="#000000" font-family="sans-serif" font-size="14" lengthAdjust="spacing" textLength="145" x="524" y="702.9951">output: text_output</text><line style="stroke:#181818;stroke-width:0.5;" x1="505" x2="733" y1="710.2969" y2="710.2969"/><ellipse cx="515" cy="723.9453" fill="#84BE84" rx="3" ry="3" style="stroke:#038048;stroke-width:1.0;"/><text fill="#000000" font-family="sans-serif" font-size="14" lengthAdjust="spacing" textLength="204" x="524" y="727.292">make_stream(): stream_sink</text><ellipse cx="515" cy="740.2422" fill="#84BE84" rx="3" ry="3" style="stroke:#038048;stroke-width:1.0;"/><text fill="#000000" font-family="sans-serif" font-size="14" lengthAdjust="spacing" textLength="61" x="524" y="743.5889">update()</text></g><!--class text_output--><g id="elem_text_output"><rect codeLine="83" fill="#F1F1F1" height="80.5938" id="text_output" rx="2.5" ry="2.5" style="stroke:#181818;stroke-width:0.5;" width="115" x="561.5" y="496"/><ellipse cx="577.85" cy="512" fill="#B4A7E5" rx="11" ry="11" style="stroke:#181818;stroke-width:1.0;"/><path d="M578.8031,508.7813 L580.5219,508.7813 C580.9125,508.7813 581.1,508.75 581.225,508.6719 C581.4906,508.5156 581.6313,508.2344 581.6313,507.9375 C581.6313,507.6719 581.5219,507.4063 581.2875,507.2344 C581.1156,507.125 580.975,507.0938 580.5219,507.0938 L575.3813,507.0938 C574.9438,507.0938 574.8188,507.1094 574.6625,507.2031 C574.4125,507.3594 574.2563,507.6563 574.2563,507.9375 C574.2563,508.2188 574.3969,508.4688 574.6156,508.6406 C574.7719,508.75 574.9594,508.7813 575.3813,508.7813 L577.1,508.7813 L577.1,515.2969 L575.3813,515.2969 C574.9438,515.2969 574.8188,515.3125 574.6625,515.4219 C574.4125,515.5781 574.2563,515.8594 574.2563,516.1563 C574.2563,516.4063 574.3969,516.6719 574.6156,516.8281 C574.7719,516.9531 574.975,517 575.3813,517 L580.5219,517 C581.2719,517 581.6313,516.7188 581.6313,516.1563 C581.6313,515.875 581.5219,515.625 581.2875,515.4531 C581.1156,515.3281 580.975,515.2969 580.5219,515.2969 L578.8031,515.2969 L578.8031,508.7813 Z " fill="#000000"/><text fill="#000000" font-family="sans-serif" font-size="14" font-style="italic" lengthAdjust="spacing" textLength="80" x="592.15" y="516.8467">text_output</text><line style="stroke:#181818;stroke-width:0.5;" x1="562.5" x2="675.5" y1="528" y2="528"/><line style="stroke:#181818;stroke-width:0.5;" x1="562.5" x2="675.5" y1="536" y2="536"/><ellipse cx="572.5" cy="549.6484" fill="#84BE84" rx="3" ry="3" style="stroke:#038048;stroke-width:1.0;"/><text fill="#000000" font-family="sans-serif" font-size="14" lengthAdjust="spacing" textLength="89" x="581.5" y="552.9951">write(string)</text><ellipse cx="572.5" cy="565.9453" fill="#84BE84" rx="3" ry="3" style="stroke:#038048;stroke-width:1.0;"/><text fill="#000000" font-family="sans-serif" font-size="14" lengthAdjust="spacing" textLength="44" x="581.5" y="569.292">flush()</text></g><!--class ostream_output--><g id="elem_ostream_output"><rect codeLine="90" fill="#F1F1F1" height="96.8906" id="ostream_output" rx="2.5" ry="2.5" style="stroke:#181818;stroke-width:0.5;" width="148" x="457" y="314"/><ellipse cx="472" cy="330" fill="#ADD1B2" rx="11" ry="11" style="stroke:#181818;stroke-width:1.0;"/><path d="M474.3438,325.6719 C473.4063,325.2344 472.8125,325.0938 471.9375,325.0938 C469.3125,325.0938 467.3125,327.1719 467.3125,329.8906 L467.3125,331.0156 C467.3125,333.5938 469.4219,335.4844 472.3125,335.4844 C473.5313,335.4844 474.6875,335.1875 475.4375,334.6406 C476.0156,334.2344 476.3438,333.7813 476.3438,333.3906 C476.3438,332.9375 475.9531,332.5469 475.4844,332.5469 C475.2656,332.5469 475.0625,332.625 474.875,332.8125 C474.4219,333.2969 474.4219,333.2969 474.2344,333.3906 C473.8125,333.6563 473.125,333.7813 472.3594,333.7813 C470.3125,333.7813 469.0156,332.6875 469.0156,330.9844 L469.0156,329.8906 C469.0156,328.1094 470.2656,326.7969 472,326.7969 C472.5781,326.7969 473.1875,326.9531 473.6563,327.2031 C474.1406,327.4844 474.3125,327.7031 474.4063,328.1094 C474.4688,328.5156 474.5,328.6406 474.6406,328.7656 C474.7813,328.9063 475.0156,329.0156 475.2344,329.0156 C475.5,329.0156 475.7656,328.875 475.9375,328.6563 C476.0469,328.5 476.0781,328.3125 476.0781,327.8906 L476.0781,326.4688 C476.0781,326.0313 476.0625,325.9063 475.9688,325.75 C475.8125,325.4844 475.5313,325.3438 475.2344,325.3438 C474.9375,325.3438 474.7344,325.4375 474.5156,325.75 L474.3438,325.6719 Z " fill="#000000"/><text fill="#000000" font-family="sans-serif" font-size="14" lengthAdjust="spacing" textLength="116" x="486" y="334.8467">ostream_output</text><line style="stroke:#181818;stroke-width:0.5;" x1="458" x2="604" y1="346" y2="346"/><rect fill="none" height="6" style="stroke:#C82930;stroke-width:1.0;" width="6" x="465" y="356.6484"/><text fill="#000000" font-family="sans-serif" font-size="14" lengthAdjust="spacing" textLength="118" x="477" y="362.9951">output: ostream</text><line style="stroke:#181818;stroke-width:0.5;" x1="458" x2="604" y1="370.2969" y2="370.2969"/><ellipse cx="468" cy="383.9453" fill="#84BE84" rx="3" ry="3" style="stroke:#038048;stroke-width:1.0;"/><text fill="#000000" font-family="sans-serif" font-size="14" lengthAdjust="spacing" textLength="89" x="477" y="387.292">write(string)</text><ellipse cx="468" cy="400.2422" fill="#84BE84" rx="3" ry="3" style="stroke:#038048;stroke-width:1.0;"/><text fill="#000000" font-family="sans-serif" font-size="14" lengthAdjust="spacing" textLength="44" x="477" y="403.5889">flush()</text></g><!--class asio_output--><g id="elem_asio_output"><rect codeLine="96" fill="#F1F1F1" height="113.1875" id="asio_output" rx="2.5" ry="2.5" style="stroke:#181818;stroke-width:0.5;" width="167" x="640.5" y="306"/><ellipse cx="678.45" cy="322" fill="#ADD1B2" rx="11" ry="11" style="stroke:#181818;stroke-width:1.0;"/><path d="M680.7938,317.6719 C679.8563,317.2344 679.2625,317.0938 678.3875,317.0938 C675.7625,317.0938 673.7625,319.1719 673.7625,321.8906 L673.7625,323.0156 C673.7625,325.5938 675.8719,327.4844 678.7625,327.4844 C679.9813,327.4844 681.1375,327.1875 681.8875,326.6406 C682.4656,326.2344 682.7938,325.7813 682.7938,325.3906 C682.7938,324.9375 682.4031,324.5469 681.9344,324.5469 C681.7156,324.5469 681.5125,324.625 681.325,324.8125 C680.8719,325.2969 680.8719,325.2969 680.6844,325.3906 C680.2625,325.6563 679.575,325.7813 678.8094,325.7813 C676.7625,325.7813 675.4656,324.6875 675.4656,322.9844 L675.4656,321.8906 C675.4656,320.1094 676.7156,318.7969 678.45,318.7969 C679.0281,318.7969 679.6375,318.9531 680.1063,319.2031 C680.5906,319.4844 680.7625,319.7031 680.8563,320.1094 C680.9188,320.5156 680.95,320.6406 681.0906,320.7656 C681.2313,320.9063 681.4656,321.0156 681.6844,321.0156 C681.95,321.0156 682.2156,320.875 682.3875,320.6563 C682.4969,320.5 682.5281,320.3125 682.5281,319.8906 L682.5281,318.4688 C682.5281,318.0313 682.5125,317.9063 682.4188,317.75 C682.2625,317.4844 681.9813,317.3438 681.6844,317.3438 C681.3875,317.3438 681.1844,317.4375 680.9656,317.75 L680.7938,317.6719 Z " fill="#000000"/><text fill="#000000" font-family="sans-serif" font-size="14" lengthAdjust="spacing" textLength="84" x="697.55" y="326.8467">asio_output</text><line style="stroke:#181818;stroke-width:0.5;" x1="641.5" x2="806.5" y1="338" y2="338"/><rect fill="none" height="6" style="stroke:#C82930;stroke-width:1.0;" width="6" x="648.5" y="348.6484"/><text fill="#000000" font-family="sans-serif" font-size="14" lengthAdjust="spacing" textLength="141" x="660.5" y="354.9951">acceptor: Acceptor</text><line style="stroke:#181818;stroke-width:0.5;" x1="641.5" x2="806.5" y1="362.2969" y2="362.2969"/><rect fill="#F24D5C" height="6" style="stroke:#C82930;stroke-width:1.0;" width="6" x="648.5" y="372.9453"/><text fill="#000000" font-family="sans-serif" font-size="14" lengthAdjust="spacing" textLength="60" x="660.5" y="379.292">accept()</text><ellipse cx="651.5" cy="392.2422" fill="#84BE84" rx="3" ry="3" style="stroke:#038048;stroke-width:1.0;"/><text fill="#000000" font-family="sans-serif" font-size="14" lengthAdjust="spacing" textLength="89" x="660.5" y="395.5889">write(string)</text><ellipse cx="651.5" cy="408.5391" fill="#84BE84" rx="3" ry="3" style="stroke:#038048;stroke-width:1.0;"/><text fill="#000000" font-family="sans-serif" font-size="14" lengthAdjust="spacing" textLength="44" x="660.5" y="411.8857">flush()</text></g><!--class asio_output_stream--><g id="elem_asio_output_stream"><rect codeLine="106" fill="#F1F1F1" height="80.5938" id="asio_output_stream" rx="2.5" ry="2.5" style="stroke:#181818;stroke-width:0.5;" width="174" x="637" y="148"/><ellipse cx="652" cy="164" fill="#ADD1B2" rx="11" ry="11" style="stroke:#181818;stroke-width:1.0;"/><path d="M654.3438,159.6719 C653.4063,159.2344 652.8125,159.0938 651.9375,159.0938 C649.3125,159.0938 647.3125,161.1719 647.3125,163.8906 L647.3125,165.0156 C647.3125,167.5938 649.4219,169.4844 652.3125,169.4844 C653.5313,169.4844 654.6875,169.1875 655.4375,168.6406 C656.0156,168.2344 656.3438,167.7813 656.3438,167.3906 C656.3438,166.9375 655.9531,166.5469 655.4844,166.5469 C655.2656,166.5469 655.0625,166.625 654.875,166.8125 C654.4219,167.2969 654.4219,167.2969 654.2344,167.3906 C653.8125,167.6563 653.125,167.7813 652.3594,167.7813 C650.3125,167.7813 649.0156,166.6875 649.0156,164.9844 L649.0156,163.8906 C649.0156,162.1094 650.2656,160.7969 652,160.7969 C652.5781,160.7969 653.1875,160.9531 653.6563,161.2031 C654.1406,161.4844 654.3125,161.7031 654.4063,162.1094 C654.4688,162.5156 654.5,162.6406 654.6406,162.7656 C654.7813,162.9063 655.0156,163.0156 655.2344,163.0156 C655.5,163.0156 655.7656,162.875 655.9375,162.6563 C656.0469,162.5 656.0781,162.3125 656.0781,161.8906 L656.0781,160.4688 C656.0781,160.0313 656.0625,159.9063 655.9688,159.75 C655.8125,159.4844 655.5313,159.3438 655.2344,159.3438 C654.9375,159.3438 654.7344,159.4375 654.5156,159.75 L654.3438,159.6719 Z " fill="#000000"/><text fill="#000000" font-family="sans-serif" font-size="14" lengthAdjust="spacing" textLength="142" x="666" y="168.8467">asio_output_stream</text><line style="stroke:#181818;stroke-width:0.5;" x1="638" x2="810" y1="180" y2="180"/><rect fill="none" height="6" style="stroke:#C82930;stroke-width:1.0;" width="6" x="645" y="190.6484"/><text fill="#000000" font-family="sans-serif" font-size="14" lengthAdjust="spacing" textLength="109" x="657" y="196.9951">socket: Socket</text><line style="stroke:#181818;stroke-width:0.5;" x1="638" x2="810" y1="204.2969" y2="204.2969"/><ellipse cx="648" cy="217.9453" fill="#84BE84" rx="3" ry="3" style="stroke:#038048;stroke-width:1.0;"/><text fill="#000000" font-family="sans-serif" font-size="14" lengthAdjust="spacing" textLength="87" x="657" y="221.292">write(block)</text></g><!--link main to reader--><g id="link_main_reader"><path codeLine="10" d="M258,71.281 C258,96.312 258,125.245 258,150.264 " fill="none" id="main-to-reader" style="stroke:#181818;stroke-width:1.0;"/><polygon fill="#181818" points="258,156.264,262,147.264,258,151.264,254,147.264,258,156.264" style="stroke:#181818;stroke-width:1.0;"/><text fill="#000000" font-family="sans-serif" font-size="13" lengthAdjust="spacing" textLength="52" x="259" y="114.0669">execute</text></g><!--reverse link reader to istream_reader--><g id="link_reader_istream_reader"><path codeLine="19" d="M279.8193,237.005 C291.7363,262.949 301.389,283.968 315.045,313.699 " fill="none" id="reader-backto-istream_reader" style="stroke:#181818;stroke-width:1.0;"/><polygon fill="none" points="272.306,220.648,274.367,239.5094,285.2716,234.5005,272.306,220.648" style="stroke:#181818;stroke-width:1.0;"/><text fill="#000000" font-family="sans-serif" font-size="13" lengthAdjust="spacing" textLength="76" x="299" y="272.0669">implements</text></g><!--reverse link reader to asio_reader--><g id="link_reader_asio_reader"><path codeLine="27" d="M222.358,234.7718 C213.203,246.6298 213.887,246.143 205,259 C192.832,276.602 180.2,296.45 169.406,313.959 " fill="none" id="reader-backto-asio_reader" style="stroke:#181818;stroke-width:1.0;"/><polygon fill="none" points="233.358,220.524,217.6087,231.1051,227.1072,238.4385,233.358,220.524" style="stroke:#181818;stroke-width:1.0;"/><text fill="#000000" font-family="sans-serif" font-size="13" lengthAdjust="spacing" textLength="76" x="206" y="272.0669">implements</text></g><!--reverse link asio_reader to asio_reader_stream--><g id="link_asio_reader_asio_reader_stream"><path codeLine="34" d="M124.4035,422.9704 C116.9695,449.6094 111.056,470.801 104.0329,495.966 " fill="none" id="asio_reader-backto-asio_reader_stream" style="stroke:#181818;stroke-width:1.0;"/><polygon fill="#181818" points="127.629,411.412,122.1634,416.116,124.4035,422.9704,129.869,418.2664,127.629,411.412" style="stroke:#181818;stroke-width:1.0;"/></g><!--reverse link parser_input to json_data_extractor--><g id="link_parser_input_json_data_extractor"><path codeLine="45" d="M225.8567,750.9496 C238.6157,777.4366 249.175,799.357 262.957,827.9676 " fill="none" id="parser_input-backto-json_data_extractor" style="stroke:#181818;stroke-width:1.0;"/><polygon fill="none" points="218.045,734.733,220.4511,753.5535,231.2622,748.3457,218.045,734.733" style="stroke:#181818;stroke-width:1.0;"/><text fill="#000000" font-family="sans-serif" font-size="13" lengthAdjust="spacing" textLength="76" x="249" y="794.0669">implements</text></g><!--link istream_reader to parser_input--><g id="link_istream_reader_parser_input"><path codeLine="47" d="M303.2017,421.7195 C289.4087,446.4825 279.034,467.052 267,496 C242.042,556.038 222.9572,623.5917 212.3222,664.4277 " fill="none" id="istream_reader-parser_input" style="stroke:#181818;stroke-width:1.0;"/><polygon fill="none" points="309.041,411.236,302.6269,414.5313,303.2017,421.7195,309.6158,418.4242,309.041,411.236" style="stroke:#181818;stroke-width:1.0;"/><polygon fill="#181818" points="210.81,670.234,216.9491,662.5326,212.0701,665.3954,209.2073,660.5164,210.81,670.234" style="stroke:#181818;stroke-width:1.0;"/></g><!--link asio_reader_stream to parser_input--><g id="link_asio_reader_stream_parser_input"><path codeLine="48" d="M126.3123,587.1659 C145.5143,615.7949 161.0438,638.9471 178.7778,665.3871 " fill="none" id="asio_reader_stream-parser_input" style="stroke:#181818;stroke-width:1.0;"/><polygon fill="none" points="119.628,577.2,119.6482,584.4111,126.3123,587.1659,126.2921,579.9549,119.628,577.2" style="stroke:#181818;stroke-width:1.0;"/><polygon fill="#181818" points="182.12,670.37,180.4287,660.6675,179.3348,666.2175,173.7847,665.1237,182.12,670.37" style="stroke:#181818;stroke-width:1.0;"/></g><!--link stream_sink_factory to stream_sink--><g id="link_stream_sink_factory_stream_sink"><path codeLine="60" d="M397.095,577.2 C395,605.829 392.6497,637.946 390.7157,664.386 " fill="none" id="stream_sink_factory-to-stream_sink" style="stroke:#181818;stroke-width:1.0;stroke-dasharray:7.0,7.0;"/><polygon fill="#181818" points="390.278,670.37,394.9239,661.6858,390.6428,665.3833,386.9452,661.1022,390.278,670.37" style="stroke:#181818;stroke-width:1.0;"/><text fill="#000000" font-family="sans-serif" font-size="13" lengthAdjust="spacing" textLength="68" x="396" y="620.0669">instantiate</text></g><!--link istream_reader to stream_sink_factory--><g id="link_istream_reader_stream_sink_factory"><path codeLine="62" d="M358.6765,422.6798 C368.4345,449.3188 374.2385,465.167 383.4555,490.332 " fill="none" id="istream_reader-stream_sink_factory" style="stroke:#181818;stroke-width:1.0;"/><polygon fill="none" points="354.549,411.412,352.8568,418.4217,358.6765,422.6798,360.3687,415.6701,354.549,411.412" style="stroke:#181818;stroke-width:1.0;"/><polygon fill="#181818" points="385.519,495.966,386.1797,486.1393,383.7994,491.271,378.6677,488.8907,385.519,495.966" style="stroke:#181818;stroke-width:1.0;"/></g><!--link asio_reader to stream_sink_factory--><g id="link_asio_reader_stream_sink_factory"><path codeLine="63" d="M222.7985,417.8216 C262.9195,444.4656 297.3338,467.3207 335.3148,492.5437 " fill="none" id="asio_reader-stream_sink_factory" style="stroke:#181818;stroke-width:1.0;"/><polygon fill="none" points="212.802,411.183,215.5874,417.8344,222.7985,417.8216,220.0131,411.1701,212.802,411.183" style="stroke:#181818;stroke-width:1.0;"/><polygon fill="#181818" points="340.313,495.863,335.0285,487.5519,336.1478,493.0969,330.6028,494.2162,340.313,495.863" style="stroke:#181818;stroke-width:1.0;"/></g><!--link stream_sink to json_data_extractor--><g id="link_stream_sink_json_data_extractor"><path codeLine="65" d="M367.5293,739.7665 C356.8103,758.4095 345.572,777.253 332,798 C325.572,807.827 325.3349,808.4501 318.4209,818.1065 " fill="none" id="stream_sink-json_data_extractor" style="stroke:#181818;stroke-width:1.0;"/><polygon fill="#181818" points="370.52,734.565,362.5663,740.3735,368.0278,738.8996,369.5017,744.3611,370.52,734.565" style="stroke:#181818;stroke-width:1.0;"/><polygon fill="none" points="311.435,827.8634,318.1803,825.3136,318.4209,818.1065,311.6757,820.6563,311.435,827.8634" style="stroke:#181818;stroke-width:1.0;"/><text fill="#000000" font-family="sans-serif" font-size="13" lengthAdjust="spacing" textLength="23" x="343" y="794.0669">use</text></g><!--link stream_sink to text_tree_sink--><g id="link_stream_sink_text_tree_sink"><path codeLine="71" d="M415.996,734.733 C442.152,763.915 468.9718,793.8353 495.0948,822.9794 " fill="none" id="stream_sink-to-text_tree_sink" style="stroke:#181818;stroke-width:1.0;"/><polygon fill="none" points="507.109,836.3831,499.5627,818.9747,490.6269,826.9842,507.109,836.3831" style="stroke:#181818;stroke-width:1.0;"/></g><!--link stream_sink_factory to text_tree_sink_factory--><g id="link_stream_sink_factory_text_tree_sink_factory"><path codeLine="79" d="M453.014,577.2 C483.902,600.33 508.6392,618.8554 541.1562,643.2064 " fill="none" id="stream_sink_factory-to-text_tree_sink_factory" style="stroke:#181818;stroke-width:1.0;"/><polygon fill="none" points="555.564,653.996,544.7527,638.4038,537.5597,648.009,555.564,653.996" style="stroke:#181818;stroke-width:1.0;"/></g><!--link text_tree_sink_factory to text_tree_sink--><g id="link_text_tree_sink_factory_text_tree_sink"><path codeLine="80" d="M601.222,751.383 C595.065,766.559 587.749,783.225 580,798 C573.19,810.9846 567.9801,819.6557 560.1851,831.4045 " fill="none" id="text_tree_sink_factory-to-text_tree_sink" style="stroke:#181818;stroke-width:1.0;stroke-dasharray:7.0,7.0;"/><polygon fill="#181818" points="556.868,836.4042,565.1768,831.1161,559.6323,832.2378,558.5106,826.6933,556.868,836.4042" style="stroke:#181818;stroke-width:1.0;"/><text fill="#000000" font-family="sans-serif" font-size="13" lengthAdjust="spacing" textLength="68" x="588" y="794.0669">instantiate</text></g><!--reverse link text_tree_sink_factory to text_tree_sink--><g id="link_text_tree_sink_factory_text_tree_sink"><path codeLine="81" d="M544.8056,755.5948 C536.3306,764.4548 533.047,770.073 528,781 C520.103,798.098 521.587,819.1215 525.174,836.1611 " fill="none" id="text_tree_sink_factory-backto-text_tree_sink" style="stroke:#181818;stroke-width:1.0;"/><polygon fill="#181818" points="548.953,751.259,539.8414,754.9978,545.4968,754.8722,545.6224,760.5276,548.953,751.259" style="stroke:#181818;stroke-width:1.0;"/><text fill="#000000" font-family="sans-serif" font-size="13" lengthAdjust="spacing" textLength="42" x="529" y="794.0669">parent</text></g><!--link text_output to text_tree_sink_factory--><g id="link_text_output_text_tree_sink_factory"><path codeLine="88" d="M619,583.2 C619,606.33 619,617.645 619,641.996 " fill="none" id="text_output-text_tree_sink_factory" style="stroke:#181818;stroke-width:1.0;"/><polygon fill="#181818" points="619,577.2,615,586.2,619,582.2,623,586.2,619,577.2" style="stroke:#181818;stroke-width:1.0;"/><polygon fill="none" points="619,653.996,623,647.996,619,641.996,615,647.996,619,653.996" style="stroke:#181818;stroke-width:1.0;"/><text fill="#000000" font-family="sans-serif" font-size="13" lengthAdjust="spacing" textLength="23" x="620" y="620.0669">use</text></g><!--link ostream_output to text_output--><g id="link_ostream_output_text_output"><path codeLine="103" d="M522.481,411.122 C521.403,429.113 522.892,449.265 531,466 C537.875,480.191 535.2539,480.9922 547.5369,490.9972 " fill="none" id="ostream_output-to-text_output" style="stroke:#181818;stroke-width:1.0;"/><polygon fill="none" points="561.493,502.365,551.3262,486.3452,543.7476,495.6492,561.493,502.365" style="stroke:#181818;stroke-width:1.0;"/><text fill="#000000" font-family="sans-serif" font-size="13" lengthAdjust="spacing" textLength="76" x="532" y="462.0669">implements</text></g><!--link asio_output to text_output--><g id="link_asio_output_text_output"><path codeLine="104" d="M689.91,419.343 C674.64,444.357 666.3697,457.9034 652.4997,480.6244 " fill="none" id="asio_output-to-text_output" style="stroke:#181818;stroke-width:1.0;"/><polygon fill="none" points="643.121,495.988,657.6209,483.7506,647.3785,477.4982,643.121,495.988" style="stroke:#181818;stroke-width:1.0;"/><text fill="#000000" font-family="sans-serif" font-size="13" lengthAdjust="spacing" textLength="76" x="672" y="462.0669">implements</text></g><!--link asio_output_stream to asio_output--><g id="link_asio_output_stream_asio_output"><path codeLine="111" d="M724,229.393 C724,252.118 724,268.943 724,293.864 " fill="none" id="asio_output_stream-to-asio_output" style="stroke:#181818;stroke-width:1.0;"/><polygon fill="#181818" points="724,305.864,728,299.864,724,293.864,720,299.864,724,305.864" style="stroke:#181818;stroke-width:1.0;"/></g><!--SRC=[fLJDSeCW4Bxx51oJTCW3E9dCzDXp7y2XPcrf51p0DfscxzuLr2oAwQ4d5TZlRt6bSc0gKG8p84vWs7V6s8Ffr6QR_MHP9fJIJZYf5Mk4L7wxVmdRVedpurYSCxX0sJd0oh8MrZ9f7Uur1K7dKhMToyUjViLATSvPAum5K_ZjICLGVBXoFWT4cAQjeG7bxCWfhDGHeIXBQ9qsENiStcwhoB16HN7-u2c2ga2NTcETCAwdeB2xc6Q0oJ8vjON2XEQKMjckWSB1nGNHGSwxrQeu2ISAt32YH9jKpv1R_v56YPXy02d4E8XPDtH_5oBZYOoMXwXV8ZFO_T3on0QrcoTLQIysML1KNkDNA6p46GREpNRXlslH60JdAOZz_XXfGTyAMwYS5FtrJXbFm4JDNZr41R03vteb-Sx2sEo-RGLM0Kbg4HA5vVnwd5MbiQ8GkUwS_rdzcV3n_smJMgOiLiJqxPXvZZkoKeTfBklmyk7rfPU8s0jPVXg93b2yLAz-GbHrPz-29NhOTsk5EsgO7e8W95EuUfg4Ttd9rA4eVq-tUw0pNRVM30lH_qwvxvzSYer7f2xFWCwV_VEcyQN6XUqq9UDApdSKy1S0]--></g></svg>