<?xml version="1.0" encoding="us-ascii" standalone="no"?><svg xmlns="http://www.w3.org/2000/svg" xmlns:xlink="http://www.w3.org/1999/xlink" contentStyleType="text/css" height="933px" preserveAspectRatio="none" style="width:1190px;height:933px;background:#FFFFFF;" version="1.1" viewBox="0 0 1190 933" width="1190px" zoomAndPan="magnify"><defs/><g><!--entity input--><g id="elem_input"><path d="M212.5949,880.0025 C214.9559,873.9034 220.6645,872.7045 224.7344,878.2158 C228.3758,870.321 232.616,869.3052 238.5803,876.0133 C242.8929,870.9926 248.6148,871.577 251.0918,878.0172 C255.6555,872.6672 260.9581,874.3916 263.5613,880.2067 C271.2778,882.4029 274.4459,889.3771 267.3015,895.2646 C273.2663,900.5768 273.0835,907.0086 265.105,910.2813 C262.5481,918.4294 257.4278,919.1932 251.2131,914.1266 C249.4015,921.1802 244.2965,921.2739 239.6711,916.9915 C234.5942,922.1223 227.6217,921.9871 225.3737,913.9255 C220.5728,919.9992 214.9492,916.7969 212.9313,911.0067 C204.4312,908.4799 203.7998,902.3327 209.0049,896.1772 C202.3642,890.2922 204.9472,882.7161 212.5949,880.0025 " fill="#F1F1F1" style="stroke:#181818;stroke-width:0.5;"/><text fill="#000000" font-family="sans-serif" font-size="14" lengthAdjust="spacing" textLength="38" x="218.5" y="898.9951">Input</text></g><!--entity output--><g id="elem_output"><path d="M523.2798,879.262 C526.6052,869.8765 534.7715,869.6993 539.9301,877.4844 C544.9914,869.9444 550.8816,867.765 557.1973,876.1218 C562.5406,869.7384 568.7347,871.3584 572.2891,878.1682 C578.3436,871.8728 584.5193,871.9753 589.1611,879.8502 C597.8,883.4803 597.6014,888.714 591.5494,894.7059 C597.1677,900.1843 596.5938,908.0252 588.0039,910.2661 C583.6183,918.9356 577.898,919.5543 572.2915,911.4068 C568.8989,919.6631 563.2767,922.5365 556.2527,915.1238 C549.7208,921.1026 543.8111,920.3082 540.8052,911.4521 C534.8392,920.4006 528.5205,918.0738 523.7733,910.2168 C515.49,909.2205 512.1413,904.1186 515.6194,896.254 C510.3749,888.0218 513.7447,880.8312 523.2798,879.262 " fill="#F1F1F1" style="stroke:#181818;stroke-width:0.5;"/><text fill="#000000" font-family="sans-serif" font-size="14" lengthAdjust="spacing" textLength="51" x="530" y="898.9951">Output</text></g><!--class main--><g id="elem_main"><rect codeLine="1" fill="#F1F1F1" height="64.2969" id="main" rx="2.5" ry="2.5" style="stroke:#181818;stroke-width:0.5;" width="71" x="7" y="712.5"/><ellipse cx="23.8" cy="728.5" fill="#E3664A" rx="11" ry="11" style="stroke:#181818;stroke-width:1.0;"/><path d="M24.7219,725.75 C22.8156,725.8906 21.5031,727.0781 21.5031,728.6563 C21.5031,730.0625 22.7063,731.2813 24.1594,731.2813 C24.3156,731.2813 24.4563,731.2656 24.7219,731.2188 L24.7219,731.2813 L25.5188,731.2813 C26.1438,731.2813 26.4563,731.0625 26.4563,730.5781 C26.4563,730.2969 26.3313,730.1094 26.0656,729.9844 L26.0656,725.2031 C26.0656,723.3125 24.7531,721.9531 22.9094,721.9531 C20.7063,721.9531 19.0969,724.0781 19.0969,727.0156 L19.0969,729.875 C19.0969,731.125 19.3781,732.3438 19.8938,733.2656 C20.6125,734.5156 21.5344,735.0781 22.9406,735.0781 C24.55,735.0781 25.9406,734.4219 25.9406,733.625 C25.9406,733.2344 25.6438,732.9219 25.2688,732.9219 C25.0656,732.9219 24.9719,732.9688 24.7375,733.2188 C24.4094,733.5469 23.7375,733.7656 22.9875,733.7656 C22.2375,733.7656 21.7063,733.5 21.3,732.9063 C20.7219,732.1094 20.4406,731.0625 20.4406,729.7656 L20.4406,727.1094 C20.4406,724.9375 21.5031,723.2969 22.9406,723.2969 C23.9875,723.2969 24.7219,724.0781 24.7219,725.2031 L24.7219,725.75 Z M24.7219,729.8594 C24.4875,729.9063 24.3938,729.9063 24.2844,729.9063 C23.4563,729.9063 22.8469,729.375 22.8469,728.6719 C22.8469,727.8438 23.5969,727.2344 24.7219,727.125 L24.7219,729.8594 Z " fill="#000000"/><text fill="#000000" font-family="sans-serif" font-size="14" lengthAdjust="spacing" textLength="35" x="38.2" y="733.3467">main</text><line style="stroke:#181818;stroke-width:0.5;" x1="8" x2="77" y1="744.5" y2="744.5"/><line style="stroke:#181818;stroke-width:0.5;" x1="8" x2="77" y1="752.5" y2="752.5"/><ellipse cx="18" cy="766.1484" fill="#84BE84" rx="3" ry="3" style="stroke:#038048;stroke-width:1.0;"/><text fill="#000000" font-family="sans-serif" font-size="14" lengthAdjust="spacing" textLength="45" x="27" y="769.4951">main()</text></g><!--class reader--><g id="elem_reader"><rect codeLine="5" fill="#F1F1F1" height="64.2969" id="reader" rx="2.5" ry="2.5" style="stroke:#181818;stroke-width:0.5;" width="80" x="44.5" y="554.5"/><ellipse cx="59.5" cy="570.5" fill="#B4A7E5" rx="11" ry="11" style="stroke:#181818;stroke-width:1.0;"/><path d="M60.4531,567.2813 L62.1719,567.2813 C62.5625,567.2813 62.75,567.25 62.875,567.1719 C63.1406,567.0156 63.2813,566.7344 63.2813,566.4375 C63.2813,566.1719 63.1719,565.9063 62.9375,565.7344 C62.7656,565.625 62.625,565.5938 62.1719,565.5938 L57.0313,565.5938 C56.5938,565.5938 56.4688,565.6094 56.3125,565.7031 C56.0625,565.8594 55.9063,566.1563 55.9063,566.4375 C55.9063,566.7188 56.0469,566.9688 56.2656,567.1406 C56.4219,567.25 56.6094,567.2813 57.0313,567.2813 L58.75,567.2813 L58.75,573.7969 L57.0313,573.7969 C56.5938,573.7969 56.4688,573.8125 56.3125,573.9219 C56.0625,574.0781 55.9063,574.3594 55.9063,574.6563 C55.9063,574.9063 56.0469,575.1719 56.2656,575.3281 C56.4219,575.4531 56.625,575.5 57.0313,575.5 L62.1719,575.5 C62.9219,575.5 63.2813,575.2188 63.2813,574.6563 C63.2813,574.375 63.1719,574.125 62.9375,573.9531 C62.7656,573.8281 62.625,573.7969 62.1719,573.7969 L60.4531,573.7969 L60.4531,567.2813 Z " fill="#000000"/><text fill="#000000" font-family="sans-serif" font-size="14" font-style="italic" lengthAdjust="spacing" textLength="48" x="73.5" y="575.3467">reader</text><line style="stroke:#181818;stroke-width:0.5;" x1="45.5" x2="123.5" y1="586.5" y2="586.5"/><line style="stroke:#181818;stroke-width:0.5;" x1="45.5" x2="123.5" y1="594.5" y2="594.5"/><ellipse cx="55.5" cy="608.1484" fill="#84BE84" rx="3" ry="3" style="stroke:#038048;stroke-width:1.0;"/><text fill="#000000" font-family="sans-serif" font-size="14" lengthAdjust="spacing" textLength="33" x="64.5" y="611.4951">run()</text></g><!--class concrete_reader--><g id="elem_concrete_reader"><rect codeLine="11" fill="#F1F1F1" height="80.5938" id="concrete_reader" rx="2.5" ry="2.5" style="stroke:#181818;stroke-width:0.5;" width="155" x="160" y="704"/><ellipse cx="176.8" cy="720" fill="#ADD1B2" rx="11" ry="11" style="stroke:#181818;stroke-width:1.0;"/><path d="M179.1438,715.6719 C178.2063,715.2344 177.6125,715.0938 176.7375,715.0938 C174.1125,715.0938 172.1125,717.1719 172.1125,719.8906 L172.1125,721.0156 C172.1125,723.5938 174.2219,725.4844 177.1125,725.4844 C178.3313,725.4844 179.4875,725.1875 180.2375,724.6406 C180.8156,724.2344 181.1438,723.7813 181.1438,723.3906 C181.1438,722.9375 180.7531,722.5469 180.2844,722.5469 C180.0656,722.5469 179.8625,722.625 179.675,722.8125 C179.2219,723.2969 179.2219,723.2969 179.0344,723.3906 C178.6125,723.6563 177.925,723.7813 177.1594,723.7813 C175.1125,723.7813 173.8156,722.6875 173.8156,720.9844 L173.8156,719.8906 C173.8156,718.1094 175.0656,716.7969 176.8,716.7969 C177.3781,716.7969 177.9875,716.9531 178.4563,717.2031 C178.9406,717.4844 179.1125,717.7031 179.2063,718.1094 C179.2688,718.5156 179.3,718.6406 179.4406,718.7656 C179.5813,718.9063 179.8156,719.0156 180.0344,719.0156 C180.3,719.0156 180.5656,718.875 180.7375,718.6563 C180.8469,718.5 180.8781,718.3125 180.8781,717.8906 L180.8781,716.4688 C180.8781,716.0313 180.8625,715.9063 180.7688,715.75 C180.6125,715.4844 180.3313,715.3438 180.0344,715.3438 C179.7375,715.3438 179.5344,715.4375 179.3156,715.75 L179.1438,715.6719 Z " fill="#000000"/><text fill="#000000" font-family="sans-serif" font-size="14" lengthAdjust="spacing" textLength="119" x="191.2" y="724.8467">concrete_reader</text><line style="stroke:#181818;stroke-width:0.5;" x1="161" x2="314" y1="736" y2="736"/><rect fill="none" height="6" style="stroke:#C82930;stroke-width:1.0;" width="6" x="168" y="746.6484"/><text fill="#000000" font-family="sans-serif" font-size="14" lengthAdjust="spacing" textLength="129" x="180" y="752.9951">sink: parser_input</text><line style="stroke:#181818;stroke-width:0.5;" x1="161" x2="314" y1="760.2969" y2="760.2969"/><ellipse cx="171" cy="773.9453" fill="#84BE84" rx="3" ry="3" style="stroke:#038048;stroke-width:1.0;"/><text fill="#000000" font-family="sans-serif" font-size="14" lengthAdjust="spacing" textLength="33" x="180" y="777.292">run()</text></g><!--class parser_input--><g id="elem_parser_input"><rect codeLine="18" fill="#F1F1F1" height="64.2969" id="parser_input" rx="2.5" ry="2.5" style="stroke:#181818;stroke-width:0.5;" width="180" x="235.5" y="348"/><ellipse cx="277.05" cy="364" fill="#B4A7E5" rx="11" ry="11" style="stroke:#181818;stroke-width:1.0;"/><path d="M278.0031,360.7813 L279.7219,360.7813 C280.1125,360.7813 280.3,360.75 280.425,360.6719 C280.6906,360.5156 280.8313,360.2344 280.8313,359.9375 C280.8313,359.6719 280.7219,359.4063 280.4875,359.2344 C280.3156,359.125 280.175,359.0938 279.7219,359.0938 L274.5813,359.0938 C274.1438,359.0938 274.0188,359.1094 273.8625,359.2031 C273.6125,359.3594 273.4563,359.6563 273.4563,359.9375 C273.4563,360.2188 273.5969,360.4688 273.8156,360.6406 C273.9719,360.75 274.1594,360.7813 274.5813,360.7813 L276.3,360.7813 L276.3,367.2969 L274.5813,367.2969 C274.1438,367.2969 274.0188,367.3125 273.8625,367.4219 C273.6125,367.5781 273.4563,367.8594 273.4563,368.1563 C273.4563,368.4063 273.5969,368.6719 273.8156,368.8281 C273.9719,368.9531 274.175,369 274.5813,369 L279.7219,369 C280.4719,369 280.8313,368.7188 280.8313,368.1563 C280.8313,367.875 280.7219,367.625 280.4875,367.4531 C280.3156,367.3281 280.175,367.2969 279.7219,367.2969 L278.0031,367.2969 L278.0031,360.7813 Z " fill="#000000"/><text fill="#000000" font-family="sans-serif" font-size="14" font-style="italic" lengthAdjust="spacing" textLength="89" x="296.95" y="368.8467">parser_input</text><line style="stroke:#181818;stroke-width:0.5;" x1="236.5" x2="414.5" y1="380" y2="380"/><line style="stroke:#181818;stroke-width:0.5;" x1="236.5" x2="414.5" y1="388" y2="388"/><ellipse cx="246.5" cy="401.6484" fill="#84BE84" rx="3" ry="3" style="stroke:#038048;stroke-width:1.0;"/><text fill="#000000" font-family="sans-serif" font-size="14" lengthAdjust="spacing" textLength="154" x="255.5" y="404.9951">consume_text(string)</text></g><!--class concrete_parser--><g id="elem_concrete_parser"><rect codeLine="24" fill="#F1F1F1" height="80.5938" id="concrete_parser" rx="2.5" ry="2.5" style="stroke:#181818;stroke-width:0.5;" width="180" x="366.5" y="546"/><ellipse cx="395" cy="562" fill="#ADD1B2" rx="11" ry="11" style="stroke:#181818;stroke-width:1.0;"/><path d="M397.3438,557.6719 C396.4063,557.2344 395.8125,557.0938 394.9375,557.0938 C392.3125,557.0938 390.3125,559.1719 390.3125,561.8906 L390.3125,563.0156 C390.3125,565.5938 392.4219,567.4844 395.3125,567.4844 C396.5313,567.4844 397.6875,567.1875 398.4375,566.6406 C399.0156,566.2344 399.3438,565.7813 399.3438,565.3906 C399.3438,564.9375 398.9531,564.5469 398.4844,564.5469 C398.2656,564.5469 398.0625,564.625 397.875,564.8125 C397.4219,565.2969 397.4219,565.2969 397.2344,565.3906 C396.8125,565.6563 396.125,565.7813 395.3594,565.7813 C393.3125,565.7813 392.0156,564.6875 392.0156,562.9844 L392.0156,561.8906 C392.0156,560.1094 393.2656,558.7969 395,558.7969 C395.5781,558.7969 396.1875,558.9531 396.6563,559.2031 C397.1406,559.4844 397.3125,559.7031 397.4063,560.1094 C397.4688,560.5156 397.5,560.6406 397.6406,560.7656 C397.7813,560.9063 398.0156,561.0156 398.2344,561.0156 C398.5,561.0156 398.7656,560.875 398.9375,560.6563 C399.0469,560.5 399.0781,560.3125 399.0781,559.8906 L399.0781,558.4688 C399.0781,558.0313 399.0625,557.9063 398.9688,557.75 C398.8125,557.4844 398.5313,557.3438 398.2344,557.3438 C397.9375,557.3438 397.7344,557.4375 397.5156,557.75 L397.3438,557.6719 Z " fill="#000000"/><text fill="#000000" font-family="sans-serif" font-size="14" lengthAdjust="spacing" textLength="118" x="412" y="566.8467">concrete_parser</text><line style="stroke:#181818;stroke-width:0.5;" x1="367.5" x2="545.5" y1="578" y2="578"/><rect fill="none" height="6" style="stroke:#C82930;stroke-width:1.0;" width="6" x="374.5" y="588.6484"/><text fill="#000000" font-family="sans-serif" font-size="14" lengthAdjust="spacing" textLength="125" x="386.5" y="594.9951">sink: stream_sink</text><line style="stroke:#181818;stroke-width:0.5;" x1="367.5" x2="545.5" y1="602.2969" y2="602.2969"/><ellipse cx="377.5" cy="615.9453" fill="#84BE84" rx="3" ry="3" style="stroke:#038048;stroke-width:1.0;"/><text fill="#000000" font-family="sans-serif" font-size="14" lengthAdjust="spacing" textLength="154" x="386.5" y="619.292">consume_text(string)</text></g><!--class stream_sink--><g id="elem_stream_sink"><rect codeLine="31" fill="#F1F1F1" height="178.375" id="stream_sink" rx="2.5" ry="2.5" style="stroke:#181818;stroke-width:0.5;" width="233" x="710" y="291"/><ellipse cx="779.75" cy="307" fill="#B4A7E5" rx="11" ry="11" style="stroke:#181818;stroke-width:1.0;"/><path d="M780.7031,303.7813 L782.4219,303.7813 C782.8125,303.7813 783,303.75 783.125,303.6719 C783.3906,303.5156 783.5313,303.2344 783.5313,302.9375 C783.5313,302.6719 783.4219,302.4063 783.1875,302.2344 C783.0156,302.125 782.875,302.0938 782.4219,302.0938 L777.2813,302.0938 C776.8438,302.0938 776.7188,302.1094 776.5625,302.2031 C776.3125,302.3594 776.1563,302.6563 776.1563,302.9375 C776.1563,303.2188 776.2969,303.4688 776.5156,303.6406 C776.6719,303.75 776.8594,303.7813 777.2813,303.7813 L779,303.7813 L779,310.2969 L777.2813,310.2969 C776.8438,310.2969 776.7188,310.3125 776.5625,310.4219 C776.3125,310.5781 776.1563,310.8594 776.1563,311.1563 C776.1563,311.4063 776.2969,311.6719 776.5156,311.8281 C776.6719,311.9531 776.875,312 777.2813,312 L782.4219,312 C783.1719,312 783.5313,311.7188 783.5313,311.1563 C783.5313,310.875 783.4219,310.625 783.1875,310.4531 C783.0156,310.3281 782.875,310.2969 782.4219,310.2969 L780.7031,310.2969 L780.7031,303.7813 Z " fill="#000000"/><text fill="#000000" font-family="sans-serif" font-size="14" font-style="italic" lengthAdjust="spacing" textLength="85" x="800.25" y="311.8467">stream_sink</text><line style="stroke:#181818;stroke-width:0.5;" x1="711" x2="942" y1="323" y2="323"/><line style="stroke:#181818;stroke-width:0.5;" x1="711" x2="942" y1="331" y2="331"/><ellipse cx="721" cy="344.6484" fill="#84BE84" rx="3" ry="3" style="stroke:#038048;stroke-width:1.0;"/><text fill="#000000" font-family="sans-serif" font-size="14" lengthAdjust="spacing" textLength="150" x="730" y="347.9951">consume(begin_info)</text><ellipse cx="721" cy="360.9453" fill="#84BE84" rx="3" ry="3" style="stroke:#038048;stroke-width:1.0;"/><text fill="#000000" font-family="sans-serif" font-size="14" lengthAdjust="spacing" textLength="191" x="730" y="364.292">consume(description_info)</text><ellipse cx="721" cy="377.2422" fill="#84BE84" rx="3" ry="3" style="stroke:#038048;stroke-width:1.0;"/><text fill="#000000" font-family="sans-serif" font-size="14" lengthAdjust="spacing" textLength="207" x="730" y="380.5889">consume(declare_state_info)</text><ellipse cx="721" cy="393.5391" fill="#84BE84" rx="3" ry="3" style="stroke:#038048;stroke-width:1.0;"/><text fill="#000000" font-family="sans-serif" font-size="14" lengthAdjust="spacing" textLength="198" x="730" y="396.8857">consume(active_state_info)</text><ellipse cx="721" cy="409.8359" fill="#84BE84" rx="3" ry="3" style="stroke:#038048;stroke-width:1.0;"/><text fill="#000000" font-family="sans-serif" font-size="14" lengthAdjust="spacing" textLength="172" x="730" y="413.1826">consume(message_info)</text><ellipse cx="721" cy="426.1328" fill="#84BE84" rx="3" ry="3" style="stroke:#038048;stroke-width:1.0;"/><text fill="#000000" font-family="sans-serif" font-size="14" lengthAdjust="spacing" textLength="164" x="730" y="429.4795">consume(interval_info)</text><ellipse cx="721" cy="442.4297" fill="#84BE84" rx="3" ry="3" style="stroke:#038048;stroke-width:1.0;"/><text fill="#000000" font-family="sans-serif" font-size="14" lengthAdjust="spacing" textLength="182" x="730" y="445.7764">consume(heartbeat_info)</text><ellipse cx="721" cy="458.7266" fill="#84BE84" rx="3" ry="3" style="stroke:#038048;stroke-width:1.0;"/><text fill="#000000" font-family="sans-serif" font-size="14" lengthAdjust="spacing" textLength="148" x="730" y="462.0732">consume(finish_info)</text></g><!--class concrete_sink--><g id="elem_concrete_sink"><rect codeLine="42" fill="#F1F1F1" height="64.2969" id="concrete_sink" rx="2.5" ry="2.5" style="stroke:#181818;stroke-width:0.5;" width="133" x="489" y="712.5"/><ellipse cx="504" cy="728.5" fill="#ADD1B2" rx="11" ry="11" style="stroke:#181818;stroke-width:1.0;"/><path d="M506.3438,724.1719 C505.4063,723.7344 504.8125,723.5938 503.9375,723.5938 C501.3125,723.5938 499.3125,725.6719 499.3125,728.3906 L499.3125,729.5156 C499.3125,732.0938 501.4219,733.9844 504.3125,733.9844 C505.5313,733.9844 506.6875,733.6875 507.4375,733.1406 C508.0156,732.7344 508.3438,732.2813 508.3438,731.8906 C508.3438,731.4375 507.9531,731.0469 507.4844,731.0469 C507.2656,731.0469 507.0625,731.125 506.875,731.3125 C506.4219,731.7969 506.4219,731.7969 506.2344,731.8906 C505.8125,732.1563 505.125,732.2813 504.3594,732.2813 C502.3125,732.2813 501.0156,731.1875 501.0156,729.4844 L501.0156,728.3906 C501.0156,726.6094 502.2656,725.2969 504,725.2969 C504.5781,725.2969 505.1875,725.4531 505.6563,725.7031 C506.1406,725.9844 506.3125,726.2031 506.4063,726.6094 C506.4688,727.0156 506.5,727.1406 506.6406,727.2656 C506.7813,727.4063 507.0156,727.5156 507.2344,727.5156 C507.5,727.5156 507.7656,727.375 507.9375,727.1563 C508.0469,727 508.0781,726.8125 508.0781,726.3906 L508.0781,724.9688 C508.0781,724.5313 508.0625,724.4063 507.9688,724.25 C507.8125,723.9844 507.5313,723.8438 507.2344,723.8438 C506.9375,723.8438 506.7344,723.9375 506.5156,724.25 L506.3438,724.1719 Z " fill="#000000"/><text fill="#000000" font-family="sans-serif" font-size="14" lengthAdjust="spacing" textLength="101" x="518" y="733.3467">concrete_sink</text><line style="stroke:#181818;stroke-width:0.5;" x1="490" x2="621" y1="744.5" y2="744.5"/><line style="stroke:#181818;stroke-width:0.5;" x1="490" x2="621" y1="752.5" y2="752.5"/><ellipse cx="500" cy="766.1484" fill="#84BE84" rx="3" ry="3" style="stroke:#038048;stroke-width:1.0;"/><text fill="#000000" font-family="sans-serif" font-size="14" lengthAdjust="spacing" textLength="102" x="509" y="769.4951">consume(Info)</text></g><!--class begin_info--><g id="elem_begin_info"><rect codeLine="54" fill="#F1F1F1" height="48" id="begin_info" rx="2.5" ry="2.5" style="stroke:#181818;stroke-width:0.5;" width="108" x="701.5" y="23.5"/><ellipse cx="716.5" cy="39.5" fill="#F1F1F1" rx="11" ry="11" style="stroke:#181818;stroke-width:1.0;"/><path d="M720.2813,35.4688 C720.2813,35.0313 720.2656,34.8906 720.1719,34.7344 C720.0313,34.5 719.75,34.3438 719.4531,34.3438 C719.1094,34.3438 718.9688,34.4844 718.7969,34.9063 C718.2031,34.5313 717.4531,34.3438 716.5781,34.3438 C714.4688,34.3438 712.8906,35.6406 712.8906,37.3594 C712.8906,38.3281 713.4219,39.2344 714.2813,39.7188 C714.8281,40.0313 715.375,40.2031 716.4844,40.3906 C717.6406,40.5938 717.9063,40.6563 718.2656,40.8438 C718.6406,41.0469 718.875,41.3906 718.875,41.75 C718.875,42.4844 717.8906,43.0313 716.6406,43.0313 C715.5156,43.0313 714.4375,42.5469 714.2656,41.9375 C714.1406,41.4688 714.1406,41.4688 714.0156,41.3594 C713.8594,41.2031 713.6406,41.1094 713.4063,41.1094 C713.125,41.1094 712.875,41.2344 712.7031,41.4531 C712.5938,41.625 712.5469,41.8125 712.5469,42.2344 L712.5469,43.3594 C712.5469,44.125 712.8281,44.4844 713.4219,44.4844 C713.6875,44.4844 713.8125,44.4219 714.0938,44.0781 C714.9375,44.5156 715.8281,44.7344 716.75,44.7344 C719.0781,44.7344 720.6406,43.5469 720.6406,41.7813 C720.6406,40.8906 720.3281,40.2031 719.6406,39.6563 C719.1094,39.2344 718.4688,38.9844 716.9844,38.7188 C715.7188,38.4844 715.625,38.4531 715.2969,38.2813 C714.9219,38.0938 714.6563,37.7031 714.6563,37.3438 C714.6563,36.6094 715.5156,36.0469 716.5781,36.0469 C717.6406,36.0469 718.4531,36.5156 718.6094,37.1875 C718.7188,37.7344 718.7188,37.7344 718.8438,37.875 C718.9844,38 719.2188,38.1094 719.4531,38.1094 C719.7188,38.1094 719.9688,37.9688 720.1406,37.75 C720.25,37.5781 720.2813,37.4375 720.2813,36.9688 L720.2813,35.4688 Z " fill="#000000"/><text fill="#000000" font-family="sans-serif" font-size="14" lengthAdjust="spacing" textLength="76" x="730.5" y="44.3467">begin_info</text><line style="stroke:#181818;stroke-width:0.5;" x1="702.5" x2="808.5" y1="55.5" y2="55.5"/><line style="stroke:#181818;stroke-width:0.5;" x1="702.5" x2="808.5" y1="63.5" y2="63.5"/></g><!--class description_info--><g id="elem_description_info"><rect codeLine="56" fill="#F1F1F1" height="80.5938" id="description_info" rx="2.5" ry="2.5" style="stroke:#181818;stroke-width:0.5;" width="174" x="905.5" y="7"/><ellipse cx="931.75" cy="23" fill="#F1F1F1" rx="11" ry="11" style="stroke:#181818;stroke-width:1.0;"/><path d="M935.5313,18.9688 C935.5313,18.5313 935.5156,18.3906 935.4219,18.2344 C935.2813,18 935,17.8438 934.7031,17.8438 C934.3594,17.8438 934.2188,17.9844 934.0469,18.4063 C933.4531,18.0313 932.7031,17.8438 931.8281,17.8438 C929.7188,17.8438 928.1406,19.1406 928.1406,20.8594 C928.1406,21.8281 928.6719,22.7344 929.5313,23.2188 C930.0781,23.5313 930.625,23.7031 931.7344,23.8906 C932.8906,24.0938 933.1563,24.1563 933.5156,24.3438 C933.8906,24.5469 934.125,24.8906 934.125,25.25 C934.125,25.9844 933.1406,26.5313 931.8906,26.5313 C930.7656,26.5313 929.6875,26.0469 929.5156,25.4375 C929.3906,24.9688 929.3906,24.9688 929.2656,24.8594 C929.1094,24.7031 928.8906,24.6094 928.6563,24.6094 C928.375,24.6094 928.125,24.7344 927.9531,24.9531 C927.8438,25.125 927.7969,25.3125 927.7969,25.7344 L927.7969,26.8594 C927.7969,27.625 928.0781,27.9844 928.6719,27.9844 C928.9375,27.9844 929.0625,27.9219 929.3438,27.5781 C930.1875,28.0156 931.0781,28.2344 932,28.2344 C934.3281,28.2344 935.8906,27.0469 935.8906,25.2813 C935.8906,24.3906 935.5781,23.7031 934.8906,23.1563 C934.3594,22.7344 933.7188,22.4844 932.2344,22.2188 C930.9688,21.9844 930.875,21.9531 930.5469,21.7813 C930.1719,21.5938 929.9063,21.2031 929.9063,20.8438 C929.9063,20.1094 930.7656,19.5469 931.8281,19.5469 C932.8906,19.5469 933.7031,20.0156 933.8594,20.6875 C933.9688,21.2344 933.9688,21.2344 934.0938,21.375 C934.2344,21.5 934.4688,21.6094 934.7031,21.6094 C934.9688,21.6094 935.2188,21.4688 935.3906,21.25 C935.5,21.0781 935.5313,20.9375 935.5313,20.4688 L935.5313,18.9688 Z " fill="#000000"/><text fill="#000000" font-family="sans-serif" font-size="14" lengthAdjust="spacing" textLength="117" x="948.25" y="27.8467">description_info</text><line style="stroke:#181818;stroke-width:0.5;" x1="906.5" x2="1078.5" y1="39" y2="39"/><ellipse cx="916.5" cy="52.6484" fill="none" rx="3" ry="3" style="stroke:#038048;stroke-width:1.0;"/><text fill="#000000" font-family="sans-serif" font-size="14" lengthAdjust="spacing" textLength="148" x="925.5" y="55.9951">display_name: string</text><ellipse cx="916.5" cy="68.9453" fill="none" rx="3" ry="3" style="stroke:#038048;stroke-width:1.0;"/><text fill="#000000" font-family="sans-serif" font-size="14" lengthAdjust="spacing" textLength="133" x="925.5" y="72.292">description: string</text><line style="stroke:#181818;stroke-width:0.5;" x1="906.5" x2="1078.5" y1="79.5938" y2="79.5938"/></g><!--class declare_state_info--><g id="elem_declare_state_info"><rect codeLine="63" fill="#F1F1F1" height="80.5938" id="declare_state_info" rx="2.5" ry="2.5" style="stroke:#181818;stroke-width:0.5;" width="174" x="747.5" y="149"/><ellipse cx="766.55" cy="165" fill="#F1F1F1" rx="11" ry="11" style="stroke:#181818;stroke-width:1.0;"/><path d="M770.3313,160.9688 C770.3313,160.5313 770.3156,160.3906 770.2219,160.2344 C770.0813,160 769.8,159.8438 769.5031,159.8438 C769.1594,159.8438 769.0188,159.9844 768.8469,160.4063 C768.2531,160.0313 767.5031,159.8438 766.6281,159.8438 C764.5188,159.8438 762.9406,161.1406 762.9406,162.8594 C762.9406,163.8281 763.4719,164.7344 764.3313,165.2188 C764.8781,165.5313 765.425,165.7031 766.5344,165.8906 C767.6906,166.0938 767.9563,166.1563 768.3156,166.3438 C768.6906,166.5469 768.925,166.8906 768.925,167.25 C768.925,167.9844 767.9406,168.5313 766.6906,168.5313 C765.5656,168.5313 764.4875,168.0469 764.3156,167.4375 C764.1906,166.9688 764.1906,166.9688 764.0656,166.8594 C763.9094,166.7031 763.6906,166.6094 763.4563,166.6094 C763.175,166.6094 762.925,166.7344 762.7531,166.9531 C762.6438,167.125 762.5969,167.3125 762.5969,167.7344 L762.5969,168.8594 C762.5969,169.625 762.8781,169.9844 763.4719,169.9844 C763.7375,169.9844 763.8625,169.9219 764.1438,169.5781 C764.9875,170.0156 765.8781,170.2344 766.8,170.2344 C769.1281,170.2344 770.6906,169.0469 770.6906,167.2813 C770.6906,166.3906 770.3781,165.7031 769.6906,165.1563 C769.1594,164.7344 768.5188,164.4844 767.0344,164.2188 C765.7688,163.9844 765.675,163.9531 765.3469,163.7813 C764.9719,163.5938 764.7063,163.2031 764.7063,162.8438 C764.7063,162.1094 765.5656,161.5469 766.6281,161.5469 C767.6906,161.5469 768.5031,162.0156 768.6594,162.6875 C768.7688,163.2344 768.7688,163.2344 768.8938,163.375 C769.0344,163.5 769.2688,163.6094 769.5031,163.6094 C769.7688,163.6094 770.0188,163.4688 770.1906,163.25 C770.3,163.0781 770.3313,162.9375 770.3313,162.4688 L770.3313,160.9688 Z " fill="#000000"/><text fill="#000000" font-family="sans-serif" font-size="14" lengthAdjust="spacing" textLength="133" x="781.45" y="169.8467">declare_state_info</text><line style="stroke:#181818;stroke-width:0.5;" x1="748.5" x2="920.5" y1="181" y2="181"/><ellipse cx="758.5" cy="194.6484" fill="none" rx="3" ry="3" style="stroke:#038048;stroke-width:1.0;"/><text fill="#000000" font-family="sans-serif" font-size="14" lengthAdjust="spacing" textLength="148" x="767.5" y="197.9951">begin_tag: identifier</text><ellipse cx="758.5" cy="210.9453" fill="none" rx="3" ry="3" style="stroke:#038048;stroke-width:1.0;"/><text fill="#000000" font-family="sans-serif" font-size="14" lengthAdjust="spacing" textLength="134" x="767.5" y="214.292">end_tag: identifier</text><line style="stroke:#181818;stroke-width:0.5;" x1="748.5" x2="920.5" y1="221.5938" y2="221.5938"/></g><!--class active_state_info--><g id="elem_active_state_info"><rect codeLine="67" fill="#F1F1F1" height="64.2969" id="active_state_info" rx="2.5" ry="2.5" style="stroke:#181818;stroke-width:0.5;" width="156" x="1027.5" y="157.5"/><ellipse cx="1042.5" cy="173.5" fill="#F1F1F1" rx="11" ry="11" style="stroke:#181818;stroke-width:1.0;"/><path d="M1046.2813,169.4688 C1046.2813,169.0313 1046.2656,168.8906 1046.1719,168.7344 C1046.0313,168.5 1045.75,168.3438 1045.4531,168.3438 C1045.1094,168.3438 1044.9688,168.4844 1044.7969,168.9063 C1044.2031,168.5313 1043.4531,168.3438 1042.5781,168.3438 C1040.4688,168.3438 1038.8906,169.6406 1038.8906,171.3594 C1038.8906,172.3281 1039.4219,173.2344 1040.2813,173.7188 C1040.8281,174.0313 1041.375,174.2031 1042.4844,174.3906 C1043.6406,174.5938 1043.9063,174.6563 1044.2656,174.8438 C1044.6406,175.0469 1044.875,175.3906 1044.875,175.75 C1044.875,176.4844 1043.8906,177.0313 1042.6406,177.0313 C1041.5156,177.0313 1040.4375,176.5469 1040.2656,175.9375 C1040.1406,175.4688 1040.1406,175.4688 1040.0156,175.3594 C1039.8594,175.2031 1039.6406,175.1094 1039.4063,175.1094 C1039.125,175.1094 1038.875,175.2344 1038.7031,175.4531 C1038.5938,175.625 1038.5469,175.8125 1038.5469,176.2344 L1038.5469,177.3594 C1038.5469,178.125 1038.8281,178.4844 1039.4219,178.4844 C1039.6875,178.4844 1039.8125,178.4219 1040.0938,178.0781 C1040.9375,178.5156 1041.8281,178.7344 1042.75,178.7344 C1045.0781,178.7344 1046.6406,177.5469 1046.6406,175.7813 C1046.6406,174.8906 1046.3281,174.2031 1045.6406,173.6563 C1045.1094,173.2344 1044.4688,172.9844 1042.9844,172.7188 C1041.7188,172.4844 1041.625,172.4531 1041.2969,172.2813 C1040.9219,172.0938 1040.6563,171.7031 1040.6563,171.3438 C1040.6563,170.6094 1041.5156,170.0469 1042.5781,170.0469 C1043.6406,170.0469 1044.4531,170.5156 1044.6094,171.1875 C1044.7188,171.7344 1044.7188,171.7344 1044.8438,171.875 C1044.9844,172 1045.2188,172.1094 1045.4531,172.1094 C1045.7188,172.1094 1045.9688,171.9688 1046.1406,171.75 C1046.25,171.5781 1046.2813,171.4375 1046.2813,170.9688 L1046.2813,169.4688 Z " fill="#000000"/><text fill="#000000" font-family="sans-serif" font-size="14" lengthAdjust="spacing" textLength="124" x="1056.5" y="178.3467">active_state_info</text><line style="stroke:#181818;stroke-width:0.5;" x1="1028.5" x2="1182.5" y1="189.5" y2="189.5"/><ellipse cx="1038.5" cy="203.1484" fill="none" rx="3" ry="3" style="stroke:#038048;stroke-width:1.0;"/><text fill="#000000" font-family="sans-serif" font-size="14" lengthAdjust="spacing" textLength="100" x="1047.5" y="206.4951">tag: identifier</text><line style="stroke:#181818;stroke-width:0.5;" x1="1028.5" x2="1182.5" y1="213.7969" y2="213.7969"/></g><!--class message_info--><g id="elem_message_info"><rect codeLine="76" fill="#F1F1F1" height="80.5938" id="message_info" rx="2.5" ry="2.5" style="stroke:#181818;stroke-width:0.5;" width="180" x="871.5" y="546"/><ellipse cx="909" cy="562" fill="#F1F1F1" rx="11" ry="11" style="stroke:#181818;stroke-width:1.0;"/><path d="M912.7813,557.9688 C912.7813,557.5313 912.7656,557.3906 912.6719,557.2344 C912.5313,557 912.25,556.8438 911.9531,556.8438 C911.6094,556.8438 911.4688,556.9844 911.2969,557.4063 C910.7031,557.0313 909.9531,556.8438 909.0781,556.8438 C906.9688,556.8438 905.3906,558.1406 905.3906,559.8594 C905.3906,560.8281 905.9219,561.7344 906.7813,562.2188 C907.3281,562.5313 907.875,562.7031 908.9844,562.8906 C910.1406,563.0938 910.4063,563.1563 910.7656,563.3438 C911.1406,563.5469 911.375,563.8906 911.375,564.25 C911.375,564.9844 910.3906,565.5313 909.1406,565.5313 C908.0156,565.5313 906.9375,565.0469 906.7656,564.4375 C906.6406,563.9688 906.6406,563.9688 906.5156,563.8594 C906.3594,563.7031 906.1406,563.6094 905.9063,563.6094 C905.625,563.6094 905.375,563.7344 905.2031,563.9531 C905.0938,564.125 905.0469,564.3125 905.0469,564.7344 L905.0469,565.8594 C905.0469,566.625 905.3281,566.9844 905.9219,566.9844 C906.1875,566.9844 906.3125,566.9219 906.5938,566.5781 C907.4375,567.0156 908.3281,567.2344 909.25,567.2344 C911.5781,567.2344 913.1406,566.0469 913.1406,564.2813 C913.1406,563.3906 912.8281,562.7031 912.1406,562.1563 C911.6094,561.7344 910.9688,561.4844 909.4844,561.2188 C908.2188,560.9844 908.125,560.9531 907.7969,560.7813 C907.4219,560.5938 907.1563,560.2031 907.1563,559.8438 C907.1563,559.1094 908.0156,558.5469 909.0781,558.5469 C910.1406,558.5469 910.9531,559.0156 911.1094,559.6875 C911.2188,560.2344 911.2188,560.2344 911.3438,560.375 C911.4844,560.5 911.7188,560.6094 911.9531,560.6094 C912.2188,560.6094 912.4688,560.4688 912.6406,560.25 C912.75,560.0781 912.7813,559.9375 912.7813,559.4688 L912.7813,557.9688 Z " fill="#000000"/><text fill="#000000" font-family="sans-serif" font-size="14" lengthAdjust="spacing" textLength="98" x="928" y="566.8467">message_info</text><line style="stroke:#181818;stroke-width:0.5;" x1="872.5" x2="1050.5" y1="578" y2="578"/><ellipse cx="882.5" cy="591.6484" fill="none" rx="3" ry="3" style="stroke:#038048;stroke-width:1.0;"/><text fill="#000000" font-family="sans-serif" font-size="14" lengthAdjust="spacing" textLength="100" x="891.5" y="594.9951">tag: identifier</text><ellipse cx="882.5" cy="607.9453" fill="none" rx="3" ry="3" style="stroke:#038048;stroke-width:1.0;"/><text fill="#000000" font-family="sans-serif" font-size="14" lengthAdjust="spacing" textLength="154" x="891.5" y="611.292">args: argument_info[]</text><line style="stroke:#181818;stroke-width:0.5;" x1="872.5" x2="1050.5" y1="618.5938" y2="618.5938"/></g><!--class interval_info--><g id="elem_interval_info"><rect codeLine="80" fill="#F1F1F1" height="48" id="interval_info" rx="2.5" ry="2.5" style="stroke:#181818;stroke-width:0.5;" width="122" x="1023.5" y="720.5"/><ellipse cx="1038.5" cy="736.5" fill="#F1F1F1" rx="11" ry="11" style="stroke:#181818;stroke-width:1.0;"/><path d="M1042.2813,732.4688 C1042.2813,732.0313 1042.2656,731.8906 1042.1719,731.7344 C1042.0313,731.5 1041.75,731.3438 1041.4531,731.3438 C1041.1094,731.3438 1040.9688,731.4844 1040.7969,731.9063 C1040.2031,731.5313 1039.4531,731.3438 1038.5781,731.3438 C1036.4688,731.3438 1034.8906,732.6406 1034.8906,734.3594 C1034.8906,735.3281 1035.4219,736.2344 1036.2813,736.7188 C1036.8281,737.0313 1037.375,737.2031 1038.4844,737.3906 C1039.6406,737.5938 1039.9063,737.6563 1040.2656,737.8438 C1040.6406,738.0469 1040.875,738.3906 1040.875,738.75 C1040.875,739.4844 1039.8906,740.0313 1038.6406,740.0313 C1037.5156,740.0313 1036.4375,739.5469 1036.2656,738.9375 C1036.1406,738.4688 1036.1406,738.4688 1036.0156,738.3594 C1035.8594,738.2031 1035.6406,738.1094 1035.4063,738.1094 C1035.125,738.1094 1034.875,738.2344 1034.7031,738.4531 C1034.5938,738.625 1034.5469,738.8125 1034.5469,739.2344 L1034.5469,740.3594 C1034.5469,741.125 1034.8281,741.4844 1035.4219,741.4844 C1035.6875,741.4844 1035.8125,741.4219 1036.0938,741.0781 C1036.9375,741.5156 1037.8281,741.7344 1038.75,741.7344 C1041.0781,741.7344 1042.6406,740.5469 1042.6406,738.7813 C1042.6406,737.8906 1042.3281,737.2031 1041.6406,736.6563 C1041.1094,736.2344 1040.4688,735.9844 1038.9844,735.7188 C1037.7188,735.4844 1037.625,735.4531 1037.2969,735.2813 C1036.9219,735.0938 1036.6563,734.7031 1036.6563,734.3438 C1036.6563,733.6094 1037.5156,733.0469 1038.5781,733.0469 C1039.6406,733.0469 1040.4531,733.5156 1040.6094,734.1875 C1040.7188,734.7344 1040.7188,734.7344 1040.8438,734.875 C1040.9844,735 1041.2188,735.1094 1041.4531,735.1094 C1041.7188,735.1094 1041.9688,734.9688 1042.1406,734.75 C1042.25,734.5781 1042.2813,734.4375 1042.2813,733.9688 L1042.2813,732.4688 Z " fill="#000000"/><text fill="#000000" font-family="sans-serif" font-size="14" lengthAdjust="spacing" textLength="90" x="1052.5" y="741.3467">interval_info</text><line style="stroke:#181818;stroke-width:0.5;" x1="1024.5" x2="1144.5" y1="752.5" y2="752.5"/><line style="stroke:#181818;stroke-width:0.5;" x1="1024.5" x2="1144.5" y1="760.5" y2="760.5"/></g><!--class heartbeat_info--><g id="elem_heartbeat_info"><rect codeLine="88" fill="#F1F1F1" height="48" id="heartbeat_info" rx="2.5" ry="2.5" style="stroke:#181818;stroke-width:0.5;" width="140" x="829.5" y="720.5"/><ellipse cx="844.5" cy="736.5" fill="#F1F1F1" rx="11" ry="11" style="stroke:#181818;stroke-width:1.0;"/><path d="M848.2813,732.4688 C848.2813,732.0313 848.2656,731.8906 848.1719,731.7344 C848.0313,731.5 847.75,731.3438 847.4531,731.3438 C847.1094,731.3438 846.9688,731.4844 846.7969,731.9063 C846.2031,731.5313 845.4531,731.3438 844.5781,731.3438 C842.4688,731.3438 840.8906,732.6406 840.8906,734.3594 C840.8906,735.3281 841.4219,736.2344 842.2813,736.7188 C842.8281,737.0313 843.375,737.2031 844.4844,737.3906 C845.6406,737.5938 845.9063,737.6563 846.2656,737.8438 C846.6406,738.0469 846.875,738.3906 846.875,738.75 C846.875,739.4844 845.8906,740.0313 844.6406,740.0313 C843.5156,740.0313 842.4375,739.5469 842.2656,738.9375 C842.1406,738.4688 842.1406,738.4688 842.0156,738.3594 C841.8594,738.2031 841.6406,738.1094 841.4063,738.1094 C841.125,738.1094 840.875,738.2344 840.7031,738.4531 C840.5938,738.625 840.5469,738.8125 840.5469,739.2344 L840.5469,740.3594 C840.5469,741.125 840.8281,741.4844 841.4219,741.4844 C841.6875,741.4844 841.8125,741.4219 842.0938,741.0781 C842.9375,741.5156 843.8281,741.7344 844.75,741.7344 C847.0781,741.7344 848.6406,740.5469 848.6406,738.7813 C848.6406,737.8906 848.3281,737.2031 847.6406,736.6563 C847.1094,736.2344 846.4688,735.9844 844.9844,735.7188 C843.7188,735.4844 843.625,735.4531 843.2969,735.2813 C842.9219,735.0938 842.6563,734.7031 842.6563,734.3438 C842.6563,733.6094 843.5156,733.0469 844.5781,733.0469 C845.6406,733.0469 846.4531,733.5156 846.6094,734.1875 C846.7188,734.7344 846.7188,734.7344 846.8438,734.875 C846.9844,735 847.2188,735.1094 847.4531,735.1094 C847.7188,735.1094 847.9688,734.9688 848.1406,734.75 C848.25,734.5781 848.2813,734.4375 848.2813,733.9688 L848.2813,732.4688 Z " fill="#000000"/><text fill="#000000" font-family="sans-serif" font-size="14" lengthAdjust="spacing" textLength="108" x="858.5" y="741.3467">heartbeat_info</text><line style="stroke:#181818;stroke-width:0.5;" x1="830.5" x2="968.5" y1="752.5" y2="752.5"/><line style="stroke:#181818;stroke-width:0.5;" x1="830.5" x2="968.5" y1="760.5" y2="760.5"/></g><!--class finish_info--><g id="elem_finish_info"><rect codeLine="90" fill="#F1F1F1" height="64.2969" id="finish_info" rx="2.5" ry="2.5" style="stroke:#181818;stroke-width:0.5;" width="106" x="714.5" y="862"/><ellipse cx="729.5" cy="878" fill="#F1F1F1" rx="11" ry="11" style="stroke:#181818;stroke-width:1.0;"/><path d="M733.2813,873.9688 C733.2813,873.5313 733.2656,873.3906 733.1719,873.2344 C733.0313,873 732.75,872.8438 732.4531,872.8438 C732.1094,872.8438 731.9688,872.9844 731.7969,873.4063 C731.2031,873.0313 730.4531,872.8438 729.5781,872.8438 C727.4688,872.8438 725.8906,874.1406 725.8906,875.8594 C725.8906,876.8281 726.4219,877.7344 727.2813,878.2188 C727.8281,878.5313 728.375,878.7031 729.4844,878.8906 C730.6406,879.0938 730.9063,879.1563 731.2656,879.3438 C731.6406,879.5469 731.875,879.8906 731.875,880.25 C731.875,880.9844 730.8906,881.5313 729.6406,881.5313 C728.5156,881.5313 727.4375,881.0469 727.2656,880.4375 C727.1406,879.9688 727.1406,879.9688 727.0156,879.8594 C726.8594,879.7031 726.6406,879.6094 726.4063,879.6094 C726.125,879.6094 725.875,879.7344 725.7031,879.9531 C725.5938,880.125 725.5469,880.3125 725.5469,880.7344 L725.5469,881.8594 C725.5469,882.625 725.8281,882.9844 726.4219,882.9844 C726.6875,882.9844 726.8125,882.9219 727.0938,882.5781 C727.9375,883.0156 728.8281,883.2344 729.75,883.2344 C732.0781,883.2344 733.6406,882.0469 733.6406,880.2813 C733.6406,879.3906 733.3281,878.7031 732.6406,878.1563 C732.1094,877.7344 731.4688,877.4844 729.9844,877.2188 C728.7188,876.9844 728.625,876.9531 728.2969,876.7813 C727.9219,876.5938 727.6563,876.2031 727.6563,875.8438 C727.6563,875.1094 728.5156,874.5469 729.5781,874.5469 C730.6406,874.5469 731.4531,875.0156 731.6094,875.6875 C731.7188,876.2344 731.7188,876.2344 731.8438,876.375 C731.9844,876.5 732.2188,876.6094 732.4531,876.6094 C732.7188,876.6094 732.9688,876.4688 733.1406,876.25 C733.25,876.0781 733.2813,875.9375 733.2813,875.4688 L733.2813,873.9688 Z " fill="#000000"/><text fill="#000000" font-family="sans-serif" font-size="14" lengthAdjust="spacing" textLength="74" x="743.5" y="882.8467">finish_info</text><line style="stroke:#181818;stroke-width:0.5;" x1="715.5" x2="819.5" y1="894" y2="894"/><ellipse cx="725.5" cy="907.6484" fill="none" rx="3" ry="3" style="stroke:#038048;stroke-width:1.0;"/><text fill="#000000" font-family="sans-serif" font-size="14" lengthAdjust="spacing" textLength="79" x="734.5" y="910.9951">clean: bool</text><line style="stroke:#181818;stroke-width:0.5;" x1="715.5" x2="819.5" y1="918.2969" y2="918.2969"/></g><!--link reader to main--><g id="link_reader_main"><path codeLine="9" d="M55.4024,623.7528 C47.6279,635.0868 43.4917,643.49 39.5,657 C34.2201,674.869 33.3651,683.8032 35.3245,700.5572 " fill="none" id="reader-main" style="stroke:#181818;stroke-width:1.0;"/><polygon fill="#181818" points="58.7963,618.805,50.4068,623.9641,55.968,622.9282,57.0039,628.4894,58.7963,618.805" style="stroke:#181818;stroke-width:1.0;"/><polygon fill="#181818" points="36.7184,712.476,39.9944,706.052,35.3245,700.5572,32.0485,706.9813,36.7184,712.476" style="stroke:#181818;stroke-width:1.0;"/><text fill="#000000" font-family="sans-serif" font-size="13" lengthAdjust="spacing" textLength="52" x="40.5" y="670.0669">execute</text></g><!--reverse link reader to concrete_reader--><g id="link_reader_concrete_reader"><path codeLine="16" d="M105.5526,634.8182 C114.0438,652.3972 118.465,657.814 133.5,674 C143.698,684.979 155.954,695.088 168.417,703.999 " fill="none" id="reader-backto-concrete_reader" style="stroke:#181818;stroke-width:1.0;"/><polygon fill="none" points="97.7235,618.61,100.1498,637.4279,110.9553,632.2085,97.7235,618.61" style="stroke:#181818;stroke-width:1.0;"/><text fill="#000000" font-family="sans-serif" font-size="13" lengthAdjust="spacing" textLength="76" x="134.5" y="670.0669">implements</text></g><!--link parser_input to concrete_reader--><g id="link_parser_input_concrete_reader"><path codeLine="22" d="M305.7148,417.5108 C288.8978,449.9238 266.732,497.305 254.5,546 C241.043,599.572 237.9446,651.6022 237.3816,691.9182 " fill="none" id="parser_input-concrete_reader" style="stroke:#181818;stroke-width:1.0;"/><polygon fill="#181818" points="308.478,412.185,300.7826,418.3316,306.1753,416.6232,307.8837,422.0159,308.478,412.185" style="stroke:#181818;stroke-width:1.0;"/><polygon fill="#181818" points="237.214,703.917,241.2974,697.9734,237.3816,691.9182,233.2982,697.8617,237.214,703.917" style="stroke:#181818;stroke-width:1.0;"/><text fill="#000000" font-family="sans-serif" font-size="13" lengthAdjust="spacing" textLength="92" x="255.5" y="591.0669">consume_text</text></g><!--reverse link parser_input to concrete_parser--><g id="link_parser_input_concrete_parser"><path codeLine="29" d="M335.7131,429.6469 C342.4711,458.5059 351.345,484.142 373.5,516 C381.011,526.801 390.621,536.892 400.619,545.853 " fill="none" id="parser_input-backto-concrete_parser" style="stroke:#181818;stroke-width:1.0;"/><polygon fill="none" points="331.609,412.121,329.8711,431.0149,341.555,428.2789,331.609,412.121" style="stroke:#181818;stroke-width:1.0;"/><text fill="#000000" font-family="sans-serif" font-size="13" lengthAdjust="spacing" textLength="76" x="374.5" y="512.0669">implements</text></g><!--link stream_sink to concrete_parser--><g id="link_stream_sink_concrete_parser"><path codeLine="46" d="M704.1498,414.4769 C646.4738,433.6299 583.532,460.098 529.5,499 C511.799,511.745 503.0509,520.1973 490.5199,536.4473 " fill="none" id="stream_sink-concrete_parser" style="stroke:#181818;stroke-width:1.0;"/><polygon fill="#181818" points="709.844,412.586,700.042,411.6262,705.0988,414.1618,702.5633,419.2186,709.844,412.586" style="stroke:#181818;stroke-width:1.0;"/><polygon fill="#181818" points="483.192,545.95,490.0235,543.6413,490.5199,536.4473,483.6884,538.756,483.192,545.95" style="stroke:#181818;stroke-width:1.0;"/><text fill="#000000" font-family="sans-serif" font-size="13" lengthAdjust="spacing" textLength="59" x="530.5" y="512.0669">consume</text></g><!--reverse link stream_sink to concrete_sink--><g id="link_stream_sink_concrete_sink"><path codeLine="47" d="M700.2646,481.537 C675.1476,504.669 663.359,518.656 643.5,546 C623.151,574.019 586.425,664.235 567.497,712.444 " fill="none" id="stream_sink-backto-concrete_sink" style="stroke:#181818;stroke-width:1.0;"/><polygon fill="none" points="713.505,469.343,696.2,477.1235,704.3293,485.9504,713.505,469.343" style="stroke:#181818;stroke-width:1.0;"/><text fill="#000000" font-family="sans-serif" font-size="13" lengthAdjust="spacing" textLength="76" x="644.5" y="591.0669">implements</text></g><!--reverse link begin_info to stream_sink--><g id="link_begin_info_stream_sink"><path codeLine="60" d="M743.9067,77.2184 C730.9077,112.1544 713.06,174.613 729.5,230 C735.736,251.009 745.974,271.826 757.515,290.941 " fill="none" id="begin_info-backto-stream_sink" style="stroke:#181818;stroke-width:1.0;"/><polygon fill="#181818" points="745.999,71.595,739.1116,78.6351,744.2554,76.2811,746.6094,81.4249,745.999,71.595" style="stroke:#181818;stroke-width:1.0;"/></g><!--reverse link description_info to stream_sink--><g id="link_description_info_stream_sink"><path codeLine="61" d="M983.6763,94.123 C975.5123,131.952 961.732,183.909 938.5,230 C928.013,250.806 914.565,271.695 900.652,290.975 " fill="none" id="description_info-backto-stream_sink" style="stroke:#181818;stroke-width:1.0;"/><polygon fill="#181818" points="984.942,88.258,979.1334,96.2116,983.8872,93.1455,986.9534,97.8993,984.942,88.258" style="stroke:#181818;stroke-width:1.0;"/></g><!--reverse link declare_state_info to stream_sink--><g id="link_declare_state_info_stream_sink"><path codeLine="70" d="M832.5687,236.0106 C831.8177,253.7156 831.153,269.369 830.251,290.619 " fill="none" id="declare_state_info-backto-stream_sink" style="stroke:#181818;stroke-width:1.0;"/><polygon fill="#181818" points="832.823,230.016,828.4452,238.8384,832.6111,235.0115,836.438,239.1774,832.823,230.016" style="stroke:#181818;stroke-width:1.0;"/></g><!--reverse link active_state_info to stream_sink--><g id="link_active_state_info_stream_sink"><path codeLine="71" d="M1054.4583,224.9859 C1022.7283,246.4229 984.038,272.563 943.085,300.232 " fill="none" id="active_state_info-backto-stream_sink" style="stroke:#181818;stroke-width:1.0;"/><polygon fill="#181818" points="1059.43,221.627,1049.7332,223.3509,1055.2869,224.4261,1054.2117,229.9798,1059.43,221.627" style="stroke:#181818;stroke-width:1.0;"/></g><!--link begin_info to declare_state_info--><!--link description_info to active_state_info--><!--link stream_sink to message_info--><g id="link_stream_sink_message_info"><path codeLine="82" d="M884.732,469.21 C902.358,495.911 917.5385,518.9066 931.9525,540.7416 " fill="none" id="stream_sink-to-message_info" style="stroke:#181818;stroke-width:1.0;"/><polygon fill="#181818" points="935.258,545.749,933.638,536.0343,932.5034,541.5762,926.9615,540.4417,935.258,545.749" style="stroke:#181818;stroke-width:1.0;"/></g><!--link stream_sink to interval_info--><g id="link_stream_sink_interval_info"><path codeLine="83" d="M943.214,432.332 C990.2,459.196 1039.94,496.874 1068.5,546 C1100.83,601.614 1095.3507,675.427 1089.5707,714.376 " fill="none" id="stream_sink-to-interval_info" style="stroke:#181818;stroke-width:1.0;"/><polygon fill="#181818" points="1088.69,720.311,1093.9678,711.9957,1089.424,715.3652,1086.0545,710.8213,1088.69,720.311" style="stroke:#181818;stroke-width:1.0;"/></g><!--link declare_state_info to message_info--><!--link active_state_info to interval_info--><!--link stream_sink to heartbeat_info--><g id="link_stream_sink_heartbeat_info"><path codeLine="93" d="M830.464,469.09 C834.017,516.431 840.749,575.493 853.5,627 C861.809,660.562 875.0115,691.9333 885.7415,715.0123 " fill="none" id="stream_sink-to-heartbeat_info" style="stroke:#181818;stroke-width:1.0;"/><polygon fill="#181818" points="888.271,720.453,888.1039,710.6056,886.1631,715.9191,880.8496,713.9783,888.271,720.453" style="stroke:#181818;stroke-width:1.0;"/></g><!--link stream_sink to finish_info--><g id="link_stream_sink_finish_info"><path codeLine="94" d="M816.358,469.016 C802.932,585.526 780.6149,779.1894 771.7839,855.8234 " fill="none" id="stream_sink-to-finish_info" style="stroke:#181818;stroke-width:1.0;"/><polygon fill="#181818" points="771.097,861.784,776.101,853.3011,771.6694,856.8169,768.1536,852.3853,771.097,861.784" style="stroke:#181818;stroke-width:1.0;"/></g><!--link message_info to heartbeat_info--><!--link message_info to interval_info--><!--link interval_info to finish_info--><!--reverse link concrete_reader to input--><g id="link_concrete_reader_input"><path codeLine="100" d="M237.5,791.027 C237.5,818.505 237.5,848.1266 237.5,870.7805 " fill="none" id="concrete_reader-backto-input" style="stroke:#FF0000;stroke-width:8.0;"/><polygon fill="#FF0000" points="237.5,785.027,233.5,794.027,237.5,790.027,241.5,794.027,237.5,785.027" style="stroke:#FF0000;stroke-width:8.0;"/><text fill="#000000" font-family="sans-serif" font-size="13" lengthAdjust="spacing" textLength="29" x="238.5" y="828.0669">read</text></g><!--reverse link concrete_parser to concrete_reader--><g id="link_concrete_parser_concrete_reader"><path codeLine="101" d="M396.0671,630.5481 C362.9931,654.1081 326.051,680.423 292.987,703.975 " fill="none" id="concrete_parser-backto-concrete_reader" style="stroke:#FF0000;stroke-width:8.0;"/><polygon fill="#FF0000" points="400.954,627.067,391.3029,629.0308,396.8816,629.9679,395.9444,635.5466,400.954,627.067" style="stroke:#FF0000;stroke-width:8.0;"/><text fill="#000000" font-family="sans-serif" font-size="13" lengthAdjust="spacing" textLength="92" x="355.5" y="670.0669">consume_text</text></g><!--link concrete_parser to concrete_sink--><g id="link_concrete_parser_concrete_sink"><path codeLine="102" d="M481.738,627.269 C498.523,653.719 517.0379,682.8941 532.5569,707.3471 " fill="none" id="concrete_parser-to-concrete_sink" style="stroke:#FF0000;stroke-width:8.0;"/><polygon fill="#FF0000" points="535.772,712.413,534.3267,702.6708,533.0928,708.1914,527.5721,706.9575,535.772,712.413" style="stroke:#FF0000;stroke-width:8.0;"/><text fill="#000000" font-family="sans-serif" font-size="13" lengthAdjust="spacing" textLength="59" x="510.5" y="670.0669">consume</text></g><!--link concrete_sink to output--><g id="link_concrete_sink_output"><path codeLine="103" d="M555.5,776.781 C555.5,805.026 555.5,839.8772 555.5,864.8679 " fill="none" id="concrete_sink-to-output" style="stroke:#FF0000;stroke-width:8.0;"/><polygon fill="#FF0000" points="555.5,870.8679,559.5,861.8679,555.5,865.8679,551.5,861.8679,555.5,870.8679" style="stroke:#FF0000;stroke-width:8.0;"/><text fill="#000000" font-family="sans-serif" font-size="13" lengthAdjust="spacing" textLength="32" x="556.5" y="828.0669">write</text></g><!--SRC=[ZLLDZziW4BtpAz3sactBlRAsUzzJVq2qiWYUE6XjR07URjNclnS3IHWFgNg9o7oycVTcmDAOoKkl9yD7gGt_pJZ_ifvsZ-pCc3OUx54gu1Pa1pRvxPBTsVWanEUKtd3u0BLuO4mDqZck9gCiU6YBVE6qUMluBAq3ssepBxwA-aS8ajzmFSu3Z62yAzihmLAJ8TCj8xGUFlpEUQjD7z5HPEoSrYXp2PC4K389w237Tltp_vKHkunvZrrH097R7Q3N9Y0UfyVIt85JLi_hM6lEGCX2wyBSWRgbylhzhdS4vsHVSSHct-L0FIUGrXz0UkewQgFTATlFH6dAz-KIMIg2XtYLCkVWKAHwD67DrJ0j7KyZaeu_lAodXz34ERkcnLzyF-8nETSgY_ByDf1epjRjF1AfJhjvaBzQ8qU8InGM9TflqLVpcHN8WJ3QEGA_3RZriHrzwYHXUza7CReWX3vgiAi3J4VCLrPaKn8OZQ-KtNP8iGY7GW2nF-akL7WL5KfKZYASrBbgKsvsdKWmITkxXeVVPTsN6Bj_lIc2Bi5b0QxB9yGpgaASA9tLP2kO82GgNn6vWSszucjPRcjnA_Fj6q26LJnCqr2XX868kq1Z38bSjBZ1k1U6cM2rYp1KSlkwFudz9mlTLt_Iwis4Gj-_HUJrLZVnCyUsRqazvT-V3KvGQY3Fv36wl5hONi_DRr73VrhjuIy0]--></g></svg>